M48
; DRILL file {KiCad 7.0.7} date Fri Oct 11 15:58:05 2024
; FORMAT={-:-/ absolute / inch / decimal}
; #@! TF.CreationDate,2024-10-11T15:58:05+09:00
; #@! TF.GenerationSoftware,Kicad,Pcbnew,7.0.7
; #@! TF.FileFunction,Plated,1,2,PTH
FMAT,2
INCH
; #@! TA.AperFunction,Plated,PTH,ViaDrill
T1C0.0157
; #@! TA.AperFunction,Plated,PTH,ComponentDrill
T2C0.0236
; #@! TA.AperFunction,Plated,PTH,ComponentDrill
T3C0.0295
; #@! TA.AperFunction,Plated,PTH,ComponentDrill
T4C0.0315
; #@! TA.AperFunction,Plated,PTH,ComponentDrill
T5C0.0354
; #@! TA.AperFunction,Plated,PTH,ComponentDrill
T6C0.0394
; #@! TA.AperFunction,Plated,PTH,ComponentDrill
T7C0.0433
%
G90
G05
T1
X1.9Y-2.65
X2.025Y-1.45
X2.1Y-1.65
X2.1Y-1.75
X2.225Y-1.75
X2.475Y-2.125
X2.5Y-2.35
X2.55Y-3.9
X2.625Y-2.2
X2.625Y-2.4
X2.675Y-2.3
X2.775Y-1.725
X2.95Y-1.9
X3.0Y-1.85
X3.05Y-1.45
X3.1Y-1.5
X3.1Y-1.6
X3.175Y-1.55
X3.175Y-1.925
X3.175Y-2.075
X3.175Y-2.9
T3
X2.65Y-3.0
X2.65Y-3.05
X2.65Y-3.1
X3.15Y-3.95
X3.2Y-3.95
X3.25Y-3.95
T4
X1.55Y-2.9
X1.55Y-3.25
X1.55Y-3.6
X1.5516Y-3.05
X1.5516Y-3.4
X1.5516Y-3.75
X1.7Y-1.6
X1.7Y-1.9
X1.7016Y-1.45
X1.7484Y-3.05
X1.7484Y-3.4
X1.7484Y-3.75
X1.85Y-2.9
X1.85Y-3.25
X1.85Y-3.6
X1.8984Y-1.45
X1.9Y-1.6016
X1.9Y-1.7984
X2.4Y-3.35
X2.5Y-3.35
X2.65Y-3.25
X2.65Y-3.35
X2.85Y-3.0
X2.85Y-3.6
X2.85Y-3.75
X3.0Y-3.0
X3.0Y-3.4
X3.15Y-3.75
X3.2Y-4.2
X3.3Y-4.2
T5
X2.4Y-3.15
X2.5Y-3.15
T6
X2.15Y-2.5
X2.15Y-2.6
X2.25Y-2.5
X2.25Y-2.6
X2.35Y-2.5
X2.35Y-2.6
X2.45Y-2.5
X2.45Y-2.6
X2.55Y-2.5
X2.55Y-2.6
X2.65Y-2.5
X2.65Y-2.6
X2.75Y-2.5
X2.75Y-2.6
X2.85Y-2.5
X2.85Y-2.6
X2.85Y-4.2
X2.95Y-4.2
X3.05Y-4.2
X3.1768Y-2.999
X3.1768Y-3.099
X3.1768Y-3.199
X3.1768Y-3.299
X3.1768Y-3.399
X3.1768Y-3.499
T7
X1.7941Y-4.0728
X1.7941Y-4.25
X1.972Y-2.8978
X1.972Y-3.075
X1.972Y-3.25
X1.972Y-3.4272
X1.972Y-3.6
X1.972Y-3.7772
X2.05Y-4.0728
X2.05Y-4.25
X2.228Y-2.8978
X2.228Y-3.075
X2.228Y-3.25
X2.228Y-3.4272
X2.228Y-3.6
X2.228Y-3.7772
T2
G00X2.3602Y-4.3098
M15
G01X2.3602Y-4.2902
M16
G05
G00X2.6398Y-4.3098
M15
G01X2.6398Y-4.2902
M16
G05
T0
M30
