%TF.GenerationSoftware,KiCad,Pcbnew,7.0.7*%
%TF.CreationDate,2024-10-11T15:58:01+09:00*%
%TF.ProjectId,ESP32-hub75,45535033-322d-4687-9562-37352e6b6963,rev?*%
%TF.SameCoordinates,Original*%
%TF.FileFunction,Soldermask,Top*%
%TF.FilePolarity,Negative*%
%FSLAX46Y46*%
G04 Gerber Fmt 4.6, Leading zero omitted, Abs format (unit mm)*
G04 Created by KiCad (PCBNEW 7.0.7) date 2024-10-11 15:58:01*
%MOMM*%
%LPD*%
G01*
G04 APERTURE LIST*
G04 Aperture macros list*
%AMRoundRect*
0 Rectangle with rounded corners*
0 $1 Rounding radius*
0 $2 $3 $4 $5 $6 $7 $8 $9 X,Y pos of 4 corners*
0 Add a 4 corners polygon primitive as box body*
4,1,4,$2,$3,$4,$5,$6,$7,$8,$9,$2,$3,0*
0 Add four circle primitives for the rounded corners*
1,1,$1+$1,$2,$3*
1,1,$1+$1,$4,$5*
1,1,$1+$1,$6,$7*
1,1,$1+$1,$8,$9*
0 Add four rect primitives between the rounded corners*
20,1,$1+$1,$2,$3,$4,$5,0*
20,1,$1+$1,$4,$5,$6,$7,0*
20,1,$1+$1,$6,$7,$8,$9,0*
20,1,$1+$1,$8,$9,$2,$3,0*%
G04 Aperture macros list end*
%ADD10C,0.300000*%
%ADD11C,1.600000*%
%ADD12O,1.600000X1.600000*%
%ADD13C,2.000000*%
%ADD14R,2.000000X2.000000*%
%ADD15R,0.900000X0.900000*%
%ADD16R,1.500000X0.900000*%
%ADD17R,0.900000X1.500000*%
%ADD18RoundRect,0.225000X-0.225000X-2.025000X0.225000X-2.025000X0.225000X2.025000X-0.225000X2.025000X0*%
%ADD19O,1.000000X1.500000*%
%ADD20R,1.800000X1.800000*%
%ADD21C,1.800000*%
%ADD22RoundRect,0.250000X0.600000X-0.600000X0.600000X0.600000X-0.600000X0.600000X-0.600000X-0.600000X0*%
%ADD23C,1.700000*%
%ADD24R,1.700000X1.700000*%
%ADD25O,1.700000X1.700000*%
%ADD26RoundRect,0.250000X0.350000X-0.850000X0.350000X0.850000X-0.350000X0.850000X-0.350000X-0.850000X0*%
%ADD27RoundRect,0.249997X2.650003X-2.950003X2.650003X2.950003X-2.650003X2.950003X-2.650003X-2.950003X0*%
%ADD28R,1.500000X1.050000*%
%ADD29O,1.500000X1.050000*%
%ADD30R,1.050000X1.500000*%
%ADD31O,1.050000X1.500000*%
G04 APERTURE END LIST*
D10*
X86645114Y-66120489D02*
X86645114Y-65620489D01*
X87430828Y-65406203D02*
X87430828Y-66120489D01*
X87430828Y-66120489D02*
X85930828Y-66120489D01*
X85930828Y-66120489D02*
X85930828Y-65406203D01*
X87359400Y-64834774D02*
X87430828Y-64620489D01*
X87430828Y-64620489D02*
X87430828Y-64263346D01*
X87430828Y-64263346D02*
X87359400Y-64120489D01*
X87359400Y-64120489D02*
X87287971Y-64049060D01*
X87287971Y-64049060D02*
X87145114Y-63977631D01*
X87145114Y-63977631D02*
X87002257Y-63977631D01*
X87002257Y-63977631D02*
X86859400Y-64049060D01*
X86859400Y-64049060D02*
X86787971Y-64120489D01*
X86787971Y-64120489D02*
X86716542Y-64263346D01*
X86716542Y-64263346D02*
X86645114Y-64549060D01*
X86645114Y-64549060D02*
X86573685Y-64691917D01*
X86573685Y-64691917D02*
X86502257Y-64763346D01*
X86502257Y-64763346D02*
X86359400Y-64834774D01*
X86359400Y-64834774D02*
X86216542Y-64834774D01*
X86216542Y-64834774D02*
X86073685Y-64763346D01*
X86073685Y-64763346D02*
X86002257Y-64691917D01*
X86002257Y-64691917D02*
X85930828Y-64549060D01*
X85930828Y-64549060D02*
X85930828Y-64191917D01*
X85930828Y-64191917D02*
X86002257Y-63977631D01*
X87430828Y-63334775D02*
X85930828Y-63334775D01*
X85930828Y-63334775D02*
X85930828Y-62763346D01*
X85930828Y-62763346D02*
X86002257Y-62620489D01*
X86002257Y-62620489D02*
X86073685Y-62549060D01*
X86073685Y-62549060D02*
X86216542Y-62477632D01*
X86216542Y-62477632D02*
X86430828Y-62477632D01*
X86430828Y-62477632D02*
X86573685Y-62549060D01*
X86573685Y-62549060D02*
X86645114Y-62620489D01*
X86645114Y-62620489D02*
X86716542Y-62763346D01*
X86716542Y-62763346D02*
X86716542Y-63334775D01*
X85930828Y-61977632D02*
X85930828Y-61049060D01*
X85930828Y-61049060D02*
X86502257Y-61549060D01*
X86502257Y-61549060D02*
X86502257Y-61334775D01*
X86502257Y-61334775D02*
X86573685Y-61191918D01*
X86573685Y-61191918D02*
X86645114Y-61120489D01*
X86645114Y-61120489D02*
X86787971Y-61049060D01*
X86787971Y-61049060D02*
X87145114Y-61049060D01*
X87145114Y-61049060D02*
X87287971Y-61120489D01*
X87287971Y-61120489D02*
X87359400Y-61191918D01*
X87359400Y-61191918D02*
X87430828Y-61334775D01*
X87430828Y-61334775D02*
X87430828Y-61763346D01*
X87430828Y-61763346D02*
X87359400Y-61906203D01*
X87359400Y-61906203D02*
X87287971Y-61977632D01*
X86073685Y-60477632D02*
X86002257Y-60406204D01*
X86002257Y-60406204D02*
X85930828Y-60263347D01*
X85930828Y-60263347D02*
X85930828Y-59906204D01*
X85930828Y-59906204D02*
X86002257Y-59763347D01*
X86002257Y-59763347D02*
X86073685Y-59691918D01*
X86073685Y-59691918D02*
X86216542Y-59620489D01*
X86216542Y-59620489D02*
X86359400Y-59620489D01*
X86359400Y-59620489D02*
X86573685Y-59691918D01*
X86573685Y-59691918D02*
X87430828Y-60549061D01*
X87430828Y-60549061D02*
X87430828Y-59620489D01*
X87430828Y-57834776D02*
X85930828Y-57834776D01*
X86645114Y-57834776D02*
X86645114Y-56977633D01*
X87430828Y-56977633D02*
X85930828Y-56977633D01*
X85930828Y-56263347D02*
X87145114Y-56263347D01*
X87145114Y-56263347D02*
X87287971Y-56191918D01*
X87287971Y-56191918D02*
X87359400Y-56120490D01*
X87359400Y-56120490D02*
X87430828Y-55977632D01*
X87430828Y-55977632D02*
X87430828Y-55691918D01*
X87430828Y-55691918D02*
X87359400Y-55549061D01*
X87359400Y-55549061D02*
X87287971Y-55477632D01*
X87287971Y-55477632D02*
X87145114Y-55406204D01*
X87145114Y-55406204D02*
X85930828Y-55406204D01*
X86645114Y-54191918D02*
X86716542Y-53977632D01*
X86716542Y-53977632D02*
X86787971Y-53906203D01*
X86787971Y-53906203D02*
X86930828Y-53834775D01*
X86930828Y-53834775D02*
X87145114Y-53834775D01*
X87145114Y-53834775D02*
X87287971Y-53906203D01*
X87287971Y-53906203D02*
X87359400Y-53977632D01*
X87359400Y-53977632D02*
X87430828Y-54120489D01*
X87430828Y-54120489D02*
X87430828Y-54691918D01*
X87430828Y-54691918D02*
X85930828Y-54691918D01*
X85930828Y-54691918D02*
X85930828Y-54191918D01*
X85930828Y-54191918D02*
X86002257Y-54049061D01*
X86002257Y-54049061D02*
X86073685Y-53977632D01*
X86073685Y-53977632D02*
X86216542Y-53906203D01*
X86216542Y-53906203D02*
X86359400Y-53906203D01*
X86359400Y-53906203D02*
X86502257Y-53977632D01*
X86502257Y-53977632D02*
X86573685Y-54049061D01*
X86573685Y-54049061D02*
X86645114Y-54191918D01*
X86645114Y-54191918D02*
X86645114Y-54691918D01*
X85930828Y-53334775D02*
X85930828Y-52334775D01*
X85930828Y-52334775D02*
X87430828Y-52977632D01*
X85930828Y-51049061D02*
X85930828Y-51763347D01*
X85930828Y-51763347D02*
X86645114Y-51834775D01*
X86645114Y-51834775D02*
X86573685Y-51763347D01*
X86573685Y-51763347D02*
X86502257Y-51620490D01*
X86502257Y-51620490D02*
X86502257Y-51263347D01*
X86502257Y-51263347D02*
X86573685Y-51120490D01*
X86573685Y-51120490D02*
X86645114Y-51049061D01*
X86645114Y-51049061D02*
X86787971Y-50977632D01*
X86787971Y-50977632D02*
X87145114Y-50977632D01*
X87145114Y-50977632D02*
X87287971Y-51049061D01*
X87287971Y-51049061D02*
X87359400Y-51120490D01*
X87359400Y-51120490D02*
X87430828Y-51263347D01*
X87430828Y-51263347D02*
X87430828Y-51620490D01*
X87430828Y-51620490D02*
X87359400Y-51763347D01*
X87359400Y-51763347D02*
X87287971Y-51834775D01*
X86645114Y-50334776D02*
X86645114Y-49834776D01*
X87430828Y-49620490D02*
X87430828Y-50334776D01*
X87430828Y-50334776D02*
X85930828Y-50334776D01*
X85930828Y-50334776D02*
X85930828Y-49620490D01*
X87430828Y-47120490D02*
X87430828Y-47834776D01*
X87430828Y-47834776D02*
X85930828Y-47834776D01*
X86645114Y-46620490D02*
X86645114Y-46120490D01*
X87430828Y-45906204D02*
X87430828Y-46620490D01*
X87430828Y-46620490D02*
X85930828Y-46620490D01*
X85930828Y-46620490D02*
X85930828Y-45906204D01*
X87430828Y-45263347D02*
X85930828Y-45263347D01*
X85930828Y-45263347D02*
X85930828Y-44906204D01*
X85930828Y-44906204D02*
X86002257Y-44691918D01*
X86002257Y-44691918D02*
X86145114Y-44549061D01*
X86145114Y-44549061D02*
X86287971Y-44477632D01*
X86287971Y-44477632D02*
X86573685Y-44406204D01*
X86573685Y-44406204D02*
X86787971Y-44406204D01*
X86787971Y-44406204D02*
X87073685Y-44477632D01*
X87073685Y-44477632D02*
X87216542Y-44549061D01*
X87216542Y-44549061D02*
X87359400Y-44691918D01*
X87359400Y-44691918D02*
X87430828Y-44906204D01*
X87430828Y-44906204D02*
X87430828Y-45263347D01*
X87430828Y-43763347D02*
X85930828Y-43763347D01*
X85930828Y-43763347D02*
X87002257Y-43263347D01*
X87002257Y-43263347D02*
X85930828Y-42763347D01*
X85930828Y-42763347D02*
X87430828Y-42763347D01*
X87430828Y-41406204D02*
X86645114Y-41406204D01*
X86645114Y-41406204D02*
X86502257Y-41477632D01*
X86502257Y-41477632D02*
X86430828Y-41620489D01*
X86430828Y-41620489D02*
X86430828Y-41906204D01*
X86430828Y-41906204D02*
X86502257Y-42049061D01*
X87359400Y-41406204D02*
X87430828Y-41549061D01*
X87430828Y-41549061D02*
X87430828Y-41906204D01*
X87430828Y-41906204D02*
X87359400Y-42049061D01*
X87359400Y-42049061D02*
X87216542Y-42120489D01*
X87216542Y-42120489D02*
X87073685Y-42120489D01*
X87073685Y-42120489D02*
X86930828Y-42049061D01*
X86930828Y-42049061D02*
X86859400Y-41906204D01*
X86859400Y-41906204D02*
X86859400Y-41549061D01*
X86859400Y-41549061D02*
X86787971Y-41406204D01*
X86430828Y-40906203D02*
X86430828Y-40334775D01*
X85930828Y-40691918D02*
X87216542Y-40691918D01*
X87216542Y-40691918D02*
X87359400Y-40620489D01*
X87359400Y-40620489D02*
X87430828Y-40477632D01*
X87430828Y-40477632D02*
X87430828Y-40334775D01*
X87430828Y-39834775D02*
X86430828Y-39834775D01*
X86716542Y-39834775D02*
X86573685Y-39763346D01*
X86573685Y-39763346D02*
X86502257Y-39691918D01*
X86502257Y-39691918D02*
X86430828Y-39549060D01*
X86430828Y-39549060D02*
X86430828Y-39406203D01*
X87430828Y-38906204D02*
X86430828Y-38906204D01*
X85930828Y-38906204D02*
X86002257Y-38977632D01*
X86002257Y-38977632D02*
X86073685Y-38906204D01*
X86073685Y-38906204D02*
X86002257Y-38834775D01*
X86002257Y-38834775D02*
X85930828Y-38906204D01*
X85930828Y-38906204D02*
X86073685Y-38906204D01*
X87430828Y-38334775D02*
X86430828Y-37549061D01*
X86430828Y-38334775D02*
X87430828Y-37549061D01*
D11*
%TO.C,R2*%
X67310000Y-82550000D03*
D12*
X67310000Y-85090000D03*
%TD*%
D13*
%TO.C,REF\u002A\u002A*%
X38735000Y-109220000D03*
%TD*%
%TO.C,SW1*%
X52070000Y-107950000D03*
X45570000Y-107950000D03*
X52070000Y-103450000D03*
X45570000Y-103450000D03*
%TD*%
D14*
%TO.C,SW2*%
X72390000Y-106680000D03*
D13*
X74930000Y-106680000D03*
X77470000Y-106680000D03*
%TD*%
D15*
%TO.C,U3*%
X63500000Y-43410000D03*
X63500000Y-42010000D03*
X63500000Y-40610000D03*
X62100000Y-43410000D03*
X62100000Y-43410000D03*
X62100000Y-42010000D03*
X62100000Y-40610000D03*
X60700000Y-43410000D03*
X60700000Y-43410000D03*
X60700000Y-42010000D03*
X60700000Y-40610000D03*
X60700000Y-40610000D03*
D16*
X72350000Y-34290000D03*
X72350000Y-35560000D03*
X72350000Y-36830000D03*
X72350000Y-38100000D03*
X72350000Y-39370000D03*
X72350000Y-40640000D03*
X72350000Y-41910000D03*
X72350000Y-43180000D03*
X72350000Y-44450000D03*
X72350000Y-45720000D03*
X72350000Y-46990000D03*
X72350000Y-48260000D03*
X72350000Y-49530000D03*
X72350000Y-50800000D03*
D17*
X69310000Y-52050000D03*
X68040000Y-52050000D03*
X66770000Y-52050000D03*
X65500000Y-52050000D03*
X64230000Y-52050000D03*
X62960000Y-52050000D03*
X61690000Y-52050000D03*
X60420000Y-52050000D03*
X59150000Y-52050000D03*
X57880000Y-52050000D03*
D16*
X54850000Y-50800000D03*
X54850000Y-49530000D03*
X54850000Y-48260000D03*
X54850000Y-46990000D03*
X54850000Y-45720000D03*
X54850000Y-44450000D03*
X54850000Y-43180000D03*
X54850000Y-41910000D03*
X54850000Y-40640000D03*
X54850000Y-39370000D03*
X54850000Y-38100000D03*
X54850000Y-36830000D03*
X54850000Y-35560000D03*
X54850000Y-34290000D03*
%TD*%
D11*
%TO.C,C4*%
X39410000Y-86360000D03*
X44410000Y-86360000D03*
%TD*%
%TO.C,C2*%
X43220000Y-36830000D03*
X48220000Y-36830000D03*
%TD*%
D18*
%TO.C,J1*%
X62200000Y-103320000D03*
X64800000Y-103320000D03*
D19*
X59950000Y-109220000D03*
X67050000Y-109220000D03*
%TD*%
D11*
%TO.C,R6*%
X83820000Y-106680000D03*
D12*
X81280000Y-106680000D03*
%TD*%
D11*
%TO.C,C3*%
X39410000Y-77470000D03*
X44410000Y-77470000D03*
%TD*%
%TO.C,C5*%
X39410000Y-95250000D03*
X44410000Y-95250000D03*
%TD*%
D13*
%TO.C,REF\u002A\u002A*%
X88265000Y-109220000D03*
%TD*%
D20*
%TO.C,D1*%
X60960000Y-80010000D03*
D21*
X63500000Y-80010000D03*
%TD*%
D13*
%TO.C,SW5*%
X56590000Y-95940000D03*
X50090000Y-95940000D03*
X56590000Y-91440000D03*
X50090000Y-91440000D03*
%TD*%
D22*
%TO.C,J3*%
X54610000Y-66040000D03*
D23*
X54610000Y-63500000D03*
X57150000Y-66040000D03*
X57150000Y-63500000D03*
X59690000Y-66040000D03*
X59690000Y-63500000D03*
X62230000Y-66040000D03*
X62230000Y-63500000D03*
X64770000Y-66040000D03*
X64770000Y-63500000D03*
X67310000Y-66040000D03*
X67310000Y-63500000D03*
X69850000Y-66040000D03*
X69850000Y-63500000D03*
X72390000Y-66040000D03*
X72390000Y-63500000D03*
%TD*%
D11*
%TO.C,R7*%
X39370000Y-73660000D03*
D12*
X46990000Y-73660000D03*
%TD*%
D11*
%TO.C,R5*%
X76200000Y-76200000D03*
D12*
X76200000Y-86360000D03*
%TD*%
D24*
%TO.C,J2*%
X80690000Y-76175000D03*
D25*
X80690000Y-78715000D03*
X80690000Y-81255000D03*
X80690000Y-83795000D03*
X80690000Y-86335000D03*
X80690000Y-88875000D03*
%TD*%
D13*
%TO.C,SW3*%
X56590000Y-78105000D03*
X50090000Y-78105000D03*
X56590000Y-73605000D03*
X50090000Y-73605000D03*
%TD*%
D11*
%TO.C,R1*%
X43180000Y-40640000D03*
D12*
X43180000Y-48260000D03*
%TD*%
D11*
%TO.C,C1*%
X48260000Y-40680000D03*
X48260000Y-45680000D03*
%TD*%
%TO.C,R4*%
X72390000Y-95250000D03*
D12*
X80010000Y-95250000D03*
%TD*%
D13*
%TO.C,REF\u002A\u002A*%
X38735000Y-27940000D03*
%TD*%
D11*
%TO.C,R8*%
X39370000Y-82550000D03*
D12*
X46990000Y-82550000D03*
%TD*%
D11*
%TO.C,R10*%
X60960000Y-85090000D03*
D12*
X63500000Y-85090000D03*
%TD*%
D13*
%TO.C,REF\u002A\u002A*%
X88265000Y-27940000D03*
%TD*%
D26*
%TO.C,U2*%
X61220000Y-96520000D03*
X63500000Y-96520000D03*
D27*
X63500000Y-90220000D03*
D26*
X65780000Y-96520000D03*
%TD*%
D11*
%TO.C,R9*%
X39370000Y-91440000D03*
D12*
X46990000Y-91440000D03*
%TD*%
D28*
%TO.C,Q1*%
X67310000Y-76200000D03*
D29*
X67310000Y-77470000D03*
X67310000Y-78740000D03*
%TD*%
D13*
%TO.C,SW4*%
X56590000Y-87050000D03*
X50090000Y-87050000D03*
X56590000Y-82550000D03*
X50090000Y-82550000D03*
%TD*%
D30*
%TO.C,Q2*%
X80010000Y-100330000D03*
D31*
X81280000Y-100330000D03*
X82550000Y-100330000D03*
%TD*%
D11*
%TO.C,R3*%
X72390000Y-91440000D03*
D12*
X72390000Y-76200000D03*
%TD*%
M02*
