%TF.GenerationSoftware,KiCad,Pcbnew,7.0.7*%
%TF.CreationDate,2024-10-11T15:58:01+09:00*%
%TF.ProjectId,ESP32-hub75,45535033-322d-4687-9562-37352e6b6963,rev?*%
%TF.SameCoordinates,Original*%
%TF.FileFunction,Paste,Top*%
%TF.FilePolarity,Positive*%
%FSLAX46Y46*%
G04 Gerber Fmt 4.6, Leading zero omitted, Abs format (unit mm)*
G04 Created by KiCad (PCBNEW 7.0.7) date 2024-10-11 15:58:01*
%MOMM*%
%LPD*%
G01*
G04 APERTURE LIST*
G04 Aperture macros list*
%AMRoundRect*
0 Rectangle with rounded corners*
0 $1 Rounding radius*
0 $2 $3 $4 $5 $6 $7 $8 $9 X,Y pos of 4 corners*
0 Add a 4 corners polygon primitive as box body*
4,1,4,$2,$3,$4,$5,$6,$7,$8,$9,$2,$3,0*
0 Add four circle primitives for the rounded corners*
1,1,$1+$1,$2,$3*
1,1,$1+$1,$4,$5*
1,1,$1+$1,$6,$7*
1,1,$1+$1,$8,$9*
0 Add four rect primitives between the rounded corners*
20,1,$1+$1,$2,$3,$4,$5,0*
20,1,$1+$1,$4,$5,$6,$7,0*
20,1,$1+$1,$6,$7,$8,$9,0*
20,1,$1+$1,$8,$9,$2,$3,0*%
G04 Aperture macros list end*
%ADD10R,0.900000X0.900000*%
%ADD11R,1.500000X0.900000*%
%ADD12R,0.900000X1.500000*%
%ADD13RoundRect,0.225000X-0.225000X-2.025000X0.225000X-2.025000X0.225000X2.025000X-0.225000X2.025000X0*%
%ADD14O,1.000000X1.500000*%
%ADD15RoundRect,0.250000X0.350000X-0.850000X0.350000X0.850000X-0.350000X0.850000X-0.350000X-0.850000X0*%
%ADD16RoundRect,0.250000X1.125000X-1.275000X1.125000X1.275000X-1.125000X1.275000X-1.125000X-1.275000X0*%
G04 APERTURE END LIST*
D10*
%TO.C,U3*%
X63500000Y-43410000D03*
X63500000Y-42010000D03*
X63500000Y-40610000D03*
X62100000Y-43410000D03*
X62100000Y-43410000D03*
X62100000Y-42010000D03*
X62100000Y-40610000D03*
X60700000Y-43410000D03*
X60700000Y-43410000D03*
X60700000Y-42010000D03*
X60700000Y-40610000D03*
X60700000Y-40610000D03*
D11*
X72350000Y-34290000D03*
X72350000Y-35560000D03*
X72350000Y-36830000D03*
X72350000Y-38100000D03*
X72350000Y-39370000D03*
X72350000Y-40640000D03*
X72350000Y-41910000D03*
X72350000Y-43180000D03*
X72350000Y-44450000D03*
X72350000Y-45720000D03*
X72350000Y-46990000D03*
X72350000Y-48260000D03*
X72350000Y-49530000D03*
X72350000Y-50800000D03*
D12*
X69310000Y-52050000D03*
X68040000Y-52050000D03*
X66770000Y-52050000D03*
X65500000Y-52050000D03*
X64230000Y-52050000D03*
X62960000Y-52050000D03*
X61690000Y-52050000D03*
X60420000Y-52050000D03*
X59150000Y-52050000D03*
X57880000Y-52050000D03*
D11*
X54850000Y-50800000D03*
X54850000Y-49530000D03*
X54850000Y-48260000D03*
X54850000Y-46990000D03*
X54850000Y-45720000D03*
X54850000Y-44450000D03*
X54850000Y-43180000D03*
X54850000Y-41910000D03*
X54850000Y-40640000D03*
X54850000Y-39370000D03*
X54850000Y-38100000D03*
X54850000Y-36830000D03*
X54850000Y-35560000D03*
X54850000Y-34290000D03*
%TD*%
D13*
%TO.C,J1*%
X62200000Y-103320000D03*
X64800000Y-103320000D03*
D14*
X59950000Y-109220000D03*
X67050000Y-109220000D03*
%TD*%
D15*
%TO.C,U2*%
X61220000Y-96520000D03*
X63500000Y-96520000D03*
D16*
X61975000Y-91895000D03*
X65025000Y-91895000D03*
X61975000Y-88545000D03*
X65025000Y-88545000D03*
D15*
X65780000Y-96520000D03*
%TD*%
M02*
