%TF.GenerationSoftware,KiCad,Pcbnew,7.0.7*%
%TF.CreationDate,2024-10-11T15:58:01+09:00*%
%TF.ProjectId,ESP32-hub75,45535033-322d-4687-9562-37352e6b6963,rev?*%
%TF.SameCoordinates,Original*%
%TF.FileFunction,Copper,L2,Bot*%
%TF.FilePolarity,Positive*%
%FSLAX46Y46*%
G04 Gerber Fmt 4.6, Leading zero omitted, Abs format (unit mm)*
G04 Created by KiCad (PCBNEW 7.0.7) date 2024-10-11 15:58:01*
%MOMM*%
%LPD*%
G01*
G04 APERTURE LIST*
G04 Aperture macros list*
%AMRoundRect*
0 Rectangle with rounded corners*
0 $1 Rounding radius*
0 $2 $3 $4 $5 $6 $7 $8 $9 X,Y pos of 4 corners*
0 Add a 4 corners polygon primitive as box body*
4,1,4,$2,$3,$4,$5,$6,$7,$8,$9,$2,$3,0*
0 Add four circle primitives for the rounded corners*
1,1,$1+$1,$2,$3*
1,1,$1+$1,$4,$5*
1,1,$1+$1,$6,$7*
1,1,$1+$1,$8,$9*
0 Add four rect primitives between the rounded corners*
20,1,$1+$1,$2,$3,$4,$5,0*
20,1,$1+$1,$4,$5,$6,$7,0*
20,1,$1+$1,$6,$7,$8,$9,0*
20,1,$1+$1,$8,$9,$2,$3,0*%
G04 Aperture macros list end*
%TA.AperFunction,ComponentPad*%
%ADD10C,1.600000*%
%TD*%
%TA.AperFunction,ComponentPad*%
%ADD11O,1.600000X1.600000*%
%TD*%
%TA.AperFunction,ComponentPad*%
%ADD12C,2.000000*%
%TD*%
%TA.AperFunction,ComponentPad*%
%ADD13R,2.000000X2.000000*%
%TD*%
%TA.AperFunction,ComponentPad*%
%ADD14O,1.000000X1.500000*%
%TD*%
%TA.AperFunction,ComponentPad*%
%ADD15R,1.800000X1.800000*%
%TD*%
%TA.AperFunction,ComponentPad*%
%ADD16C,1.800000*%
%TD*%
%TA.AperFunction,ComponentPad*%
%ADD17RoundRect,0.250000X0.600000X-0.600000X0.600000X0.600000X-0.600000X0.600000X-0.600000X-0.600000X0*%
%TD*%
%TA.AperFunction,ComponentPad*%
%ADD18C,1.700000*%
%TD*%
%TA.AperFunction,ComponentPad*%
%ADD19R,1.700000X1.700000*%
%TD*%
%TA.AperFunction,ComponentPad*%
%ADD20O,1.700000X1.700000*%
%TD*%
%TA.AperFunction,ComponentPad*%
%ADD21R,1.500000X1.050000*%
%TD*%
%TA.AperFunction,ComponentPad*%
%ADD22O,1.500000X1.050000*%
%TD*%
%TA.AperFunction,ComponentPad*%
%ADD23R,1.050000X1.500000*%
%TD*%
%TA.AperFunction,ComponentPad*%
%ADD24O,1.050000X1.500000*%
%TD*%
%TA.AperFunction,ViaPad*%
%ADD25C,0.800000*%
%TD*%
%TA.AperFunction,Conductor*%
%ADD26C,0.500000*%
%TD*%
%TA.AperFunction,Conductor*%
%ADD27C,0.250000*%
%TD*%
G04 APERTURE END LIST*
D10*
%TO.P,R2,1*%
%TO.N,Net-(Q1-B)*%
X67310000Y-82550000D03*
D11*
%TO.P,R2,2*%
%TO.N,DTR*%
X67310000Y-85090000D03*
%TD*%
D12*
%TO.P,SW1,1,1*%
%TO.N,GND*%
X52070000Y-107950000D03*
X45570000Y-107950000D03*
%TO.P,SW1,2,2*%
%TO.N,EN*%
X52070000Y-103450000D03*
X45570000Y-103450000D03*
%TD*%
D13*
%TO.P,SW2,1,A*%
%TO.N,GND*%
X72390000Y-106680000D03*
D12*
%TO.P,SW2,2,B*%
%TO.N,Net-(SW2A-B)*%
X74930000Y-106680000D03*
%TO.P,SW2,3,C*%
%TO.N,Net-(Q2-C)*%
X77470000Y-106680000D03*
%TD*%
D10*
%TO.P,C4,1*%
%TO.N,+3V3*%
X39410000Y-86360000D03*
%TO.P,C4,2*%
%TO.N,IO34*%
X44410000Y-86360000D03*
%TD*%
%TO.P,C2,1*%
%TO.N,GND*%
X43220000Y-36830000D03*
%TO.P,C2,2*%
%TO.N,+3V3*%
X48220000Y-36830000D03*
%TD*%
D14*
%TO.P,J1,6,Shield*%
%TO.N,GND*%
X59950000Y-109220000D03*
X67050000Y-109220000D03*
%TD*%
D10*
%TO.P,R6,1*%
%TO.N,+3V3*%
X83820000Y-106680000D03*
D11*
%TO.P,R6,2*%
%TO.N,Net-(Q2-C)*%
X81280000Y-106680000D03*
%TD*%
D10*
%TO.P,C3,1*%
%TO.N,+3V3*%
X39410000Y-77470000D03*
%TO.P,C3,2*%
%TO.N,IO33*%
X44410000Y-77470000D03*
%TD*%
%TO.P,C5,1*%
%TO.N,+3V3*%
X39410000Y-95250000D03*
%TO.P,C5,2*%
%TO.N,IO35*%
X44410000Y-95250000D03*
%TD*%
D15*
%TO.P,D1,1,K*%
%TO.N,GND*%
X60960000Y-80010000D03*
D16*
%TO.P,D1,2,A*%
%TO.N,Net-(D1-A)*%
X63500000Y-80010000D03*
%TD*%
D12*
%TO.P,SW5,1,1*%
%TO.N,GND*%
X56590000Y-95940000D03*
X50090000Y-95940000D03*
%TO.P,SW5,2,2*%
%TO.N,IO35*%
X56590000Y-91440000D03*
X50090000Y-91440000D03*
%TD*%
D17*
%TO.P,J3,1,R1*%
%TO.N,IO25*%
X54610000Y-66040000D03*
D18*
%TO.P,J3,2,G1*%
%TO.N,IO26*%
X54610000Y-63500000D03*
%TO.P,J3,3,B1*%
%TO.N,IO27*%
X57150000Y-66040000D03*
%TO.P,J3,4,GND1*%
%TO.N,GND*%
X57150000Y-63500000D03*
%TO.P,J3,5,R2*%
%TO.N,IO14*%
X59690000Y-66040000D03*
%TO.P,J3,6,G2*%
%TO.N,IO12*%
X59690000Y-63500000D03*
%TO.P,J3,7,B2*%
%TO.N,IO13*%
X62230000Y-66040000D03*
%TO.P,J3,8,E*%
%TO.N,IO32*%
X62230000Y-63500000D03*
%TO.P,J3,9,A*%
%TO.N,IO23*%
X64770000Y-66040000D03*
%TO.P,J3,10,B*%
%TO.N,IO19*%
X64770000Y-63500000D03*
%TO.P,J3,11,C*%
%TO.N,IO5*%
X67310000Y-66040000D03*
%TO.P,J3,12,D*%
%TO.N,IO17*%
X67310000Y-63500000D03*
%TO.P,J3,13,CLK*%
%TO.N,IO16*%
X69850000Y-66040000D03*
%TO.P,J3,14,LAT*%
%TO.N,IO4*%
X69850000Y-63500000D03*
%TO.P,J3,15,OE*%
%TO.N,IO15*%
X72390000Y-66040000D03*
%TO.P,J3,16,GND3*%
%TO.N,GND*%
X72390000Y-63500000D03*
%TD*%
D10*
%TO.P,R7,1*%
%TO.N,+3V3*%
X39370000Y-73660000D03*
D11*
%TO.P,R7,2*%
%TO.N,IO33*%
X46990000Y-73660000D03*
%TD*%
D10*
%TO.P,R5,1*%
%TO.N,RTS*%
X76200000Y-76200000D03*
D11*
%TO.P,R5,2*%
%TO.N,GND*%
X76200000Y-86360000D03*
%TD*%
D19*
%TO.P,J2,1,RTS*%
%TO.N,RTS*%
X80690000Y-76175000D03*
D20*
%TO.P,J2,2,RXD*%
%TO.N,TX*%
X80690000Y-78715000D03*
%TO.P,J2,3,TXD*%
%TO.N,RX*%
X80690000Y-81255000D03*
%TO.P,J2,4,+5V*%
%TO.N,5V*%
X80690000Y-83795000D03*
%TO.P,J2,5,DTR*%
%TO.N,DTR*%
X80690000Y-86335000D03*
%TO.P,J2,6,GND*%
%TO.N,GND*%
X80690000Y-88875000D03*
%TD*%
D12*
%TO.P,SW3,1,1*%
%TO.N,GND*%
X56590000Y-78105000D03*
X50090000Y-78105000D03*
%TO.P,SW3,2,2*%
%TO.N,IO33*%
X56590000Y-73605000D03*
X50090000Y-73605000D03*
%TD*%
D10*
%TO.P,R1,1*%
%TO.N,+3V3*%
X43180000Y-40640000D03*
D11*
%TO.P,R1,2*%
%TO.N,EN*%
X43180000Y-48260000D03*
%TD*%
D10*
%TO.P,C1,1*%
%TO.N,+3V3*%
X48260000Y-40680000D03*
%TO.P,C1,2*%
%TO.N,EN*%
X48260000Y-45680000D03*
%TD*%
%TO.P,R4,1*%
%TO.N,GND*%
X72390000Y-95250000D03*
D11*
%TO.P,R4,2*%
%TO.N,DTR*%
X80010000Y-95250000D03*
%TD*%
D10*
%TO.P,R8,1*%
%TO.N,+3V3*%
X39370000Y-82550000D03*
D11*
%TO.P,R8,2*%
%TO.N,IO34*%
X46990000Y-82550000D03*
%TD*%
D10*
%TO.P,R10,1*%
%TO.N,+3V3*%
X60960000Y-85090000D03*
D11*
%TO.P,R10,2*%
%TO.N,Net-(D1-A)*%
X63500000Y-85090000D03*
%TD*%
D10*
%TO.P,R9,1*%
%TO.N,+3V3*%
X39370000Y-91440000D03*
D11*
%TO.P,R9,2*%
%TO.N,IO35*%
X46990000Y-91440000D03*
%TD*%
D21*
%TO.P,Q1,1,E*%
%TO.N,RTS*%
X67310000Y-76200000D03*
D22*
%TO.P,Q1,2,C*%
%TO.N,EN*%
X67310000Y-77470000D03*
%TO.P,Q1,3,B*%
%TO.N,Net-(Q1-B)*%
X67310000Y-78740000D03*
%TD*%
D12*
%TO.P,SW4,1,1*%
%TO.N,GND*%
X56590000Y-87050000D03*
X50090000Y-87050000D03*
%TO.P,SW4,2,2*%
%TO.N,IO34*%
X56590000Y-82550000D03*
X50090000Y-82550000D03*
%TD*%
D23*
%TO.P,Q2,1,E*%
%TO.N,DTR*%
X80010000Y-100330000D03*
D24*
%TO.P,Q2,2,C*%
%TO.N,Net-(Q2-C)*%
X81280000Y-100330000D03*
%TO.P,Q2,3,B*%
%TO.N,Net-(Q2-B)*%
X82550000Y-100330000D03*
%TD*%
D10*
%TO.P,R3,1*%
%TO.N,Net-(Q2-B)*%
X72390000Y-91440000D03*
D11*
%TO.P,R3,2*%
%TO.N,RTS*%
X72390000Y-76200000D03*
%TD*%
D25*
%TO.N,+3V3*%
X64770000Y-99060000D03*
%TO.N,IO32*%
X56515000Y-44450000D03*
%TO.N,GND*%
X80645000Y-48895000D03*
X80645000Y-52705000D03*
X80645000Y-73660000D03*
X80645000Y-39370000D03*
X62865000Y-53975000D03*
X51435000Y-36830000D03*
X63500000Y-59690000D03*
X66675000Y-55880000D03*
X66675000Y-60960000D03*
%TO.N,RX*%
X78740000Y-40640000D03*
%TO.N,TX*%
X78740000Y-38100000D03*
%TO.N,IO23*%
X77470000Y-36830000D03*
%TO.N,IO17*%
X74930000Y-48260000D03*
%TO.N,IO15*%
X67945000Y-58420000D03*
%TO.N,IO34*%
X48260000Y-67310000D03*
%TO.N,IO35*%
X53340000Y-41910000D03*
%TO.N,IO33*%
X53340000Y-44450000D03*
%TO.N,IO19*%
X70485000Y-43815000D03*
%TO.N,IO5*%
X76200000Y-46990000D03*
%TD*%
D26*
%TO.N,+3V3*%
X64770000Y-99060000D02*
X63500000Y-99060000D01*
X39370000Y-96520000D02*
X39370000Y-44450000D01*
D27*
X60960000Y-85090000D02*
X60960000Y-97790000D01*
D26*
X63500000Y-99060000D02*
X43180000Y-99060000D01*
X41910000Y-99060000D02*
X39370000Y-96520000D01*
D27*
X60960000Y-97790000D02*
X62230000Y-99060000D01*
D26*
X39370000Y-44450000D02*
X43180000Y-40640000D01*
X43180000Y-99060000D02*
X41910000Y-99060000D01*
D27*
%TO.N,Net-(Q2-C)*%
X81280000Y-106680000D02*
X77470000Y-106680000D01*
X81280000Y-106680000D02*
X81280000Y-100330000D01*
%TO.N,IO32*%
X56515000Y-44450000D02*
X56515000Y-52705000D01*
X62230000Y-58420000D02*
X62230000Y-63500000D01*
X56515000Y-52705000D02*
X62230000Y-58420000D01*
%TO.N,EN*%
X65405000Y-77470000D02*
X67310000Y-77470000D01*
%TO.N,RX*%
X78740000Y-40640000D02*
X78740000Y-79305000D01*
X78740000Y-79305000D02*
X80690000Y-81255000D01*
%TO.N,TX*%
X82550000Y-76855000D02*
X80690000Y-78715000D01*
X81280000Y-38100000D02*
X82550000Y-39370000D01*
X82550000Y-39370000D02*
X82550000Y-76855000D01*
X78740000Y-38100000D02*
X81280000Y-38100000D01*
%TO.N,RTS*%
X80665000Y-76200000D02*
X80690000Y-76175000D01*
%TO.N,IO23*%
X77470000Y-69850000D02*
X76200000Y-71120000D01*
X77470000Y-36830000D02*
X77470000Y-69850000D01*
X64770000Y-69850000D02*
X64770000Y-66040000D01*
X76200000Y-71120000D02*
X66040000Y-71120000D01*
X66040000Y-71120000D02*
X64770000Y-69850000D01*
%TO.N,IO17*%
X74930000Y-67310000D02*
X73660000Y-68580000D01*
X68580000Y-67310000D02*
X68580000Y-64770000D01*
X68580000Y-64770000D02*
X67310000Y-63500000D01*
X69850000Y-68580000D02*
X68580000Y-67310000D01*
X73660000Y-68580000D02*
X69850000Y-68580000D01*
X74930000Y-48260000D02*
X74930000Y-67310000D01*
%TO.N,IO15*%
X71120000Y-61595000D02*
X71120000Y-64770000D01*
X71120000Y-64770000D02*
X72390000Y-66040000D01*
X67945000Y-58420000D02*
X71120000Y-61595000D01*
%TO.N,IO34*%
X46990000Y-82550000D02*
X50090000Y-82550000D01*
X44410000Y-83860000D02*
X45720000Y-82550000D01*
X48260000Y-80720000D02*
X50090000Y-82550000D01*
X50090000Y-82550000D02*
X56590000Y-82550000D01*
X48260000Y-67310000D02*
X48260000Y-80720000D01*
X44410000Y-86360000D02*
X44410000Y-83860000D01*
X45720000Y-82550000D02*
X46990000Y-82550000D01*
%TO.N,IO35*%
X56590000Y-91440000D02*
X50090000Y-91440000D01*
X50090000Y-91440000D02*
X46990000Y-91440000D01*
X44410000Y-92750000D02*
X44410000Y-95250000D01*
X50800000Y-62230000D02*
X41910000Y-71120000D01*
X53340000Y-41910000D02*
X50800000Y-44450000D01*
X46990000Y-91440000D02*
X45720000Y-91440000D01*
X50800000Y-44450000D02*
X50800000Y-62230000D01*
X45720000Y-91440000D02*
X44410000Y-92750000D01*
X41910000Y-71120000D02*
X41910000Y-87630000D01*
X41910000Y-87630000D02*
X45720000Y-91440000D01*
%TO.N,IO33*%
X45720000Y-73660000D02*
X46990000Y-73660000D01*
X53340000Y-44450000D02*
X52070000Y-45720000D01*
X52070000Y-71625000D02*
X50090000Y-73605000D01*
X50090000Y-73605000D02*
X56590000Y-73605000D01*
X52070000Y-45720000D02*
X52070000Y-71625000D01*
X50035000Y-73660000D02*
X50090000Y-73605000D01*
X44410000Y-74970000D02*
X45720000Y-73660000D01*
X44410000Y-77470000D02*
X44410000Y-74970000D01*
%TO.N,IO19*%
X66040000Y-53975000D02*
X64770000Y-55245000D01*
X70485000Y-43815000D02*
X70485000Y-53340000D01*
X69850000Y-53975000D02*
X66040000Y-53975000D01*
X64770000Y-55245000D02*
X64770000Y-63500000D01*
X70485000Y-53340000D02*
X69850000Y-53975000D01*
%TO.N,IO5*%
X75088750Y-69850000D02*
X68580000Y-69850000D01*
X76200000Y-46990000D02*
X76200000Y-68738750D01*
X67310000Y-68580000D02*
X67310000Y-66040000D01*
X68580000Y-69850000D02*
X67310000Y-68580000D01*
X76200000Y-68738750D02*
X75088750Y-69850000D01*
%TO.N,DTR*%
X67310000Y-85090000D02*
X67310000Y-86360000D01*
X80010000Y-100330000D02*
X80010000Y-95250000D01*
X78125000Y-88900000D02*
X80690000Y-86335000D01*
X69850000Y-88900000D02*
X78125000Y-88900000D01*
X67310000Y-86360000D02*
X69850000Y-88900000D01*
%TO.N,Net-(Q1-B)*%
X67310000Y-82550000D02*
X67310000Y-78740000D01*
%TO.N,Net-(Q2-B)*%
X82550000Y-93980000D02*
X80010000Y-91440000D01*
X82550000Y-100330000D02*
X82550000Y-93980000D01*
X80010000Y-91440000D02*
X72390000Y-91440000D01*
%TO.N,Net-(D1-A)*%
X63500000Y-85090000D02*
X63500000Y-80010000D01*
%TD*%
%TA.AperFunction,Conductor*%
%TO.N,GND*%
G36*
X81036587Y-38745185D02*
G01*
X81057229Y-38761819D01*
X81888181Y-39592771D01*
X81921666Y-39654094D01*
X81924500Y-39680452D01*
X81924500Y-74755636D01*
X81904815Y-74822675D01*
X81852011Y-74868430D01*
X81782853Y-74878374D01*
X81757167Y-74871818D01*
X81647482Y-74830908D01*
X81647483Y-74830908D01*
X81587883Y-74824501D01*
X81587881Y-74824500D01*
X81587873Y-74824500D01*
X81587864Y-74824500D01*
X79792129Y-74824500D01*
X79792123Y-74824501D01*
X79732516Y-74830908D01*
X79597671Y-74881202D01*
X79597668Y-74881204D01*
X79563811Y-74906550D01*
X79498346Y-74930967D01*
X79430074Y-74916115D01*
X79380668Y-74866710D01*
X79365500Y-74807283D01*
X79365500Y-41338687D01*
X79385185Y-41271648D01*
X79397350Y-41255715D01*
X79415891Y-41235122D01*
X79472533Y-41172216D01*
X79567179Y-41008284D01*
X79625674Y-40828256D01*
X79645460Y-40640000D01*
X79625674Y-40451744D01*
X79567179Y-40271716D01*
X79472533Y-40107784D01*
X79345871Y-39967112D01*
X79345870Y-39967111D01*
X79192734Y-39855851D01*
X79192729Y-39855848D01*
X79019807Y-39778857D01*
X79019802Y-39778855D01*
X78874000Y-39747865D01*
X78834646Y-39739500D01*
X78645354Y-39739500D01*
X78612897Y-39746398D01*
X78460197Y-39778855D01*
X78460192Y-39778857D01*
X78287270Y-39855848D01*
X78281637Y-39859101D01*
X78280145Y-39856517D01*
X78226483Y-39875617D01*
X78158441Y-39859739D01*
X78109785Y-39809595D01*
X78095500Y-39751814D01*
X78095500Y-38988185D01*
X78115185Y-38921146D01*
X78167989Y-38875391D01*
X78237147Y-38865447D01*
X78280373Y-38883087D01*
X78281637Y-38880899D01*
X78287270Y-38884151D01*
X78460192Y-38961142D01*
X78460197Y-38961144D01*
X78645354Y-39000500D01*
X78645355Y-39000500D01*
X78834644Y-39000500D01*
X78834646Y-39000500D01*
X79019803Y-38961144D01*
X79192730Y-38884151D01*
X79345871Y-38772888D01*
X79348788Y-38769647D01*
X79351600Y-38766526D01*
X79411087Y-38729879D01*
X79443748Y-38725500D01*
X80969548Y-38725500D01*
X81036587Y-38745185D01*
G37*
%TD.AperFunction*%
%TA.AperFunction,Conductor*%
G36*
X57752470Y-63749363D02*
G01*
X57758949Y-63755396D01*
X58264925Y-64261373D01*
X58318119Y-64185405D01*
X58372696Y-64141781D01*
X58442195Y-64134588D01*
X58504549Y-64166110D01*
X58521269Y-64185405D01*
X58651505Y-64371401D01*
X58651506Y-64371402D01*
X58818597Y-64538493D01*
X58818603Y-64538498D01*
X59004158Y-64668425D01*
X59047783Y-64723002D01*
X59054977Y-64792500D01*
X59023454Y-64854855D01*
X59004158Y-64871575D01*
X58818597Y-65001505D01*
X58651505Y-65168597D01*
X58521575Y-65354158D01*
X58466998Y-65397783D01*
X58397500Y-65404977D01*
X58335145Y-65373454D01*
X58318425Y-65354158D01*
X58188494Y-65168597D01*
X58021402Y-65001506D01*
X58021401Y-65001505D01*
X57835405Y-64871269D01*
X57791781Y-64816692D01*
X57784588Y-64747193D01*
X57816110Y-64684839D01*
X57835405Y-64668119D01*
X57911373Y-64614925D01*
X57409116Y-64112669D01*
X57375631Y-64051346D01*
X57380615Y-63981655D01*
X57417640Y-63932193D01*
X57416398Y-63930759D01*
X57423100Y-63924952D01*
X57531761Y-63830798D01*
X57566954Y-63776037D01*
X57619755Y-63730283D01*
X57688914Y-63720339D01*
X57752470Y-63749363D01*
G37*
%TD.AperFunction*%
%TA.AperFunction,Conductor*%
G36*
X56672064Y-63726894D02*
G01*
X56727998Y-63768765D01*
X56733039Y-63776025D01*
X56733048Y-63776039D01*
X56768239Y-63830798D01*
X56883602Y-63930759D01*
X56881293Y-63933422D01*
X56916006Y-63973499D01*
X56925935Y-64042660D01*
X56896898Y-64106210D01*
X56890882Y-64112669D01*
X56388625Y-64614925D01*
X56464594Y-64668119D01*
X56508219Y-64722696D01*
X56515413Y-64792194D01*
X56483890Y-64854549D01*
X56464595Y-64871269D01*
X56278594Y-65001508D01*
X56111503Y-65168599D01*
X56110349Y-65169975D01*
X56109688Y-65170414D01*
X56107676Y-65172427D01*
X56107271Y-65172022D01*
X56052173Y-65208671D01*
X55982312Y-65209772D01*
X55922946Y-65172928D01*
X55897663Y-65129265D01*
X55894814Y-65120666D01*
X55802712Y-64971344D01*
X55678656Y-64847288D01*
X55569263Y-64779814D01*
X55529336Y-64755187D01*
X55529331Y-64755185D01*
X55529215Y-64755146D01*
X55520733Y-64752336D01*
X55463290Y-64712564D01*
X55436467Y-64648048D01*
X55448782Y-64579272D01*
X55477767Y-64542517D01*
X55477573Y-64542323D01*
X55479219Y-64540676D01*
X55480040Y-64539636D01*
X55481388Y-64538504D01*
X55481401Y-64538495D01*
X55648495Y-64371401D01*
X55778732Y-64185403D01*
X55833307Y-64141780D01*
X55902805Y-64134586D01*
X55965160Y-64166109D01*
X55981880Y-64185405D01*
X56035073Y-64261373D01*
X56541050Y-63755395D01*
X56602373Y-63721910D01*
X56672064Y-63726894D01*
G37*
%TD.AperFunction*%
%TA.AperFunction,Conductor*%
G36*
X88843039Y-33039685D02*
G01*
X88888794Y-33092489D01*
X88900000Y-33144000D01*
X88900000Y-107943667D01*
X88880315Y-108010706D01*
X88827511Y-108056461D01*
X88758353Y-108066405D01*
X88732430Y-108059760D01*
X88599025Y-108009692D01*
X88377550Y-107969500D01*
X88377547Y-107969500D01*
X88208845Y-107969500D01*
X88170399Y-107972960D01*
X88040813Y-107984622D01*
X88040807Y-107984623D01*
X87823839Y-108044503D01*
X87823826Y-108044508D01*
X87621033Y-108142167D01*
X87621025Y-108142171D01*
X87438927Y-108274473D01*
X87438925Y-108274474D01*
X87283366Y-108437176D01*
X87159363Y-108625033D01*
X87070899Y-108832004D01*
X87070895Y-108832017D01*
X87020810Y-109051457D01*
X87020808Y-109051468D01*
X87010710Y-109276325D01*
X87010710Y-109276330D01*
X87040925Y-109499387D01*
X87040926Y-109499390D01*
X87110483Y-109713465D01*
X87217146Y-109911678D01*
X87217148Y-109911681D01*
X87357489Y-110087663D01*
X87357491Y-110087664D01*
X87357492Y-110087666D01*
X87527004Y-110235765D01*
X87566819Y-110259553D01*
X87614272Y-110310835D01*
X87626467Y-110379632D01*
X87599532Y-110444101D01*
X87542018Y-110483774D01*
X87503219Y-110490000D01*
X67737172Y-110490000D01*
X67670133Y-110470315D01*
X67624378Y-110417511D01*
X67614434Y-110348353D01*
X67643459Y-110284797D01*
X67661274Y-110267942D01*
X67665262Y-110264855D01*
X67812668Y-110124735D01*
X67812669Y-110124733D01*
X67928856Y-109957804D01*
X68009059Y-109770907D01*
X68050000Y-109571690D01*
X68050000Y-109470000D01*
X67474000Y-109470000D01*
X67406961Y-109450315D01*
X67361206Y-109397511D01*
X67350000Y-109346000D01*
X67350000Y-109094000D01*
X67369685Y-109026961D01*
X67422489Y-108981206D01*
X67474000Y-108970000D01*
X68050000Y-108970000D01*
X68050000Y-108919286D01*
X68034581Y-108767661D01*
X67973700Y-108573618D01*
X67973695Y-108573608D01*
X67874994Y-108395784D01*
X67874994Y-108395783D01*
X67742521Y-108241469D01*
X67742520Y-108241468D01*
X67581695Y-108116981D01*
X67399093Y-108027411D01*
X67300000Y-108001753D01*
X67300000Y-108565021D01*
X67280315Y-108632060D01*
X67227511Y-108677815D01*
X67158353Y-108687759D01*
X67142066Y-108684287D01*
X67078162Y-108666105D01*
X67078162Y-108666104D01*
X66966475Y-108676454D01*
X66957931Y-108678885D01*
X66888064Y-108678297D01*
X66829606Y-108640028D01*
X66801118Y-108576230D01*
X66800000Y-108559618D01*
X66800000Y-107996633D01*
X66798053Y-107996931D01*
X66798047Y-107996933D01*
X66607342Y-108067562D01*
X66607335Y-108067565D01*
X66434732Y-108175149D01*
X66287331Y-108315264D01*
X66287330Y-108315266D01*
X66171143Y-108482195D01*
X66090940Y-108669092D01*
X66050000Y-108868309D01*
X66050000Y-108970000D01*
X66626000Y-108970000D01*
X66693039Y-108989685D01*
X66738794Y-109042489D01*
X66750000Y-109094000D01*
X66750000Y-109346000D01*
X66730315Y-109413039D01*
X66677511Y-109458794D01*
X66626000Y-109470000D01*
X66050000Y-109470000D01*
X66050000Y-109520713D01*
X66065418Y-109672338D01*
X66126299Y-109866381D01*
X66126304Y-109866391D01*
X66225005Y-110044215D01*
X66225005Y-110044216D01*
X66357478Y-110198530D01*
X66357479Y-110198531D01*
X66447154Y-110267944D01*
X66488118Y-110324545D01*
X66491979Y-110394308D01*
X66457509Y-110455083D01*
X66395654Y-110487575D01*
X66371253Y-110490000D01*
X60637172Y-110490000D01*
X60570133Y-110470315D01*
X60524378Y-110417511D01*
X60514434Y-110348353D01*
X60543459Y-110284797D01*
X60561274Y-110267942D01*
X60565262Y-110264855D01*
X60712668Y-110124735D01*
X60712669Y-110124733D01*
X60828856Y-109957804D01*
X60909059Y-109770907D01*
X60950000Y-109571690D01*
X60950000Y-109470000D01*
X60374000Y-109470000D01*
X60306961Y-109450315D01*
X60261206Y-109397511D01*
X60250000Y-109346000D01*
X60250000Y-109094000D01*
X60269685Y-109026961D01*
X60322489Y-108981206D01*
X60374000Y-108970000D01*
X60950000Y-108970000D01*
X60950000Y-108919286D01*
X60934581Y-108767661D01*
X60873700Y-108573618D01*
X60873695Y-108573608D01*
X60774994Y-108395784D01*
X60774994Y-108395783D01*
X60642521Y-108241469D01*
X60642520Y-108241468D01*
X60481695Y-108116981D01*
X60299093Y-108027411D01*
X60199999Y-108001753D01*
X60199999Y-108565021D01*
X60180314Y-108632061D01*
X60127510Y-108677815D01*
X60058352Y-108687759D01*
X60042065Y-108684287D01*
X59978162Y-108666104D01*
X59866475Y-108676454D01*
X59857931Y-108678885D01*
X59788064Y-108678297D01*
X59729606Y-108640028D01*
X59701118Y-108576230D01*
X59700000Y-108559618D01*
X59699999Y-107996633D01*
X59698053Y-107996931D01*
X59698047Y-107996933D01*
X59507342Y-108067562D01*
X59507335Y-108067565D01*
X59334732Y-108175149D01*
X59187331Y-108315264D01*
X59187330Y-108315266D01*
X59071143Y-108482195D01*
X58990940Y-108669092D01*
X58950000Y-108868309D01*
X58950000Y-108970000D01*
X59526000Y-108970000D01*
X59593039Y-108989685D01*
X59638794Y-109042489D01*
X59650000Y-109094000D01*
X59650000Y-109346000D01*
X59630315Y-109413039D01*
X59577511Y-109458794D01*
X59526000Y-109470000D01*
X58950000Y-109470000D01*
X58950000Y-109520713D01*
X58965418Y-109672338D01*
X59026299Y-109866381D01*
X59026304Y-109866391D01*
X59125005Y-110044215D01*
X59125005Y-110044216D01*
X59257478Y-110198530D01*
X59257479Y-110198531D01*
X59347154Y-110267944D01*
X59388118Y-110324545D01*
X59391979Y-110394308D01*
X59357509Y-110455083D01*
X59295654Y-110487575D01*
X59271253Y-110490000D01*
X39496105Y-110490000D01*
X39429066Y-110470315D01*
X39383311Y-110417511D01*
X39373367Y-110348353D01*
X39402392Y-110284797D01*
X39423220Y-110265682D01*
X39515646Y-110198530D01*
X39561078Y-110165522D01*
X39716632Y-110002825D01*
X39840635Y-109814968D01*
X39929103Y-109607988D01*
X39979191Y-109388537D01*
X39989290Y-109163670D01*
X39959075Y-108940613D01*
X39889517Y-108726536D01*
X39782852Y-108528319D01*
X39723284Y-108453623D01*
X39642510Y-108352336D01*
X39642508Y-108352334D01*
X39472996Y-108204235D01*
X39279764Y-108088785D01*
X39138730Y-108035854D01*
X39069023Y-108009692D01*
X38847550Y-107969500D01*
X38847547Y-107969500D01*
X38678845Y-107969500D01*
X38640399Y-107972960D01*
X38510813Y-107984622D01*
X38510807Y-107984623D01*
X38293832Y-108044505D01*
X38277801Y-108052226D01*
X38208859Y-108063577D01*
X38144725Y-108035854D01*
X38105760Y-107977859D01*
X38101465Y-107950005D01*
X44064859Y-107950005D01*
X44085385Y-108197729D01*
X44085387Y-108197738D01*
X44146412Y-108438717D01*
X44246266Y-108666364D01*
X44346564Y-108819882D01*
X44921482Y-108244964D01*
X44982805Y-108211479D01*
X45052496Y-108216463D01*
X45108430Y-108258334D01*
X45111514Y-108263249D01*
X45111549Y-108263225D01*
X45116441Y-108270156D01*
X45219637Y-108380651D01*
X45219638Y-108380652D01*
X45254698Y-108401973D01*
X45301749Y-108453623D01*
X45313407Y-108522513D01*
X45285970Y-108586770D01*
X45277950Y-108595601D01*
X44699942Y-109173609D01*
X44746768Y-109210055D01*
X44746770Y-109210056D01*
X44965385Y-109328364D01*
X44965396Y-109328369D01*
X45200506Y-109409083D01*
X45445707Y-109450000D01*
X45694293Y-109450000D01*
X45939493Y-109409083D01*
X46174603Y-109328369D01*
X46174614Y-109328364D01*
X46393228Y-109210057D01*
X46393231Y-109210055D01*
X46440056Y-109173609D01*
X45863165Y-108596718D01*
X45829680Y-108535395D01*
X45834664Y-108465703D01*
X45872588Y-108412853D01*
X45975739Y-108328934D01*
X46026052Y-108257655D01*
X46080793Y-108214239D01*
X46150318Y-108207310D01*
X46212553Y-108239068D01*
X46215037Y-108241484D01*
X46793434Y-108819882D01*
X46893731Y-108666369D01*
X46993587Y-108438717D01*
X47054612Y-108197738D01*
X47054614Y-108197729D01*
X47075141Y-107950005D01*
X50564859Y-107950005D01*
X50585385Y-108197729D01*
X50585387Y-108197738D01*
X50646412Y-108438717D01*
X50746266Y-108666364D01*
X50846564Y-108819882D01*
X51421482Y-108244964D01*
X51482805Y-108211479D01*
X51552496Y-108216463D01*
X51608430Y-108258334D01*
X51611514Y-108263249D01*
X51611549Y-108263225D01*
X51616441Y-108270156D01*
X51719637Y-108380651D01*
X51719638Y-108380652D01*
X51754698Y-108401973D01*
X51801749Y-108453623D01*
X51813407Y-108522513D01*
X51785970Y-108586770D01*
X51777950Y-108595601D01*
X51199942Y-109173609D01*
X51246768Y-109210055D01*
X51246770Y-109210056D01*
X51465385Y-109328364D01*
X51465396Y-109328369D01*
X51700506Y-109409083D01*
X51945707Y-109450000D01*
X52194293Y-109450000D01*
X52439493Y-109409083D01*
X52674603Y-109328369D01*
X52674614Y-109328364D01*
X52893228Y-109210057D01*
X52893231Y-109210055D01*
X52940056Y-109173609D01*
X52363165Y-108596718D01*
X52329680Y-108535395D01*
X52334664Y-108465703D01*
X52372588Y-108412853D01*
X52475739Y-108328934D01*
X52526052Y-108257655D01*
X52580793Y-108214239D01*
X52650318Y-108207310D01*
X52712553Y-108239068D01*
X52715037Y-108241484D01*
X53293434Y-108819882D01*
X53393731Y-108666369D01*
X53493587Y-108438717D01*
X53554612Y-108197738D01*
X53554614Y-108197729D01*
X53575141Y-107950005D01*
X53575141Y-107949994D01*
X53556733Y-107727844D01*
X70890000Y-107727844D01*
X70896401Y-107787372D01*
X70896403Y-107787379D01*
X70946645Y-107922086D01*
X70946649Y-107922093D01*
X71032809Y-108037187D01*
X71032812Y-108037190D01*
X71147906Y-108123350D01*
X71147913Y-108123354D01*
X71282620Y-108173596D01*
X71282627Y-108173598D01*
X71342155Y-108179999D01*
X71342172Y-108180000D01*
X72140000Y-108180000D01*
X72140000Y-107292301D01*
X72159685Y-107225262D01*
X72212489Y-107179507D01*
X72281647Y-107169563D01*
X72354237Y-107180000D01*
X72354238Y-107180000D01*
X72425762Y-107180000D01*
X72425763Y-107180000D01*
X72498353Y-107169563D01*
X72567512Y-107179507D01*
X72620315Y-107225262D01*
X72640000Y-107292301D01*
X72640000Y-108180000D01*
X73437828Y-108180000D01*
X73437844Y-108179999D01*
X73497372Y-108173598D01*
X73497379Y-108173596D01*
X73632086Y-108123354D01*
X73632093Y-108123350D01*
X73747187Y-108037190D01*
X73747190Y-108037187D01*
X73833350Y-107922093D01*
X73837604Y-107914304D01*
X73840816Y-107916057D01*
X73872183Y-107874029D01*
X73937612Y-107849517D01*
X74005906Y-107864269D01*
X74022795Y-107875330D01*
X74106491Y-107940474D01*
X74160126Y-107969500D01*
X74312990Y-108052226D01*
X74325190Y-108058828D01*
X74560386Y-108139571D01*
X74805665Y-108180500D01*
X75054335Y-108180500D01*
X75299614Y-108139571D01*
X75534810Y-108058828D01*
X75753509Y-107940474D01*
X75949744Y-107787738D01*
X76108771Y-107614988D01*
X76168657Y-107578999D01*
X76238495Y-107581099D01*
X76291228Y-107614988D01*
X76450256Y-107787738D01*
X76646491Y-107940474D01*
X76700126Y-107969500D01*
X76852990Y-108052226D01*
X76865190Y-108058828D01*
X77100386Y-108139571D01*
X77345665Y-108180500D01*
X77594335Y-108180500D01*
X77839614Y-108139571D01*
X78074810Y-108058828D01*
X78293509Y-107940474D01*
X78489744Y-107787738D01*
X78658164Y-107604785D01*
X78794173Y-107396607D01*
X78794175Y-107396603D01*
X78801595Y-107379689D01*
X78846551Y-107326203D01*
X78913287Y-107305514D01*
X78915150Y-107305500D01*
X80065812Y-107305500D01*
X80132851Y-107325185D01*
X80167387Y-107358377D01*
X80279954Y-107519141D01*
X80440858Y-107680045D01*
X80440861Y-107680047D01*
X80627266Y-107810568D01*
X80833504Y-107906739D01*
X81053308Y-107965635D01*
X81215230Y-107979801D01*
X81279998Y-107985468D01*
X81280000Y-107985468D01*
X81280002Y-107985468D01*
X81336673Y-107980509D01*
X81506692Y-107965635D01*
X81726496Y-107906739D01*
X81932734Y-107810568D01*
X82119139Y-107680047D01*
X82280047Y-107519139D01*
X82410568Y-107332734D01*
X82437618Y-107274724D01*
X82483790Y-107222285D01*
X82550983Y-107203133D01*
X82617865Y-107223348D01*
X82662382Y-107274725D01*
X82689429Y-107332728D01*
X82689432Y-107332734D01*
X82819954Y-107519141D01*
X82980858Y-107680045D01*
X82980861Y-107680047D01*
X83167266Y-107810568D01*
X83373504Y-107906739D01*
X83593308Y-107965635D01*
X83755230Y-107979801D01*
X83819998Y-107985468D01*
X83820000Y-107985468D01*
X83820002Y-107985468D01*
X83876673Y-107980509D01*
X84046692Y-107965635D01*
X84266496Y-107906739D01*
X84472734Y-107810568D01*
X84659139Y-107680047D01*
X84820047Y-107519139D01*
X84950568Y-107332734D01*
X85046739Y-107126496D01*
X85105635Y-106906692D01*
X85125468Y-106680000D01*
X85105635Y-106453308D01*
X85046739Y-106233504D01*
X84950568Y-106027266D01*
X84820047Y-105840861D01*
X84820045Y-105840858D01*
X84659141Y-105679954D01*
X84472734Y-105549432D01*
X84472732Y-105549431D01*
X84266497Y-105453261D01*
X84266488Y-105453258D01*
X84046697Y-105394366D01*
X84046693Y-105394365D01*
X84046692Y-105394365D01*
X84046691Y-105394364D01*
X84046686Y-105394364D01*
X83820002Y-105374532D01*
X83819998Y-105374532D01*
X83593313Y-105394364D01*
X83593302Y-105394366D01*
X83373511Y-105453258D01*
X83373502Y-105453261D01*
X83167267Y-105549431D01*
X83167265Y-105549432D01*
X82980858Y-105679954D01*
X82819954Y-105840858D01*
X82689432Y-106027265D01*
X82689431Y-106027267D01*
X82662382Y-106085275D01*
X82616209Y-106137714D01*
X82549016Y-106156866D01*
X82482135Y-106136650D01*
X82437618Y-106085275D01*
X82429422Y-106067698D01*
X82410568Y-106027266D01*
X82280047Y-105840861D01*
X82280045Y-105840858D01*
X82119140Y-105679953D01*
X81958377Y-105567386D01*
X81914752Y-105512809D01*
X81905500Y-105465811D01*
X81905500Y-101580191D01*
X81925185Y-101513152D01*
X81977989Y-101467397D01*
X82047147Y-101457453D01*
X82087949Y-101470831D01*
X82155659Y-101507023D01*
X82348967Y-101565662D01*
X82550000Y-101585462D01*
X82751033Y-101565662D01*
X82944341Y-101507023D01*
X83122494Y-101411798D01*
X83278647Y-101283647D01*
X83406798Y-101127494D01*
X83502023Y-100949341D01*
X83560662Y-100756033D01*
X83575500Y-100605380D01*
X83575500Y-100054620D01*
X83560662Y-99903967D01*
X83502023Y-99710659D01*
X83502021Y-99710656D01*
X83502021Y-99710654D01*
X83406801Y-99532511D01*
X83406799Y-99532509D01*
X83406798Y-99532506D01*
X83367824Y-99485016D01*
X83278647Y-99376352D01*
X83220835Y-99328907D01*
X83181501Y-99271161D01*
X83175500Y-99233054D01*
X83175500Y-94062737D01*
X83177224Y-94047123D01*
X83176938Y-94047096D01*
X83177672Y-94039333D01*
X83175500Y-93970202D01*
X83175500Y-93940651D01*
X83175500Y-93940650D01*
X83174629Y-93933759D01*
X83174172Y-93927945D01*
X83172709Y-93881374D01*
X83172709Y-93881372D01*
X83167120Y-93862137D01*
X83163174Y-93843084D01*
X83160664Y-93823208D01*
X83143501Y-93779859D01*
X83141614Y-93774346D01*
X83128617Y-93729610D01*
X83128616Y-93729608D01*
X83118421Y-93712369D01*
X83109860Y-93694893D01*
X83102486Y-93676269D01*
X83102486Y-93676267D01*
X83092474Y-93662488D01*
X83075083Y-93638550D01*
X83071900Y-93633705D01*
X83048170Y-93593579D01*
X83048165Y-93593573D01*
X83034005Y-93579413D01*
X83021370Y-93564620D01*
X83009593Y-93548412D01*
X82973693Y-93518713D01*
X82969381Y-93514790D01*
X80510802Y-91056212D01*
X80500980Y-91043950D01*
X80500759Y-91044134D01*
X80495786Y-91038123D01*
X80445364Y-90990773D01*
X80434919Y-90980328D01*
X80424475Y-90969883D01*
X80418986Y-90965625D01*
X80414561Y-90961847D01*
X80380582Y-90929938D01*
X80380580Y-90929936D01*
X80380577Y-90929935D01*
X80363029Y-90920288D01*
X80346763Y-90909604D01*
X80330933Y-90897325D01*
X80288168Y-90878818D01*
X80282922Y-90876248D01*
X80242093Y-90853803D01*
X80242092Y-90853802D01*
X80222693Y-90848822D01*
X80204281Y-90842518D01*
X80185898Y-90834562D01*
X80185892Y-90834560D01*
X80139874Y-90827272D01*
X80134152Y-90826087D01*
X80089021Y-90814500D01*
X80089019Y-90814500D01*
X80068984Y-90814500D01*
X80049586Y-90812973D01*
X80042162Y-90811797D01*
X80029805Y-90809840D01*
X80029804Y-90809840D01*
X79983416Y-90814225D01*
X79977578Y-90814500D01*
X73604188Y-90814500D01*
X73537149Y-90794815D01*
X73502613Y-90761623D01*
X73390045Y-90600858D01*
X73229141Y-90439954D01*
X73042734Y-90309432D01*
X73042732Y-90309431D01*
X72836497Y-90213261D01*
X72836488Y-90213258D01*
X72616697Y-90154366D01*
X72616693Y-90154365D01*
X72616692Y-90154365D01*
X72616691Y-90154364D01*
X72616686Y-90154364D01*
X72390002Y-90134532D01*
X72389998Y-90134532D01*
X72163313Y-90154364D01*
X72163302Y-90154366D01*
X71943511Y-90213258D01*
X71943502Y-90213261D01*
X71737267Y-90309431D01*
X71737265Y-90309432D01*
X71550858Y-90439954D01*
X71389954Y-90600858D01*
X71259432Y-90787265D01*
X71259431Y-90787267D01*
X71163261Y-90993502D01*
X71163258Y-90993511D01*
X71104366Y-91213302D01*
X71104364Y-91213313D01*
X71084532Y-91439998D01*
X71084532Y-91440001D01*
X71104364Y-91666686D01*
X71104366Y-91666697D01*
X71163258Y-91886488D01*
X71163261Y-91886497D01*
X71259431Y-92092732D01*
X71259432Y-92092734D01*
X71389954Y-92279141D01*
X71550858Y-92440045D01*
X71550861Y-92440047D01*
X71737266Y-92570568D01*
X71943504Y-92666739D01*
X72163308Y-92725635D01*
X72325230Y-92739801D01*
X72389998Y-92745468D01*
X72390000Y-92745468D01*
X72390002Y-92745468D01*
X72446673Y-92740509D01*
X72616692Y-92725635D01*
X72836496Y-92666739D01*
X73042734Y-92570568D01*
X73229139Y-92440047D01*
X73390047Y-92279139D01*
X73487690Y-92139689D01*
X73502613Y-92118377D01*
X73557189Y-92074752D01*
X73604188Y-92065500D01*
X79699548Y-92065500D01*
X79766587Y-92085185D01*
X79787229Y-92101819D01*
X81888181Y-94202771D01*
X81921666Y-94264094D01*
X81924500Y-94290452D01*
X81924499Y-99079807D01*
X81904814Y-99146846D01*
X81852010Y-99192601D01*
X81782852Y-99202545D01*
X81742046Y-99189166D01*
X81674341Y-99152977D01*
X81481031Y-99094337D01*
X81280000Y-99074538D01*
X81078968Y-99094337D01*
X80940959Y-99136202D01*
X80885659Y-99152977D01*
X80885658Y-99152977D01*
X80884575Y-99153306D01*
X80814708Y-99153929D01*
X80785618Y-99139529D01*
X80785114Y-99140454D01*
X80777328Y-99136202D01*
X80716167Y-99113391D01*
X80660233Y-99071520D01*
X80635816Y-99006056D01*
X80635500Y-98997209D01*
X80635500Y-96464188D01*
X80655185Y-96397149D01*
X80688377Y-96362613D01*
X80736836Y-96328681D01*
X80849139Y-96250047D01*
X81010047Y-96089139D01*
X81140568Y-95902734D01*
X81236739Y-95696496D01*
X81295635Y-95476692D01*
X81315468Y-95250000D01*
X81295635Y-95023308D01*
X81236739Y-94803504D01*
X81140568Y-94597266D01*
X81010047Y-94410861D01*
X81010045Y-94410858D01*
X80849141Y-94249954D01*
X80662734Y-94119432D01*
X80662732Y-94119431D01*
X80456497Y-94023261D01*
X80456488Y-94023258D01*
X80236697Y-93964366D01*
X80236693Y-93964365D01*
X80236692Y-93964365D01*
X80236691Y-93964364D01*
X80236686Y-93964364D01*
X80010002Y-93944532D01*
X80009998Y-93944532D01*
X79783313Y-93964364D01*
X79783302Y-93964366D01*
X79563511Y-94023258D01*
X79563502Y-94023261D01*
X79357267Y-94119431D01*
X79357265Y-94119432D01*
X79170858Y-94249954D01*
X79009954Y-94410858D01*
X78879432Y-94597265D01*
X78879431Y-94597267D01*
X78783261Y-94803502D01*
X78783258Y-94803511D01*
X78724366Y-95023302D01*
X78724364Y-95023313D01*
X78704532Y-95249998D01*
X78704532Y-95250001D01*
X78724364Y-95476686D01*
X78724366Y-95476697D01*
X78783258Y-95696488D01*
X78783261Y-95696497D01*
X78879431Y-95902732D01*
X78879432Y-95902734D01*
X79009954Y-96089141D01*
X79170858Y-96250045D01*
X79331623Y-96362613D01*
X79375248Y-96417189D01*
X79384500Y-96464188D01*
X79384500Y-98997209D01*
X79364815Y-99064248D01*
X79312011Y-99110003D01*
X79303833Y-99113391D01*
X79242671Y-99136202D01*
X79242664Y-99136206D01*
X79127455Y-99222452D01*
X79127452Y-99222455D01*
X79041206Y-99337664D01*
X79041202Y-99337671D01*
X78990908Y-99472517D01*
X78984501Y-99532116D01*
X78984500Y-99532135D01*
X78984500Y-101127870D01*
X78984501Y-101127876D01*
X78990908Y-101187483D01*
X79041202Y-101322328D01*
X79041206Y-101322335D01*
X79127452Y-101437544D01*
X79127455Y-101437547D01*
X79242664Y-101523793D01*
X79242671Y-101523797D01*
X79377517Y-101574091D01*
X79377516Y-101574091D01*
X79384444Y-101574835D01*
X79437127Y-101580500D01*
X80530500Y-101580499D01*
X80597539Y-101600184D01*
X80643294Y-101652987D01*
X80654500Y-101704499D01*
X80654500Y-105465811D01*
X80634815Y-105532850D01*
X80601623Y-105567386D01*
X80440859Y-105679953D01*
X80279954Y-105840858D01*
X80167387Y-106001623D01*
X80112811Y-106045248D01*
X80065812Y-106054500D01*
X78915150Y-106054500D01*
X78848111Y-106034815D01*
X78802356Y-105982011D01*
X78801595Y-105980311D01*
X78794175Y-105963396D01*
X78658166Y-105755217D01*
X78544879Y-105632155D01*
X78489744Y-105572262D01*
X78293509Y-105419526D01*
X78293507Y-105419525D01*
X78293506Y-105419524D01*
X78074811Y-105301172D01*
X78074802Y-105301169D01*
X77839616Y-105220429D01*
X77594335Y-105179500D01*
X77345665Y-105179500D01*
X77100383Y-105220429D01*
X76865197Y-105301169D01*
X76865188Y-105301172D01*
X76646493Y-105419524D01*
X76450255Y-105572262D01*
X76450252Y-105572265D01*
X76291228Y-105745010D01*
X76231341Y-105781001D01*
X76161503Y-105778900D01*
X76108770Y-105745011D01*
X75949744Y-105572262D01*
X75753509Y-105419526D01*
X75753507Y-105419525D01*
X75753506Y-105419524D01*
X75534811Y-105301172D01*
X75534802Y-105301169D01*
X75299616Y-105220429D01*
X75054335Y-105179500D01*
X74805665Y-105179500D01*
X74560383Y-105220429D01*
X74325197Y-105301169D01*
X74325188Y-105301172D01*
X74121955Y-105411157D01*
X74106491Y-105419526D01*
X74063152Y-105453258D01*
X74022800Y-105484665D01*
X73957805Y-105510307D01*
X73889265Y-105496740D01*
X73838941Y-105448271D01*
X73837709Y-105445638D01*
X73837604Y-105445696D01*
X73833350Y-105437906D01*
X73747190Y-105322812D01*
X73747187Y-105322809D01*
X73632093Y-105236649D01*
X73632086Y-105236645D01*
X73497379Y-105186403D01*
X73497372Y-105186401D01*
X73437844Y-105180000D01*
X72640000Y-105180000D01*
X72640000Y-106067698D01*
X72620315Y-106134737D01*
X72567511Y-106180492D01*
X72498355Y-106190436D01*
X72425766Y-106180000D01*
X72425763Y-106180000D01*
X72354237Y-106180000D01*
X72354233Y-106180000D01*
X72281645Y-106190436D01*
X72212487Y-106180492D01*
X72159684Y-106134736D01*
X72140000Y-106067698D01*
X72140000Y-105180000D01*
X71342155Y-105180000D01*
X71282627Y-105186401D01*
X71282620Y-105186403D01*
X71147913Y-105236645D01*
X71147906Y-105236649D01*
X71032812Y-105322809D01*
X71032809Y-105322812D01*
X70946649Y-105437906D01*
X70946645Y-105437913D01*
X70896403Y-105572620D01*
X70896401Y-105572627D01*
X70890000Y-105632155D01*
X70890000Y-106430000D01*
X71776653Y-106430000D01*
X71843692Y-106449685D01*
X71889447Y-106502489D01*
X71899391Y-106571647D01*
X71895631Y-106588933D01*
X71890000Y-106608111D01*
X71890000Y-106751888D01*
X71895631Y-106771067D01*
X71895630Y-106840936D01*
X71857855Y-106899714D01*
X71794299Y-106928738D01*
X71776653Y-106930000D01*
X70890000Y-106930000D01*
X70890000Y-107727844D01*
X53556733Y-107727844D01*
X53554614Y-107702270D01*
X53554612Y-107702261D01*
X53493587Y-107461282D01*
X53393731Y-107233630D01*
X53293434Y-107080116D01*
X52718517Y-107655034D01*
X52657194Y-107688519D01*
X52587502Y-107683535D01*
X52531569Y-107641663D01*
X52528486Y-107636750D01*
X52528451Y-107636775D01*
X52523558Y-107629843D01*
X52468661Y-107571064D01*
X52420362Y-107519348D01*
X52385300Y-107498026D01*
X52338248Y-107446374D01*
X52326591Y-107377484D01*
X52354029Y-107313227D01*
X52362048Y-107304397D01*
X52940056Y-106726389D01*
X52893229Y-106689943D01*
X52674614Y-106571635D01*
X52674603Y-106571630D01*
X52439493Y-106490916D01*
X52194293Y-106450000D01*
X51945707Y-106450000D01*
X51700506Y-106490916D01*
X51465396Y-106571630D01*
X51465390Y-106571632D01*
X51246761Y-106689949D01*
X51199942Y-106726388D01*
X51199942Y-106726390D01*
X51776833Y-107303280D01*
X51810318Y-107364603D01*
X51805334Y-107434294D01*
X51767408Y-107487148D01*
X51664262Y-107571064D01*
X51664258Y-107571069D01*
X51613947Y-107642343D01*
X51559204Y-107685760D01*
X51489679Y-107692689D01*
X51427444Y-107660930D01*
X51424962Y-107658515D01*
X50846564Y-107080116D01*
X50746267Y-107233632D01*
X50646412Y-107461282D01*
X50585387Y-107702261D01*
X50585385Y-107702270D01*
X50564859Y-107949994D01*
X50564859Y-107950005D01*
X47075141Y-107950005D01*
X47075141Y-107949994D01*
X47054614Y-107702270D01*
X47054612Y-107702261D01*
X46993587Y-107461282D01*
X46893731Y-107233630D01*
X46793434Y-107080116D01*
X46218517Y-107655034D01*
X46157194Y-107688519D01*
X46087502Y-107683535D01*
X46031569Y-107641663D01*
X46028486Y-107636750D01*
X46028451Y-107636775D01*
X46023558Y-107629843D01*
X45968661Y-107571064D01*
X45920362Y-107519348D01*
X45885300Y-107498026D01*
X45838248Y-107446374D01*
X45826591Y-107377484D01*
X45854029Y-107313227D01*
X45862048Y-107304397D01*
X46440056Y-106726389D01*
X46393229Y-106689943D01*
X46174614Y-106571635D01*
X46174603Y-106571630D01*
X45939493Y-106490916D01*
X45694293Y-106450000D01*
X45445707Y-106450000D01*
X45200506Y-106490916D01*
X44965396Y-106571630D01*
X44965390Y-106571632D01*
X44746761Y-106689949D01*
X44699942Y-106726388D01*
X44699942Y-106726390D01*
X45276833Y-107303280D01*
X45310318Y-107364603D01*
X45305334Y-107434294D01*
X45267408Y-107487148D01*
X45164262Y-107571064D01*
X45164258Y-107571069D01*
X45113947Y-107642343D01*
X45059204Y-107685760D01*
X44989679Y-107692689D01*
X44927444Y-107660930D01*
X44924962Y-107658515D01*
X44346564Y-107080116D01*
X44246267Y-107233632D01*
X44146412Y-107461282D01*
X44085387Y-107702261D01*
X44085385Y-107702270D01*
X44064859Y-107949994D01*
X44064859Y-107950005D01*
X38101465Y-107950005D01*
X38100000Y-107940505D01*
X38100000Y-103450005D01*
X44064357Y-103450005D01*
X44084890Y-103697812D01*
X44084892Y-103697824D01*
X44145936Y-103938881D01*
X44245826Y-104166606D01*
X44381833Y-104374782D01*
X44381836Y-104374785D01*
X44550256Y-104557738D01*
X44746491Y-104710474D01*
X44965190Y-104828828D01*
X45200386Y-104909571D01*
X45445665Y-104950500D01*
X45694335Y-104950500D01*
X45939614Y-104909571D01*
X46174810Y-104828828D01*
X46393509Y-104710474D01*
X46589744Y-104557738D01*
X46758164Y-104374785D01*
X46894173Y-104166607D01*
X46994063Y-103938881D01*
X47055108Y-103697821D01*
X47075643Y-103450005D01*
X50564357Y-103450005D01*
X50584890Y-103697812D01*
X50584892Y-103697824D01*
X50645936Y-103938881D01*
X50745826Y-104166606D01*
X50881833Y-104374782D01*
X50881836Y-104374785D01*
X51050256Y-104557738D01*
X51246491Y-104710474D01*
X51465190Y-104828828D01*
X51700386Y-104909571D01*
X51945665Y-104950500D01*
X52194335Y-104950500D01*
X52439614Y-104909571D01*
X52674810Y-104828828D01*
X52893509Y-104710474D01*
X53089744Y-104557738D01*
X53258164Y-104374785D01*
X53394173Y-104166607D01*
X53494063Y-103938881D01*
X53555108Y-103697821D01*
X53575643Y-103450000D01*
X53555108Y-103202179D01*
X53494063Y-102961119D01*
X53394173Y-102733393D01*
X53394172Y-102733393D01*
X53258166Y-102525217D01*
X53236557Y-102501744D01*
X53089744Y-102342262D01*
X52893509Y-102189526D01*
X52893507Y-102189525D01*
X52893506Y-102189524D01*
X52674811Y-102071172D01*
X52674802Y-102071169D01*
X52439616Y-101990429D01*
X52194335Y-101949500D01*
X51945665Y-101949500D01*
X51700383Y-101990429D01*
X51465197Y-102071169D01*
X51465188Y-102071172D01*
X51246493Y-102189524D01*
X51050257Y-102342261D01*
X50881833Y-102525217D01*
X50745826Y-102733393D01*
X50645936Y-102961118D01*
X50584892Y-103202175D01*
X50584890Y-103202187D01*
X50564357Y-103449994D01*
X50564357Y-103450005D01*
X47075643Y-103450005D01*
X47075643Y-103450000D01*
X47055108Y-103202179D01*
X46994063Y-102961119D01*
X46894173Y-102733393D01*
X46894172Y-102733393D01*
X46758166Y-102525217D01*
X46736557Y-102501744D01*
X46589744Y-102342262D01*
X46393509Y-102189526D01*
X46393507Y-102189525D01*
X46393506Y-102189524D01*
X46174811Y-102071172D01*
X46174802Y-102071169D01*
X45939616Y-101990429D01*
X45694335Y-101949500D01*
X45445665Y-101949500D01*
X45200383Y-101990429D01*
X44965197Y-102071169D01*
X44965188Y-102071172D01*
X44746493Y-102189524D01*
X44550257Y-102342261D01*
X44381833Y-102525217D01*
X44245826Y-102733393D01*
X44145936Y-102961118D01*
X44084892Y-103202175D01*
X44084890Y-103202187D01*
X44064357Y-103449994D01*
X44064357Y-103450005D01*
X38100000Y-103450005D01*
X38100000Y-96644000D01*
X38119685Y-96576961D01*
X38172489Y-96531206D01*
X38224000Y-96520000D01*
X38503008Y-96520000D01*
X38570047Y-96539685D01*
X38615802Y-96592489D01*
X38626536Y-96633193D01*
X38630000Y-96672792D01*
X38631461Y-96679867D01*
X38631403Y-96679878D01*
X38633034Y-96687237D01*
X38633092Y-96687224D01*
X38634757Y-96694250D01*
X38661025Y-96766424D01*
X38685185Y-96839331D01*
X38688236Y-96845874D01*
X38688182Y-96845898D01*
X38691470Y-96852688D01*
X38691521Y-96852663D01*
X38694761Y-96859113D01*
X38694762Y-96859114D01*
X38694763Y-96859117D01*
X38736965Y-96923282D01*
X38736965Y-96923283D01*
X38777287Y-96988655D01*
X38781766Y-96994319D01*
X38781719Y-96994356D01*
X38786482Y-97000202D01*
X38786528Y-97000164D01*
X38791173Y-97005700D01*
X38847018Y-97058386D01*
X41334267Y-99545634D01*
X41346048Y-99559266D01*
X41360390Y-99578530D01*
X41400420Y-99612119D01*
X41404392Y-99615759D01*
X41410223Y-99621590D01*
X41435939Y-99641923D01*
X41494786Y-99691302D01*
X41494788Y-99691303D01*
X41500823Y-99695272D01*
X41500789Y-99695322D01*
X41507144Y-99699370D01*
X41507177Y-99699318D01*
X41513319Y-99703107D01*
X41513323Y-99703110D01*
X41577182Y-99732888D01*
X41582914Y-99735561D01*
X41651558Y-99770036D01*
X41651561Y-99770037D01*
X41651567Y-99770040D01*
X41651572Y-99770041D01*
X41658355Y-99772510D01*
X41658334Y-99772567D01*
X41665451Y-99775040D01*
X41665470Y-99774984D01*
X41672330Y-99777257D01*
X41747531Y-99792784D01*
X41747532Y-99792784D01*
X41822279Y-99810500D01*
X41822288Y-99810500D01*
X41829452Y-99811338D01*
X41829445Y-99811397D01*
X41836946Y-99812163D01*
X41836952Y-99812104D01*
X41844140Y-99812733D01*
X41844143Y-99812732D01*
X41844144Y-99812733D01*
X41920898Y-99810500D01*
X43092279Y-99810500D01*
X63412279Y-99810500D01*
X64230663Y-99810500D01*
X64297702Y-99830185D01*
X64303548Y-99834182D01*
X64317265Y-99844148D01*
X64317270Y-99844151D01*
X64490192Y-99921142D01*
X64490197Y-99921144D01*
X64675354Y-99960500D01*
X64675355Y-99960500D01*
X64864644Y-99960500D01*
X64864646Y-99960500D01*
X65049803Y-99921144D01*
X65222730Y-99844151D01*
X65375871Y-99732888D01*
X65502533Y-99592216D01*
X65597179Y-99428284D01*
X65655674Y-99248256D01*
X65675460Y-99060000D01*
X65655674Y-98871744D01*
X65597179Y-98691716D01*
X65502533Y-98527784D01*
X65375871Y-98387112D01*
X65375870Y-98387111D01*
X65222734Y-98275851D01*
X65222729Y-98275848D01*
X65049807Y-98198857D01*
X65049802Y-98198855D01*
X64904001Y-98167865D01*
X64864646Y-98159500D01*
X64675354Y-98159500D01*
X64642897Y-98166398D01*
X64490197Y-98198855D01*
X64490192Y-98198857D01*
X64317270Y-98275848D01*
X64317265Y-98275851D01*
X64303548Y-98285818D01*
X64237742Y-98309298D01*
X64230663Y-98309500D01*
X62415453Y-98309500D01*
X62348414Y-98289815D01*
X62327772Y-98273181D01*
X61621819Y-97567227D01*
X61588334Y-97505904D01*
X61585500Y-97479546D01*
X61585500Y-95250002D01*
X71085034Y-95250002D01*
X71104858Y-95476599D01*
X71104860Y-95476610D01*
X71163730Y-95696317D01*
X71163734Y-95696326D01*
X71259865Y-95902481D01*
X71259866Y-95902483D01*
X71310973Y-95975471D01*
X71310973Y-95975472D01*
X71852580Y-95433865D01*
X71913903Y-95400380D01*
X71983594Y-95405364D01*
X72039528Y-95447235D01*
X72050742Y-95465246D01*
X72050949Y-95465651D01*
X72062358Y-95488044D01*
X72062363Y-95488050D01*
X72151949Y-95577636D01*
X72151951Y-95577637D01*
X72151955Y-95577641D01*
X72174747Y-95589254D01*
X72225542Y-95637228D01*
X72242337Y-95705049D01*
X72219799Y-95771184D01*
X72206132Y-95787419D01*
X71664526Y-96329025D01*
X71664526Y-96329026D01*
X71737512Y-96380131D01*
X71737516Y-96380133D01*
X71943673Y-96476265D01*
X71943682Y-96476269D01*
X72163389Y-96535139D01*
X72163400Y-96535141D01*
X72389998Y-96554966D01*
X72390002Y-96554966D01*
X72616599Y-96535141D01*
X72616610Y-96535139D01*
X72836317Y-96476269D01*
X72836331Y-96476264D01*
X73042478Y-96380136D01*
X73115472Y-96329025D01*
X72573866Y-95787419D01*
X72540381Y-95726096D01*
X72545365Y-95656404D01*
X72587237Y-95600471D01*
X72605245Y-95589258D01*
X72628045Y-95577641D01*
X72717641Y-95488045D01*
X72729254Y-95465252D01*
X72777225Y-95414458D01*
X72845046Y-95397661D01*
X72911181Y-95420197D01*
X72927419Y-95433866D01*
X73469025Y-95975472D01*
X73520136Y-95902478D01*
X73616264Y-95696331D01*
X73616269Y-95696317D01*
X73675139Y-95476610D01*
X73675141Y-95476599D01*
X73694966Y-95250002D01*
X73694966Y-95249997D01*
X73675141Y-95023400D01*
X73675139Y-95023389D01*
X73616269Y-94803682D01*
X73616265Y-94803673D01*
X73520133Y-94597516D01*
X73520131Y-94597512D01*
X73469026Y-94524526D01*
X73469025Y-94524526D01*
X72927419Y-95066132D01*
X72866096Y-95099617D01*
X72796404Y-95094633D01*
X72740471Y-95052761D01*
X72729256Y-95034751D01*
X72717641Y-95011955D01*
X72717637Y-95011951D01*
X72717636Y-95011949D01*
X72628050Y-94922363D01*
X72628044Y-94922358D01*
X72618109Y-94917296D01*
X72605250Y-94910744D01*
X72554456Y-94862773D01*
X72537660Y-94794952D01*
X72560197Y-94728817D01*
X72573865Y-94712580D01*
X73115472Y-94170973D01*
X73042483Y-94119866D01*
X73042481Y-94119865D01*
X72836326Y-94023734D01*
X72836317Y-94023730D01*
X72616610Y-93964860D01*
X72616599Y-93964858D01*
X72390002Y-93945034D01*
X72389998Y-93945034D01*
X72163400Y-93964858D01*
X72163389Y-93964860D01*
X71943682Y-94023730D01*
X71943673Y-94023734D01*
X71737513Y-94119868D01*
X71664526Y-94170973D01*
X72206133Y-94712580D01*
X72239618Y-94773903D01*
X72234634Y-94843595D01*
X72192762Y-94899528D01*
X72174748Y-94910745D01*
X72151956Y-94922358D01*
X72151949Y-94922363D01*
X72062363Y-95011949D01*
X72062358Y-95011956D01*
X72050745Y-95034748D01*
X72002770Y-95085544D01*
X71934949Y-95102338D01*
X71868814Y-95079800D01*
X71852580Y-95066133D01*
X71310973Y-94524526D01*
X71259868Y-94597513D01*
X71163734Y-94803673D01*
X71163730Y-94803682D01*
X71104860Y-95023389D01*
X71104858Y-95023400D01*
X71085034Y-95249997D01*
X71085034Y-95250002D01*
X61585500Y-95250002D01*
X61585500Y-86304188D01*
X61605185Y-86237149D01*
X61638377Y-86202613D01*
X61737364Y-86133302D01*
X61799139Y-86090047D01*
X61960047Y-85929139D01*
X62090568Y-85742734D01*
X62117618Y-85684724D01*
X62163790Y-85632285D01*
X62230983Y-85613133D01*
X62297865Y-85633348D01*
X62342382Y-85684725D01*
X62369429Y-85742728D01*
X62369432Y-85742734D01*
X62499954Y-85929141D01*
X62660858Y-86090045D01*
X62675148Y-86100051D01*
X62847266Y-86220568D01*
X63053504Y-86316739D01*
X63273308Y-86375635D01*
X63435230Y-86389801D01*
X63499998Y-86395468D01*
X63500000Y-86395468D01*
X63500002Y-86395468D01*
X63556672Y-86390509D01*
X63726692Y-86375635D01*
X63946496Y-86316739D01*
X64152734Y-86220568D01*
X64339139Y-86090047D01*
X64500047Y-85929139D01*
X64630568Y-85742734D01*
X64726739Y-85536496D01*
X64785635Y-85316692D01*
X64805468Y-85090000D01*
X64785635Y-84863308D01*
X64740916Y-84696415D01*
X64726741Y-84643511D01*
X64726738Y-84643502D01*
X64657618Y-84495275D01*
X64630568Y-84437266D01*
X64500047Y-84250861D01*
X64500045Y-84250858D01*
X64339140Y-84089953D01*
X64178377Y-83977386D01*
X64134752Y-83922809D01*
X64125500Y-83875811D01*
X64125500Y-81337814D01*
X64145185Y-81270775D01*
X64190483Y-81228759D01*
X64199200Y-81224041D01*
X64268626Y-81186470D01*
X64451784Y-81043913D01*
X64608979Y-80873153D01*
X64735924Y-80678849D01*
X64829157Y-80466300D01*
X64886134Y-80241305D01*
X64888189Y-80216505D01*
X64905300Y-80010006D01*
X64905300Y-80009993D01*
X64886135Y-79778702D01*
X64886133Y-79778691D01*
X64829157Y-79553699D01*
X64735924Y-79341151D01*
X64608983Y-79146852D01*
X64608980Y-79146849D01*
X64608979Y-79146847D01*
X64451784Y-78976087D01*
X64451779Y-78976083D01*
X64451777Y-78976081D01*
X64268634Y-78833535D01*
X64268628Y-78833531D01*
X64064504Y-78723064D01*
X64064495Y-78723061D01*
X63844984Y-78647702D01*
X63644268Y-78614209D01*
X63616049Y-78609500D01*
X63383951Y-78609500D01*
X63355732Y-78614209D01*
X63155015Y-78647702D01*
X62935504Y-78723061D01*
X62935495Y-78723064D01*
X62731371Y-78833531D01*
X62731365Y-78833535D01*
X62548222Y-78976081D01*
X62548215Y-78976087D01*
X62539484Y-78985572D01*
X62479595Y-79021561D01*
X62409757Y-79019458D01*
X62352143Y-78979932D01*
X62332075Y-78944918D01*
X62303355Y-78867915D01*
X62303350Y-78867906D01*
X62217190Y-78752812D01*
X62217187Y-78752809D01*
X62102093Y-78666649D01*
X62102086Y-78666645D01*
X61967379Y-78616403D01*
X61967372Y-78616401D01*
X61907844Y-78610000D01*
X61210000Y-78610000D01*
X61210000Y-79448178D01*
X61190315Y-79515217D01*
X61137511Y-79560972D01*
X61068353Y-79570916D01*
X61049454Y-79566670D01*
X61027829Y-79560000D01*
X61027827Y-79560000D01*
X60926276Y-79560000D01*
X60926268Y-79560000D01*
X60852481Y-79571122D01*
X60783256Y-79561649D01*
X60730143Y-79516254D01*
X60710003Y-79449350D01*
X60710000Y-79448507D01*
X60710000Y-78610000D01*
X60012155Y-78610000D01*
X59952627Y-78616401D01*
X59952620Y-78616403D01*
X59817913Y-78666645D01*
X59817906Y-78666649D01*
X59702812Y-78752809D01*
X59702809Y-78752812D01*
X59616649Y-78867906D01*
X59616645Y-78867913D01*
X59566403Y-79002620D01*
X59566401Y-79002627D01*
X59560000Y-79062155D01*
X59560000Y-79760000D01*
X60399997Y-79760000D01*
X60467036Y-79779685D01*
X60512791Y-79832489D01*
X60522735Y-79901647D01*
X60520888Y-79911592D01*
X60506189Y-79975992D01*
X60506189Y-79975993D01*
X60517021Y-80120532D01*
X60514920Y-80120689D01*
X60511405Y-80178139D01*
X60470110Y-80234499D01*
X60404899Y-80259587D01*
X60394784Y-80260000D01*
X59560000Y-80260000D01*
X59560000Y-80957844D01*
X59566401Y-81017372D01*
X59566403Y-81017379D01*
X59616645Y-81152086D01*
X59616649Y-81152093D01*
X59702809Y-81267187D01*
X59702812Y-81267190D01*
X59817906Y-81353350D01*
X59817913Y-81353354D01*
X59952620Y-81403596D01*
X59952627Y-81403598D01*
X60012155Y-81409999D01*
X60012172Y-81410000D01*
X60710000Y-81410000D01*
X60710000Y-80571821D01*
X60729685Y-80504782D01*
X60782489Y-80459027D01*
X60851647Y-80449083D01*
X60870547Y-80453329D01*
X60892173Y-80460000D01*
X60993723Y-80460000D01*
X60993724Y-80460000D01*
X61067519Y-80448877D01*
X61136742Y-80458350D01*
X61189857Y-80503744D01*
X61209997Y-80570648D01*
X61210000Y-80571492D01*
X61210000Y-81410000D01*
X61907828Y-81410000D01*
X61907844Y-81409999D01*
X61967372Y-81403598D01*
X61967379Y-81403596D01*
X62102086Y-81353354D01*
X62102093Y-81353350D01*
X62217187Y-81267190D01*
X62217190Y-81267187D01*
X62303350Y-81152093D01*
X62303355Y-81152084D01*
X62332075Y-81075081D01*
X62373945Y-81019147D01*
X62439409Y-80994729D01*
X62507682Y-81009580D01*
X62539484Y-81034428D01*
X62548216Y-81043913D01*
X62548219Y-81043915D01*
X62548222Y-81043918D01*
X62731365Y-81186464D01*
X62731371Y-81186468D01*
X62731374Y-81186470D01*
X62796063Y-81221478D01*
X62809517Y-81228759D01*
X62859107Y-81277979D01*
X62874499Y-81337814D01*
X62874500Y-83875811D01*
X62854815Y-83942850D01*
X62821623Y-83977386D01*
X62660859Y-84089953D01*
X62499954Y-84250858D01*
X62369432Y-84437265D01*
X62369431Y-84437267D01*
X62342382Y-84495275D01*
X62296209Y-84547714D01*
X62229016Y-84566866D01*
X62162135Y-84546650D01*
X62117618Y-84495275D01*
X62090568Y-84437266D01*
X61960047Y-84250861D01*
X61960045Y-84250858D01*
X61799141Y-84089954D01*
X61612734Y-83959432D01*
X61612732Y-83959431D01*
X61406497Y-83863261D01*
X61406488Y-83863258D01*
X61186697Y-83804366D01*
X61186693Y-83804365D01*
X61186692Y-83804365D01*
X61186691Y-83804364D01*
X61186686Y-83804364D01*
X60960002Y-83784532D01*
X60959998Y-83784532D01*
X60733313Y-83804364D01*
X60733302Y-83804366D01*
X60513511Y-83863258D01*
X60513502Y-83863261D01*
X60307267Y-83959431D01*
X60307265Y-83959432D01*
X60120858Y-84089954D01*
X59959954Y-84250858D01*
X59829432Y-84437265D01*
X59829431Y-84437267D01*
X59733261Y-84643502D01*
X59733258Y-84643511D01*
X59674366Y-84863302D01*
X59674364Y-84863313D01*
X59654532Y-85089998D01*
X59654532Y-85090001D01*
X59674364Y-85316686D01*
X59674366Y-85316697D01*
X59733258Y-85536488D01*
X59733261Y-85536497D01*
X59829431Y-85742732D01*
X59829432Y-85742734D01*
X59959954Y-85929141D01*
X60120858Y-86090045D01*
X60281623Y-86202613D01*
X60325248Y-86257189D01*
X60334500Y-86304188D01*
X60334500Y-97707255D01*
X60332775Y-97722872D01*
X60333061Y-97722899D01*
X60332326Y-97730665D01*
X60334500Y-97799814D01*
X60334500Y-97829343D01*
X60334501Y-97829360D01*
X60335368Y-97836231D01*
X60335826Y-97842050D01*
X60337290Y-97888624D01*
X60337291Y-97888627D01*
X60342880Y-97907867D01*
X60346824Y-97926911D01*
X60349336Y-97946791D01*
X60366490Y-97990119D01*
X60368382Y-97995647D01*
X60381381Y-98040388D01*
X60391580Y-98057634D01*
X60400138Y-98075103D01*
X60407514Y-98093732D01*
X60421234Y-98112616D01*
X60444713Y-98178423D01*
X60428887Y-98246476D01*
X60378780Y-98295170D01*
X60320915Y-98309500D01*
X42272229Y-98309500D01*
X42205190Y-98289815D01*
X42184548Y-98273181D01*
X40292958Y-96381590D01*
X40259473Y-96320267D01*
X40264457Y-96250575D01*
X40292956Y-96206229D01*
X40410047Y-96089139D01*
X40540568Y-95902734D01*
X40636739Y-95696496D01*
X40695635Y-95476692D01*
X40715468Y-95250000D01*
X40695635Y-95023308D01*
X40636739Y-94803504D01*
X40540568Y-94597266D01*
X40410047Y-94410861D01*
X40249139Y-94249953D01*
X40173376Y-94196903D01*
X40129751Y-94142326D01*
X40120500Y-94095328D01*
X40120500Y-92566662D01*
X40140185Y-92499623D01*
X40173379Y-92465086D01*
X40209140Y-92440046D01*
X40370045Y-92279141D01*
X40370045Y-92279140D01*
X40370047Y-92279139D01*
X40500568Y-92092734D01*
X40596739Y-91886496D01*
X40655635Y-91666692D01*
X40675468Y-91440000D01*
X40675467Y-91439994D01*
X40655635Y-91213313D01*
X40655635Y-91213308D01*
X40596739Y-90993504D01*
X40500568Y-90787266D01*
X40370047Y-90600861D01*
X40209139Y-90439953D01*
X40204373Y-90436615D01*
X40173375Y-90414910D01*
X40129751Y-90360332D01*
X40120500Y-90313336D01*
X40120500Y-87514670D01*
X40140185Y-87447631D01*
X40173375Y-87413096D01*
X40249139Y-87360047D01*
X40410047Y-87199139D01*
X40540568Y-87012734D01*
X40636739Y-86806496D01*
X40695635Y-86586692D01*
X40715468Y-86360000D01*
X40695635Y-86133308D01*
X40636739Y-85913504D01*
X40540568Y-85707266D01*
X40430450Y-85550000D01*
X40410048Y-85520862D01*
X40352783Y-85463597D01*
X40249139Y-85359953D01*
X40173376Y-85306903D01*
X40129751Y-85252326D01*
X40120500Y-85205328D01*
X40120500Y-83676662D01*
X40140185Y-83609623D01*
X40173379Y-83575086D01*
X40195507Y-83559592D01*
X40209139Y-83550047D01*
X40370047Y-83389139D01*
X40500568Y-83202734D01*
X40596739Y-82996496D01*
X40655635Y-82776692D01*
X40675468Y-82550000D01*
X40675467Y-82549994D01*
X40655635Y-82323313D01*
X40655635Y-82323308D01*
X40603453Y-82128562D01*
X40596741Y-82103511D01*
X40596738Y-82103502D01*
X40590630Y-82090404D01*
X40500568Y-81897266D01*
X40435307Y-81804063D01*
X40370048Y-81710862D01*
X40370044Y-81710858D01*
X40209139Y-81549953D01*
X40204373Y-81546615D01*
X40173375Y-81524910D01*
X40129751Y-81470332D01*
X40120500Y-81423336D01*
X40120500Y-78624670D01*
X40140185Y-78557631D01*
X40173375Y-78523096D01*
X40249139Y-78470047D01*
X40410047Y-78309139D01*
X40540568Y-78122734D01*
X40636739Y-77916496D01*
X40695635Y-77696692D01*
X40715468Y-77470000D01*
X40714540Y-77459397D01*
X40698423Y-77275174D01*
X40695635Y-77243308D01*
X40646045Y-77058235D01*
X40636741Y-77023511D01*
X40636738Y-77023502D01*
X40627975Y-77004709D01*
X40540568Y-76817266D01*
X40472812Y-76720500D01*
X40410048Y-76630862D01*
X40384186Y-76605000D01*
X40249139Y-76469953D01*
X40173376Y-76416903D01*
X40129751Y-76362326D01*
X40120500Y-76315328D01*
X40120500Y-74786662D01*
X40140185Y-74719623D01*
X40173379Y-74685086D01*
X40209140Y-74660046D01*
X40370045Y-74499141D01*
X40370047Y-74499139D01*
X40500568Y-74312734D01*
X40596739Y-74106496D01*
X40655635Y-73886692D01*
X40675468Y-73660000D01*
X40655635Y-73433308D01*
X40596739Y-73213504D01*
X40500568Y-73007266D01*
X40370047Y-72820861D01*
X40209139Y-72659953D01*
X40204373Y-72656615D01*
X40173375Y-72634910D01*
X40129751Y-72580332D01*
X40120500Y-72533336D01*
X40120500Y-71100195D01*
X41279840Y-71100195D01*
X41284225Y-71146583D01*
X41284500Y-71152421D01*
X41284500Y-87547255D01*
X41282775Y-87562872D01*
X41283061Y-87562899D01*
X41282326Y-87570665D01*
X41284500Y-87639814D01*
X41284500Y-87669343D01*
X41284501Y-87669360D01*
X41285368Y-87676231D01*
X41285826Y-87682050D01*
X41287290Y-87728624D01*
X41287291Y-87728627D01*
X41292880Y-87747867D01*
X41296824Y-87766911D01*
X41299336Y-87786791D01*
X41316490Y-87830119D01*
X41318382Y-87835647D01*
X41331381Y-87880388D01*
X41341580Y-87897634D01*
X41350138Y-87915103D01*
X41357514Y-87933732D01*
X41384898Y-87971423D01*
X41388106Y-87976307D01*
X41411827Y-88016416D01*
X41411833Y-88016424D01*
X41425990Y-88030580D01*
X41438628Y-88045376D01*
X41450405Y-88061586D01*
X41450406Y-88061587D01*
X41486309Y-88091288D01*
X41490620Y-88095210D01*
X43141492Y-89746082D01*
X44747728Y-91352318D01*
X44781213Y-91413641D01*
X44776229Y-91483333D01*
X44747728Y-91527680D01*
X44026208Y-92249199D01*
X44013951Y-92259020D01*
X44014134Y-92259241D01*
X44008123Y-92264213D01*
X43960772Y-92314636D01*
X43939889Y-92335519D01*
X43939877Y-92335532D01*
X43935621Y-92341017D01*
X43931837Y-92345447D01*
X43899937Y-92379418D01*
X43899936Y-92379420D01*
X43890284Y-92396976D01*
X43879610Y-92413226D01*
X43867329Y-92429061D01*
X43867324Y-92429068D01*
X43848815Y-92471838D01*
X43846245Y-92477084D01*
X43823803Y-92517906D01*
X43818822Y-92537307D01*
X43812521Y-92555710D01*
X43804562Y-92574102D01*
X43804561Y-92574105D01*
X43797271Y-92620127D01*
X43796087Y-92625846D01*
X43784501Y-92670972D01*
X43784500Y-92670982D01*
X43784500Y-92691016D01*
X43782973Y-92710415D01*
X43779840Y-92730194D01*
X43779840Y-92730195D01*
X43784225Y-92776583D01*
X43784500Y-92782421D01*
X43784500Y-94035811D01*
X43764815Y-94102850D01*
X43731623Y-94137386D01*
X43570859Y-94249953D01*
X43409954Y-94410858D01*
X43279432Y-94597265D01*
X43279431Y-94597267D01*
X43183261Y-94803502D01*
X43183258Y-94803511D01*
X43124366Y-95023302D01*
X43124364Y-95023313D01*
X43104532Y-95249998D01*
X43104532Y-95250001D01*
X43124364Y-95476686D01*
X43124366Y-95476697D01*
X43183258Y-95696488D01*
X43183261Y-95696497D01*
X43279431Y-95902732D01*
X43279432Y-95902734D01*
X43409954Y-96089141D01*
X43570858Y-96250045D01*
X43570861Y-96250047D01*
X43757266Y-96380568D01*
X43963504Y-96476739D01*
X44183308Y-96535635D01*
X44345230Y-96549801D01*
X44409998Y-96555468D01*
X44410000Y-96555468D01*
X44410002Y-96555468D01*
X44466673Y-96550509D01*
X44636692Y-96535635D01*
X44856496Y-96476739D01*
X45062734Y-96380568D01*
X45249139Y-96250047D01*
X45410047Y-96089139D01*
X45514471Y-95940005D01*
X48584859Y-95940005D01*
X48605385Y-96187729D01*
X48605387Y-96187738D01*
X48666412Y-96428717D01*
X48766266Y-96656364D01*
X48866564Y-96809882D01*
X49441482Y-96234964D01*
X49502805Y-96201479D01*
X49572496Y-96206463D01*
X49628430Y-96248334D01*
X49631514Y-96253249D01*
X49631549Y-96253225D01*
X49636441Y-96260156D01*
X49700761Y-96329025D01*
X49739638Y-96370652D01*
X49774698Y-96391973D01*
X49821749Y-96443623D01*
X49833407Y-96512513D01*
X49805970Y-96576770D01*
X49797950Y-96585601D01*
X49219942Y-97163609D01*
X49266768Y-97200055D01*
X49266770Y-97200056D01*
X49485385Y-97318364D01*
X49485396Y-97318369D01*
X49720506Y-97399083D01*
X49965707Y-97440000D01*
X50214293Y-97440000D01*
X50459493Y-97399083D01*
X50694603Y-97318369D01*
X50694614Y-97318364D01*
X50913228Y-97200057D01*
X50913231Y-97200055D01*
X50960056Y-97163609D01*
X50383165Y-96586718D01*
X50349680Y-96525395D01*
X50354664Y-96455703D01*
X50392588Y-96402853D01*
X50495739Y-96318934D01*
X50546052Y-96247655D01*
X50600793Y-96204239D01*
X50670318Y-96197310D01*
X50732553Y-96229068D01*
X50735037Y-96231484D01*
X51313434Y-96809882D01*
X51413731Y-96656369D01*
X51513587Y-96428717D01*
X51574612Y-96187738D01*
X51574614Y-96187729D01*
X51595141Y-95940005D01*
X55084859Y-95940005D01*
X55105385Y-96187729D01*
X55105387Y-96187738D01*
X55166412Y-96428717D01*
X55266266Y-96656364D01*
X55366564Y-96809882D01*
X55941482Y-96234964D01*
X56002805Y-96201479D01*
X56072496Y-96206463D01*
X56128430Y-96248334D01*
X56131514Y-96253249D01*
X56131549Y-96253225D01*
X56136441Y-96260156D01*
X56200761Y-96329025D01*
X56239638Y-96370652D01*
X56274698Y-96391973D01*
X56321749Y-96443623D01*
X56333407Y-96512513D01*
X56305970Y-96576770D01*
X56297950Y-96585601D01*
X55719942Y-97163609D01*
X55766768Y-97200055D01*
X55766770Y-97200056D01*
X55985385Y-97318364D01*
X55985396Y-97318369D01*
X56220506Y-97399083D01*
X56465707Y-97440000D01*
X56714293Y-97440000D01*
X56959493Y-97399083D01*
X57194603Y-97318369D01*
X57194614Y-97318364D01*
X57413228Y-97200057D01*
X57413231Y-97200055D01*
X57460056Y-97163609D01*
X56883165Y-96586718D01*
X56849680Y-96525395D01*
X56854664Y-96455703D01*
X56892588Y-96402853D01*
X56995739Y-96318934D01*
X57046052Y-96247655D01*
X57100793Y-96204239D01*
X57170318Y-96197310D01*
X57232553Y-96229068D01*
X57235037Y-96231484D01*
X57813434Y-96809882D01*
X57913731Y-96656369D01*
X58013587Y-96428717D01*
X58074612Y-96187738D01*
X58074614Y-96187729D01*
X58095141Y-95940005D01*
X58095141Y-95939994D01*
X58074614Y-95692270D01*
X58074612Y-95692261D01*
X58013587Y-95451282D01*
X57913731Y-95223630D01*
X57813434Y-95070116D01*
X57238517Y-95645034D01*
X57177194Y-95678519D01*
X57107502Y-95673535D01*
X57051569Y-95631663D01*
X57048486Y-95626750D01*
X57048451Y-95626775D01*
X57043558Y-95619843D01*
X56988661Y-95561064D01*
X56940362Y-95509348D01*
X56905331Y-95488045D01*
X56905300Y-95488026D01*
X56858248Y-95436374D01*
X56846591Y-95367484D01*
X56874029Y-95303227D01*
X56882048Y-95294397D01*
X57460056Y-94716389D01*
X57413229Y-94679943D01*
X57194614Y-94561635D01*
X57194603Y-94561630D01*
X56959493Y-94480916D01*
X56714293Y-94440000D01*
X56465707Y-94440000D01*
X56220506Y-94480916D01*
X55985396Y-94561630D01*
X55985390Y-94561632D01*
X55766761Y-94679949D01*
X55719942Y-94716388D01*
X55719942Y-94716390D01*
X56296833Y-95293280D01*
X56330318Y-95354603D01*
X56325334Y-95424294D01*
X56287408Y-95477148D01*
X56184262Y-95561064D01*
X56184258Y-95561069D01*
X56133947Y-95632343D01*
X56079204Y-95675760D01*
X56009679Y-95682689D01*
X55947444Y-95650930D01*
X55944962Y-95648515D01*
X55366564Y-95070116D01*
X55266267Y-95223632D01*
X55166412Y-95451282D01*
X55105387Y-95692261D01*
X55105385Y-95692270D01*
X55084859Y-95939994D01*
X55084859Y-95940005D01*
X51595141Y-95940005D01*
X51595141Y-95939994D01*
X51574614Y-95692270D01*
X51574612Y-95692261D01*
X51513587Y-95451282D01*
X51413731Y-95223630D01*
X51313434Y-95070116D01*
X50738517Y-95645034D01*
X50677194Y-95678519D01*
X50607502Y-95673535D01*
X50551569Y-95631663D01*
X50548486Y-95626750D01*
X50548451Y-95626775D01*
X50543558Y-95619843D01*
X50488661Y-95561064D01*
X50440362Y-95509348D01*
X50405331Y-95488045D01*
X50405300Y-95488026D01*
X50358248Y-95436374D01*
X50346591Y-95367484D01*
X50374029Y-95303227D01*
X50382048Y-95294397D01*
X50960056Y-94716389D01*
X50913229Y-94679943D01*
X50694614Y-94561635D01*
X50694603Y-94561630D01*
X50459493Y-94480916D01*
X50214293Y-94440000D01*
X49965707Y-94440000D01*
X49720506Y-94480916D01*
X49485396Y-94561630D01*
X49485390Y-94561632D01*
X49266761Y-94679949D01*
X49219942Y-94716388D01*
X49219942Y-94716390D01*
X49796833Y-95293280D01*
X49830318Y-95354603D01*
X49825334Y-95424294D01*
X49787408Y-95477148D01*
X49684262Y-95561064D01*
X49684258Y-95561069D01*
X49633947Y-95632343D01*
X49579204Y-95675760D01*
X49509679Y-95682689D01*
X49447444Y-95650930D01*
X49444962Y-95648515D01*
X48866564Y-95070116D01*
X48766267Y-95223632D01*
X48666412Y-95451282D01*
X48605387Y-95692261D01*
X48605385Y-95692270D01*
X48584859Y-95939994D01*
X48584859Y-95940005D01*
X45514471Y-95940005D01*
X45540568Y-95902734D01*
X45636739Y-95696496D01*
X45695635Y-95476692D01*
X45715468Y-95250000D01*
X45695635Y-95023308D01*
X45636739Y-94803504D01*
X45540568Y-94597266D01*
X45410047Y-94410861D01*
X45410045Y-94410858D01*
X45249140Y-94249953D01*
X45088377Y-94137386D01*
X45044752Y-94082809D01*
X45035500Y-94035811D01*
X45035500Y-93060451D01*
X45055185Y-92993412D01*
X45071815Y-92972774D01*
X45793000Y-92251588D01*
X45854323Y-92218104D01*
X45924015Y-92223088D01*
X45979948Y-92264960D01*
X45982256Y-92268147D01*
X45989954Y-92279141D01*
X46150858Y-92440045D01*
X46150861Y-92440047D01*
X46337266Y-92570568D01*
X46543504Y-92666739D01*
X46763308Y-92725635D01*
X46925230Y-92739801D01*
X46989998Y-92745468D01*
X46990000Y-92745468D01*
X46990002Y-92745468D01*
X47046672Y-92740509D01*
X47216692Y-92725635D01*
X47436496Y-92666739D01*
X47642734Y-92570568D01*
X47829139Y-92440047D01*
X47990047Y-92279139D01*
X48087690Y-92139689D01*
X48102613Y-92118377D01*
X48157189Y-92074752D01*
X48204188Y-92065500D01*
X48644850Y-92065500D01*
X48711889Y-92085185D01*
X48757644Y-92137989D01*
X48758405Y-92139689D01*
X48765824Y-92156603D01*
X48901833Y-92364782D01*
X48915308Y-92379420D01*
X49070256Y-92547738D01*
X49266491Y-92700474D01*
X49485190Y-92818828D01*
X49720386Y-92899571D01*
X49965665Y-92940500D01*
X50214335Y-92940500D01*
X50459614Y-92899571D01*
X50694810Y-92818828D01*
X50913509Y-92700474D01*
X51109744Y-92547738D01*
X51278164Y-92364785D01*
X51414173Y-92156607D01*
X51414175Y-92156603D01*
X51421595Y-92139689D01*
X51466551Y-92086203D01*
X51533287Y-92065514D01*
X51535150Y-92065500D01*
X55144850Y-92065500D01*
X55211889Y-92085185D01*
X55257644Y-92137989D01*
X55258405Y-92139689D01*
X55265824Y-92156603D01*
X55401833Y-92364782D01*
X55415308Y-92379420D01*
X55570256Y-92547738D01*
X55766491Y-92700474D01*
X55985190Y-92818828D01*
X56220386Y-92899571D01*
X56465665Y-92940500D01*
X56714335Y-92940500D01*
X56959614Y-92899571D01*
X57194810Y-92818828D01*
X57413509Y-92700474D01*
X57609744Y-92547738D01*
X57778164Y-92364785D01*
X57914173Y-92156607D01*
X58014063Y-91928881D01*
X58075108Y-91687821D01*
X58075109Y-91687812D01*
X58095643Y-91440005D01*
X58095643Y-91439994D01*
X58075109Y-91192187D01*
X58075107Y-91192175D01*
X58014063Y-90951118D01*
X57914173Y-90723393D01*
X57778166Y-90515217D01*
X57708880Y-90439953D01*
X57609744Y-90332262D01*
X57413509Y-90179526D01*
X57413507Y-90179525D01*
X57413506Y-90179524D01*
X57194811Y-90061172D01*
X57194802Y-90061169D01*
X56959616Y-89980429D01*
X56714335Y-89939500D01*
X56465665Y-89939500D01*
X56220383Y-89980429D01*
X55985197Y-90061169D01*
X55985188Y-90061172D01*
X55766493Y-90179524D01*
X55570257Y-90332261D01*
X55401833Y-90515217D01*
X55265824Y-90723396D01*
X55258405Y-90740311D01*
X55213449Y-90793797D01*
X55146713Y-90814486D01*
X55144850Y-90814500D01*
X51535150Y-90814500D01*
X51468111Y-90794815D01*
X51422356Y-90742011D01*
X51421595Y-90740311D01*
X51414175Y-90723396D01*
X51278166Y-90515217D01*
X51208880Y-90439953D01*
X51109744Y-90332262D01*
X50913509Y-90179526D01*
X50913507Y-90179525D01*
X50913506Y-90179524D01*
X50694811Y-90061172D01*
X50694802Y-90061169D01*
X50459616Y-89980429D01*
X50214335Y-89939500D01*
X49965665Y-89939500D01*
X49720383Y-89980429D01*
X49485197Y-90061169D01*
X49485188Y-90061172D01*
X49266493Y-90179524D01*
X49070257Y-90332261D01*
X48901833Y-90515217D01*
X48765824Y-90723396D01*
X48758405Y-90740311D01*
X48713449Y-90793797D01*
X48646713Y-90814486D01*
X48644850Y-90814500D01*
X48204188Y-90814500D01*
X48137149Y-90794815D01*
X48102613Y-90761623D01*
X47990045Y-90600858D01*
X47829141Y-90439954D01*
X47642734Y-90309432D01*
X47642732Y-90309431D01*
X47436497Y-90213261D01*
X47436488Y-90213258D01*
X47216697Y-90154366D01*
X47216693Y-90154365D01*
X47216692Y-90154365D01*
X47216691Y-90154364D01*
X47216686Y-90154364D01*
X46990002Y-90134532D01*
X46989998Y-90134532D01*
X46763313Y-90154364D01*
X46763302Y-90154366D01*
X46543511Y-90213258D01*
X46543502Y-90213261D01*
X46337267Y-90309431D01*
X46337265Y-90309432D01*
X46150858Y-90439954D01*
X45989953Y-90600859D01*
X45982254Y-90611855D01*
X45927676Y-90655479D01*
X45858177Y-90662670D01*
X45795823Y-90631146D01*
X45793000Y-90628410D01*
X44200526Y-89035936D01*
X42571819Y-87407228D01*
X42538334Y-87345905D01*
X42535500Y-87319547D01*
X42535500Y-71430451D01*
X42555185Y-71363412D01*
X42571814Y-71342775D01*
X51183786Y-62730802D01*
X51196048Y-62720980D01*
X51195865Y-62720759D01*
X51201870Y-62715789D01*
X51201877Y-62715786D01*
X51230106Y-62685724D01*
X51290348Y-62650329D01*
X51360162Y-62653121D01*
X51417383Y-62693215D01*
X51443845Y-62757880D01*
X51444500Y-62770607D01*
X51444500Y-71314546D01*
X51424815Y-71381585D01*
X51408181Y-71402227D01*
X50667228Y-72143179D01*
X50605905Y-72176664D01*
X50539284Y-72172779D01*
X50459616Y-72145429D01*
X50214335Y-72104500D01*
X49965665Y-72104500D01*
X49720383Y-72145429D01*
X49485197Y-72226169D01*
X49485188Y-72226172D01*
X49266493Y-72344524D01*
X49085661Y-72485272D01*
X49020667Y-72510914D01*
X48952127Y-72497347D01*
X48901802Y-72448879D01*
X48885499Y-72387418D01*
X48885499Y-70335785D01*
X48885499Y-68008683D01*
X48905184Y-67941648D01*
X48917350Y-67925714D01*
X48924133Y-67918181D01*
X48992533Y-67842216D01*
X49087179Y-67678284D01*
X49145674Y-67498256D01*
X49165460Y-67310000D01*
X49145674Y-67121744D01*
X49087179Y-66941716D01*
X48992533Y-66777784D01*
X48865871Y-66637112D01*
X48865870Y-66637111D01*
X48712734Y-66525851D01*
X48712729Y-66525848D01*
X48539807Y-66448857D01*
X48539802Y-66448855D01*
X48394001Y-66417865D01*
X48354646Y-66409500D01*
X48165354Y-66409500D01*
X48132897Y-66416398D01*
X47980197Y-66448855D01*
X47980192Y-66448857D01*
X47807270Y-66525848D01*
X47807265Y-66525851D01*
X47654129Y-66637111D01*
X47527466Y-66777785D01*
X47432821Y-66941715D01*
X47432818Y-66941722D01*
X47378578Y-67108657D01*
X47374326Y-67121744D01*
X47354540Y-67310000D01*
X47374326Y-67498256D01*
X47374327Y-67498259D01*
X47432818Y-67678277D01*
X47432821Y-67678284D01*
X47527467Y-67842216D01*
X47570772Y-67890310D01*
X47602650Y-67925715D01*
X47632880Y-67988706D01*
X47634500Y-68008687D01*
X47634500Y-72330950D01*
X47614815Y-72397989D01*
X47562011Y-72443744D01*
X47492853Y-72453688D01*
X47458099Y-72443334D01*
X47436498Y-72433262D01*
X47436488Y-72433258D01*
X47216697Y-72374366D01*
X47216693Y-72374365D01*
X47216692Y-72374365D01*
X47216691Y-72374364D01*
X47216686Y-72374364D01*
X46990002Y-72354532D01*
X46989998Y-72354532D01*
X46763313Y-72374364D01*
X46763302Y-72374366D01*
X46543511Y-72433258D01*
X46543502Y-72433261D01*
X46337267Y-72529431D01*
X46337265Y-72529432D01*
X46150858Y-72659954D01*
X45989953Y-72820859D01*
X45878907Y-72979451D01*
X45824330Y-73023076D01*
X45781227Y-73032267D01*
X45710172Y-73034500D01*
X45680649Y-73034500D01*
X45673778Y-73035367D01*
X45667959Y-73035825D01*
X45621374Y-73037289D01*
X45621368Y-73037290D01*
X45602126Y-73042880D01*
X45583087Y-73046823D01*
X45563217Y-73049334D01*
X45563203Y-73049337D01*
X45519883Y-73066488D01*
X45514358Y-73068380D01*
X45469613Y-73081380D01*
X45469610Y-73081381D01*
X45452366Y-73091579D01*
X45434905Y-73100133D01*
X45416274Y-73107510D01*
X45416262Y-73107517D01*
X45378570Y-73134902D01*
X45373687Y-73138109D01*
X45333580Y-73161829D01*
X45319414Y-73175995D01*
X45304624Y-73188627D01*
X45288414Y-73200404D01*
X45288411Y-73200407D01*
X45258710Y-73236309D01*
X45254777Y-73240631D01*
X44026208Y-74469199D01*
X44013951Y-74479020D01*
X44014134Y-74479241D01*
X44008123Y-74484213D01*
X43960772Y-74534636D01*
X43939889Y-74555519D01*
X43939877Y-74555532D01*
X43935621Y-74561017D01*
X43931837Y-74565447D01*
X43899937Y-74599418D01*
X43899936Y-74599420D01*
X43890284Y-74616976D01*
X43879610Y-74633226D01*
X43867329Y-74649061D01*
X43867324Y-74649068D01*
X43848815Y-74691838D01*
X43846245Y-74697084D01*
X43823803Y-74737906D01*
X43818822Y-74757307D01*
X43812521Y-74775710D01*
X43804562Y-74794102D01*
X43804561Y-74794105D01*
X43797271Y-74840127D01*
X43796087Y-74845846D01*
X43784501Y-74890972D01*
X43784500Y-74890982D01*
X43784500Y-74911016D01*
X43782973Y-74930413D01*
X43782249Y-74934983D01*
X43779840Y-74950194D01*
X43779840Y-74950195D01*
X43784225Y-74996583D01*
X43784500Y-75002421D01*
X43784500Y-76255811D01*
X43764815Y-76322850D01*
X43731623Y-76357386D01*
X43570859Y-76469953D01*
X43409954Y-76630858D01*
X43279432Y-76817265D01*
X43279431Y-76817267D01*
X43183261Y-77023502D01*
X43183258Y-77023511D01*
X43124366Y-77243302D01*
X43124364Y-77243313D01*
X43104532Y-77469998D01*
X43104532Y-77470001D01*
X43124364Y-77696686D01*
X43124366Y-77696697D01*
X43183258Y-77916488D01*
X43183261Y-77916497D01*
X43279431Y-78122732D01*
X43279432Y-78122734D01*
X43409954Y-78309141D01*
X43570858Y-78470045D01*
X43590691Y-78483932D01*
X43757266Y-78600568D01*
X43963504Y-78696739D01*
X44183308Y-78755635D01*
X44345230Y-78769801D01*
X44409998Y-78775468D01*
X44410000Y-78775468D01*
X44410002Y-78775468D01*
X44466673Y-78770509D01*
X44636692Y-78755635D01*
X44856496Y-78696739D01*
X45062734Y-78600568D01*
X45249139Y-78470047D01*
X45410047Y-78309139D01*
X45540568Y-78122734D01*
X45636739Y-77916496D01*
X45695635Y-77696692D01*
X45715468Y-77470000D01*
X45714540Y-77459397D01*
X45698423Y-77275174D01*
X45695635Y-77243308D01*
X45646045Y-77058235D01*
X45636741Y-77023511D01*
X45636738Y-77023502D01*
X45627975Y-77004709D01*
X45540568Y-76817266D01*
X45410047Y-76630861D01*
X45410045Y-76630858D01*
X45249140Y-76469953D01*
X45088377Y-76357386D01*
X45044752Y-76302809D01*
X45035500Y-76255811D01*
X45035500Y-75280451D01*
X45055185Y-75213412D01*
X45071815Y-75192774D01*
X45793000Y-74471588D01*
X45854323Y-74438104D01*
X45924015Y-74443088D01*
X45979948Y-74484960D01*
X45982256Y-74488147D01*
X45989954Y-74499141D01*
X46150858Y-74660045D01*
X46150861Y-74660047D01*
X46337266Y-74790568D01*
X46543504Y-74886739D01*
X46763308Y-74945635D01*
X46925230Y-74959801D01*
X46989998Y-74965468D01*
X46990000Y-74965468D01*
X46990002Y-74965468D01*
X47046672Y-74960509D01*
X47216692Y-74945635D01*
X47436496Y-74886739D01*
X47458093Y-74876667D01*
X47527169Y-74866173D01*
X47590954Y-74894691D01*
X47629195Y-74953167D01*
X47634500Y-74989048D01*
X47634500Y-80637255D01*
X47632775Y-80652872D01*
X47633061Y-80652899D01*
X47632326Y-80660665D01*
X47634500Y-80729814D01*
X47634500Y-80759343D01*
X47634501Y-80759360D01*
X47635368Y-80766231D01*
X47635826Y-80772050D01*
X47637290Y-80818624D01*
X47637291Y-80818627D01*
X47642880Y-80837867D01*
X47646824Y-80856911D01*
X47649336Y-80876791D01*
X47666490Y-80920119D01*
X47668382Y-80925647D01*
X47681381Y-80970388D01*
X47691580Y-80987634D01*
X47700136Y-81005100D01*
X47707514Y-81023732D01*
X47715286Y-81034430D01*
X47734898Y-81061423D01*
X47738106Y-81066307D01*
X47761827Y-81106416D01*
X47761833Y-81106424D01*
X47775990Y-81120580D01*
X47788627Y-81135375D01*
X47800406Y-81151587D01*
X47824080Y-81171172D01*
X47836309Y-81181288D01*
X47840620Y-81185210D01*
X48125742Y-81470332D01*
X48368229Y-81712819D01*
X48401714Y-81774142D01*
X48396730Y-81843834D01*
X48354858Y-81899767D01*
X48289394Y-81924184D01*
X48280548Y-81924500D01*
X48204188Y-81924500D01*
X48137149Y-81904815D01*
X48102613Y-81871623D01*
X47990045Y-81710858D01*
X47829141Y-81549954D01*
X47642734Y-81419432D01*
X47642732Y-81419431D01*
X47436497Y-81323261D01*
X47436488Y-81323258D01*
X47216697Y-81264366D01*
X47216693Y-81264365D01*
X47216692Y-81264365D01*
X47216691Y-81264364D01*
X47216686Y-81264364D01*
X46990002Y-81244532D01*
X46989998Y-81244532D01*
X46763313Y-81264364D01*
X46763302Y-81264366D01*
X46543511Y-81323258D01*
X46543502Y-81323261D01*
X46337267Y-81419431D01*
X46337265Y-81419432D01*
X46150858Y-81549954D01*
X45989953Y-81710859D01*
X45878907Y-81869451D01*
X45824330Y-81913076D01*
X45781227Y-81922267D01*
X45710172Y-81924500D01*
X45680649Y-81924500D01*
X45673778Y-81925367D01*
X45667959Y-81925825D01*
X45621374Y-81927289D01*
X45621368Y-81927290D01*
X45602126Y-81932880D01*
X45583087Y-81936823D01*
X45563217Y-81939334D01*
X45563203Y-81939337D01*
X45519883Y-81956488D01*
X45514358Y-81958380D01*
X45469613Y-81971380D01*
X45469610Y-81971381D01*
X45452366Y-81981579D01*
X45434905Y-81990133D01*
X45416274Y-81997510D01*
X45416262Y-81997517D01*
X45378570Y-82024902D01*
X45373687Y-82028109D01*
X45333580Y-82051829D01*
X45319414Y-82065995D01*
X45304624Y-82078627D01*
X45288414Y-82090404D01*
X45288411Y-82090407D01*
X45258710Y-82126309D01*
X45254777Y-82130631D01*
X44026208Y-83359199D01*
X44013951Y-83369020D01*
X44014134Y-83369241D01*
X44008123Y-83374213D01*
X43960772Y-83424636D01*
X43939889Y-83445519D01*
X43939877Y-83445532D01*
X43935621Y-83451017D01*
X43931837Y-83455447D01*
X43899937Y-83489418D01*
X43899936Y-83489420D01*
X43890284Y-83506976D01*
X43879610Y-83523226D01*
X43867329Y-83539061D01*
X43867324Y-83539068D01*
X43848815Y-83581838D01*
X43846245Y-83587084D01*
X43823803Y-83627906D01*
X43818822Y-83647307D01*
X43812521Y-83665710D01*
X43804562Y-83684102D01*
X43804561Y-83684105D01*
X43797271Y-83730127D01*
X43796087Y-83735846D01*
X43784501Y-83780972D01*
X43784500Y-83780982D01*
X43784500Y-83801016D01*
X43782973Y-83820415D01*
X43779840Y-83840194D01*
X43779840Y-83840195D01*
X43784225Y-83886583D01*
X43784500Y-83892421D01*
X43784500Y-85145811D01*
X43764815Y-85212850D01*
X43731623Y-85247386D01*
X43570859Y-85359953D01*
X43409954Y-85520858D01*
X43279432Y-85707265D01*
X43279431Y-85707267D01*
X43183261Y-85913502D01*
X43183258Y-85913511D01*
X43124366Y-86133302D01*
X43124364Y-86133313D01*
X43104532Y-86359998D01*
X43104532Y-86360001D01*
X43124364Y-86586686D01*
X43124366Y-86586697D01*
X43183258Y-86806488D01*
X43183261Y-86806497D01*
X43279431Y-87012732D01*
X43279432Y-87012734D01*
X43409954Y-87199141D01*
X43570858Y-87360045D01*
X43570861Y-87360047D01*
X43757266Y-87490568D01*
X43963504Y-87586739D01*
X44183308Y-87645635D01*
X44345230Y-87659801D01*
X44409998Y-87665468D01*
X44410000Y-87665468D01*
X44410002Y-87665468D01*
X44466673Y-87660509D01*
X44636692Y-87645635D01*
X44856496Y-87586739D01*
X45062734Y-87490568D01*
X45249139Y-87360047D01*
X45410047Y-87199139D01*
X45514471Y-87050005D01*
X48584859Y-87050005D01*
X48605385Y-87297729D01*
X48605387Y-87297738D01*
X48666412Y-87538717D01*
X48766266Y-87766364D01*
X48866564Y-87919882D01*
X49441482Y-87344964D01*
X49502805Y-87311479D01*
X49572496Y-87316463D01*
X49628430Y-87358334D01*
X49631514Y-87363249D01*
X49631549Y-87363225D01*
X49636441Y-87370156D01*
X49711123Y-87450120D01*
X49739638Y-87480652D01*
X49774698Y-87501973D01*
X49821749Y-87553623D01*
X49833407Y-87622513D01*
X49805970Y-87686770D01*
X49797950Y-87695601D01*
X49219942Y-88273609D01*
X49266768Y-88310055D01*
X49266770Y-88310056D01*
X49485385Y-88428364D01*
X49485396Y-88428369D01*
X49720506Y-88509083D01*
X49965707Y-88550000D01*
X50214293Y-88550000D01*
X50459493Y-88509083D01*
X50694603Y-88428369D01*
X50694614Y-88428364D01*
X50913228Y-88310057D01*
X50913231Y-88310055D01*
X50960056Y-88273609D01*
X50383165Y-87696718D01*
X50349680Y-87635395D01*
X50354664Y-87565703D01*
X50392588Y-87512853D01*
X50495739Y-87428934D01*
X50546052Y-87357655D01*
X50600793Y-87314239D01*
X50670318Y-87307310D01*
X50732553Y-87339068D01*
X50735037Y-87341484D01*
X51313434Y-87919882D01*
X51413731Y-87766369D01*
X51513587Y-87538717D01*
X51574612Y-87297738D01*
X51574614Y-87297729D01*
X51595141Y-87050005D01*
X55084859Y-87050005D01*
X55105385Y-87297729D01*
X55105387Y-87297738D01*
X55166412Y-87538717D01*
X55266266Y-87766364D01*
X55366564Y-87919882D01*
X55941482Y-87344964D01*
X56002805Y-87311479D01*
X56072496Y-87316463D01*
X56128430Y-87358334D01*
X56131514Y-87363249D01*
X56131549Y-87363225D01*
X56136441Y-87370156D01*
X56211123Y-87450120D01*
X56239638Y-87480652D01*
X56274698Y-87501973D01*
X56321749Y-87553623D01*
X56333407Y-87622513D01*
X56305970Y-87686770D01*
X56297950Y-87695601D01*
X55719942Y-88273609D01*
X55766768Y-88310055D01*
X55766770Y-88310056D01*
X55985385Y-88428364D01*
X55985396Y-88428369D01*
X56220506Y-88509083D01*
X56465707Y-88550000D01*
X56714293Y-88550000D01*
X56959493Y-88509083D01*
X57194603Y-88428369D01*
X57194614Y-88428364D01*
X57413228Y-88310057D01*
X57413231Y-88310055D01*
X57460056Y-88273609D01*
X56883165Y-87696718D01*
X56849680Y-87635395D01*
X56854664Y-87565703D01*
X56892588Y-87512853D01*
X56995739Y-87428934D01*
X57046052Y-87357655D01*
X57100793Y-87314239D01*
X57170318Y-87307310D01*
X57232553Y-87339068D01*
X57235037Y-87341484D01*
X57813434Y-87919882D01*
X57913731Y-87766369D01*
X58013587Y-87538717D01*
X58074612Y-87297738D01*
X58074614Y-87297729D01*
X58095141Y-87050005D01*
X58095141Y-87049994D01*
X58074614Y-86802270D01*
X58074612Y-86802261D01*
X58013587Y-86561282D01*
X57913731Y-86333630D01*
X57813434Y-86180116D01*
X57238517Y-86755034D01*
X57177194Y-86788519D01*
X57107502Y-86783535D01*
X57051569Y-86741663D01*
X57048486Y-86736750D01*
X57048451Y-86736775D01*
X57043558Y-86729843D01*
X56988482Y-86670872D01*
X56940362Y-86619348D01*
X56905300Y-86598026D01*
X56858248Y-86546374D01*
X56846591Y-86477484D01*
X56874029Y-86413227D01*
X56882048Y-86404397D01*
X57460056Y-85826389D01*
X57413229Y-85789943D01*
X57194614Y-85671635D01*
X57194603Y-85671630D01*
X56959493Y-85590916D01*
X56714293Y-85550000D01*
X56465707Y-85550000D01*
X56220506Y-85590916D01*
X55985396Y-85671630D01*
X55985390Y-85671632D01*
X55766761Y-85789949D01*
X55719942Y-85826388D01*
X55719942Y-85826390D01*
X56296833Y-86403280D01*
X56330318Y-86464603D01*
X56325334Y-86534294D01*
X56287408Y-86587148D01*
X56184262Y-86671064D01*
X56184258Y-86671069D01*
X56133947Y-86742343D01*
X56079204Y-86785760D01*
X56009679Y-86792689D01*
X55947444Y-86760930D01*
X55944962Y-86758515D01*
X55366564Y-86180116D01*
X55266267Y-86333632D01*
X55166412Y-86561282D01*
X55105387Y-86802261D01*
X55105385Y-86802270D01*
X55084859Y-87049994D01*
X55084859Y-87050005D01*
X51595141Y-87050005D01*
X51595141Y-87049994D01*
X51574614Y-86802270D01*
X51574612Y-86802261D01*
X51513587Y-86561282D01*
X51413731Y-86333630D01*
X51313434Y-86180116D01*
X50738517Y-86755034D01*
X50677194Y-86788519D01*
X50607502Y-86783535D01*
X50551569Y-86741663D01*
X50548486Y-86736750D01*
X50548451Y-86736775D01*
X50543558Y-86729843D01*
X50488482Y-86670872D01*
X50440362Y-86619348D01*
X50405300Y-86598026D01*
X50358248Y-86546374D01*
X50346591Y-86477484D01*
X50374029Y-86413227D01*
X50382048Y-86404397D01*
X50960056Y-85826389D01*
X50913229Y-85789943D01*
X50694614Y-85671635D01*
X50694603Y-85671630D01*
X50459493Y-85590916D01*
X50214293Y-85550000D01*
X49965707Y-85550000D01*
X49720506Y-85590916D01*
X49485396Y-85671630D01*
X49485390Y-85671632D01*
X49266761Y-85789949D01*
X49219942Y-85826388D01*
X49219942Y-85826390D01*
X49796833Y-86403280D01*
X49830318Y-86464603D01*
X49825334Y-86534294D01*
X49787408Y-86587148D01*
X49684262Y-86671064D01*
X49684258Y-86671069D01*
X49633947Y-86742343D01*
X49579204Y-86785760D01*
X49509679Y-86792689D01*
X49447444Y-86760930D01*
X49444962Y-86758515D01*
X48866564Y-86180116D01*
X48766267Y-86333632D01*
X48666412Y-86561282D01*
X48605387Y-86802261D01*
X48605385Y-86802270D01*
X48584859Y-87049994D01*
X48584859Y-87050005D01*
X45514471Y-87050005D01*
X45540568Y-87012734D01*
X45636739Y-86806496D01*
X45695635Y-86586692D01*
X45715468Y-86360000D01*
X45695635Y-86133308D01*
X45636739Y-85913504D01*
X45540568Y-85707266D01*
X45410047Y-85520861D01*
X45410045Y-85520858D01*
X45249140Y-85359953D01*
X45088377Y-85247386D01*
X45044752Y-85192809D01*
X45035500Y-85145811D01*
X45035500Y-84170451D01*
X45055185Y-84103412D01*
X45071815Y-84082774D01*
X45793000Y-83361588D01*
X45854323Y-83328104D01*
X45924015Y-83333088D01*
X45979948Y-83374960D01*
X45982256Y-83378147D01*
X45989954Y-83389141D01*
X46150858Y-83550045D01*
X46186621Y-83575086D01*
X46337266Y-83680568D01*
X46543504Y-83776739D01*
X46763308Y-83835635D01*
X46925230Y-83849801D01*
X46989998Y-83855468D01*
X46990000Y-83855468D01*
X46990002Y-83855468D01*
X47046672Y-83850509D01*
X47216692Y-83835635D01*
X47436496Y-83776739D01*
X47642734Y-83680568D01*
X47829139Y-83550047D01*
X47990047Y-83389139D01*
X48087690Y-83249689D01*
X48102613Y-83228377D01*
X48157189Y-83184752D01*
X48204188Y-83175500D01*
X48644850Y-83175500D01*
X48711889Y-83195185D01*
X48757644Y-83247989D01*
X48758405Y-83249689D01*
X48765824Y-83266603D01*
X48901833Y-83474782D01*
X48915308Y-83489420D01*
X49070256Y-83657738D01*
X49266491Y-83810474D01*
X49485190Y-83928828D01*
X49720386Y-84009571D01*
X49965665Y-84050500D01*
X50214335Y-84050500D01*
X50459614Y-84009571D01*
X50694810Y-83928828D01*
X50913509Y-83810474D01*
X51109744Y-83657738D01*
X51278164Y-83474785D01*
X51414173Y-83266607D01*
X51414175Y-83266603D01*
X51421595Y-83249689D01*
X51466551Y-83196203D01*
X51533287Y-83175514D01*
X51535150Y-83175500D01*
X55144850Y-83175500D01*
X55211889Y-83195185D01*
X55257644Y-83247989D01*
X55258405Y-83249689D01*
X55265824Y-83266603D01*
X55401833Y-83474782D01*
X55415308Y-83489420D01*
X55570256Y-83657738D01*
X55766491Y-83810474D01*
X55985190Y-83928828D01*
X56220386Y-84009571D01*
X56465665Y-84050500D01*
X56714335Y-84050500D01*
X56959614Y-84009571D01*
X57194810Y-83928828D01*
X57413509Y-83810474D01*
X57609744Y-83657738D01*
X57778164Y-83474785D01*
X57914173Y-83266607D01*
X58014063Y-83038881D01*
X58075108Y-82797821D01*
X58075109Y-82797812D01*
X58095643Y-82550005D01*
X58095643Y-82549994D01*
X58075109Y-82302187D01*
X58075107Y-82302175D01*
X58014063Y-82061118D01*
X57914173Y-81833393D01*
X57778166Y-81625217D01*
X57708880Y-81549953D01*
X57609744Y-81442262D01*
X57413509Y-81289526D01*
X57413507Y-81289525D01*
X57413506Y-81289524D01*
X57194811Y-81171172D01*
X57194802Y-81171169D01*
X56959616Y-81090429D01*
X56714335Y-81049500D01*
X56465665Y-81049500D01*
X56220383Y-81090429D01*
X55985197Y-81171169D01*
X55985188Y-81171172D01*
X55766493Y-81289524D01*
X55570257Y-81442261D01*
X55401833Y-81625217D01*
X55265824Y-81833396D01*
X55258405Y-81850311D01*
X55213449Y-81903797D01*
X55146713Y-81924486D01*
X55144850Y-81924500D01*
X51535150Y-81924500D01*
X51468111Y-81904815D01*
X51422356Y-81852011D01*
X51421595Y-81850311D01*
X51414175Y-81833396D01*
X51278166Y-81625217D01*
X51208880Y-81549953D01*
X51109744Y-81442262D01*
X50913509Y-81289526D01*
X50913507Y-81289525D01*
X50913506Y-81289524D01*
X50694811Y-81171172D01*
X50694802Y-81171169D01*
X50459616Y-81090429D01*
X50214335Y-81049500D01*
X49965665Y-81049500D01*
X49720386Y-81090428D01*
X49640713Y-81117780D01*
X49570914Y-81120929D01*
X49512770Y-81088179D01*
X48921818Y-80497227D01*
X48888333Y-80435904D01*
X48885499Y-80409546D01*
X48885499Y-79007309D01*
X48905184Y-78940270D01*
X48921818Y-78919628D01*
X49441482Y-78399964D01*
X49502805Y-78366479D01*
X49572497Y-78371463D01*
X49628430Y-78413335D01*
X49631513Y-78418249D01*
X49631549Y-78418225D01*
X49636441Y-78425156D01*
X49739637Y-78535651D01*
X49739638Y-78535652D01*
X49774698Y-78556973D01*
X49821749Y-78608623D01*
X49833407Y-78677513D01*
X49805970Y-78741770D01*
X49797950Y-78750601D01*
X49219942Y-79328609D01*
X49266768Y-79365055D01*
X49266770Y-79365056D01*
X49485385Y-79483364D01*
X49485396Y-79483369D01*
X49720506Y-79564083D01*
X49965707Y-79605000D01*
X50214293Y-79605000D01*
X50459493Y-79564083D01*
X50694603Y-79483369D01*
X50694614Y-79483364D01*
X50913228Y-79365057D01*
X50913231Y-79365055D01*
X50960056Y-79328609D01*
X50383165Y-78751718D01*
X50349680Y-78690395D01*
X50354664Y-78620703D01*
X50392588Y-78567853D01*
X50495739Y-78483934D01*
X50546052Y-78412655D01*
X50600793Y-78369239D01*
X50670318Y-78362310D01*
X50732553Y-78394068D01*
X50735037Y-78396484D01*
X51313434Y-78974882D01*
X51413731Y-78821369D01*
X51513587Y-78593717D01*
X51574612Y-78352738D01*
X51574614Y-78352729D01*
X51595141Y-78105005D01*
X55084859Y-78105005D01*
X55105385Y-78352729D01*
X55105387Y-78352738D01*
X55166412Y-78593717D01*
X55266266Y-78821364D01*
X55366564Y-78974882D01*
X55941482Y-78399964D01*
X56002805Y-78366479D01*
X56072496Y-78371463D01*
X56128430Y-78413334D01*
X56131514Y-78418249D01*
X56131549Y-78418225D01*
X56136441Y-78425156D01*
X56239637Y-78535651D01*
X56239638Y-78535652D01*
X56274698Y-78556973D01*
X56321749Y-78608623D01*
X56333407Y-78677513D01*
X56305970Y-78741770D01*
X56297950Y-78750601D01*
X55719942Y-79328609D01*
X55766768Y-79365055D01*
X55766770Y-79365056D01*
X55985385Y-79483364D01*
X55985396Y-79483369D01*
X56220506Y-79564083D01*
X56465707Y-79605000D01*
X56714293Y-79605000D01*
X56959493Y-79564083D01*
X57194603Y-79483369D01*
X57194614Y-79483364D01*
X57413228Y-79365057D01*
X57413231Y-79365055D01*
X57460056Y-79328609D01*
X56883165Y-78751718D01*
X56849680Y-78690395D01*
X56854664Y-78620703D01*
X56892588Y-78567853D01*
X56995739Y-78483934D01*
X57046052Y-78412655D01*
X57100793Y-78369239D01*
X57170318Y-78362310D01*
X57232553Y-78394068D01*
X57235037Y-78396484D01*
X57813434Y-78974882D01*
X57913731Y-78821369D01*
X58013587Y-78593717D01*
X58074612Y-78352738D01*
X58074614Y-78352729D01*
X58095141Y-78105005D01*
X58095141Y-78104994D01*
X58074614Y-77857270D01*
X58074612Y-77857261D01*
X58013587Y-77616282D01*
X57913731Y-77388630D01*
X57813434Y-77235116D01*
X57238517Y-77810034D01*
X57177194Y-77843519D01*
X57107502Y-77838535D01*
X57051569Y-77796663D01*
X57048486Y-77791750D01*
X57048451Y-77791775D01*
X57043558Y-77784843D01*
X56961234Y-77696697D01*
X56940362Y-77674348D01*
X56905300Y-77653026D01*
X56858248Y-77601374D01*
X56846591Y-77532484D01*
X56874029Y-77468227D01*
X56882048Y-77459397D01*
X57460056Y-76881389D01*
X57413229Y-76844943D01*
X57194614Y-76726635D01*
X57194603Y-76726630D01*
X56959493Y-76645916D01*
X56714293Y-76605000D01*
X56465707Y-76605000D01*
X56220506Y-76645916D01*
X55985396Y-76726630D01*
X55985390Y-76726632D01*
X55766761Y-76844949D01*
X55719942Y-76881388D01*
X55719942Y-76881390D01*
X56296833Y-77458280D01*
X56330318Y-77519603D01*
X56325334Y-77589294D01*
X56287408Y-77642148D01*
X56184262Y-77726064D01*
X56184258Y-77726069D01*
X56133947Y-77797343D01*
X56079204Y-77840760D01*
X56009679Y-77847689D01*
X55947444Y-77815930D01*
X55944962Y-77813515D01*
X55366564Y-77235116D01*
X55266267Y-77388632D01*
X55166412Y-77616282D01*
X55105387Y-77857261D01*
X55105385Y-77857270D01*
X55084859Y-78104994D01*
X55084859Y-78105005D01*
X51595141Y-78105005D01*
X51595141Y-78104994D01*
X51574614Y-77857270D01*
X51574612Y-77857261D01*
X51513587Y-77616282D01*
X51413731Y-77388630D01*
X51313434Y-77235116D01*
X50738517Y-77810034D01*
X50677194Y-77843519D01*
X50607502Y-77838535D01*
X50551569Y-77796663D01*
X50548486Y-77791750D01*
X50548451Y-77791775D01*
X50543558Y-77784843D01*
X50461234Y-77696697D01*
X50440362Y-77674348D01*
X50405300Y-77653026D01*
X50358248Y-77601374D01*
X50346591Y-77532484D01*
X50374029Y-77468227D01*
X50382048Y-77459397D01*
X50960056Y-76881389D01*
X50913229Y-76844943D01*
X50694614Y-76726635D01*
X50694603Y-76726630D01*
X50459493Y-76645916D01*
X50214293Y-76605000D01*
X49965707Y-76605000D01*
X49720506Y-76645916D01*
X49485396Y-76726630D01*
X49485390Y-76726632D01*
X49266761Y-76844949D01*
X49219942Y-76881388D01*
X49219942Y-76881390D01*
X49796833Y-77458280D01*
X49830318Y-77519603D01*
X49825334Y-77589294D01*
X49787408Y-77642148D01*
X49684262Y-77726064D01*
X49684258Y-77726069D01*
X49633947Y-77797343D01*
X49579204Y-77840760D01*
X49509679Y-77847689D01*
X49447444Y-77815930D01*
X49444962Y-77813515D01*
X48921818Y-77290371D01*
X48888333Y-77229048D01*
X48885499Y-77202690D01*
X48885499Y-74822581D01*
X48905184Y-74755542D01*
X48957988Y-74709787D01*
X49027146Y-74699843D01*
X49085659Y-74724726D01*
X49266491Y-74865474D01*
X49485190Y-74983828D01*
X49720386Y-75064571D01*
X49965665Y-75105500D01*
X50214335Y-75105500D01*
X50459614Y-75064571D01*
X50694810Y-74983828D01*
X50913509Y-74865474D01*
X51109744Y-74712738D01*
X51278164Y-74529785D01*
X51414173Y-74321607D01*
X51414175Y-74321603D01*
X51421595Y-74304689D01*
X51466551Y-74251203D01*
X51533287Y-74230514D01*
X51535150Y-74230500D01*
X55144850Y-74230500D01*
X55211889Y-74250185D01*
X55257644Y-74302989D01*
X55258405Y-74304689D01*
X55265824Y-74321603D01*
X55401833Y-74529782D01*
X55425526Y-74555519D01*
X55570256Y-74712738D01*
X55766491Y-74865474D01*
X55860067Y-74916115D01*
X55954933Y-74967454D01*
X55985190Y-74983828D01*
X56220386Y-75064571D01*
X56465665Y-75105500D01*
X56714335Y-75105500D01*
X56959614Y-75064571D01*
X57194810Y-74983828D01*
X57413509Y-74865474D01*
X57609744Y-74712738D01*
X57778164Y-74529785D01*
X57914173Y-74321607D01*
X58014063Y-74093881D01*
X58075108Y-73852821D01*
X58075109Y-73852812D01*
X58095643Y-73605005D01*
X58095643Y-73604994D01*
X58075109Y-73357187D01*
X58075107Y-73357175D01*
X58014063Y-73116118D01*
X57914173Y-72888393D01*
X57778166Y-72680217D01*
X57736458Y-72634910D01*
X57609744Y-72497262D01*
X57413509Y-72344526D01*
X57413507Y-72344525D01*
X57413506Y-72344524D01*
X57194811Y-72226172D01*
X57194802Y-72226169D01*
X56959616Y-72145429D01*
X56714335Y-72104500D01*
X56465665Y-72104500D01*
X56220383Y-72145429D01*
X55985197Y-72226169D01*
X55985188Y-72226172D01*
X55766493Y-72344524D01*
X55570257Y-72497261D01*
X55401833Y-72680217D01*
X55265824Y-72888396D01*
X55258405Y-72905311D01*
X55213449Y-72958797D01*
X55146713Y-72979486D01*
X55144850Y-72979500D01*
X51899453Y-72979500D01*
X51832414Y-72959815D01*
X51786659Y-72907011D01*
X51776715Y-72837853D01*
X51805740Y-72774297D01*
X51811772Y-72767819D01*
X51944681Y-72634910D01*
X52453788Y-72125801D01*
X52466042Y-72115986D01*
X52465859Y-72115764D01*
X52471866Y-72110792D01*
X52471877Y-72110786D01*
X52502775Y-72077882D01*
X52519227Y-72060364D01*
X52529671Y-72049918D01*
X52540120Y-72039471D01*
X52544379Y-72033978D01*
X52548152Y-72029561D01*
X52580062Y-71995582D01*
X52589715Y-71978020D01*
X52600389Y-71961770D01*
X52612673Y-71945936D01*
X52631180Y-71903167D01*
X52633749Y-71897924D01*
X52656196Y-71857093D01*
X52656197Y-71857092D01*
X52661177Y-71837691D01*
X52667478Y-71819288D01*
X52675438Y-71800896D01*
X52682730Y-71754849D01*
X52683911Y-71749152D01*
X52684457Y-71747027D01*
X52695500Y-71704019D01*
X52695500Y-71683982D01*
X52697027Y-71664582D01*
X52700160Y-71644804D01*
X52695775Y-71598415D01*
X52695500Y-71592577D01*
X52695500Y-63500000D01*
X53254341Y-63500000D01*
X53274936Y-63735403D01*
X53274938Y-63735413D01*
X53336094Y-63963655D01*
X53336096Y-63963659D01*
X53336097Y-63963663D01*
X53402568Y-64106210D01*
X53435965Y-64177830D01*
X53435967Y-64177834D01*
X53494462Y-64261373D01*
X53571505Y-64371401D01*
X53738599Y-64538495D01*
X53738604Y-64538499D01*
X53739968Y-64539643D01*
X53740407Y-64540303D01*
X53742427Y-64542323D01*
X53742021Y-64542728D01*
X53778669Y-64597815D01*
X53779776Y-64667676D01*
X53742937Y-64727046D01*
X53699267Y-64752336D01*
X53690669Y-64755184D01*
X53690663Y-64755187D01*
X53541342Y-64847289D01*
X53417289Y-64971342D01*
X53325187Y-65120663D01*
X53325185Y-65120668D01*
X53308701Y-65170414D01*
X53270001Y-65287203D01*
X53270001Y-65287204D01*
X53270000Y-65287204D01*
X53259500Y-65389983D01*
X53259500Y-66690001D01*
X53259501Y-66690018D01*
X53270000Y-66792796D01*
X53270001Y-66792799D01*
X53309303Y-66911402D01*
X53325186Y-66959334D01*
X53417288Y-67108656D01*
X53541344Y-67232712D01*
X53690666Y-67324814D01*
X53857203Y-67379999D01*
X53959991Y-67390500D01*
X55260008Y-67390499D01*
X55362797Y-67379999D01*
X55529334Y-67324814D01*
X55678656Y-67232712D01*
X55802712Y-67108656D01*
X55894814Y-66959334D01*
X55897662Y-66950738D01*
X55937429Y-66893294D01*
X56001944Y-66866468D01*
X56070720Y-66878779D01*
X56107483Y-66907766D01*
X56107677Y-66907573D01*
X56109313Y-66909209D01*
X56110354Y-66910030D01*
X56111501Y-66911397D01*
X56111505Y-66911401D01*
X56278599Y-67078495D01*
X56321675Y-67108657D01*
X56472165Y-67214032D01*
X56472167Y-67214033D01*
X56472170Y-67214035D01*
X56686337Y-67313903D01*
X56686343Y-67313904D01*
X56686344Y-67313905D01*
X56708397Y-67319814D01*
X56914592Y-67375063D01*
X57091034Y-67390500D01*
X57149999Y-67395659D01*
X57150000Y-67395659D01*
X57150001Y-67395659D01*
X57208966Y-67390500D01*
X57385408Y-67375063D01*
X57613663Y-67313903D01*
X57827830Y-67214035D01*
X58021401Y-67078495D01*
X58188495Y-66911401D01*
X58318424Y-66725842D01*
X58373002Y-66682217D01*
X58442500Y-66675023D01*
X58504855Y-66706546D01*
X58521575Y-66725842D01*
X58651500Y-66911395D01*
X58651505Y-66911401D01*
X58818599Y-67078495D01*
X58861675Y-67108657D01*
X59012165Y-67214032D01*
X59012167Y-67214033D01*
X59012170Y-67214035D01*
X59226337Y-67313903D01*
X59226343Y-67313904D01*
X59226344Y-67313905D01*
X59248397Y-67319814D01*
X59454592Y-67375063D01*
X59631034Y-67390500D01*
X59689999Y-67395659D01*
X59690000Y-67395659D01*
X59690001Y-67395659D01*
X59748966Y-67390500D01*
X59925408Y-67375063D01*
X60153663Y-67313903D01*
X60367830Y-67214035D01*
X60561401Y-67078495D01*
X60728495Y-66911401D01*
X60858424Y-66725842D01*
X60913002Y-66682217D01*
X60982500Y-66675023D01*
X61044855Y-66706546D01*
X61061575Y-66725842D01*
X61191500Y-66911395D01*
X61191505Y-66911401D01*
X61358599Y-67078495D01*
X61401675Y-67108657D01*
X61552165Y-67214032D01*
X61552167Y-67214033D01*
X61552170Y-67214035D01*
X61766337Y-67313903D01*
X61766343Y-67313904D01*
X61766344Y-67313905D01*
X61788397Y-67319814D01*
X61994592Y-67375063D01*
X62171034Y-67390500D01*
X62229999Y-67395659D01*
X62230000Y-67395659D01*
X62230001Y-67395659D01*
X62288966Y-67390500D01*
X62465408Y-67375063D01*
X62693663Y-67313903D01*
X62907830Y-67214035D01*
X63101401Y-67078495D01*
X63268495Y-66911401D01*
X63398424Y-66725842D01*
X63453002Y-66682217D01*
X63522500Y-66675023D01*
X63584855Y-66706546D01*
X63601575Y-66725842D01*
X63731500Y-66911395D01*
X63731505Y-66911401D01*
X63898599Y-67078495D01*
X64091624Y-67213653D01*
X64135248Y-67268228D01*
X64144500Y-67315226D01*
X64144500Y-69767254D01*
X64142775Y-69782872D01*
X64143061Y-69782899D01*
X64142326Y-69790666D01*
X64144499Y-69859814D01*
X64144499Y-69889351D01*
X64145368Y-69896232D01*
X64145826Y-69902051D01*
X64147290Y-69948624D01*
X64147291Y-69948627D01*
X64152880Y-69967867D01*
X64156824Y-69986911D01*
X64159336Y-70006791D01*
X64176490Y-70050119D01*
X64178382Y-70055647D01*
X64191381Y-70100388D01*
X64201580Y-70117634D01*
X64210138Y-70135103D01*
X64217514Y-70153732D01*
X64244898Y-70191423D01*
X64248106Y-70196307D01*
X64271827Y-70236416D01*
X64271833Y-70236424D01*
X64285990Y-70250580D01*
X64298628Y-70265376D01*
X64310405Y-70281586D01*
X64310406Y-70281587D01*
X64346309Y-70311288D01*
X64350620Y-70315210D01*
X65349955Y-71314546D01*
X65539197Y-71503788D01*
X65549022Y-71516051D01*
X65549243Y-71515869D01*
X65554214Y-71521878D01*
X65575043Y-71541437D01*
X65604635Y-71569226D01*
X65625529Y-71590120D01*
X65631011Y-71594373D01*
X65635443Y-71598157D01*
X65669418Y-71630062D01*
X65686976Y-71639714D01*
X65703235Y-71650395D01*
X65719064Y-71662673D01*
X65761838Y-71681182D01*
X65767056Y-71683738D01*
X65807908Y-71706197D01*
X65827316Y-71711180D01*
X65845717Y-71717480D01*
X65864104Y-71725437D01*
X65907488Y-71732308D01*
X65910119Y-71732725D01*
X65915839Y-71733909D01*
X65960981Y-71745500D01*
X65981016Y-71745500D01*
X66000414Y-71747026D01*
X66020194Y-71750159D01*
X66020195Y-71750160D01*
X66020195Y-71750159D01*
X66020196Y-71750160D01*
X66066583Y-71745775D01*
X66072422Y-71745500D01*
X76117257Y-71745500D01*
X76132877Y-71747224D01*
X76132904Y-71746939D01*
X76140660Y-71747671D01*
X76140667Y-71747673D01*
X76209814Y-71745500D01*
X76239350Y-71745500D01*
X76246228Y-71744630D01*
X76252041Y-71744172D01*
X76298627Y-71742709D01*
X76317869Y-71737117D01*
X76336912Y-71733174D01*
X76356792Y-71730664D01*
X76400122Y-71713507D01*
X76405646Y-71711617D01*
X76409396Y-71710527D01*
X76450390Y-71698618D01*
X76467629Y-71688422D01*
X76485103Y-71679862D01*
X76503727Y-71672488D01*
X76503727Y-71672487D01*
X76503732Y-71672486D01*
X76541449Y-71645082D01*
X76546305Y-71641892D01*
X76586420Y-71618170D01*
X76600589Y-71603999D01*
X76615379Y-71591368D01*
X76631587Y-71579594D01*
X76661299Y-71543676D01*
X76665212Y-71539376D01*
X77853787Y-70350802D01*
X77866042Y-70340986D01*
X77865859Y-70340764D01*
X77871867Y-70335792D01*
X77871877Y-70335786D01*
X77900108Y-70305721D01*
X77960348Y-70270328D01*
X78030162Y-70273120D01*
X78087384Y-70313214D01*
X78113845Y-70377879D01*
X78114500Y-70390606D01*
X78114500Y-79222255D01*
X78112775Y-79237872D01*
X78113061Y-79237899D01*
X78112326Y-79245665D01*
X78114500Y-79314814D01*
X78114500Y-79344343D01*
X78114501Y-79344360D01*
X78115368Y-79351231D01*
X78115826Y-79357050D01*
X78117290Y-79403624D01*
X78117291Y-79403627D01*
X78122880Y-79422867D01*
X78126824Y-79441911D01*
X78129336Y-79461791D01*
X78146490Y-79505119D01*
X78148382Y-79510647D01*
X78160890Y-79553699D01*
X78161382Y-79555390D01*
X78170685Y-79571122D01*
X78171580Y-79572634D01*
X78180138Y-79590103D01*
X78187514Y-79608732D01*
X78214898Y-79646423D01*
X78218106Y-79651307D01*
X78241827Y-79691416D01*
X78241833Y-79691424D01*
X78255990Y-79705580D01*
X78268628Y-79720376D01*
X78280405Y-79736586D01*
X78280406Y-79736587D01*
X78316309Y-79766288D01*
X78320620Y-79770210D01*
X78844150Y-80293740D01*
X79349762Y-80799352D01*
X79383247Y-80860675D01*
X79381856Y-80919126D01*
X79354938Y-81019586D01*
X79354936Y-81019596D01*
X79334341Y-81254999D01*
X79334341Y-81255000D01*
X79354936Y-81490403D01*
X79354938Y-81490413D01*
X79416094Y-81718655D01*
X79416096Y-81718659D01*
X79416097Y-81718663D01*
X79502427Y-81903797D01*
X79515965Y-81932830D01*
X79515967Y-81932834D01*
X79651501Y-82126395D01*
X79651506Y-82126402D01*
X79818597Y-82293493D01*
X79818603Y-82293498D01*
X80004158Y-82423425D01*
X80047783Y-82478002D01*
X80054977Y-82547500D01*
X80023454Y-82609855D01*
X80004158Y-82626575D01*
X79818597Y-82756505D01*
X79651505Y-82923597D01*
X79515965Y-83117169D01*
X79515964Y-83117171D01*
X79416098Y-83331335D01*
X79416094Y-83331344D01*
X79354938Y-83559586D01*
X79354936Y-83559596D01*
X79334341Y-83794999D01*
X79334341Y-83795000D01*
X79354936Y-84030403D01*
X79354938Y-84030413D01*
X79416094Y-84258655D01*
X79416096Y-84258659D01*
X79416097Y-84258663D01*
X79499381Y-84437265D01*
X79515965Y-84472830D01*
X79515967Y-84472834D01*
X79651501Y-84666395D01*
X79651506Y-84666402D01*
X79818597Y-84833493D01*
X79818603Y-84833498D01*
X80004158Y-84963425D01*
X80047783Y-85018002D01*
X80054977Y-85087500D01*
X80023454Y-85149855D01*
X80004158Y-85166575D01*
X79818597Y-85296505D01*
X79651505Y-85463597D01*
X79515965Y-85657169D01*
X79515964Y-85657171D01*
X79416098Y-85871335D01*
X79416094Y-85871344D01*
X79354938Y-86099586D01*
X79354936Y-86099596D01*
X79334341Y-86334999D01*
X79334341Y-86335000D01*
X79354936Y-86570403D01*
X79354938Y-86570413D01*
X79381856Y-86670872D01*
X79380193Y-86740722D01*
X79349762Y-86790646D01*
X77902228Y-88238181D01*
X77840905Y-88271666D01*
X77814547Y-88274500D01*
X70160453Y-88274500D01*
X70093414Y-88254815D01*
X70072772Y-88238181D01*
X68121590Y-86286999D01*
X68088105Y-86225676D01*
X68093089Y-86155984D01*
X68127514Y-86109999D01*
X74921127Y-86109999D01*
X74921128Y-86110000D01*
X75689424Y-86110000D01*
X75756463Y-86129685D01*
X75802218Y-86182489D01*
X75812162Y-86251647D01*
X75811897Y-86253397D01*
X75795014Y-86359996D01*
X75795014Y-86360003D01*
X75811897Y-86466603D01*
X75802942Y-86535896D01*
X75757946Y-86589348D01*
X75691194Y-86609987D01*
X75689424Y-86610000D01*
X74921128Y-86610000D01*
X74973730Y-86806317D01*
X74973734Y-86806326D01*
X75069865Y-87012482D01*
X75200342Y-87198820D01*
X75361179Y-87359657D01*
X75547517Y-87490134D01*
X75753673Y-87586265D01*
X75753682Y-87586269D01*
X75949999Y-87638872D01*
X75950000Y-87638871D01*
X75950000Y-86870575D01*
X75969685Y-86803536D01*
X76022489Y-86757781D01*
X76091647Y-86747837D01*
X76093331Y-86748091D01*
X76125699Y-86753218D01*
X76168515Y-86760000D01*
X76168519Y-86760000D01*
X76231485Y-86760000D01*
X76274300Y-86753218D01*
X76306602Y-86748102D01*
X76375894Y-86757056D01*
X76429347Y-86802052D01*
X76449987Y-86868803D01*
X76450000Y-86870575D01*
X76450000Y-87638872D01*
X76646317Y-87586269D01*
X76646326Y-87586265D01*
X76852482Y-87490134D01*
X77038820Y-87359657D01*
X77199657Y-87198820D01*
X77330134Y-87012482D01*
X77426265Y-86806326D01*
X77426269Y-86806317D01*
X77478872Y-86610000D01*
X76710576Y-86610000D01*
X76643537Y-86590315D01*
X76597782Y-86537511D01*
X76587838Y-86468353D01*
X76588103Y-86466603D01*
X76604986Y-86360003D01*
X76604986Y-86359996D01*
X76588103Y-86253397D01*
X76597058Y-86184104D01*
X76642054Y-86130652D01*
X76708806Y-86110013D01*
X76710576Y-86110000D01*
X77478872Y-86110000D01*
X77478872Y-86109999D01*
X77426269Y-85913682D01*
X77426265Y-85913673D01*
X77330134Y-85707517D01*
X77199657Y-85521179D01*
X77038820Y-85360342D01*
X76852482Y-85229865D01*
X76646328Y-85133734D01*
X76450000Y-85081127D01*
X76450000Y-85849424D01*
X76430315Y-85916463D01*
X76377511Y-85962218D01*
X76308353Y-85972162D01*
X76306602Y-85971897D01*
X76231486Y-85960000D01*
X76231481Y-85960000D01*
X76168519Y-85960000D01*
X76168514Y-85960000D01*
X76093398Y-85971897D01*
X76024104Y-85962942D01*
X75970652Y-85917946D01*
X75950013Y-85851194D01*
X75950000Y-85849424D01*
X75950000Y-85081127D01*
X75753671Y-85133734D01*
X75547517Y-85229865D01*
X75361179Y-85360342D01*
X75200342Y-85521179D01*
X75069865Y-85707517D01*
X74973734Y-85913673D01*
X74973730Y-85913682D01*
X74921127Y-86109999D01*
X68127514Y-86109999D01*
X68134961Y-86100051D01*
X68138149Y-86097742D01*
X68149139Y-86090047D01*
X68310047Y-85929139D01*
X68440568Y-85742734D01*
X68536739Y-85536496D01*
X68595635Y-85316692D01*
X68615468Y-85090000D01*
X68595635Y-84863308D01*
X68550916Y-84696415D01*
X68536741Y-84643511D01*
X68536738Y-84643502D01*
X68467618Y-84495275D01*
X68440568Y-84437266D01*
X68310047Y-84250861D01*
X68310045Y-84250858D01*
X68149141Y-84089954D01*
X67962734Y-83959432D01*
X67962728Y-83959429D01*
X67904725Y-83932382D01*
X67852285Y-83886210D01*
X67833133Y-83819017D01*
X67853348Y-83752135D01*
X67904725Y-83707618D01*
X67962734Y-83680568D01*
X68149139Y-83550047D01*
X68310047Y-83389139D01*
X68440568Y-83202734D01*
X68536739Y-82996496D01*
X68595635Y-82776692D01*
X68615468Y-82550000D01*
X68615467Y-82549994D01*
X68595635Y-82323313D01*
X68595635Y-82323308D01*
X68543453Y-82128562D01*
X68536741Y-82103511D01*
X68536738Y-82103502D01*
X68530630Y-82090404D01*
X68440568Y-81897266D01*
X68310047Y-81710861D01*
X68310045Y-81710858D01*
X68149140Y-81549953D01*
X67988377Y-81437386D01*
X67944752Y-81382809D01*
X67935500Y-81335811D01*
X67935500Y-79763052D01*
X67955185Y-79696013D01*
X68001045Y-79653695D01*
X68107494Y-79596798D01*
X68263647Y-79468647D01*
X68391798Y-79312494D01*
X68480336Y-79146852D01*
X68487021Y-79134345D01*
X68487021Y-79134344D01*
X68487023Y-79134341D01*
X68545662Y-78941033D01*
X68565462Y-78740000D01*
X68545662Y-78538967D01*
X68487023Y-78345659D01*
X68391798Y-78167506D01*
X68391794Y-78167502D01*
X68389631Y-78163454D01*
X68375389Y-78095051D01*
X68389631Y-78046546D01*
X68391794Y-78042498D01*
X68391798Y-78042494D01*
X68487023Y-77864341D01*
X68545662Y-77671033D01*
X68565462Y-77470000D01*
X68545662Y-77268967D01*
X68487023Y-77075659D01*
X68487021Y-77075656D01*
X68486694Y-77074576D01*
X68486070Y-77004709D01*
X68500469Y-76975623D01*
X68499544Y-76975118D01*
X68503793Y-76967335D01*
X68503792Y-76967335D01*
X68503796Y-76967331D01*
X68554091Y-76832483D01*
X68560500Y-76772873D01*
X68560500Y-76200001D01*
X71084532Y-76200001D01*
X71104364Y-76426686D01*
X71104366Y-76426697D01*
X71163258Y-76646488D01*
X71163261Y-76646497D01*
X71259431Y-76852732D01*
X71259432Y-76852734D01*
X71389954Y-77039141D01*
X71550858Y-77200045D01*
X71592279Y-77229048D01*
X71737266Y-77330568D01*
X71943504Y-77426739D01*
X72163308Y-77485635D01*
X72325230Y-77499801D01*
X72389998Y-77505468D01*
X72390000Y-77505468D01*
X72390002Y-77505468D01*
X72446672Y-77500509D01*
X72616692Y-77485635D01*
X72836496Y-77426739D01*
X73042734Y-77330568D01*
X73229139Y-77200047D01*
X73390047Y-77039139D01*
X73520568Y-76852734D01*
X73616739Y-76646496D01*
X73675635Y-76426692D01*
X73695468Y-76200001D01*
X74894532Y-76200001D01*
X74914364Y-76426686D01*
X74914366Y-76426697D01*
X74973258Y-76646488D01*
X74973261Y-76646497D01*
X75069431Y-76852732D01*
X75069432Y-76852734D01*
X75199954Y-77039141D01*
X75360858Y-77200045D01*
X75402279Y-77229048D01*
X75547266Y-77330568D01*
X75753504Y-77426739D01*
X75973308Y-77485635D01*
X76135230Y-77499801D01*
X76199998Y-77505468D01*
X76200000Y-77505468D01*
X76200002Y-77505468D01*
X76256672Y-77500509D01*
X76426692Y-77485635D01*
X76646496Y-77426739D01*
X76852734Y-77330568D01*
X77039139Y-77200047D01*
X77200047Y-77039139D01*
X77330568Y-76852734D01*
X77426739Y-76646496D01*
X77485635Y-76426692D01*
X77505468Y-76200000D01*
X77485635Y-75973308D01*
X77426739Y-75753504D01*
X77330568Y-75547266D01*
X77200047Y-75360861D01*
X77200045Y-75360858D01*
X77039141Y-75199954D01*
X76852734Y-75069432D01*
X76852732Y-75069431D01*
X76646497Y-74973261D01*
X76646488Y-74973258D01*
X76426697Y-74914366D01*
X76426693Y-74914365D01*
X76426692Y-74914365D01*
X76426691Y-74914364D01*
X76426686Y-74914364D01*
X76200002Y-74894532D01*
X76199998Y-74894532D01*
X75973313Y-74914364D01*
X75973302Y-74914366D01*
X75753511Y-74973258D01*
X75753502Y-74973261D01*
X75547267Y-75069431D01*
X75547265Y-75069432D01*
X75360858Y-75199954D01*
X75199954Y-75360858D01*
X75069432Y-75547265D01*
X75069431Y-75547267D01*
X74973261Y-75753502D01*
X74973258Y-75753511D01*
X74914366Y-75973302D01*
X74914364Y-75973313D01*
X74894532Y-76199998D01*
X74894532Y-76200001D01*
X73695468Y-76200001D01*
X73695468Y-76200000D01*
X73675635Y-75973308D01*
X73616739Y-75753504D01*
X73520568Y-75547266D01*
X73390047Y-75360861D01*
X73390045Y-75360858D01*
X73229141Y-75199954D01*
X73042734Y-75069432D01*
X73042732Y-75069431D01*
X72836497Y-74973261D01*
X72836488Y-74973258D01*
X72616697Y-74914366D01*
X72616693Y-74914365D01*
X72616692Y-74914365D01*
X72616691Y-74914364D01*
X72616686Y-74914364D01*
X72390002Y-74894532D01*
X72389998Y-74894532D01*
X72163313Y-74914364D01*
X72163302Y-74914366D01*
X71943511Y-74973258D01*
X71943502Y-74973261D01*
X71737267Y-75069431D01*
X71737265Y-75069432D01*
X71550858Y-75199954D01*
X71389954Y-75360858D01*
X71259432Y-75547265D01*
X71259431Y-75547267D01*
X71163261Y-75753502D01*
X71163258Y-75753511D01*
X71104366Y-75973302D01*
X71104364Y-75973313D01*
X71084532Y-76199998D01*
X71084532Y-76200001D01*
X68560500Y-76200001D01*
X68560499Y-75627128D01*
X68554091Y-75567517D01*
X68546538Y-75547267D01*
X68503797Y-75432671D01*
X68503793Y-75432664D01*
X68417547Y-75317455D01*
X68417544Y-75317452D01*
X68302335Y-75231206D01*
X68302328Y-75231202D01*
X68167482Y-75180908D01*
X68167483Y-75180908D01*
X68107883Y-75174501D01*
X68107881Y-75174500D01*
X68107873Y-75174500D01*
X68107864Y-75174500D01*
X66512129Y-75174500D01*
X66512123Y-75174501D01*
X66452516Y-75180908D01*
X66317671Y-75231202D01*
X66317664Y-75231206D01*
X66202455Y-75317452D01*
X66202452Y-75317455D01*
X66116206Y-75432664D01*
X66116202Y-75432671D01*
X66065908Y-75567517D01*
X66059501Y-75627116D01*
X66059500Y-75627127D01*
X66059500Y-76199998D01*
X66059501Y-76720500D01*
X66039816Y-76787539D01*
X65987013Y-76833294D01*
X65935501Y-76844500D01*
X65365640Y-76844500D01*
X65248208Y-76859336D01*
X65248206Y-76859336D01*
X65101269Y-76917513D01*
X65101260Y-76917518D01*
X64973416Y-77010402D01*
X64973415Y-77010403D01*
X64872674Y-77132178D01*
X64805387Y-77275171D01*
X64805385Y-77275174D01*
X64794819Y-77330567D01*
X64775773Y-77430412D01*
X64775773Y-77430414D01*
X64775773Y-77430415D01*
X64785696Y-77588137D01*
X64785696Y-77588140D01*
X64819904Y-77693418D01*
X64834533Y-77738441D01*
X64919214Y-77871877D01*
X65034418Y-77980062D01*
X65034420Y-77980063D01*
X65034422Y-77980065D01*
X65172904Y-78056195D01*
X65172908Y-78056197D01*
X65325981Y-78095500D01*
X66059808Y-78095500D01*
X66126847Y-78115185D01*
X66172602Y-78167989D01*
X66182546Y-78237147D01*
X66169166Y-78277953D01*
X66132978Y-78345654D01*
X66074337Y-78538968D01*
X66054538Y-78739999D01*
X66074337Y-78941031D01*
X66132978Y-79134345D01*
X66228198Y-79312488D01*
X66228203Y-79312495D01*
X66356352Y-79468647D01*
X66459991Y-79553700D01*
X66499838Y-79586402D01*
X66512504Y-79596796D01*
X66512506Y-79596798D01*
X66618954Y-79653695D01*
X66668797Y-79702655D01*
X66684500Y-79763052D01*
X66684500Y-81335811D01*
X66664815Y-81402850D01*
X66631623Y-81437386D01*
X66470859Y-81549953D01*
X66309954Y-81710858D01*
X66179432Y-81897265D01*
X66179431Y-81897267D01*
X66083261Y-82103502D01*
X66083258Y-82103511D01*
X66024366Y-82323302D01*
X66024364Y-82323313D01*
X66004532Y-82549998D01*
X66004532Y-82550001D01*
X66024364Y-82776686D01*
X66024366Y-82776697D01*
X66083258Y-82996488D01*
X66083261Y-82996497D01*
X66179431Y-83202732D01*
X66179432Y-83202734D01*
X66309954Y-83389141D01*
X66470858Y-83550045D01*
X66506621Y-83575086D01*
X66657266Y-83680568D01*
X66715275Y-83707618D01*
X66767714Y-83753791D01*
X66786866Y-83820984D01*
X66766650Y-83887865D01*
X66715275Y-83932382D01*
X66657267Y-83959431D01*
X66657265Y-83959432D01*
X66470858Y-84089954D01*
X66309954Y-84250858D01*
X66179432Y-84437265D01*
X66179431Y-84437267D01*
X66083261Y-84643502D01*
X66083258Y-84643511D01*
X66024366Y-84863302D01*
X66024364Y-84863313D01*
X66004532Y-85089998D01*
X66004532Y-85090001D01*
X66024364Y-85316686D01*
X66024366Y-85316697D01*
X66083258Y-85536488D01*
X66083261Y-85536497D01*
X66179431Y-85742732D01*
X66179432Y-85742734D01*
X66309954Y-85929141D01*
X66470855Y-86090042D01*
X66470858Y-86090044D01*
X66470861Y-86090047D01*
X66629454Y-86201094D01*
X66673076Y-86255667D01*
X66682267Y-86298770D01*
X66684500Y-86369814D01*
X66684500Y-86399343D01*
X66684501Y-86399360D01*
X66685368Y-86406231D01*
X66685826Y-86412050D01*
X66687290Y-86458624D01*
X66687291Y-86458627D01*
X66692880Y-86477867D01*
X66696824Y-86496911D01*
X66699336Y-86516792D01*
X66706900Y-86535896D01*
X66716490Y-86560119D01*
X66718382Y-86565647D01*
X66731381Y-86610388D01*
X66741580Y-86627634D01*
X66750138Y-86645103D01*
X66757514Y-86663732D01*
X66784898Y-86701423D01*
X66788106Y-86706307D01*
X66811827Y-86746416D01*
X66811833Y-86746424D01*
X66825990Y-86760580D01*
X66838627Y-86775375D01*
X66850406Y-86791587D01*
X66868418Y-86806488D01*
X66886309Y-86821288D01*
X66890620Y-86825210D01*
X68762898Y-88697489D01*
X69349197Y-89283788D01*
X69359022Y-89296051D01*
X69359243Y-89295869D01*
X69364214Y-89301878D01*
X69385043Y-89321437D01*
X69414635Y-89349226D01*
X69435529Y-89370120D01*
X69441011Y-89374373D01*
X69445443Y-89378157D01*
X69479418Y-89410062D01*
X69496976Y-89419714D01*
X69513235Y-89430395D01*
X69529064Y-89442673D01*
X69571838Y-89461182D01*
X69577056Y-89463738D01*
X69617908Y-89486197D01*
X69637316Y-89491180D01*
X69655717Y-89497480D01*
X69674104Y-89505437D01*
X69717488Y-89512308D01*
X69720119Y-89512725D01*
X69725839Y-89513909D01*
X69770981Y-89525500D01*
X69791016Y-89525500D01*
X69810414Y-89527026D01*
X69830194Y-89530159D01*
X69830195Y-89530160D01*
X69830195Y-89530159D01*
X69830196Y-89530160D01*
X69876583Y-89525775D01*
X69882422Y-89525500D01*
X78042257Y-89525500D01*
X78057877Y-89527224D01*
X78057904Y-89526939D01*
X78065660Y-89527671D01*
X78065667Y-89527673D01*
X78134814Y-89525500D01*
X78164350Y-89525500D01*
X78171228Y-89524630D01*
X78177041Y-89524172D01*
X78223627Y-89522709D01*
X78242869Y-89517117D01*
X78261912Y-89513174D01*
X78281792Y-89510664D01*
X78325122Y-89493507D01*
X78330646Y-89491617D01*
X78334396Y-89490527D01*
X78375390Y-89478618D01*
X78392629Y-89468422D01*
X78410103Y-89459862D01*
X78428727Y-89452488D01*
X78428727Y-89452487D01*
X78428732Y-89452486D01*
X78466449Y-89425082D01*
X78471305Y-89421892D01*
X78511420Y-89398170D01*
X78525589Y-89383999D01*
X78540379Y-89371368D01*
X78556587Y-89359594D01*
X78586299Y-89323676D01*
X78590212Y-89319376D01*
X79248271Y-88661317D01*
X79309592Y-88627834D01*
X79335950Y-88625000D01*
X80076653Y-88625000D01*
X80143692Y-88644685D01*
X80189447Y-88697489D01*
X80199391Y-88766647D01*
X80195631Y-88783933D01*
X80190000Y-88803111D01*
X80190000Y-88946888D01*
X80195631Y-88966067D01*
X80195630Y-89035936D01*
X80157855Y-89094714D01*
X80094299Y-89123738D01*
X80076653Y-89125000D01*
X79359364Y-89125000D01*
X79416567Y-89338486D01*
X79416570Y-89338492D01*
X79516399Y-89552578D01*
X79651894Y-89746082D01*
X79818917Y-89913105D01*
X80012421Y-90048600D01*
X80226507Y-90148429D01*
X80226516Y-90148433D01*
X80440000Y-90205634D01*
X80440000Y-89487301D01*
X80459685Y-89420262D01*
X80512489Y-89374507D01*
X80581647Y-89364563D01*
X80654237Y-89375000D01*
X80654238Y-89375000D01*
X80725762Y-89375000D01*
X80725763Y-89375000D01*
X80798352Y-89364563D01*
X80867510Y-89374507D01*
X80920314Y-89420261D01*
X80939999Y-89487301D01*
X80939999Y-90205634D01*
X81153483Y-90148433D01*
X81153492Y-90148429D01*
X81367578Y-90048600D01*
X81561082Y-89913105D01*
X81728105Y-89746082D01*
X81863600Y-89552578D01*
X81963429Y-89338492D01*
X81963432Y-89338486D01*
X82020636Y-89125000D01*
X81303347Y-89125000D01*
X81236308Y-89105315D01*
X81190553Y-89052511D01*
X81180609Y-88983353D01*
X81184369Y-88966067D01*
X81190000Y-88946888D01*
X81190000Y-88803111D01*
X81184369Y-88783933D01*
X81184370Y-88714064D01*
X81222145Y-88655286D01*
X81285701Y-88626262D01*
X81303347Y-88625000D01*
X82020636Y-88625000D01*
X82020635Y-88624999D01*
X81963432Y-88411513D01*
X81963429Y-88411507D01*
X81863600Y-88197422D01*
X81863599Y-88197420D01*
X81728113Y-88003926D01*
X81728108Y-88003920D01*
X81561078Y-87836890D01*
X81375405Y-87706879D01*
X81331780Y-87652302D01*
X81324588Y-87582804D01*
X81356110Y-87520449D01*
X81375406Y-87503730D01*
X81377918Y-87501971D01*
X81561401Y-87373495D01*
X81728495Y-87206401D01*
X81864035Y-87012830D01*
X81963903Y-86798663D01*
X82025063Y-86570408D01*
X82045659Y-86335000D01*
X82025063Y-86099592D01*
X81975203Y-85913511D01*
X81963905Y-85871344D01*
X81963904Y-85871343D01*
X81963903Y-85871337D01*
X81864035Y-85657171D01*
X81833200Y-85613133D01*
X81728494Y-85463597D01*
X81561402Y-85296506D01*
X81561396Y-85296501D01*
X81375842Y-85166575D01*
X81332217Y-85111998D01*
X81325023Y-85042500D01*
X81356546Y-84980145D01*
X81375842Y-84963425D01*
X81398026Y-84947891D01*
X81561401Y-84833495D01*
X81728495Y-84666401D01*
X81864035Y-84472830D01*
X81963903Y-84258663D01*
X82025063Y-84030408D01*
X82045659Y-83795000D01*
X82044432Y-83780981D01*
X82035647Y-83680567D01*
X82025063Y-83559592D01*
X81963903Y-83331337D01*
X81864035Y-83117171D01*
X81779533Y-82996488D01*
X81728494Y-82923597D01*
X81561402Y-82756506D01*
X81561396Y-82756501D01*
X81375842Y-82626575D01*
X81332217Y-82571998D01*
X81325023Y-82502500D01*
X81356546Y-82440145D01*
X81375842Y-82423425D01*
X81398026Y-82407891D01*
X81561401Y-82293495D01*
X81728495Y-82126401D01*
X81864035Y-81932830D01*
X81963903Y-81718663D01*
X82025063Y-81490408D01*
X82045659Y-81255000D01*
X82025063Y-81019592D01*
X81971215Y-80818627D01*
X81963905Y-80791344D01*
X81963904Y-80791343D01*
X81963903Y-80791337D01*
X81864035Y-80577171D01*
X81781992Y-80460000D01*
X81728494Y-80383597D01*
X81561402Y-80216506D01*
X81561396Y-80216501D01*
X81375842Y-80086575D01*
X81332217Y-80031998D01*
X81325023Y-79962500D01*
X81356546Y-79900145D01*
X81375842Y-79883425D01*
X81520036Y-79782459D01*
X81561401Y-79753495D01*
X81728495Y-79586401D01*
X81864035Y-79392830D01*
X81963903Y-79178663D01*
X82025063Y-78950408D01*
X82045659Y-78715000D01*
X82025063Y-78479592D01*
X81998142Y-78379125D01*
X81999806Y-78309276D01*
X82030235Y-78259353D01*
X82933787Y-77355802D01*
X82946042Y-77345986D01*
X82945859Y-77345764D01*
X82951866Y-77340792D01*
X82951877Y-77340786D01*
X82982775Y-77307882D01*
X82999227Y-77290364D01*
X83009671Y-77279918D01*
X83020120Y-77269471D01*
X83024379Y-77263978D01*
X83028152Y-77259561D01*
X83060062Y-77225582D01*
X83069713Y-77208024D01*
X83080396Y-77191761D01*
X83092673Y-77175936D01*
X83111185Y-77133153D01*
X83113738Y-77127941D01*
X83136197Y-77087092D01*
X83141180Y-77067680D01*
X83147481Y-77049280D01*
X83155437Y-77030896D01*
X83162729Y-76984852D01*
X83163906Y-76979171D01*
X83175500Y-76934019D01*
X83175500Y-76913982D01*
X83177027Y-76894582D01*
X83180160Y-76874804D01*
X83175775Y-76828415D01*
X83175500Y-76822577D01*
X83175500Y-39452737D01*
X83177224Y-39437123D01*
X83176938Y-39437096D01*
X83177672Y-39429333D01*
X83175500Y-39360203D01*
X83175500Y-39330651D01*
X83175500Y-39330650D01*
X83174629Y-39323759D01*
X83174172Y-39317945D01*
X83172709Y-39271372D01*
X83167122Y-39252144D01*
X83163174Y-39233084D01*
X83160664Y-39213208D01*
X83143507Y-39169875D01*
X83141619Y-39164359D01*
X83128619Y-39119612D01*
X83118418Y-39102363D01*
X83109860Y-39084894D01*
X83102486Y-39066268D01*
X83102483Y-39066264D01*
X83102483Y-39066263D01*
X83075098Y-39028571D01*
X83071890Y-39023687D01*
X83048172Y-38983582D01*
X83048163Y-38983571D01*
X83034005Y-38969413D01*
X83021370Y-38954620D01*
X83009593Y-38938412D01*
X82973693Y-38908713D01*
X82969381Y-38904790D01*
X81780803Y-37716211D01*
X81770980Y-37703950D01*
X81770759Y-37704134D01*
X81765786Y-37698123D01*
X81765785Y-37698122D01*
X81715364Y-37650773D01*
X81704919Y-37640328D01*
X81694475Y-37629883D01*
X81688986Y-37625625D01*
X81684561Y-37621847D01*
X81650582Y-37589938D01*
X81650580Y-37589936D01*
X81650577Y-37589935D01*
X81633029Y-37580288D01*
X81616763Y-37569604D01*
X81600933Y-37557325D01*
X81558168Y-37538818D01*
X81552922Y-37536248D01*
X81512093Y-37513803D01*
X81512092Y-37513802D01*
X81492693Y-37508822D01*
X81474281Y-37502518D01*
X81455898Y-37494562D01*
X81455892Y-37494560D01*
X81409874Y-37487272D01*
X81404152Y-37486087D01*
X81359021Y-37474500D01*
X81359019Y-37474500D01*
X81338984Y-37474500D01*
X81319586Y-37472973D01*
X81312162Y-37471797D01*
X81299805Y-37469840D01*
X81299804Y-37469840D01*
X81253416Y-37474225D01*
X81247578Y-37474500D01*
X79443748Y-37474500D01*
X79376709Y-37454815D01*
X79351600Y-37433474D01*
X79345873Y-37427114D01*
X79345869Y-37427110D01*
X79192734Y-37315851D01*
X79192729Y-37315848D01*
X79019807Y-37238857D01*
X79019802Y-37238855D01*
X78874000Y-37207865D01*
X78834646Y-37199500D01*
X78645354Y-37199500D01*
X78531148Y-37223774D01*
X78481004Y-37234433D01*
X78411337Y-37229116D01*
X78355604Y-37186978D01*
X78331499Y-37121398D01*
X78337294Y-37074822D01*
X78355674Y-37018256D01*
X78375460Y-36830000D01*
X78355674Y-36641744D01*
X78297179Y-36461716D01*
X78202533Y-36297784D01*
X78075871Y-36157112D01*
X78075870Y-36157111D01*
X77922734Y-36045851D01*
X77922729Y-36045848D01*
X77749807Y-35968857D01*
X77749802Y-35968855D01*
X77604001Y-35937865D01*
X77564646Y-35929500D01*
X77375354Y-35929500D01*
X77342897Y-35936398D01*
X77190197Y-35968855D01*
X77190192Y-35968857D01*
X77017270Y-36045848D01*
X77017265Y-36045851D01*
X76864129Y-36157111D01*
X76737466Y-36297785D01*
X76642821Y-36461715D01*
X76642818Y-36461722D01*
X76584327Y-36641740D01*
X76584326Y-36641744D01*
X76564540Y-36830000D01*
X76584326Y-37018256D01*
X76584327Y-37018259D01*
X76642818Y-37198277D01*
X76642821Y-37198284D01*
X76737467Y-37362216D01*
X76780772Y-37410310D01*
X76812650Y-37445715D01*
X76842880Y-37508706D01*
X76844500Y-37528687D01*
X76844500Y-46101814D01*
X76824815Y-46168853D01*
X76772011Y-46214608D01*
X76702853Y-46224552D01*
X76659572Y-46207005D01*
X76658363Y-46209101D01*
X76652729Y-46205848D01*
X76479807Y-46128857D01*
X76479802Y-46128855D01*
X76334000Y-46097865D01*
X76294646Y-46089500D01*
X76105354Y-46089500D01*
X76072897Y-46096398D01*
X75920197Y-46128855D01*
X75920192Y-46128857D01*
X75747270Y-46205848D01*
X75747265Y-46205851D01*
X75594129Y-46317111D01*
X75467466Y-46457785D01*
X75372821Y-46621715D01*
X75372818Y-46621722D01*
X75314327Y-46801740D01*
X75314326Y-46801744D01*
X75294540Y-46990000D01*
X75314326Y-47178256D01*
X75314327Y-47178259D01*
X75332706Y-47234824D01*
X75334701Y-47304665D01*
X75298621Y-47364498D01*
X75235920Y-47395326D01*
X75188995Y-47394433D01*
X75162862Y-47388878D01*
X75024646Y-47359500D01*
X74835354Y-47359500D01*
X74811840Y-47364498D01*
X74650197Y-47398855D01*
X74650192Y-47398857D01*
X74477270Y-47475848D01*
X74477265Y-47475851D01*
X74324129Y-47587111D01*
X74197466Y-47727785D01*
X74102821Y-47891715D01*
X74102818Y-47891722D01*
X74056813Y-48033313D01*
X74044326Y-48071744D01*
X74024540Y-48260000D01*
X74044326Y-48448256D01*
X74044327Y-48448259D01*
X74102818Y-48628277D01*
X74102821Y-48628284D01*
X74197467Y-48792216D01*
X74240772Y-48840310D01*
X74272650Y-48875715D01*
X74302880Y-48938706D01*
X74304500Y-48958687D01*
X74304500Y-66999547D01*
X74284815Y-67066586D01*
X74268181Y-67087228D01*
X73437228Y-67918181D01*
X73375905Y-67951666D01*
X73349547Y-67954500D01*
X70160453Y-67954500D01*
X70093414Y-67934815D01*
X70072772Y-67918181D01*
X69761931Y-67607340D01*
X69728446Y-67546017D01*
X69733430Y-67476325D01*
X69775302Y-67420392D01*
X69840766Y-67395975D01*
X69849612Y-67395659D01*
X69850001Y-67395659D01*
X69908966Y-67390500D01*
X70085408Y-67375063D01*
X70313663Y-67313903D01*
X70527830Y-67214035D01*
X70721401Y-67078495D01*
X70888495Y-66911401D01*
X71018424Y-66725842D01*
X71073002Y-66682217D01*
X71142500Y-66675023D01*
X71204855Y-66706546D01*
X71221575Y-66725842D01*
X71351500Y-66911395D01*
X71351505Y-66911401D01*
X71518599Y-67078495D01*
X71561675Y-67108657D01*
X71712165Y-67214032D01*
X71712167Y-67214033D01*
X71712170Y-67214035D01*
X71926337Y-67313903D01*
X71926343Y-67313904D01*
X71926344Y-67313905D01*
X71948397Y-67319814D01*
X72154592Y-67375063D01*
X72331034Y-67390500D01*
X72389999Y-67395659D01*
X72390000Y-67395659D01*
X72390001Y-67395659D01*
X72448966Y-67390500D01*
X72625408Y-67375063D01*
X72853663Y-67313903D01*
X73067830Y-67214035D01*
X73261401Y-67078495D01*
X73428495Y-66911401D01*
X73564035Y-66717830D01*
X73663903Y-66503663D01*
X73725063Y-66275408D01*
X73745659Y-66040000D01*
X73725063Y-65804592D01*
X73663903Y-65576337D01*
X73564035Y-65362171D01*
X73558425Y-65354158D01*
X73428494Y-65168597D01*
X73261402Y-65001506D01*
X73261401Y-65001505D01*
X73075405Y-64871269D01*
X73031781Y-64816692D01*
X73024588Y-64747193D01*
X73056110Y-64684839D01*
X73075405Y-64668119D01*
X73151373Y-64614925D01*
X72649116Y-64112669D01*
X72615631Y-64051346D01*
X72620615Y-63981655D01*
X72657640Y-63932193D01*
X72656398Y-63930759D01*
X72663100Y-63924952D01*
X72771761Y-63830798D01*
X72806954Y-63776037D01*
X72859755Y-63730283D01*
X72928914Y-63720339D01*
X72992470Y-63749363D01*
X72998949Y-63755396D01*
X73504925Y-64261373D01*
X73504926Y-64261373D01*
X73563598Y-64177582D01*
X73563600Y-64177578D01*
X73663429Y-63963492D01*
X73663433Y-63963483D01*
X73724567Y-63735326D01*
X73724569Y-63735315D01*
X73745157Y-63500001D01*
X73745157Y-63499998D01*
X73724569Y-63264684D01*
X73724567Y-63264673D01*
X73663433Y-63036516D01*
X73663429Y-63036507D01*
X73563600Y-62822423D01*
X73563599Y-62822421D01*
X73504925Y-62738626D01*
X73504925Y-62738625D01*
X72998949Y-63244602D01*
X72937626Y-63278087D01*
X72867934Y-63273103D01*
X72812001Y-63231231D01*
X72806953Y-63223961D01*
X72771761Y-63169202D01*
X72656398Y-63069241D01*
X72658708Y-63066574D01*
X72624005Y-63026528D01*
X72614058Y-62957370D01*
X72643080Y-62893813D01*
X72649116Y-62887330D01*
X73151373Y-62385073D01*
X73151373Y-62385072D01*
X73067583Y-62326402D01*
X73067579Y-62326400D01*
X72853492Y-62226570D01*
X72853483Y-62226566D01*
X72625326Y-62165432D01*
X72625315Y-62165430D01*
X72390002Y-62144843D01*
X72389998Y-62144843D01*
X72154684Y-62165430D01*
X72154673Y-62165432D01*
X71926516Y-62226566D01*
X71926502Y-62226571D01*
X71921904Y-62228716D01*
X71852827Y-62239208D01*
X71789043Y-62210688D01*
X71750804Y-62152211D01*
X71745500Y-62116334D01*
X71745500Y-61677738D01*
X71747224Y-61662124D01*
X71746938Y-61662097D01*
X71747672Y-61654334D01*
X71745500Y-61585203D01*
X71745500Y-61555651D01*
X71745500Y-61555650D01*
X71744629Y-61548759D01*
X71744172Y-61542945D01*
X71742709Y-61496372D01*
X71737122Y-61477144D01*
X71733174Y-61458084D01*
X71730663Y-61438204D01*
X71713512Y-61394887D01*
X71711619Y-61389358D01*
X71698618Y-61344609D01*
X71698616Y-61344606D01*
X71688423Y-61327371D01*
X71679861Y-61309894D01*
X71672487Y-61291270D01*
X71672486Y-61291268D01*
X71645079Y-61253545D01*
X71641888Y-61248686D01*
X71618172Y-61208583D01*
X71618165Y-61208574D01*
X71604006Y-61194415D01*
X71591368Y-61179619D01*
X71579594Y-61163413D01*
X71543688Y-61133709D01*
X71539376Y-61129786D01*
X68883960Y-58474369D01*
X68850475Y-58413046D01*
X68848323Y-58399668D01*
X68830674Y-58231744D01*
X68772179Y-58051716D01*
X68677533Y-57887784D01*
X68550871Y-57747112D01*
X68550870Y-57747111D01*
X68397734Y-57635851D01*
X68397729Y-57635848D01*
X68224807Y-57558857D01*
X68224802Y-57558855D01*
X68079000Y-57527865D01*
X68039646Y-57519500D01*
X67850354Y-57519500D01*
X67817897Y-57526398D01*
X67665197Y-57558855D01*
X67665192Y-57558857D01*
X67492270Y-57635848D01*
X67492265Y-57635851D01*
X67339129Y-57747111D01*
X67212466Y-57887785D01*
X67117821Y-58051715D01*
X67117818Y-58051722D01*
X67079514Y-58169611D01*
X67059326Y-58231744D01*
X67039540Y-58420000D01*
X67059326Y-58608256D01*
X67059327Y-58608259D01*
X67117818Y-58788277D01*
X67117821Y-58788284D01*
X67212467Y-58952216D01*
X67339129Y-59092888D01*
X67492265Y-59204148D01*
X67492270Y-59204151D01*
X67665192Y-59281142D01*
X67665197Y-59281144D01*
X67850354Y-59320500D01*
X67909548Y-59320500D01*
X67976587Y-59340185D01*
X67997229Y-59356818D01*
X70458182Y-61817772D01*
X70491666Y-61879093D01*
X70494500Y-61905451D01*
X70494500Y-62115781D01*
X70474815Y-62182820D01*
X70422011Y-62228575D01*
X70352853Y-62238519D01*
X70318104Y-62228167D01*
X70313671Y-62226100D01*
X70313655Y-62226094D01*
X70085413Y-62164938D01*
X70085403Y-62164936D01*
X69850001Y-62144341D01*
X69849999Y-62144341D01*
X69614596Y-62164936D01*
X69614586Y-62164938D01*
X69386344Y-62226094D01*
X69386335Y-62226098D01*
X69172171Y-62325964D01*
X69172169Y-62325965D01*
X68978597Y-62461505D01*
X68811505Y-62628597D01*
X68681575Y-62814158D01*
X68626998Y-62857783D01*
X68557500Y-62864977D01*
X68495145Y-62833454D01*
X68478425Y-62814158D01*
X68348494Y-62628597D01*
X68181402Y-62461506D01*
X68181395Y-62461501D01*
X67987834Y-62325967D01*
X67987830Y-62325965D01*
X67935500Y-62301563D01*
X67773663Y-62226097D01*
X67773659Y-62226096D01*
X67773655Y-62226094D01*
X67545413Y-62164938D01*
X67545403Y-62164936D01*
X67310001Y-62144341D01*
X67309999Y-62144341D01*
X67074596Y-62164936D01*
X67074586Y-62164938D01*
X66846344Y-62226094D01*
X66846335Y-62226098D01*
X66632171Y-62325964D01*
X66632169Y-62325965D01*
X66438597Y-62461505D01*
X66271508Y-62628594D01*
X66141574Y-62814159D01*
X66086997Y-62857784D01*
X66017498Y-62864976D01*
X65955144Y-62833454D01*
X65938424Y-62814158D01*
X65808494Y-62628597D01*
X65641402Y-62461506D01*
X65641401Y-62461505D01*
X65492127Y-62356982D01*
X65448376Y-62326347D01*
X65404751Y-62271770D01*
X65395500Y-62224772D01*
X65395500Y-58952214D01*
X65395500Y-55555448D01*
X65415184Y-55488413D01*
X65431813Y-55467776D01*
X66262771Y-54636819D01*
X66324095Y-54603334D01*
X66350453Y-54600500D01*
X69767257Y-54600500D01*
X69782877Y-54602224D01*
X69782904Y-54601939D01*
X69790660Y-54602671D01*
X69790667Y-54602673D01*
X69859814Y-54600500D01*
X69889350Y-54600500D01*
X69896228Y-54599630D01*
X69902041Y-54599172D01*
X69948627Y-54597709D01*
X69967869Y-54592117D01*
X69986912Y-54588174D01*
X70006792Y-54585664D01*
X70050122Y-54568507D01*
X70055646Y-54566617D01*
X70059396Y-54565527D01*
X70100390Y-54553618D01*
X70117629Y-54543422D01*
X70135103Y-54534862D01*
X70153727Y-54527488D01*
X70153727Y-54527487D01*
X70153732Y-54527486D01*
X70191449Y-54500082D01*
X70196305Y-54496892D01*
X70236420Y-54473170D01*
X70250589Y-54458999D01*
X70265379Y-54446368D01*
X70281587Y-54434594D01*
X70311299Y-54398676D01*
X70315212Y-54394376D01*
X70868786Y-53840802D01*
X70881048Y-53830980D01*
X70880865Y-53830759D01*
X70886867Y-53825792D01*
X70886877Y-53825786D01*
X70934241Y-53775348D01*
X70955120Y-53754470D01*
X70959373Y-53748986D01*
X70963150Y-53744563D01*
X70995062Y-53710582D01*
X71004714Y-53693023D01*
X71015389Y-53676772D01*
X71027674Y-53660936D01*
X71046186Y-53618152D01*
X71048742Y-53612935D01*
X71071197Y-53572092D01*
X71076180Y-53552680D01*
X71082477Y-53534291D01*
X71090438Y-53515895D01*
X71097729Y-53469853D01*
X71098908Y-53464162D01*
X71110500Y-53419019D01*
X71110500Y-53398983D01*
X71112027Y-53379582D01*
X71115160Y-53359804D01*
X71110775Y-53313415D01*
X71110500Y-53307577D01*
X71110500Y-44513687D01*
X71130185Y-44446648D01*
X71142350Y-44430715D01*
X71160891Y-44410122D01*
X71217533Y-44347216D01*
X71312179Y-44183284D01*
X71370674Y-44003256D01*
X71390460Y-43815000D01*
X71370674Y-43626744D01*
X71312179Y-43446716D01*
X71217533Y-43282784D01*
X71090871Y-43142112D01*
X71090870Y-43142111D01*
X70937734Y-43030851D01*
X70937729Y-43030848D01*
X70764807Y-42953857D01*
X70764802Y-42953855D01*
X70619000Y-42922865D01*
X70579646Y-42914500D01*
X70390354Y-42914500D01*
X70357897Y-42921398D01*
X70205197Y-42953855D01*
X70205192Y-42953857D01*
X70032270Y-43030848D01*
X70032265Y-43030851D01*
X69879129Y-43142111D01*
X69752466Y-43282785D01*
X69657821Y-43446715D01*
X69657818Y-43446722D01*
X69611636Y-43588857D01*
X69599326Y-43626744D01*
X69579540Y-43815000D01*
X69599326Y-44003256D01*
X69599327Y-44003259D01*
X69657818Y-44183277D01*
X69657821Y-44183284D01*
X69752467Y-44347216D01*
X69791905Y-44391016D01*
X69827650Y-44430715D01*
X69857880Y-44493706D01*
X69859500Y-44513687D01*
X69859500Y-53029547D01*
X69839815Y-53096586D01*
X69823181Y-53117228D01*
X69627228Y-53313181D01*
X69565905Y-53346666D01*
X69539547Y-53349500D01*
X66122737Y-53349500D01*
X66107120Y-53347776D01*
X66107093Y-53348062D01*
X66099331Y-53347327D01*
X66030203Y-53349500D01*
X66000650Y-53349500D01*
X65999929Y-53349590D01*
X65993757Y-53350369D01*
X65987945Y-53350826D01*
X65941373Y-53352290D01*
X65941372Y-53352290D01*
X65922129Y-53357881D01*
X65903079Y-53361825D01*
X65883211Y-53364334D01*
X65883209Y-53364335D01*
X65839884Y-53381488D01*
X65834357Y-53383380D01*
X65789610Y-53396381D01*
X65789609Y-53396382D01*
X65772367Y-53406579D01*
X65754899Y-53415137D01*
X65736269Y-53422513D01*
X65736267Y-53422514D01*
X65698576Y-53449898D01*
X65693694Y-53453105D01*
X65653579Y-53476830D01*
X65639408Y-53491000D01*
X65624623Y-53503628D01*
X65608412Y-53515407D01*
X65578709Y-53551310D01*
X65574777Y-53555631D01*
X64386208Y-54744199D01*
X64373951Y-54754020D01*
X64374134Y-54754241D01*
X64368123Y-54759213D01*
X64320772Y-54809636D01*
X64299889Y-54830519D01*
X64299877Y-54830532D01*
X64295621Y-54836017D01*
X64291837Y-54840447D01*
X64259937Y-54874418D01*
X64259936Y-54874420D01*
X64250284Y-54891976D01*
X64239610Y-54908226D01*
X64227329Y-54924061D01*
X64227324Y-54924068D01*
X64208815Y-54966838D01*
X64206245Y-54972084D01*
X64183803Y-55012906D01*
X64178822Y-55032307D01*
X64172521Y-55050710D01*
X64164562Y-55069102D01*
X64164561Y-55069105D01*
X64157271Y-55115127D01*
X64156087Y-55120846D01*
X64144501Y-55165972D01*
X64144500Y-55165982D01*
X64144500Y-55186016D01*
X64142973Y-55205415D01*
X64139840Y-55225194D01*
X64139839Y-55225197D01*
X64144224Y-55271585D01*
X64144499Y-55277421D01*
X64144500Y-62224773D01*
X64124815Y-62291812D01*
X64091623Y-62326348D01*
X63898597Y-62461505D01*
X63731505Y-62628597D01*
X63601575Y-62814158D01*
X63546998Y-62857783D01*
X63477500Y-62864977D01*
X63415145Y-62833454D01*
X63398425Y-62814158D01*
X63268494Y-62628597D01*
X63101402Y-62461506D01*
X63101401Y-62461505D01*
X62952127Y-62356982D01*
X62908376Y-62326347D01*
X62864751Y-62271770D01*
X62855500Y-62224772D01*
X62855500Y-58502742D01*
X62857224Y-58487122D01*
X62856939Y-58487095D01*
X62857673Y-58479333D01*
X62855500Y-58410172D01*
X62855500Y-58380656D01*
X62855500Y-58380650D01*
X62854631Y-58373779D01*
X62854173Y-58367952D01*
X62852710Y-58321373D01*
X62847119Y-58302130D01*
X62843173Y-58283078D01*
X62840664Y-58263208D01*
X62823504Y-58219867D01*
X62821624Y-58214379D01*
X62808618Y-58169610D01*
X62798419Y-58152364D01*
X62789858Y-58134888D01*
X62782487Y-58116270D01*
X62782486Y-58116268D01*
X62755090Y-58078560D01*
X62751892Y-58073691D01*
X62738896Y-58051716D01*
X62728171Y-58033580D01*
X62728169Y-58033578D01*
X62728166Y-58033574D01*
X62714005Y-58019413D01*
X62701370Y-58004620D01*
X62689593Y-57988412D01*
X62653693Y-57958713D01*
X62649381Y-57954790D01*
X57176817Y-52482227D01*
X57143333Y-52420905D01*
X57140499Y-52394547D01*
X57140499Y-48792214D01*
X57140499Y-45148683D01*
X57160184Y-45081648D01*
X57172350Y-45065714D01*
X57206970Y-45027265D01*
X57247533Y-44982216D01*
X57342179Y-44818284D01*
X57400674Y-44638256D01*
X57420460Y-44450000D01*
X57400674Y-44261744D01*
X57342179Y-44081716D01*
X57247533Y-43917784D01*
X57120871Y-43777112D01*
X57102316Y-43763631D01*
X56967734Y-43665851D01*
X56967729Y-43665848D01*
X56794807Y-43588857D01*
X56794802Y-43588855D01*
X56649000Y-43557865D01*
X56609646Y-43549500D01*
X56420354Y-43549500D01*
X56387897Y-43556398D01*
X56235197Y-43588855D01*
X56235192Y-43588857D01*
X56062270Y-43665848D01*
X56062265Y-43665851D01*
X55909129Y-43777111D01*
X55782466Y-43917785D01*
X55687821Y-44081715D01*
X55687818Y-44081722D01*
X55629327Y-44261740D01*
X55629326Y-44261744D01*
X55609540Y-44450000D01*
X55629326Y-44638256D01*
X55629327Y-44638259D01*
X55687818Y-44818277D01*
X55687821Y-44818284D01*
X55782467Y-44982216D01*
X55823030Y-45027265D01*
X55857650Y-45065715D01*
X55887880Y-45128706D01*
X55889500Y-45148687D01*
X55889500Y-52622255D01*
X55887775Y-52637872D01*
X55888061Y-52637899D01*
X55887326Y-52645665D01*
X55889500Y-52714814D01*
X55889500Y-52744343D01*
X55889501Y-52744360D01*
X55890368Y-52751231D01*
X55890826Y-52757050D01*
X55892290Y-52803624D01*
X55892291Y-52803627D01*
X55897880Y-52822867D01*
X55901824Y-52841911D01*
X55904336Y-52861791D01*
X55921490Y-52905119D01*
X55923382Y-52910647D01*
X55936381Y-52955388D01*
X55946580Y-52972634D01*
X55955138Y-52990103D01*
X55962514Y-53008732D01*
X55989898Y-53046423D01*
X55993106Y-53051307D01*
X56016827Y-53091416D01*
X56016833Y-53091424D01*
X56030990Y-53105580D01*
X56043628Y-53120376D01*
X56055405Y-53136586D01*
X56055406Y-53136587D01*
X56091309Y-53166288D01*
X56095620Y-53170210D01*
X60444911Y-57519500D01*
X61568181Y-58642770D01*
X61601666Y-58704093D01*
X61604500Y-58730451D01*
X61604500Y-62224773D01*
X61584815Y-62291812D01*
X61551623Y-62326348D01*
X61358597Y-62461505D01*
X61191505Y-62628597D01*
X61061575Y-62814158D01*
X61006998Y-62857783D01*
X60937500Y-62864977D01*
X60875145Y-62833454D01*
X60858425Y-62814158D01*
X60728494Y-62628597D01*
X60561402Y-62461506D01*
X60561395Y-62461501D01*
X60367834Y-62325967D01*
X60367830Y-62325965D01*
X60315500Y-62301563D01*
X60153663Y-62226097D01*
X60153659Y-62226096D01*
X60153655Y-62226094D01*
X59925413Y-62164938D01*
X59925403Y-62164936D01*
X59690001Y-62144341D01*
X59689999Y-62144341D01*
X59454596Y-62164936D01*
X59454586Y-62164938D01*
X59226344Y-62226094D01*
X59226335Y-62226098D01*
X59012171Y-62325964D01*
X59012169Y-62325965D01*
X58818597Y-62461505D01*
X58651505Y-62628597D01*
X58521269Y-62814595D01*
X58466692Y-62858220D01*
X58397194Y-62865414D01*
X58334839Y-62833891D01*
X58318119Y-62814595D01*
X58264925Y-62738626D01*
X58264925Y-62738625D01*
X57758949Y-63244602D01*
X57697626Y-63278087D01*
X57627934Y-63273103D01*
X57572001Y-63231231D01*
X57566953Y-63223961D01*
X57531761Y-63169202D01*
X57416398Y-63069241D01*
X57418708Y-63066574D01*
X57384005Y-63026528D01*
X57374058Y-62957370D01*
X57403080Y-62893813D01*
X57409116Y-62887330D01*
X57911373Y-62385073D01*
X57911373Y-62385072D01*
X57827583Y-62326402D01*
X57827579Y-62326400D01*
X57613492Y-62226570D01*
X57613483Y-62226566D01*
X57385326Y-62165432D01*
X57385315Y-62165430D01*
X57150002Y-62144843D01*
X57149998Y-62144843D01*
X56914684Y-62165430D01*
X56914673Y-62165432D01*
X56686516Y-62226566D01*
X56686507Y-62226570D01*
X56472419Y-62326401D01*
X56388625Y-62385072D01*
X56890883Y-62887330D01*
X56924368Y-62948653D01*
X56919384Y-63018345D01*
X56882357Y-63067805D01*
X56883602Y-63069241D01*
X56768238Y-63169202D01*
X56733046Y-63223962D01*
X56680242Y-63269717D01*
X56611083Y-63279660D01*
X56547528Y-63250634D01*
X56541050Y-63244603D01*
X56035073Y-62738626D01*
X55981881Y-62814594D01*
X55927304Y-62858219D01*
X55857806Y-62865413D01*
X55795451Y-62833891D01*
X55778730Y-62814594D01*
X55648494Y-62628597D01*
X55481402Y-62461506D01*
X55481395Y-62461501D01*
X55287834Y-62325967D01*
X55287830Y-62325965D01*
X55235500Y-62301563D01*
X55073663Y-62226097D01*
X55073659Y-62226096D01*
X55073655Y-62226094D01*
X54845413Y-62164938D01*
X54845403Y-62164936D01*
X54610001Y-62144341D01*
X54609999Y-62144341D01*
X54374596Y-62164936D01*
X54374586Y-62164938D01*
X54146344Y-62226094D01*
X54146335Y-62226098D01*
X53932171Y-62325964D01*
X53932169Y-62325965D01*
X53738597Y-62461505D01*
X53571505Y-62628597D01*
X53435965Y-62822169D01*
X53435964Y-62822171D01*
X53336098Y-63036335D01*
X53336094Y-63036344D01*
X53274938Y-63264586D01*
X53274936Y-63264596D01*
X53254341Y-63499999D01*
X53254341Y-63500000D01*
X52695500Y-63500000D01*
X52695500Y-46030452D01*
X52715185Y-45963413D01*
X52731819Y-45942771D01*
X53287772Y-45386819D01*
X53349095Y-45353334D01*
X53375453Y-45350500D01*
X53434644Y-45350500D01*
X53434646Y-45350500D01*
X53619803Y-45311144D01*
X53792730Y-45234151D01*
X53945871Y-45122888D01*
X54072533Y-44982216D01*
X54167179Y-44818284D01*
X54225674Y-44638256D01*
X54245460Y-44450000D01*
X54225674Y-44261744D01*
X54167179Y-44081716D01*
X54072533Y-43917784D01*
X53945871Y-43777112D01*
X53927316Y-43763631D01*
X53792734Y-43665851D01*
X53792729Y-43665848D01*
X53619807Y-43588857D01*
X53619802Y-43588855D01*
X53474001Y-43557865D01*
X53434646Y-43549500D01*
X53245354Y-43549500D01*
X53212897Y-43556398D01*
X53060197Y-43588855D01*
X53060192Y-43588857D01*
X52887270Y-43665848D01*
X52887265Y-43665851D01*
X52734129Y-43777111D01*
X52607466Y-43917785D01*
X52512821Y-44081715D01*
X52512818Y-44081722D01*
X52454327Y-44261740D01*
X52454326Y-44261744D01*
X52436679Y-44429649D01*
X52410094Y-44494263D01*
X52401039Y-44504368D01*
X51686208Y-45219199D01*
X51673951Y-45229020D01*
X51674134Y-45229241D01*
X51668122Y-45234214D01*
X51639889Y-45264279D01*
X51579647Y-45299672D01*
X51509834Y-45296878D01*
X51452613Y-45256783D01*
X51426154Y-45192117D01*
X51425499Y-45179393D01*
X51425499Y-44760452D01*
X51445184Y-44693413D01*
X51461818Y-44672771D01*
X51906169Y-44228421D01*
X53287771Y-42846819D01*
X53349095Y-42813334D01*
X53375453Y-42810500D01*
X53434644Y-42810500D01*
X53434646Y-42810500D01*
X53619803Y-42771144D01*
X53792730Y-42694151D01*
X53945871Y-42582888D01*
X54072533Y-42442216D01*
X54167179Y-42278284D01*
X54225674Y-42098256D01*
X54245460Y-41910000D01*
X54225674Y-41721744D01*
X54167179Y-41541716D01*
X54072533Y-41377784D01*
X53945871Y-41237112D01*
X53945870Y-41237111D01*
X53792734Y-41125851D01*
X53792729Y-41125848D01*
X53619807Y-41048857D01*
X53619802Y-41048855D01*
X53474001Y-41017865D01*
X53434646Y-41009500D01*
X53245354Y-41009500D01*
X53212897Y-41016398D01*
X53060197Y-41048855D01*
X53060192Y-41048857D01*
X52887270Y-41125848D01*
X52887265Y-41125851D01*
X52734129Y-41237111D01*
X52607466Y-41377785D01*
X52512821Y-41541715D01*
X52512818Y-41541722D01*
X52467874Y-41680047D01*
X52454326Y-41721744D01*
X52439087Y-41866738D01*
X52436679Y-41889649D01*
X52410094Y-41954263D01*
X52401039Y-41964368D01*
X50416208Y-43949199D01*
X50403951Y-43959020D01*
X50404134Y-43959241D01*
X50398123Y-43964213D01*
X50350772Y-44014636D01*
X50329889Y-44035519D01*
X50329877Y-44035532D01*
X50325621Y-44041017D01*
X50321837Y-44045447D01*
X50289937Y-44079418D01*
X50289936Y-44079420D01*
X50280284Y-44096976D01*
X50269610Y-44113226D01*
X50257329Y-44129061D01*
X50257324Y-44129068D01*
X50238815Y-44171838D01*
X50236245Y-44177084D01*
X50213803Y-44217906D01*
X50208822Y-44237307D01*
X50202521Y-44255710D01*
X50194562Y-44274102D01*
X50194561Y-44274105D01*
X50187271Y-44320127D01*
X50186087Y-44325846D01*
X50174501Y-44370972D01*
X50174500Y-44370982D01*
X50174500Y-44391016D01*
X50172973Y-44410415D01*
X50169840Y-44430194D01*
X50169840Y-44430195D01*
X50174225Y-44476583D01*
X50174500Y-44482421D01*
X50174500Y-61919546D01*
X50154815Y-61986585D01*
X50138181Y-62007227D01*
X41526208Y-70619199D01*
X41513951Y-70629020D01*
X41514134Y-70629241D01*
X41508123Y-70634213D01*
X41460772Y-70684636D01*
X41439889Y-70705519D01*
X41439877Y-70705532D01*
X41435621Y-70711017D01*
X41431837Y-70715447D01*
X41399937Y-70749418D01*
X41399936Y-70749420D01*
X41390284Y-70766976D01*
X41379610Y-70783226D01*
X41367329Y-70799061D01*
X41367324Y-70799068D01*
X41348815Y-70841838D01*
X41346245Y-70847084D01*
X41323803Y-70887906D01*
X41318822Y-70907307D01*
X41312521Y-70925710D01*
X41304562Y-70944102D01*
X41304561Y-70944105D01*
X41297271Y-70990127D01*
X41296087Y-70995846D01*
X41284501Y-71040972D01*
X41284500Y-71040982D01*
X41284500Y-71061016D01*
X41282973Y-71080415D01*
X41279840Y-71100194D01*
X41279840Y-71100195D01*
X40120500Y-71100195D01*
X40120500Y-48260001D01*
X41874532Y-48260001D01*
X41894364Y-48486686D01*
X41894366Y-48486697D01*
X41953258Y-48706488D01*
X41953261Y-48706497D01*
X42049431Y-48912732D01*
X42049432Y-48912734D01*
X42179954Y-49099141D01*
X42340858Y-49260045D01*
X42340861Y-49260047D01*
X42527266Y-49390568D01*
X42733504Y-49486739D01*
X42953308Y-49545635D01*
X43115230Y-49559801D01*
X43179998Y-49565468D01*
X43180000Y-49565468D01*
X43180002Y-49565468D01*
X43236673Y-49560509D01*
X43406692Y-49545635D01*
X43626496Y-49486739D01*
X43832734Y-49390568D01*
X44019139Y-49260047D01*
X44180047Y-49099139D01*
X44310568Y-48912734D01*
X44406739Y-48706496D01*
X44465635Y-48486692D01*
X44485468Y-48260000D01*
X44465635Y-48033308D01*
X44406739Y-47813504D01*
X44310568Y-47607266D01*
X44180047Y-47420861D01*
X44180045Y-47420858D01*
X44019141Y-47259954D01*
X43832734Y-47129432D01*
X43832732Y-47129431D01*
X43626497Y-47033261D01*
X43626488Y-47033258D01*
X43406697Y-46974366D01*
X43406693Y-46974365D01*
X43406692Y-46974365D01*
X43406691Y-46974364D01*
X43406686Y-46974364D01*
X43180002Y-46954532D01*
X43179998Y-46954532D01*
X42953313Y-46974364D01*
X42953302Y-46974366D01*
X42733511Y-47033258D01*
X42733502Y-47033261D01*
X42527267Y-47129431D01*
X42527265Y-47129432D01*
X42340858Y-47259954D01*
X42179954Y-47420858D01*
X42049432Y-47607265D01*
X42049431Y-47607267D01*
X41953261Y-47813502D01*
X41953258Y-47813511D01*
X41894366Y-48033302D01*
X41894364Y-48033313D01*
X41874532Y-48259998D01*
X41874532Y-48260001D01*
X40120500Y-48260001D01*
X40120500Y-45680001D01*
X46954532Y-45680001D01*
X46974364Y-45906686D01*
X46974366Y-45906697D01*
X47033258Y-46126488D01*
X47033261Y-46126497D01*
X47129431Y-46332732D01*
X47129432Y-46332734D01*
X47259954Y-46519141D01*
X47420858Y-46680045D01*
X47420861Y-46680047D01*
X47607266Y-46810568D01*
X47813504Y-46906739D01*
X48033308Y-46965635D01*
X48195230Y-46979801D01*
X48259998Y-46985468D01*
X48260000Y-46985468D01*
X48260002Y-46985468D01*
X48316673Y-46980509D01*
X48486692Y-46965635D01*
X48706496Y-46906739D01*
X48912734Y-46810568D01*
X49099139Y-46680047D01*
X49260047Y-46519139D01*
X49390568Y-46332734D01*
X49486739Y-46126496D01*
X49545635Y-45906692D01*
X49565468Y-45680000D01*
X49545635Y-45453308D01*
X49486739Y-45233504D01*
X49390568Y-45027266D01*
X49260047Y-44840861D01*
X49260045Y-44840858D01*
X49099141Y-44679954D01*
X48912734Y-44549432D01*
X48912732Y-44549431D01*
X48706497Y-44453261D01*
X48706488Y-44453258D01*
X48486697Y-44394366D01*
X48486693Y-44394365D01*
X48486692Y-44394365D01*
X48486691Y-44394364D01*
X48486686Y-44394364D01*
X48260002Y-44374532D01*
X48259998Y-44374532D01*
X48033313Y-44394364D01*
X48033302Y-44394366D01*
X47813511Y-44453258D01*
X47813502Y-44453261D01*
X47607267Y-44549431D01*
X47607265Y-44549432D01*
X47420858Y-44679954D01*
X47259954Y-44840858D01*
X47129432Y-45027265D01*
X47129431Y-45027267D01*
X47033261Y-45233502D01*
X47033258Y-45233511D01*
X46974366Y-45453302D01*
X46974364Y-45453313D01*
X46954532Y-45679998D01*
X46954532Y-45680001D01*
X40120500Y-45680001D01*
X40120500Y-44812229D01*
X40140185Y-44745190D01*
X40156819Y-44724548D01*
X41434652Y-43446715D01*
X42914652Y-41966714D01*
X42975973Y-41933231D01*
X43013135Y-41930869D01*
X43156366Y-41943400D01*
X43179999Y-41945468D01*
X43180000Y-41945468D01*
X43180002Y-41945468D01*
X43236673Y-41940509D01*
X43406692Y-41925635D01*
X43626496Y-41866739D01*
X43832734Y-41770568D01*
X44019139Y-41640047D01*
X44180047Y-41479139D01*
X44310568Y-41292734D01*
X44406739Y-41086496D01*
X44465635Y-40866692D01*
X44481968Y-40680001D01*
X46954532Y-40680001D01*
X46974364Y-40906686D01*
X46974366Y-40906697D01*
X47033258Y-41126488D01*
X47033261Y-41126497D01*
X47129431Y-41332732D01*
X47129432Y-41332734D01*
X47259954Y-41519141D01*
X47420858Y-41680045D01*
X47420861Y-41680047D01*
X47607266Y-41810568D01*
X47813504Y-41906739D01*
X47813509Y-41906740D01*
X47813511Y-41906741D01*
X47825674Y-41910000D01*
X48033308Y-41965635D01*
X48195230Y-41979801D01*
X48259998Y-41985468D01*
X48260000Y-41985468D01*
X48260002Y-41985468D01*
X48316673Y-41980509D01*
X48486692Y-41965635D01*
X48706496Y-41906739D01*
X48912734Y-41810568D01*
X49099139Y-41680047D01*
X49260047Y-41519139D01*
X49390568Y-41332734D01*
X49486739Y-41126496D01*
X49545635Y-40906692D01*
X49565468Y-40680000D01*
X49561968Y-40640000D01*
X49545635Y-40453313D01*
X49545635Y-40453308D01*
X49486739Y-40233504D01*
X49390568Y-40027266D01*
X49260047Y-39840861D01*
X49260045Y-39840858D01*
X49099141Y-39679954D01*
X48912734Y-39549432D01*
X48912732Y-39549431D01*
X48706497Y-39453261D01*
X48706488Y-39453258D01*
X48486697Y-39394366D01*
X48486693Y-39394365D01*
X48486692Y-39394365D01*
X48486691Y-39394364D01*
X48486686Y-39394364D01*
X48260002Y-39374532D01*
X48259998Y-39374532D01*
X48033313Y-39394364D01*
X48033302Y-39394366D01*
X47813511Y-39453258D01*
X47813502Y-39453261D01*
X47607267Y-39549431D01*
X47607265Y-39549432D01*
X47420858Y-39679954D01*
X47259954Y-39840858D01*
X47129432Y-40027265D01*
X47129431Y-40027267D01*
X47033261Y-40233502D01*
X47033258Y-40233511D01*
X46974366Y-40453302D01*
X46974364Y-40453313D01*
X46954532Y-40679998D01*
X46954532Y-40680001D01*
X44481968Y-40680001D01*
X44485468Y-40640000D01*
X44465635Y-40413308D01*
X44406739Y-40193504D01*
X44310568Y-39987266D01*
X44180047Y-39800861D01*
X44180045Y-39800858D01*
X44019141Y-39639954D01*
X43832734Y-39509432D01*
X43832732Y-39509431D01*
X43626497Y-39413261D01*
X43626488Y-39413258D01*
X43406697Y-39354366D01*
X43406693Y-39354365D01*
X43406692Y-39354365D01*
X43406691Y-39354364D01*
X43406686Y-39354364D01*
X43180002Y-39334532D01*
X43179998Y-39334532D01*
X42953313Y-39354364D01*
X42953302Y-39354366D01*
X42733511Y-39413258D01*
X42733502Y-39413261D01*
X42527267Y-39509431D01*
X42527265Y-39509432D01*
X42340858Y-39639954D01*
X42179954Y-39800858D01*
X42049432Y-39987265D01*
X42049431Y-39987267D01*
X41953261Y-40193502D01*
X41953258Y-40193511D01*
X41894366Y-40413302D01*
X41894364Y-40413313D01*
X41874532Y-40639998D01*
X41874532Y-40640003D01*
X41889129Y-40806861D01*
X41875362Y-40875360D01*
X41853282Y-40905348D01*
X38884358Y-43874272D01*
X38870729Y-43886051D01*
X38851468Y-43900390D01*
X38817898Y-43940397D01*
X38814253Y-43944376D01*
X38808409Y-43950222D01*
X38788059Y-43975959D01*
X38738695Y-44034789D01*
X38734729Y-44040819D01*
X38734682Y-44040788D01*
X38730630Y-44047147D01*
X38730679Y-44047177D01*
X38726889Y-44053322D01*
X38694423Y-44122942D01*
X38675733Y-44160157D01*
X38628055Y-44211231D01*
X38560333Y-44228421D01*
X38494068Y-44206269D01*
X38477248Y-44192193D01*
X38136325Y-43851318D01*
X38102836Y-43789998D01*
X38100000Y-43763631D01*
X38100000Y-36830002D01*
X41915034Y-36830002D01*
X41934858Y-37056599D01*
X41934860Y-37056610D01*
X41993730Y-37276317D01*
X41993734Y-37276326D01*
X42089865Y-37482481D01*
X42089866Y-37482483D01*
X42140973Y-37555471D01*
X42140973Y-37555472D01*
X42682580Y-37013865D01*
X42743903Y-36980380D01*
X42813594Y-36985364D01*
X42869528Y-37027235D01*
X42880742Y-37045246D01*
X42886527Y-37056599D01*
X42892358Y-37068044D01*
X42892363Y-37068050D01*
X42981949Y-37157636D01*
X42981951Y-37157637D01*
X42981955Y-37157641D01*
X43004747Y-37169254D01*
X43055542Y-37217228D01*
X43072337Y-37285049D01*
X43049799Y-37351184D01*
X43036132Y-37367419D01*
X42494526Y-37909025D01*
X42494526Y-37909026D01*
X42567512Y-37960131D01*
X42567516Y-37960133D01*
X42773673Y-38056265D01*
X42773682Y-38056269D01*
X42993389Y-38115139D01*
X42993400Y-38115141D01*
X43219998Y-38134966D01*
X43220002Y-38134966D01*
X43446599Y-38115141D01*
X43446610Y-38115139D01*
X43666317Y-38056269D01*
X43666331Y-38056264D01*
X43872478Y-37960136D01*
X43945472Y-37909025D01*
X43403866Y-37367419D01*
X43370381Y-37306096D01*
X43375365Y-37236404D01*
X43417237Y-37180471D01*
X43435245Y-37169258D01*
X43458045Y-37157641D01*
X43547641Y-37068045D01*
X43559254Y-37045252D01*
X43607225Y-36994458D01*
X43675046Y-36977661D01*
X43741181Y-37000197D01*
X43757419Y-37013866D01*
X44299025Y-37555472D01*
X44350136Y-37482478D01*
X44446264Y-37276331D01*
X44446269Y-37276317D01*
X44505139Y-37056610D01*
X44505141Y-37056599D01*
X44524966Y-36830002D01*
X44524966Y-36830001D01*
X46914532Y-36830001D01*
X46934364Y-37056686D01*
X46934366Y-37056697D01*
X46993258Y-37276488D01*
X46993261Y-37276497D01*
X47089431Y-37482732D01*
X47089432Y-37482734D01*
X47219954Y-37669141D01*
X47380858Y-37830045D01*
X47380861Y-37830047D01*
X47567266Y-37960568D01*
X47773504Y-38056739D01*
X47993308Y-38115635D01*
X48155230Y-38129801D01*
X48219998Y-38135468D01*
X48220000Y-38135468D01*
X48220002Y-38135468D01*
X48276673Y-38130509D01*
X48446692Y-38115635D01*
X48666496Y-38056739D01*
X48872734Y-37960568D01*
X49059139Y-37830047D01*
X49220047Y-37669139D01*
X49350568Y-37482734D01*
X49446739Y-37276496D01*
X49505635Y-37056692D01*
X49525468Y-36830000D01*
X49505635Y-36603308D01*
X49446739Y-36383504D01*
X49350568Y-36177266D01*
X49220047Y-35990861D01*
X49220045Y-35990858D01*
X49059141Y-35829954D01*
X48872734Y-35699432D01*
X48872732Y-35699431D01*
X48666497Y-35603261D01*
X48666488Y-35603258D01*
X48446697Y-35544366D01*
X48446693Y-35544365D01*
X48446692Y-35544365D01*
X48446691Y-35544364D01*
X48446686Y-35544364D01*
X48220002Y-35524532D01*
X48219998Y-35524532D01*
X47993313Y-35544364D01*
X47993302Y-35544366D01*
X47773511Y-35603258D01*
X47773502Y-35603261D01*
X47567267Y-35699431D01*
X47567265Y-35699432D01*
X47380858Y-35829954D01*
X47219954Y-35990858D01*
X47089432Y-36177265D01*
X47089431Y-36177267D01*
X46993261Y-36383502D01*
X46993258Y-36383511D01*
X46934366Y-36603302D01*
X46934364Y-36603313D01*
X46914532Y-36829998D01*
X46914532Y-36830001D01*
X44524966Y-36830001D01*
X44524966Y-36829997D01*
X44505141Y-36603400D01*
X44505139Y-36603389D01*
X44446269Y-36383682D01*
X44446265Y-36383673D01*
X44350133Y-36177516D01*
X44350131Y-36177512D01*
X44299026Y-36104526D01*
X44299025Y-36104526D01*
X43757419Y-36646132D01*
X43696096Y-36679617D01*
X43626404Y-36674633D01*
X43570471Y-36632761D01*
X43559256Y-36614751D01*
X43547641Y-36591955D01*
X43547637Y-36591951D01*
X43547636Y-36591949D01*
X43458050Y-36502363D01*
X43458044Y-36502358D01*
X43448109Y-36497296D01*
X43435250Y-36490744D01*
X43384456Y-36442773D01*
X43367660Y-36374952D01*
X43390197Y-36308817D01*
X43403865Y-36292580D01*
X43945472Y-35750973D01*
X43872483Y-35699866D01*
X43872481Y-35699865D01*
X43666326Y-35603734D01*
X43666317Y-35603730D01*
X43446610Y-35544860D01*
X43446599Y-35544858D01*
X43220002Y-35525034D01*
X43219998Y-35525034D01*
X42993400Y-35544858D01*
X42993389Y-35544860D01*
X42773682Y-35603730D01*
X42773673Y-35603734D01*
X42567513Y-35699868D01*
X42494526Y-35750973D01*
X43036133Y-36292580D01*
X43069618Y-36353903D01*
X43064634Y-36423595D01*
X43022762Y-36479528D01*
X43004748Y-36490745D01*
X42981956Y-36502358D01*
X42981949Y-36502363D01*
X42892363Y-36591949D01*
X42892358Y-36591956D01*
X42880745Y-36614748D01*
X42832770Y-36665544D01*
X42764949Y-36682338D01*
X42698814Y-36659800D01*
X42682580Y-36646133D01*
X42140973Y-36104526D01*
X42089868Y-36177513D01*
X41993734Y-36383673D01*
X41993730Y-36383682D01*
X41934860Y-36603389D01*
X41934858Y-36603400D01*
X41915034Y-36829997D01*
X41915034Y-36830002D01*
X38100000Y-36830002D01*
X38100000Y-33144000D01*
X38119685Y-33076961D01*
X38172489Y-33031206D01*
X38224000Y-33020000D01*
X88776000Y-33020000D01*
X88843039Y-33039685D01*
G37*
%TD.AperFunction*%
%TD*%
M02*
