%TF.GenerationSoftware,KiCad,Pcbnew,7.0.7*%
%TF.CreationDate,2024-10-11T15:58:01+09:00*%
%TF.ProjectId,ESP32-hub75,45535033-322d-4687-9562-37352e6b6963,rev?*%
%TF.SameCoordinates,Original*%
%TF.FileFunction,Copper,L1,Top*%
%TF.FilePolarity,Positive*%
%FSLAX46Y46*%
G04 Gerber Fmt 4.6, Leading zero omitted, Abs format (unit mm)*
G04 Created by KiCad (PCBNEW 7.0.7) date 2024-10-11 15:58:01*
%MOMM*%
%LPD*%
G01*
G04 APERTURE LIST*
G04 Aperture macros list*
%AMRoundRect*
0 Rectangle with rounded corners*
0 $1 Rounding radius*
0 $2 $3 $4 $5 $6 $7 $8 $9 X,Y pos of 4 corners*
0 Add a 4 corners polygon primitive as box body*
4,1,4,$2,$3,$4,$5,$6,$7,$8,$9,$2,$3,0*
0 Add four circle primitives for the rounded corners*
1,1,$1+$1,$2,$3*
1,1,$1+$1,$4,$5*
1,1,$1+$1,$6,$7*
1,1,$1+$1,$8,$9*
0 Add four rect primitives between the rounded corners*
20,1,$1+$1,$2,$3,$4,$5,0*
20,1,$1+$1,$4,$5,$6,$7,0*
20,1,$1+$1,$6,$7,$8,$9,0*
20,1,$1+$1,$8,$9,$2,$3,0*%
G04 Aperture macros list end*
%TA.AperFunction,ComponentPad*%
%ADD10C,1.600000*%
%TD*%
%TA.AperFunction,ComponentPad*%
%ADD11O,1.600000X1.600000*%
%TD*%
%TA.AperFunction,ComponentPad*%
%ADD12C,2.000000*%
%TD*%
%TA.AperFunction,ComponentPad*%
%ADD13R,2.000000X2.000000*%
%TD*%
%TA.AperFunction,SMDPad,CuDef*%
%ADD14R,0.900000X0.900000*%
%TD*%
%TA.AperFunction,SMDPad,CuDef*%
%ADD15R,1.500000X0.900000*%
%TD*%
%TA.AperFunction,SMDPad,CuDef*%
%ADD16R,0.900000X1.500000*%
%TD*%
%TA.AperFunction,SMDPad,CuDef*%
%ADD17RoundRect,0.225000X-0.225000X-2.025000X0.225000X-2.025000X0.225000X2.025000X-0.225000X2.025000X0*%
%TD*%
%TA.AperFunction,ComponentPad*%
%ADD18O,1.000000X1.500000*%
%TD*%
%TA.AperFunction,ComponentPad*%
%ADD19R,1.800000X1.800000*%
%TD*%
%TA.AperFunction,ComponentPad*%
%ADD20C,1.800000*%
%TD*%
%TA.AperFunction,ComponentPad*%
%ADD21RoundRect,0.250000X0.600000X-0.600000X0.600000X0.600000X-0.600000X0.600000X-0.600000X-0.600000X0*%
%TD*%
%TA.AperFunction,ComponentPad*%
%ADD22C,1.700000*%
%TD*%
%TA.AperFunction,ComponentPad*%
%ADD23R,1.700000X1.700000*%
%TD*%
%TA.AperFunction,ComponentPad*%
%ADD24O,1.700000X1.700000*%
%TD*%
%TA.AperFunction,SMDPad,CuDef*%
%ADD25RoundRect,0.250000X0.350000X-0.850000X0.350000X0.850000X-0.350000X0.850000X-0.350000X-0.850000X0*%
%TD*%
%TA.AperFunction,SMDPad,CuDef*%
%ADD26RoundRect,0.250000X1.125000X-1.275000X1.125000X1.275000X-1.125000X1.275000X-1.125000X-1.275000X0*%
%TD*%
%TA.AperFunction,SMDPad,CuDef*%
%ADD27RoundRect,0.249997X2.650003X-2.950003X2.650003X2.950003X-2.650003X2.950003X-2.650003X-2.950003X0*%
%TD*%
%TA.AperFunction,ComponentPad*%
%ADD28R,1.500000X1.050000*%
%TD*%
%TA.AperFunction,ComponentPad*%
%ADD29O,1.500000X1.050000*%
%TD*%
%TA.AperFunction,ComponentPad*%
%ADD30R,1.050000X1.500000*%
%TD*%
%TA.AperFunction,ComponentPad*%
%ADD31O,1.050000X1.500000*%
%TD*%
%TA.AperFunction,ViaPad*%
%ADD32C,0.800000*%
%TD*%
%TA.AperFunction,Conductor*%
%ADD33C,0.250000*%
%TD*%
%TA.AperFunction,Conductor*%
%ADD34C,0.500000*%
%TD*%
G04 APERTURE END LIST*
D10*
%TO.P,R2,1*%
%TO.N,Net-(Q1-B)*%
X67310000Y-82550000D03*
D11*
%TO.P,R2,2*%
%TO.N,DTR*%
X67310000Y-85090000D03*
%TD*%
D12*
%TO.P,SW1,1,1*%
%TO.N,GND*%
X52070000Y-107950000D03*
X45570000Y-107950000D03*
%TO.P,SW1,2,2*%
%TO.N,EN*%
X52070000Y-103450000D03*
X45570000Y-103450000D03*
%TD*%
D13*
%TO.P,SW2,1,A*%
%TO.N,GND*%
X72390000Y-106680000D03*
D12*
%TO.P,SW2,2,B*%
%TO.N,Net-(SW2A-B)*%
X74930000Y-106680000D03*
%TO.P,SW2,3,C*%
%TO.N,Net-(Q2-C)*%
X77470000Y-106680000D03*
%TD*%
D14*
%TO.P,U3,39,GND_THERMAL*%
%TO.N,GND*%
X63500000Y-43410000D03*
X63500000Y-42010000D03*
X63500000Y-40610000D03*
X62100000Y-43410000D03*
X62100000Y-43410000D03*
X62100000Y-42010000D03*
X62100000Y-40610000D03*
X60700000Y-43410000D03*
X60700000Y-43410000D03*
X60700000Y-42010000D03*
X60700000Y-40610000D03*
X60700000Y-40610000D03*
D15*
%TO.P,U3,38,GND*%
X72350000Y-34290000D03*
%TO.P,U3,37,GPIO23*%
%TO.N,IO23*%
X72350000Y-35560000D03*
%TO.P,U3,36,GPIO22*%
%TO.N,unconnected-(U3-GPIO22-Pad36)*%
X72350000Y-36830000D03*
%TO.P,U3,35,U0TXD/GPIO1*%
%TO.N,TX*%
X72350000Y-38100000D03*
%TO.P,U3,34,U0RXD/GPIO3*%
%TO.N,RX*%
X72350000Y-39370000D03*
%TO.P,U3,33,GPIO21*%
%TO.N,unconnected-(U3-GPIO21-Pad33)*%
X72350000Y-40640000D03*
%TO.P,U3,32*%
%TO.N,N/C*%
X72350000Y-41910000D03*
%TO.P,U3,31,GPIO19*%
%TO.N,IO19*%
X72350000Y-43180000D03*
%TO.P,U3,30,GPIO18*%
%TO.N,unconnected-(U3-GPIO18-Pad30)*%
X72350000Y-44450000D03*
%TO.P,U3,29,GPIO5*%
%TO.N,IO5*%
X72350000Y-45720000D03*
%TO.P,U3,28,GPIO17*%
%TO.N,IO17*%
X72350000Y-46990000D03*
%TO.P,U3,27,GPIO16*%
%TO.N,IO16*%
X72350000Y-48260000D03*
%TO.P,U3,26,ADC2_CH0/GPIO4*%
%TO.N,IO4*%
X72350000Y-49530000D03*
%TO.P,U3,25,GPIO0/BOOT/ADC2_CH1*%
%TO.N,Net-(SW2A-B)*%
X72350000Y-50800000D03*
D16*
%TO.P,U3,24,ADC2_CH2/GPIO2*%
%TO.N,unconnected-(U3-ADC2_CH2{slash}GPIO2-Pad24)*%
X69310000Y-52050000D03*
%TO.P,U3,23,MTDO/GPIO15/ADC2_CH3*%
%TO.N,IO15*%
X68040000Y-52050000D03*
%TO.P,U3,22*%
%TO.N,N/C*%
X66770000Y-52050000D03*
%TO.P,U3,21*%
X65500000Y-52050000D03*
%TO.P,U3,20*%
X64230000Y-52050000D03*
%TO.P,U3,19*%
X62960000Y-52050000D03*
%TO.P,U3,18*%
X61690000Y-52050000D03*
%TO.P,U3,17*%
X60420000Y-52050000D03*
%TO.P,U3,16,MTCK/GPIO13/ADC2_CH4*%
%TO.N,IO13*%
X59150000Y-52050000D03*
%TO.P,U3,15,GND*%
%TO.N,GND*%
X57880000Y-52050000D03*
D15*
%TO.P,U3,14,MTDI/GPIO12/ADC2_CH5*%
%TO.N,IO12*%
X54850000Y-50800000D03*
%TO.P,U3,13,MTMS/GPIO14/ADC2_CH6*%
%TO.N,IO14*%
X54850000Y-49530000D03*
%TO.P,U3,12,ADC2_CH7/GPIO27*%
%TO.N,IO27*%
X54850000Y-48260000D03*
%TO.P,U3,11,DAC_2/ADC2_CH9/GPIO26*%
%TO.N,IO26*%
X54850000Y-46990000D03*
%TO.P,U3,10,DAC_1/ADC2_CH8/GPIO25*%
%TO.N,IO25*%
X54850000Y-45720000D03*
%TO.P,U3,9,32K_XN/GPIO33/ADC1_CH5*%
%TO.N,IO33*%
X54850000Y-44450000D03*
%TO.P,U3,8,32K_XP/GPIO32/ADC1_CH4*%
%TO.N,IO32*%
X54850000Y-43180000D03*
%TO.P,U3,7,GPIO35/ADC1_CH7*%
%TO.N,IO35*%
X54850000Y-41910000D03*
%TO.P,U3,6,GPIO34/ADC1_CH6*%
%TO.N,IO34*%
X54850000Y-40640000D03*
%TO.P,U3,5,SENSOR_VN/GPIO39/ADC1_CH3*%
%TO.N,unconnected-(U3-SENSOR_VN{slash}GPIO39{slash}ADC1_CH3-Pad5)*%
X54850000Y-39370000D03*
%TO.P,U3,4,SENSOR_VP/GPIO36/ADC1_CH0*%
%TO.N,unconnected-(U3-SENSOR_VP{slash}GPIO36{slash}ADC1_CH0-Pad4)*%
X54850000Y-38100000D03*
%TO.P,U3,3,EN/CHIP_PU*%
%TO.N,EN*%
X54850000Y-36830000D03*
%TO.P,U3,2,3V3*%
%TO.N,+3V3*%
X54850000Y-35560000D03*
%TO.P,U3,1,GND*%
%TO.N,GND*%
X54850000Y-34290000D03*
%TD*%
D10*
%TO.P,C4,1*%
%TO.N,+3V3*%
X39410000Y-86360000D03*
%TO.P,C4,2*%
%TO.N,IO34*%
X44410000Y-86360000D03*
%TD*%
%TO.P,C2,1*%
%TO.N,GND*%
X43220000Y-36830000D03*
%TO.P,C2,2*%
%TO.N,+3V3*%
X48220000Y-36830000D03*
%TD*%
D17*
%TO.P,J1,1,VBUS*%
%TO.N,5V*%
X62200000Y-103320000D03*
%TO.P,J1,5,GND*%
%TO.N,GND*%
X64800000Y-103320000D03*
D18*
%TO.P,J1,6,Shield*%
X59950000Y-109220000D03*
X67050000Y-109220000D03*
%TD*%
D10*
%TO.P,R6,1*%
%TO.N,+3V3*%
X83820000Y-106680000D03*
D11*
%TO.P,R6,2*%
%TO.N,Net-(Q2-C)*%
X81280000Y-106680000D03*
%TD*%
D10*
%TO.P,C3,1*%
%TO.N,+3V3*%
X39410000Y-77470000D03*
%TO.P,C3,2*%
%TO.N,IO33*%
X44410000Y-77470000D03*
%TD*%
%TO.P,C5,1*%
%TO.N,+3V3*%
X39410000Y-95250000D03*
%TO.P,C5,2*%
%TO.N,IO35*%
X44410000Y-95250000D03*
%TD*%
D19*
%TO.P,D1,1,K*%
%TO.N,GND*%
X60960000Y-80010000D03*
D20*
%TO.P,D1,2,A*%
%TO.N,Net-(D1-A)*%
X63500000Y-80010000D03*
%TD*%
D12*
%TO.P,SW5,1,1*%
%TO.N,GND*%
X56590000Y-95940000D03*
X50090000Y-95940000D03*
%TO.P,SW5,2,2*%
%TO.N,IO35*%
X56590000Y-91440000D03*
X50090000Y-91440000D03*
%TD*%
D21*
%TO.P,J3,1,R1*%
%TO.N,IO25*%
X54610000Y-66040000D03*
D22*
%TO.P,J3,2,G1*%
%TO.N,IO26*%
X54610000Y-63500000D03*
%TO.P,J3,3,B1*%
%TO.N,IO27*%
X57150000Y-66040000D03*
%TO.P,J3,4,GND1*%
%TO.N,GND*%
X57150000Y-63500000D03*
%TO.P,J3,5,R2*%
%TO.N,IO14*%
X59690000Y-66040000D03*
%TO.P,J3,6,G2*%
%TO.N,IO12*%
X59690000Y-63500000D03*
%TO.P,J3,7,B2*%
%TO.N,IO13*%
X62230000Y-66040000D03*
%TO.P,J3,8,E*%
%TO.N,IO32*%
X62230000Y-63500000D03*
%TO.P,J3,9,A*%
%TO.N,IO23*%
X64770000Y-66040000D03*
%TO.P,J3,10,B*%
%TO.N,IO19*%
X64770000Y-63500000D03*
%TO.P,J3,11,C*%
%TO.N,IO5*%
X67310000Y-66040000D03*
%TO.P,J3,12,D*%
%TO.N,IO17*%
X67310000Y-63500000D03*
%TO.P,J3,13,CLK*%
%TO.N,IO16*%
X69850000Y-66040000D03*
%TO.P,J3,14,LAT*%
%TO.N,IO4*%
X69850000Y-63500000D03*
%TO.P,J3,15,OE*%
%TO.N,IO15*%
X72390000Y-66040000D03*
%TO.P,J3,16,GND3*%
%TO.N,GND*%
X72390000Y-63500000D03*
%TD*%
D10*
%TO.P,R7,1*%
%TO.N,+3V3*%
X39370000Y-73660000D03*
D11*
%TO.P,R7,2*%
%TO.N,IO33*%
X46990000Y-73660000D03*
%TD*%
D10*
%TO.P,R5,1*%
%TO.N,RTS*%
X76200000Y-76200000D03*
D11*
%TO.P,R5,2*%
%TO.N,GND*%
X76200000Y-86360000D03*
%TD*%
D23*
%TO.P,J2,1,RTS*%
%TO.N,RTS*%
X80690000Y-76175000D03*
D24*
%TO.P,J2,2,RXD*%
%TO.N,TX*%
X80690000Y-78715000D03*
%TO.P,J2,3,TXD*%
%TO.N,RX*%
X80690000Y-81255000D03*
%TO.P,J2,4,+5V*%
%TO.N,5V*%
X80690000Y-83795000D03*
%TO.P,J2,5,DTR*%
%TO.N,DTR*%
X80690000Y-86335000D03*
%TO.P,J2,6,GND*%
%TO.N,GND*%
X80690000Y-88875000D03*
%TD*%
D12*
%TO.P,SW3,1,1*%
%TO.N,GND*%
X56590000Y-78105000D03*
X50090000Y-78105000D03*
%TO.P,SW3,2,2*%
%TO.N,IO33*%
X56590000Y-73605000D03*
X50090000Y-73605000D03*
%TD*%
D10*
%TO.P,R1,1*%
%TO.N,+3V3*%
X43180000Y-40640000D03*
D11*
%TO.P,R1,2*%
%TO.N,EN*%
X43180000Y-48260000D03*
%TD*%
D10*
%TO.P,C1,1*%
%TO.N,+3V3*%
X48260000Y-40680000D03*
%TO.P,C1,2*%
%TO.N,EN*%
X48260000Y-45680000D03*
%TD*%
%TO.P,R4,1*%
%TO.N,GND*%
X72390000Y-95250000D03*
D11*
%TO.P,R4,2*%
%TO.N,DTR*%
X80010000Y-95250000D03*
%TD*%
D10*
%TO.P,R8,1*%
%TO.N,+3V3*%
X39370000Y-82550000D03*
D11*
%TO.P,R8,2*%
%TO.N,IO34*%
X46990000Y-82550000D03*
%TD*%
D10*
%TO.P,R10,1*%
%TO.N,+3V3*%
X60960000Y-85090000D03*
D11*
%TO.P,R10,2*%
%TO.N,Net-(D1-A)*%
X63500000Y-85090000D03*
%TD*%
D25*
%TO.P,U2,1,Vin*%
%TO.N,5V*%
X61220000Y-96520000D03*
%TO.P,U2,2,GND*%
%TO.N,GND*%
X63500000Y-96520000D03*
D26*
X61975000Y-91895000D03*
X65025000Y-91895000D03*
D27*
X63500000Y-90220000D03*
D26*
X61975000Y-88545000D03*
X65025000Y-88545000D03*
D25*
%TO.P,U2,3,Vout*%
%TO.N,+3V3*%
X65780000Y-96520000D03*
%TD*%
D10*
%TO.P,R9,1*%
%TO.N,+3V3*%
X39370000Y-91440000D03*
D11*
%TO.P,R9,2*%
%TO.N,IO35*%
X46990000Y-91440000D03*
%TD*%
D28*
%TO.P,Q1,1,E*%
%TO.N,RTS*%
X67310000Y-76200000D03*
D29*
%TO.P,Q1,2,C*%
%TO.N,EN*%
X67310000Y-77470000D03*
%TO.P,Q1,3,B*%
%TO.N,Net-(Q1-B)*%
X67310000Y-78740000D03*
%TD*%
D12*
%TO.P,SW4,1,1*%
%TO.N,GND*%
X56590000Y-87050000D03*
X50090000Y-87050000D03*
%TO.P,SW4,2,2*%
%TO.N,IO34*%
X56590000Y-82550000D03*
X50090000Y-82550000D03*
%TD*%
D30*
%TO.P,Q2,1,E*%
%TO.N,DTR*%
X80010000Y-100330000D03*
D31*
%TO.P,Q2,2,C*%
%TO.N,Net-(Q2-C)*%
X81280000Y-100330000D03*
%TO.P,Q2,3,B*%
%TO.N,Net-(Q2-B)*%
X82550000Y-100330000D03*
%TD*%
D10*
%TO.P,R3,1*%
%TO.N,Net-(Q2-B)*%
X72390000Y-91440000D03*
D11*
%TO.P,R3,2*%
%TO.N,RTS*%
X72390000Y-76200000D03*
%TD*%
D32*
%TO.N,+3V3*%
X64770000Y-99060000D03*
%TO.N,IO32*%
X56515000Y-44450000D03*
%TO.N,GND*%
X80645000Y-48895000D03*
X80645000Y-52705000D03*
X80645000Y-73660000D03*
X80645000Y-39370000D03*
X62865000Y-53975000D03*
X51435000Y-36830000D03*
X63500000Y-59690000D03*
X66675000Y-55880000D03*
X66675000Y-60960000D03*
%TO.N,RX*%
X78740000Y-40640000D03*
%TO.N,TX*%
X78740000Y-38100000D03*
%TO.N,IO23*%
X77470000Y-36830000D03*
%TO.N,IO17*%
X74930000Y-48260000D03*
%TO.N,IO15*%
X67945000Y-58420000D03*
%TO.N,IO34*%
X48260000Y-67310000D03*
%TO.N,IO35*%
X53340000Y-41910000D03*
%TO.N,IO33*%
X53340000Y-44450000D03*
%TO.N,IO19*%
X70485000Y-43815000D03*
%TO.N,IO5*%
X76200000Y-46990000D03*
%TD*%
D33*
%TO.N,+3V3*%
X43220000Y-40680000D02*
X43180000Y-40640000D01*
D34*
X48220000Y-36830000D02*
X48220000Y-40640000D01*
X81280000Y-110490000D02*
X83820000Y-107950000D01*
X48260000Y-40680000D02*
X43220000Y-40680000D01*
X65780000Y-96520000D02*
X65780000Y-98050000D01*
X54850000Y-35560000D02*
X49490000Y-35560000D01*
X71120000Y-110490000D02*
X81280000Y-110490000D01*
D33*
X48220000Y-40640000D02*
X48260000Y-40680000D01*
D34*
X65780000Y-98050000D02*
X64770000Y-99060000D01*
D33*
X65780000Y-96520000D02*
X65780000Y-97530000D01*
D34*
X83820000Y-107950000D02*
X83820000Y-106680000D01*
X65780000Y-97530000D02*
X68580000Y-100330000D01*
X49490000Y-35560000D02*
X48220000Y-36830000D01*
X68580000Y-100330000D02*
X68580000Y-107950000D01*
X68580000Y-107950000D02*
X71120000Y-110490000D01*
D33*
%TO.N,IO32*%
X54850000Y-43180000D02*
X55245000Y-43180000D01*
X55245000Y-43180000D02*
X56515000Y-44450000D01*
%TO.N,EN*%
X44450000Y-71120000D02*
X41910000Y-68580000D01*
X67310000Y-77470000D02*
X64770000Y-77470000D01*
X50760000Y-43180000D02*
X50800000Y-43180000D01*
X43180000Y-48260000D02*
X45680000Y-48260000D01*
X64770000Y-77470000D02*
X58420000Y-71120000D01*
X45570000Y-99545000D02*
X45570000Y-103450000D01*
X48260000Y-45680000D02*
X50760000Y-43180000D01*
X41910000Y-49530000D02*
X41910000Y-68580000D01*
X53340000Y-36830000D02*
X54850000Y-36830000D01*
X41910000Y-68580000D02*
X41910000Y-95885000D01*
X58420000Y-71120000D02*
X44450000Y-71120000D01*
X45680000Y-48260000D02*
X48260000Y-45680000D01*
X41910000Y-95885000D02*
X45570000Y-99545000D01*
X50800000Y-39370000D02*
X53340000Y-36830000D01*
X43180000Y-48260000D02*
X41910000Y-49530000D01*
X50800000Y-43180000D02*
X50800000Y-39370000D01*
%TO.N,RX*%
X77470000Y-39370000D02*
X78740000Y-40640000D01*
X72350000Y-39370000D02*
X77470000Y-39370000D01*
%TO.N,TX*%
X78740000Y-38100000D02*
X72350000Y-38100000D01*
%TO.N,RTS*%
X72390000Y-76200000D02*
X67310000Y-76200000D01*
X76200000Y-76200000D02*
X80665000Y-76200000D01*
X72390000Y-76200000D02*
X76200000Y-76200000D01*
%TO.N,IO25*%
X53340000Y-58420000D02*
X49530000Y-54610000D01*
X49530000Y-48260000D02*
X52070000Y-45720000D01*
X54610000Y-66040000D02*
X53340000Y-64770000D01*
X53340000Y-64770000D02*
X53340000Y-58420000D01*
X52070000Y-45720000D02*
X54850000Y-45720000D01*
X49530000Y-54610000D02*
X49530000Y-48260000D01*
%TO.N,IO26*%
X54610000Y-58420000D02*
X50800000Y-54610000D01*
X50800000Y-54610000D02*
X50800000Y-49530000D01*
X50800000Y-49530000D02*
X53340000Y-46990000D01*
X53340000Y-46990000D02*
X54850000Y-46990000D01*
X54610000Y-63500000D02*
X54610000Y-58420000D01*
%TO.N,IO27*%
X55785000Y-58325000D02*
X52070000Y-54610000D01*
X53340000Y-48260000D02*
X54850000Y-48260000D01*
X52070000Y-49530000D02*
X53340000Y-48260000D01*
X57150000Y-66040000D02*
X55785000Y-64675000D01*
X52070000Y-54610000D02*
X52070000Y-49530000D01*
X55785000Y-64675000D02*
X55785000Y-58325000D01*
%TO.N,IO23*%
X76200000Y-35560000D02*
X72350000Y-35560000D01*
X76200000Y-35560000D02*
X77470000Y-36830000D01*
%TO.N,IO12*%
X59690000Y-57150000D02*
X59690000Y-63500000D01*
X54850000Y-52310000D02*
X59690000Y-57150000D01*
X54850000Y-50800000D02*
X54850000Y-52310000D01*
%TO.N,IO16*%
X68580000Y-59690000D02*
X68580000Y-64770000D01*
X71350000Y-48260000D02*
X70085000Y-49525000D01*
X70085000Y-49525000D02*
X70085000Y-58185000D01*
X70085000Y-58185000D02*
X68580000Y-59690000D01*
X68580000Y-64770000D02*
X69850000Y-66040000D01*
X72350000Y-48260000D02*
X71350000Y-48260000D01*
%TO.N,IO17*%
X73660000Y-46990000D02*
X74930000Y-48260000D01*
X72350000Y-46990000D02*
X73660000Y-46990000D01*
%TO.N,IO15*%
X68040000Y-58325000D02*
X68040000Y-52050000D01*
X67945000Y-58420000D02*
X68040000Y-58325000D01*
%TO.N,IO34*%
X48260000Y-48260000D02*
X51250000Y-45270000D01*
X51250000Y-45270000D02*
X51250000Y-42730000D01*
X53340000Y-40640000D02*
X54850000Y-40640000D01*
X51250000Y-42730000D02*
X53340000Y-40640000D01*
X48260000Y-67310000D02*
X48260000Y-48260000D01*
%TO.N,IO35*%
X54850000Y-41910000D02*
X53340000Y-41910000D01*
%TO.N,IO33*%
X54850000Y-44450000D02*
X53340000Y-44450000D01*
X46990000Y-73660000D02*
X50035000Y-73660000D01*
%TO.N,Net-(SW2A-B)*%
X74930000Y-99695000D02*
X74930000Y-106680000D01*
X83820000Y-95250000D02*
X81915000Y-97155000D01*
X77470000Y-97155000D02*
X74930000Y-99695000D01*
X83820000Y-52705000D02*
X83820000Y-95250000D01*
X72350000Y-50800000D02*
X81915000Y-50800000D01*
X81915000Y-50800000D02*
X83820000Y-52705000D01*
X81915000Y-97155000D02*
X77470000Y-97155000D01*
%TO.N,IO14*%
X58420000Y-64770000D02*
X59690000Y-66040000D01*
X53340000Y-50040000D02*
X53340000Y-53340000D01*
X53850000Y-49530000D02*
X53340000Y-50040000D01*
X58420000Y-58420000D02*
X58420000Y-64770000D01*
X54850000Y-49530000D02*
X53850000Y-49530000D01*
X53340000Y-53340000D02*
X58420000Y-58420000D01*
%TO.N,IO13*%
X62230000Y-66040000D02*
X60865000Y-64675000D01*
X60865000Y-64675000D02*
X60865000Y-54765000D01*
X60865000Y-54765000D02*
X59150000Y-53050000D01*
X59150000Y-53050000D02*
X59150000Y-52050000D01*
%TO.N,IO19*%
X71120000Y-43180000D02*
X70485000Y-43815000D01*
X72350000Y-43180000D02*
X71120000Y-43180000D01*
D34*
%TO.N,5V*%
X61220000Y-96520000D02*
X61220000Y-99350000D01*
X61220000Y-95625000D02*
X62230000Y-94615000D01*
X62230000Y-94615000D02*
X67310000Y-94615000D01*
X69850000Y-92075000D02*
X69850000Y-86360000D01*
X62200000Y-103320000D02*
X62200000Y-100330000D01*
X69850000Y-86360000D02*
X72415000Y-83795000D01*
X67310000Y-94615000D02*
X69850000Y-92075000D01*
X61220000Y-96520000D02*
X61220000Y-95625000D01*
X72415000Y-83795000D02*
X80690000Y-83795000D01*
X61220000Y-99350000D02*
X62200000Y-100330000D01*
D33*
%TO.N,IO4*%
X71350000Y-49530000D02*
X71120000Y-49760000D01*
X71120000Y-49760000D02*
X71120000Y-59690000D01*
X69850000Y-60960000D02*
X69850000Y-63500000D01*
X71120000Y-59690000D02*
X69850000Y-60960000D01*
X72350000Y-49530000D02*
X71350000Y-49530000D01*
%TO.N,IO5*%
X76200000Y-46990000D02*
X74930000Y-45720000D01*
X74930000Y-45720000D02*
X72350000Y-45720000D01*
%TO.N,DTR*%
X82550000Y-92710000D02*
X82550000Y-88195000D01*
X80010000Y-95250000D02*
X82550000Y-92710000D01*
X82550000Y-88195000D02*
X80690000Y-86335000D01*
%TD*%
%TA.AperFunction,Conductor*%
%TO.N,GND*%
G36*
X88843039Y-33039685D02*
G01*
X88888794Y-33092489D01*
X88900000Y-33144000D01*
X88900000Y-107943667D01*
X88880315Y-108010706D01*
X88827511Y-108056461D01*
X88758353Y-108066405D01*
X88732430Y-108059760D01*
X88599025Y-108009692D01*
X88377550Y-107969500D01*
X88377547Y-107969500D01*
X88208845Y-107969500D01*
X88170399Y-107972960D01*
X88040813Y-107984622D01*
X88040807Y-107984623D01*
X87823839Y-108044503D01*
X87823826Y-108044508D01*
X87621033Y-108142167D01*
X87621025Y-108142171D01*
X87438927Y-108274473D01*
X87438925Y-108274474D01*
X87283366Y-108437176D01*
X87159363Y-108625033D01*
X87070899Y-108832004D01*
X87070895Y-108832017D01*
X87020810Y-109051457D01*
X87020808Y-109051468D01*
X87010710Y-109276325D01*
X87010710Y-109276330D01*
X87040925Y-109499387D01*
X87040926Y-109499390D01*
X87110483Y-109713465D01*
X87217146Y-109911678D01*
X87217148Y-109911681D01*
X87357489Y-110087663D01*
X87357491Y-110087664D01*
X87357492Y-110087666D01*
X87527004Y-110235765D01*
X87566819Y-110259553D01*
X87614272Y-110310835D01*
X87626467Y-110379632D01*
X87599532Y-110444101D01*
X87542018Y-110483774D01*
X87503219Y-110490000D01*
X82640729Y-110490000D01*
X82573690Y-110470315D01*
X82527935Y-110417511D01*
X82517991Y-110348353D01*
X82547016Y-110284797D01*
X82553048Y-110278319D01*
X82964986Y-109866381D01*
X84305638Y-108525727D01*
X84319267Y-108513950D01*
X84338530Y-108499610D01*
X84338532Y-108499606D01*
X84338534Y-108499606D01*
X84356663Y-108477999D01*
X84372113Y-108459585D01*
X84375767Y-108455599D01*
X84381590Y-108449777D01*
X84401923Y-108424060D01*
X84451302Y-108365214D01*
X84451309Y-108365198D01*
X84455272Y-108359176D01*
X84455324Y-108359210D01*
X84459371Y-108352858D01*
X84459317Y-108352825D01*
X84463104Y-108346684D01*
X84463110Y-108346677D01*
X84477758Y-108315264D01*
X84495561Y-108277086D01*
X84530036Y-108208440D01*
X84530040Y-108208433D01*
X84530042Y-108208421D01*
X84532510Y-108201644D01*
X84532568Y-108201665D01*
X84535043Y-108194546D01*
X84534985Y-108194527D01*
X84537256Y-108187672D01*
X84537862Y-108184740D01*
X84552784Y-108112467D01*
X84570500Y-108037721D01*
X84570500Y-108037720D01*
X84571339Y-108030548D01*
X84571397Y-108030554D01*
X84572164Y-108023056D01*
X84572104Y-108023051D01*
X84572733Y-108015860D01*
X84571627Y-107977859D01*
X84570500Y-107939102D01*
X84570500Y-107806662D01*
X84590185Y-107739623D01*
X84623379Y-107705086D01*
X84641084Y-107692689D01*
X84659139Y-107680047D01*
X84820047Y-107519139D01*
X84950568Y-107332734D01*
X85046739Y-107126496D01*
X85105635Y-106906692D01*
X85125468Y-106680000D01*
X85125467Y-106679994D01*
X85115987Y-106571630D01*
X85105635Y-106453308D01*
X85046739Y-106233504D01*
X84950568Y-106027266D01*
X84820047Y-105840861D01*
X84820045Y-105840858D01*
X84659141Y-105679954D01*
X84472734Y-105549432D01*
X84472732Y-105549431D01*
X84266497Y-105453261D01*
X84266488Y-105453258D01*
X84046697Y-105394366D01*
X84046693Y-105394365D01*
X84046692Y-105394365D01*
X84046691Y-105394364D01*
X84046686Y-105394364D01*
X83820002Y-105374532D01*
X83819998Y-105374532D01*
X83593313Y-105394364D01*
X83593302Y-105394366D01*
X83373511Y-105453258D01*
X83373502Y-105453261D01*
X83167267Y-105549431D01*
X83167265Y-105549432D01*
X82980858Y-105679954D01*
X82819954Y-105840858D01*
X82689432Y-106027265D01*
X82689431Y-106027267D01*
X82662382Y-106085275D01*
X82616209Y-106137714D01*
X82549016Y-106156866D01*
X82482135Y-106136650D01*
X82437618Y-106085275D01*
X82430728Y-106070499D01*
X82410568Y-106027266D01*
X82280047Y-105840861D01*
X82280045Y-105840858D01*
X82119141Y-105679954D01*
X81932734Y-105549432D01*
X81932732Y-105549431D01*
X81726497Y-105453261D01*
X81726488Y-105453258D01*
X81506697Y-105394366D01*
X81506693Y-105394365D01*
X81506692Y-105394365D01*
X81506691Y-105394364D01*
X81506686Y-105394364D01*
X81280002Y-105374532D01*
X81279998Y-105374532D01*
X81053313Y-105394364D01*
X81053302Y-105394366D01*
X80833511Y-105453258D01*
X80833502Y-105453261D01*
X80627267Y-105549431D01*
X80627265Y-105549432D01*
X80440858Y-105679954D01*
X80279954Y-105840858D01*
X80149432Y-106027265D01*
X80149431Y-106027267D01*
X80053261Y-106233502D01*
X80053258Y-106233511D01*
X79994366Y-106453302D01*
X79994364Y-106453313D01*
X79974532Y-106679998D01*
X79974532Y-106680001D01*
X79994364Y-106906686D01*
X79994366Y-106906697D01*
X80053258Y-107126488D01*
X80053261Y-107126497D01*
X80149431Y-107332732D01*
X80149432Y-107332734D01*
X80279954Y-107519141D01*
X80440858Y-107680045D01*
X80440861Y-107680047D01*
X80627266Y-107810568D01*
X80833504Y-107906739D01*
X81053308Y-107965635D01*
X81215230Y-107979801D01*
X81279998Y-107985468D01*
X81280000Y-107985468D01*
X81280002Y-107985468D01*
X81341768Y-107980064D01*
X81506692Y-107965635D01*
X81726496Y-107906739D01*
X81932734Y-107810568D01*
X82119139Y-107680047D01*
X82280047Y-107519139D01*
X82410568Y-107332734D01*
X82437618Y-107274724D01*
X82483790Y-107222285D01*
X82550983Y-107203133D01*
X82617865Y-107223348D01*
X82662382Y-107274725D01*
X82689429Y-107332728D01*
X82689432Y-107332734D01*
X82819954Y-107519141D01*
X82917041Y-107616228D01*
X82950526Y-107677551D01*
X82945542Y-107747243D01*
X82917041Y-107791590D01*
X81005451Y-109703181D01*
X80944128Y-109736666D01*
X80917770Y-109739500D01*
X71482229Y-109739500D01*
X71415190Y-109719815D01*
X71394548Y-109703181D01*
X69366819Y-107675451D01*
X69333334Y-107614128D01*
X69330500Y-107587770D01*
X69330500Y-100393705D01*
X69331809Y-100375735D01*
X69332129Y-100373547D01*
X69335289Y-100351977D01*
X69330735Y-100299931D01*
X69330500Y-100294528D01*
X69330500Y-100286297D01*
X69330500Y-100286296D01*
X69330500Y-100286291D01*
X69326693Y-100253724D01*
X69326691Y-100253705D01*
X69319999Y-100177201D01*
X69318539Y-100170129D01*
X69318597Y-100170116D01*
X69316965Y-100162757D01*
X69316906Y-100162772D01*
X69315241Y-100155751D01*
X69315241Y-100155745D01*
X69288974Y-100083576D01*
X69288971Y-100083568D01*
X69264813Y-100010663D01*
X69261764Y-100004124D01*
X69261817Y-100004099D01*
X69258531Y-99997311D01*
X69258479Y-99997338D01*
X69255236Y-99990882D01*
X69213034Y-99926716D01*
X69172714Y-99861347D01*
X69168234Y-99855681D01*
X69168280Y-99855643D01*
X69163519Y-99849799D01*
X69163474Y-99849838D01*
X69158834Y-99844308D01*
X69158664Y-99844148D01*
X69143843Y-99830164D01*
X69102982Y-99791613D01*
X66908343Y-97596975D01*
X66874858Y-97535652D01*
X66872666Y-97496691D01*
X66880500Y-97420009D01*
X66880499Y-95619992D01*
X66869999Y-95517203D01*
X66869997Y-95517198D01*
X66869625Y-95515455D01*
X66869707Y-95514350D01*
X66869311Y-95510468D01*
X66870003Y-95510397D01*
X66874841Y-95445780D01*
X66916898Y-95389986D01*
X66982443Y-95365787D01*
X66990878Y-95365500D01*
X67246295Y-95365500D01*
X67264265Y-95366809D01*
X67288023Y-95370289D01*
X67340068Y-95365735D01*
X67345470Y-95365500D01*
X67353704Y-95365500D01*
X67353709Y-95365500D01*
X67365327Y-95364141D01*
X67386276Y-95361693D01*
X67399028Y-95360577D01*
X67462797Y-95354999D01*
X67462805Y-95354996D01*
X67469866Y-95353539D01*
X67469878Y-95353598D01*
X67477243Y-95351965D01*
X67477229Y-95351906D01*
X67484246Y-95350241D01*
X67484255Y-95350241D01*
X67556423Y-95323974D01*
X67629334Y-95299814D01*
X67629343Y-95299807D01*
X67635882Y-95296760D01*
X67635908Y-95296816D01*
X67642690Y-95293532D01*
X67642663Y-95293478D01*
X67649106Y-95290240D01*
X67649117Y-95290237D01*
X67710291Y-95250002D01*
X71085034Y-95250002D01*
X71104858Y-95476599D01*
X71104860Y-95476610D01*
X71163730Y-95696317D01*
X71163734Y-95696326D01*
X71259865Y-95902481D01*
X71259866Y-95902483D01*
X71310973Y-95975471D01*
X71310973Y-95975472D01*
X71852580Y-95433865D01*
X71913903Y-95400380D01*
X71983594Y-95405364D01*
X72039528Y-95447235D01*
X72050742Y-95465246D01*
X72050949Y-95465651D01*
X72062358Y-95488044D01*
X72062363Y-95488050D01*
X72151949Y-95577636D01*
X72151951Y-95577637D01*
X72151955Y-95577641D01*
X72174747Y-95589254D01*
X72225542Y-95637228D01*
X72242337Y-95705049D01*
X72219799Y-95771184D01*
X72206132Y-95787419D01*
X71664526Y-96329025D01*
X71664526Y-96329026D01*
X71737512Y-96380131D01*
X71737516Y-96380133D01*
X71943673Y-96476265D01*
X71943682Y-96476269D01*
X72163389Y-96535139D01*
X72163400Y-96535141D01*
X72389998Y-96554966D01*
X72390002Y-96554966D01*
X72616599Y-96535141D01*
X72616610Y-96535139D01*
X72836317Y-96476269D01*
X72836331Y-96476264D01*
X73042478Y-96380136D01*
X73115472Y-96329025D01*
X72573866Y-95787419D01*
X72540381Y-95726096D01*
X72545365Y-95656404D01*
X72587237Y-95600471D01*
X72605245Y-95589258D01*
X72628045Y-95577641D01*
X72717641Y-95488045D01*
X72729254Y-95465252D01*
X72777225Y-95414458D01*
X72845046Y-95397661D01*
X72911181Y-95420197D01*
X72927419Y-95433866D01*
X73469025Y-95975472D01*
X73520136Y-95902478D01*
X73616264Y-95696331D01*
X73616269Y-95696317D01*
X73675139Y-95476610D01*
X73675141Y-95476599D01*
X73694966Y-95250002D01*
X73694966Y-95249997D01*
X73675141Y-95023400D01*
X73675139Y-95023389D01*
X73616269Y-94803682D01*
X73616265Y-94803673D01*
X73520133Y-94597516D01*
X73520131Y-94597512D01*
X73469026Y-94524526D01*
X73469025Y-94524526D01*
X72927419Y-95066132D01*
X72866096Y-95099617D01*
X72796404Y-95094633D01*
X72740471Y-95052761D01*
X72729256Y-95034751D01*
X72717641Y-95011955D01*
X72717637Y-95011951D01*
X72717636Y-95011949D01*
X72628050Y-94922363D01*
X72628044Y-94922358D01*
X72617302Y-94916885D01*
X72605250Y-94910744D01*
X72554456Y-94862773D01*
X72537660Y-94794952D01*
X72560197Y-94728817D01*
X72573865Y-94712580D01*
X73115472Y-94170973D01*
X73042483Y-94119866D01*
X73042481Y-94119865D01*
X72836326Y-94023734D01*
X72836317Y-94023730D01*
X72616610Y-93964860D01*
X72616599Y-93964858D01*
X72390002Y-93945034D01*
X72389998Y-93945034D01*
X72163400Y-93964858D01*
X72163389Y-93964860D01*
X71943682Y-94023730D01*
X71943673Y-94023734D01*
X71737513Y-94119868D01*
X71664526Y-94170973D01*
X72206133Y-94712580D01*
X72239618Y-94773903D01*
X72234634Y-94843595D01*
X72192762Y-94899528D01*
X72174748Y-94910745D01*
X72151956Y-94922358D01*
X72151949Y-94922363D01*
X72062363Y-95011949D01*
X72062358Y-95011956D01*
X72050745Y-95034748D01*
X72002770Y-95085544D01*
X71934949Y-95102338D01*
X71868814Y-95079800D01*
X71852580Y-95066133D01*
X71310973Y-94524526D01*
X71259868Y-94597513D01*
X71163734Y-94803673D01*
X71163730Y-94803682D01*
X71104860Y-95023389D01*
X71104858Y-95023400D01*
X71085034Y-95249997D01*
X71085034Y-95250002D01*
X67710291Y-95250002D01*
X67713283Y-95248034D01*
X67778656Y-95207712D01*
X67778662Y-95207705D01*
X67784325Y-95203229D01*
X67784362Y-95203277D01*
X67790204Y-95198518D01*
X67790164Y-95198471D01*
X67795691Y-95193832D01*
X67795696Y-95193830D01*
X67848386Y-95137981D01*
X70335638Y-92650727D01*
X70349267Y-92638950D01*
X70368530Y-92624610D01*
X70368532Y-92624606D01*
X70368534Y-92624606D01*
X70386663Y-92602999D01*
X70402113Y-92584585D01*
X70405767Y-92580599D01*
X70411590Y-92574777D01*
X70431923Y-92549060D01*
X70481302Y-92490214D01*
X70481309Y-92490198D01*
X70485272Y-92484176D01*
X70485324Y-92484210D01*
X70489371Y-92477858D01*
X70489317Y-92477825D01*
X70493104Y-92471684D01*
X70493110Y-92471677D01*
X70525561Y-92402086D01*
X70560036Y-92333440D01*
X70560040Y-92333433D01*
X70560042Y-92333421D01*
X70562510Y-92326644D01*
X70562568Y-92326665D01*
X70565043Y-92319546D01*
X70564985Y-92319527D01*
X70567256Y-92312672D01*
X70582784Y-92237467D01*
X70600500Y-92162720D01*
X70601339Y-92155548D01*
X70601397Y-92155554D01*
X70602164Y-92148056D01*
X70602104Y-92148051D01*
X70602733Y-92140860D01*
X70600500Y-92064103D01*
X70600500Y-91440001D01*
X71084532Y-91440001D01*
X71104364Y-91666686D01*
X71104366Y-91666697D01*
X71163258Y-91886488D01*
X71163261Y-91886497D01*
X71259431Y-92092732D01*
X71259432Y-92092734D01*
X71389954Y-92279141D01*
X71550858Y-92440045D01*
X71550861Y-92440047D01*
X71737266Y-92570568D01*
X71943504Y-92666739D01*
X72163308Y-92725635D01*
X72325230Y-92739801D01*
X72389998Y-92745468D01*
X72390000Y-92745468D01*
X72390002Y-92745468D01*
X72446673Y-92740509D01*
X72616692Y-92725635D01*
X72836496Y-92666739D01*
X73042734Y-92570568D01*
X73229139Y-92440047D01*
X73390047Y-92279139D01*
X73520568Y-92092734D01*
X73616739Y-91886496D01*
X73675635Y-91666692D01*
X73695468Y-91440000D01*
X73695467Y-91439994D01*
X73675635Y-91213313D01*
X73675635Y-91213308D01*
X73616739Y-90993504D01*
X73520568Y-90787266D01*
X73390047Y-90600861D01*
X73390045Y-90600858D01*
X73229141Y-90439954D01*
X73042734Y-90309432D01*
X73042732Y-90309431D01*
X72836497Y-90213261D01*
X72836488Y-90213258D01*
X72616697Y-90154366D01*
X72616693Y-90154365D01*
X72616692Y-90154365D01*
X72616691Y-90154364D01*
X72616686Y-90154364D01*
X72390002Y-90134532D01*
X72389998Y-90134532D01*
X72163313Y-90154364D01*
X72163302Y-90154366D01*
X71943511Y-90213258D01*
X71943502Y-90213261D01*
X71737267Y-90309431D01*
X71737265Y-90309432D01*
X71550858Y-90439954D01*
X71389954Y-90600858D01*
X71259432Y-90787265D01*
X71259431Y-90787267D01*
X71163261Y-90993502D01*
X71163258Y-90993511D01*
X71104366Y-91213302D01*
X71104364Y-91213313D01*
X71084532Y-91439998D01*
X71084532Y-91440001D01*
X70600500Y-91440001D01*
X70600500Y-86722229D01*
X70620185Y-86655190D01*
X70636814Y-86634553D01*
X71161368Y-86109999D01*
X74921127Y-86109999D01*
X74921128Y-86110000D01*
X75689424Y-86110000D01*
X75756463Y-86129685D01*
X75802218Y-86182489D01*
X75812162Y-86251647D01*
X75811897Y-86253397D01*
X75795014Y-86359996D01*
X75795014Y-86360003D01*
X75811897Y-86466603D01*
X75802942Y-86535896D01*
X75757946Y-86589348D01*
X75691194Y-86609987D01*
X75689424Y-86610000D01*
X74921128Y-86610000D01*
X74973730Y-86806317D01*
X74973734Y-86806326D01*
X75069865Y-87012482D01*
X75200342Y-87198820D01*
X75361179Y-87359657D01*
X75547517Y-87490134D01*
X75753673Y-87586265D01*
X75753682Y-87586269D01*
X75949999Y-87638872D01*
X75950000Y-87638871D01*
X75950000Y-86870575D01*
X75969685Y-86803536D01*
X76022489Y-86757781D01*
X76091647Y-86747837D01*
X76093331Y-86748091D01*
X76125699Y-86753218D01*
X76168515Y-86760000D01*
X76168519Y-86760000D01*
X76231485Y-86760000D01*
X76274300Y-86753218D01*
X76306602Y-86748102D01*
X76375894Y-86757056D01*
X76429347Y-86802052D01*
X76449987Y-86868803D01*
X76450000Y-86870575D01*
X76450000Y-87638872D01*
X76646317Y-87586269D01*
X76646326Y-87586265D01*
X76852482Y-87490134D01*
X77038820Y-87359657D01*
X77199657Y-87198820D01*
X77330134Y-87012482D01*
X77426265Y-86806326D01*
X77426269Y-86806317D01*
X77478872Y-86610000D01*
X76710576Y-86610000D01*
X76643537Y-86590315D01*
X76597782Y-86537511D01*
X76587838Y-86468353D01*
X76588103Y-86466603D01*
X76604986Y-86360003D01*
X76604986Y-86359996D01*
X76588103Y-86253397D01*
X76597058Y-86184104D01*
X76642054Y-86130652D01*
X76708806Y-86110013D01*
X76710576Y-86110000D01*
X77478872Y-86110000D01*
X77478872Y-86109999D01*
X77426269Y-85913682D01*
X77426265Y-85913673D01*
X77330134Y-85707517D01*
X77199657Y-85521179D01*
X77038820Y-85360342D01*
X76852482Y-85229865D01*
X76646328Y-85133734D01*
X76450000Y-85081127D01*
X76450000Y-85849424D01*
X76430315Y-85916463D01*
X76377511Y-85962218D01*
X76308353Y-85972162D01*
X76306602Y-85971897D01*
X76231486Y-85960000D01*
X76231481Y-85960000D01*
X76168519Y-85960000D01*
X76168514Y-85960000D01*
X76093398Y-85971897D01*
X76024104Y-85962942D01*
X75970652Y-85917946D01*
X75950013Y-85851194D01*
X75950000Y-85849424D01*
X75950000Y-85081127D01*
X75753671Y-85133734D01*
X75547517Y-85229865D01*
X75361179Y-85360342D01*
X75200342Y-85521179D01*
X75069865Y-85707517D01*
X74973734Y-85913673D01*
X74973730Y-85913682D01*
X74921127Y-86109999D01*
X71161368Y-86109999D01*
X72689548Y-84581819D01*
X72750872Y-84548334D01*
X72777230Y-84545500D01*
X79502299Y-84545500D01*
X79569338Y-84565185D01*
X79603873Y-84598376D01*
X79651505Y-84666401D01*
X79818597Y-84833493D01*
X79818603Y-84833498D01*
X80004158Y-84963425D01*
X80047783Y-85018002D01*
X80054977Y-85087500D01*
X80023454Y-85149855D01*
X80004158Y-85166575D01*
X79818597Y-85296505D01*
X79651505Y-85463597D01*
X79515965Y-85657169D01*
X79515964Y-85657171D01*
X79416098Y-85871335D01*
X79416094Y-85871344D01*
X79354938Y-86099586D01*
X79354936Y-86099596D01*
X79334341Y-86334999D01*
X79334341Y-86335000D01*
X79354936Y-86570403D01*
X79354938Y-86570413D01*
X79416094Y-86798655D01*
X79416096Y-86798659D01*
X79416097Y-86798663D01*
X79487077Y-86950879D01*
X79515965Y-87012830D01*
X79515967Y-87012834D01*
X79589116Y-87117301D01*
X79651505Y-87206401D01*
X79818599Y-87373495D01*
X79985796Y-87490568D01*
X80004594Y-87503730D01*
X80048219Y-87558307D01*
X80055413Y-87627805D01*
X80023890Y-87690160D01*
X80004595Y-87706880D01*
X79818922Y-87836890D01*
X79818920Y-87836891D01*
X79651891Y-88003920D01*
X79651886Y-88003926D01*
X79516400Y-88197420D01*
X79516399Y-88197422D01*
X79416570Y-88411507D01*
X79416567Y-88411513D01*
X79359364Y-88624999D01*
X79359364Y-88625000D01*
X80076653Y-88625000D01*
X80143692Y-88644685D01*
X80189447Y-88697489D01*
X80199391Y-88766647D01*
X80195631Y-88783933D01*
X80190000Y-88803111D01*
X80190000Y-88946888D01*
X80195631Y-88966067D01*
X80195630Y-89035936D01*
X80157855Y-89094714D01*
X80094299Y-89123738D01*
X80076653Y-89125000D01*
X79359364Y-89125000D01*
X79416567Y-89338486D01*
X79416570Y-89338492D01*
X79516399Y-89552578D01*
X79651894Y-89746082D01*
X79818917Y-89913105D01*
X80012421Y-90048600D01*
X80226507Y-90148429D01*
X80226516Y-90148433D01*
X80440000Y-90205634D01*
X80440000Y-89487301D01*
X80459685Y-89420262D01*
X80512489Y-89374507D01*
X80581647Y-89364563D01*
X80654237Y-89375000D01*
X80654238Y-89375000D01*
X80725762Y-89375000D01*
X80725763Y-89375000D01*
X80798352Y-89364563D01*
X80867510Y-89374507D01*
X80920314Y-89420261D01*
X80939999Y-89487301D01*
X80939999Y-90205634D01*
X81153483Y-90148433D01*
X81153492Y-90148429D01*
X81367578Y-90048600D01*
X81561082Y-89913105D01*
X81712819Y-89761369D01*
X81774142Y-89727884D01*
X81843834Y-89732868D01*
X81899767Y-89774740D01*
X81924184Y-89840204D01*
X81924500Y-89849050D01*
X81924500Y-92399546D01*
X81904815Y-92466585D01*
X81888181Y-92487227D01*
X80424821Y-93950586D01*
X80363498Y-93984071D01*
X80305048Y-93982680D01*
X80236697Y-93964366D01*
X80236693Y-93964365D01*
X80236692Y-93964365D01*
X80123346Y-93954448D01*
X80010001Y-93944532D01*
X80009998Y-93944532D01*
X79783313Y-93964364D01*
X79783302Y-93964366D01*
X79563511Y-94023258D01*
X79563502Y-94023261D01*
X79357267Y-94119431D01*
X79357265Y-94119432D01*
X79170858Y-94249954D01*
X79009954Y-94410858D01*
X78879432Y-94597265D01*
X78879431Y-94597267D01*
X78783261Y-94803502D01*
X78783258Y-94803511D01*
X78724366Y-95023302D01*
X78724364Y-95023313D01*
X78704532Y-95249998D01*
X78704532Y-95250001D01*
X78724364Y-95476686D01*
X78724366Y-95476697D01*
X78783258Y-95696488D01*
X78783261Y-95696497D01*
X78879431Y-95902732D01*
X78879432Y-95902734D01*
X79009954Y-96089141D01*
X79170858Y-96250045D01*
X79247807Y-96303925D01*
X79291432Y-96358501D01*
X79298626Y-96428000D01*
X79267103Y-96490355D01*
X79206874Y-96525769D01*
X79176684Y-96529500D01*
X77552737Y-96529500D01*
X77537120Y-96527776D01*
X77537093Y-96528062D01*
X77529331Y-96527327D01*
X77460203Y-96529500D01*
X77430650Y-96529500D01*
X77429929Y-96529590D01*
X77423757Y-96530369D01*
X77417945Y-96530826D01*
X77371372Y-96532290D01*
X77371369Y-96532291D01*
X77352126Y-96537881D01*
X77333083Y-96541825D01*
X77313204Y-96544336D01*
X77313203Y-96544337D01*
X77269878Y-96561490D01*
X77264352Y-96563382D01*
X77219608Y-96576383D01*
X77219604Y-96576385D01*
X77202365Y-96586580D01*
X77184898Y-96595137D01*
X77166269Y-96602512D01*
X77166267Y-96602513D01*
X77128564Y-96629906D01*
X77123682Y-96633112D01*
X77083580Y-96656828D01*
X77069408Y-96671000D01*
X77054623Y-96683628D01*
X77038412Y-96695407D01*
X77008709Y-96731310D01*
X77004777Y-96735631D01*
X74546208Y-99194199D01*
X74533951Y-99204020D01*
X74534134Y-99204241D01*
X74528123Y-99209213D01*
X74480772Y-99259636D01*
X74459889Y-99280519D01*
X74459877Y-99280532D01*
X74455621Y-99286017D01*
X74451837Y-99290447D01*
X74419937Y-99324418D01*
X74419936Y-99324420D01*
X74410284Y-99341976D01*
X74399610Y-99358226D01*
X74387329Y-99374061D01*
X74387324Y-99374068D01*
X74368815Y-99416838D01*
X74366245Y-99422084D01*
X74343803Y-99462906D01*
X74338822Y-99482307D01*
X74332521Y-99500710D01*
X74324562Y-99519102D01*
X74324561Y-99519105D01*
X74317271Y-99565127D01*
X74316087Y-99570846D01*
X74304501Y-99615972D01*
X74304500Y-99615982D01*
X74304500Y-99636016D01*
X74302973Y-99655413D01*
X74299840Y-99675196D01*
X74300546Y-99682663D01*
X74304225Y-99721583D01*
X74304500Y-99727421D01*
X74304500Y-105238479D01*
X74284815Y-105305518D01*
X74239519Y-105347533D01*
X74106496Y-105419522D01*
X74106494Y-105419524D01*
X74106492Y-105419525D01*
X74106491Y-105419526D01*
X74072942Y-105445638D01*
X74022800Y-105484665D01*
X73957805Y-105510307D01*
X73889265Y-105496740D01*
X73838941Y-105448271D01*
X73837709Y-105445638D01*
X73837604Y-105445696D01*
X73833350Y-105437906D01*
X73747190Y-105322812D01*
X73747187Y-105322809D01*
X73632093Y-105236649D01*
X73632086Y-105236645D01*
X73497379Y-105186403D01*
X73497372Y-105186401D01*
X73437844Y-105180000D01*
X72640000Y-105180000D01*
X72640000Y-106067698D01*
X72620315Y-106134737D01*
X72567511Y-106180492D01*
X72498355Y-106190436D01*
X72425766Y-106180000D01*
X72425763Y-106180000D01*
X72354237Y-106180000D01*
X72354233Y-106180000D01*
X72281645Y-106190436D01*
X72212487Y-106180492D01*
X72159684Y-106134736D01*
X72140000Y-106067698D01*
X72140000Y-105180000D01*
X71342155Y-105180000D01*
X71282627Y-105186401D01*
X71282620Y-105186403D01*
X71147913Y-105236645D01*
X71147906Y-105236649D01*
X71032812Y-105322809D01*
X71032809Y-105322812D01*
X70946649Y-105437906D01*
X70946645Y-105437913D01*
X70896403Y-105572620D01*
X70896401Y-105572627D01*
X70890000Y-105632155D01*
X70890000Y-106430000D01*
X71776653Y-106430000D01*
X71843692Y-106449685D01*
X71889447Y-106502489D01*
X71899391Y-106571647D01*
X71895631Y-106588933D01*
X71890000Y-106608111D01*
X71890000Y-106751888D01*
X71895631Y-106771067D01*
X71895630Y-106840936D01*
X71857855Y-106899714D01*
X71794299Y-106928738D01*
X71776653Y-106930000D01*
X70890000Y-106930000D01*
X70890000Y-107727844D01*
X70896401Y-107787372D01*
X70896403Y-107787379D01*
X70946645Y-107922086D01*
X70946649Y-107922093D01*
X71032809Y-108037187D01*
X71032812Y-108037190D01*
X71147906Y-108123350D01*
X71147913Y-108123354D01*
X71282620Y-108173596D01*
X71282627Y-108173598D01*
X71342155Y-108179999D01*
X71342172Y-108180000D01*
X72140000Y-108180000D01*
X72140000Y-107292301D01*
X72159685Y-107225262D01*
X72212489Y-107179507D01*
X72281647Y-107169563D01*
X72354237Y-107180000D01*
X72354238Y-107180000D01*
X72425762Y-107180000D01*
X72425763Y-107180000D01*
X72498353Y-107169563D01*
X72567512Y-107179507D01*
X72620315Y-107225262D01*
X72640000Y-107292301D01*
X72640000Y-108180000D01*
X73437828Y-108180000D01*
X73437844Y-108179999D01*
X73497372Y-108173598D01*
X73497379Y-108173596D01*
X73632086Y-108123354D01*
X73632093Y-108123350D01*
X73747187Y-108037190D01*
X73747190Y-108037187D01*
X73833350Y-107922093D01*
X73837604Y-107914304D01*
X73840816Y-107916057D01*
X73872183Y-107874029D01*
X73937612Y-107849517D01*
X74005906Y-107864269D01*
X74022795Y-107875330D01*
X74106491Y-107940474D01*
X74160126Y-107969500D01*
X74312990Y-108052226D01*
X74325190Y-108058828D01*
X74560386Y-108139571D01*
X74805665Y-108180500D01*
X75054335Y-108180500D01*
X75299614Y-108139571D01*
X75534810Y-108058828D01*
X75753509Y-107940474D01*
X75949744Y-107787738D01*
X76108771Y-107614988D01*
X76168657Y-107578999D01*
X76238495Y-107581099D01*
X76291228Y-107614988D01*
X76450256Y-107787738D01*
X76646491Y-107940474D01*
X76700126Y-107969500D01*
X76852990Y-108052226D01*
X76865190Y-108058828D01*
X77100386Y-108139571D01*
X77345665Y-108180500D01*
X77594335Y-108180500D01*
X77839614Y-108139571D01*
X78074810Y-108058828D01*
X78293509Y-107940474D01*
X78489744Y-107787738D01*
X78658164Y-107604785D01*
X78794173Y-107396607D01*
X78894063Y-107168881D01*
X78955108Y-106927821D01*
X78955109Y-106927812D01*
X78975643Y-106680005D01*
X78975643Y-106679994D01*
X78955109Y-106432187D01*
X78955107Y-106432175D01*
X78894063Y-106191118D01*
X78794173Y-105963393D01*
X78658166Y-105755217D01*
X78588880Y-105679953D01*
X78489744Y-105572262D01*
X78293509Y-105419526D01*
X78293507Y-105419525D01*
X78293506Y-105419524D01*
X78074811Y-105301172D01*
X78074802Y-105301169D01*
X77839616Y-105220429D01*
X77594335Y-105179500D01*
X77345665Y-105179500D01*
X77100383Y-105220429D01*
X76865197Y-105301169D01*
X76865188Y-105301172D01*
X76646493Y-105419524D01*
X76450255Y-105572262D01*
X76450252Y-105572265D01*
X76291228Y-105745010D01*
X76231341Y-105781001D01*
X76161503Y-105778900D01*
X76108770Y-105745011D01*
X75949744Y-105572262D01*
X75753509Y-105419526D01*
X75753508Y-105419525D01*
X75753505Y-105419523D01*
X75753503Y-105419522D01*
X75620481Y-105347533D01*
X75570891Y-105298313D01*
X75555500Y-105238479D01*
X75555500Y-101127870D01*
X78984500Y-101127870D01*
X78984501Y-101127876D01*
X78990908Y-101187483D01*
X79041202Y-101322328D01*
X79041206Y-101322335D01*
X79127452Y-101437544D01*
X79127455Y-101437547D01*
X79242664Y-101523793D01*
X79242671Y-101523797D01*
X79377517Y-101574091D01*
X79377516Y-101574091D01*
X79384444Y-101574835D01*
X79437127Y-101580500D01*
X80582872Y-101580499D01*
X80642483Y-101574091D01*
X80777331Y-101523796D01*
X80777335Y-101523792D01*
X80785118Y-101519544D01*
X80786252Y-101521621D01*
X80839715Y-101501671D01*
X80884576Y-101506694D01*
X80885656Y-101507021D01*
X80885659Y-101507023D01*
X81078967Y-101565662D01*
X81280000Y-101585462D01*
X81481033Y-101565662D01*
X81674341Y-101507023D01*
X81852494Y-101411798D01*
X81852498Y-101411794D01*
X81856546Y-101409631D01*
X81924949Y-101395389D01*
X81973454Y-101409631D01*
X81977502Y-101411794D01*
X81977506Y-101411798D01*
X82155659Y-101507023D01*
X82348967Y-101565662D01*
X82550000Y-101585462D01*
X82751033Y-101565662D01*
X82944341Y-101507023D01*
X83122494Y-101411798D01*
X83278647Y-101283647D01*
X83406798Y-101127494D01*
X83502023Y-100949341D01*
X83560662Y-100756033D01*
X83575500Y-100605380D01*
X83575500Y-100054620D01*
X83560662Y-99903967D01*
X83502023Y-99710659D01*
X83502021Y-99710656D01*
X83502021Y-99710654D01*
X83406801Y-99532511D01*
X83406799Y-99532509D01*
X83406798Y-99532506D01*
X83365601Y-99482307D01*
X83278647Y-99376352D01*
X83122495Y-99248203D01*
X83122488Y-99248198D01*
X82944345Y-99152978D01*
X82751031Y-99094337D01*
X82571962Y-99076701D01*
X82550000Y-99074538D01*
X82549999Y-99074538D01*
X82348968Y-99094337D01*
X82155654Y-99152978D01*
X81973453Y-99250367D01*
X81905050Y-99264609D01*
X81856547Y-99250367D01*
X81674345Y-99152978D01*
X81481031Y-99094337D01*
X81280000Y-99074538D01*
X81078968Y-99094337D01*
X80929991Y-99139529D01*
X80885659Y-99152977D01*
X80885658Y-99152977D01*
X80884575Y-99153306D01*
X80814708Y-99153929D01*
X80785618Y-99139529D01*
X80785114Y-99140454D01*
X80777328Y-99136202D01*
X80642482Y-99085908D01*
X80642483Y-99085908D01*
X80582883Y-99079501D01*
X80582881Y-99079500D01*
X80582873Y-99079500D01*
X80582864Y-99079500D01*
X79437129Y-99079500D01*
X79437123Y-99079501D01*
X79377516Y-99085908D01*
X79242671Y-99136202D01*
X79242664Y-99136206D01*
X79127455Y-99222452D01*
X79127452Y-99222455D01*
X79041206Y-99337664D01*
X79041202Y-99337671D01*
X78990908Y-99472517D01*
X78984501Y-99532116D01*
X78984500Y-99532135D01*
X78984500Y-101127870D01*
X75555500Y-101127870D01*
X75555500Y-100005452D01*
X75575185Y-99938413D01*
X75591819Y-99917771D01*
X77692772Y-97816819D01*
X77754095Y-97783334D01*
X77780453Y-97780500D01*
X81832257Y-97780500D01*
X81847877Y-97782224D01*
X81847904Y-97781939D01*
X81855660Y-97782671D01*
X81855667Y-97782673D01*
X81924814Y-97780500D01*
X81954350Y-97780500D01*
X81961228Y-97779630D01*
X81967041Y-97779172D01*
X82013627Y-97777709D01*
X82032869Y-97772117D01*
X82051912Y-97768174D01*
X82071792Y-97765664D01*
X82115122Y-97748507D01*
X82120646Y-97746617D01*
X82124396Y-97745527D01*
X82165390Y-97733618D01*
X82182629Y-97723422D01*
X82200103Y-97714862D01*
X82218727Y-97707488D01*
X82218727Y-97707487D01*
X82218732Y-97707486D01*
X82256449Y-97680082D01*
X82261305Y-97676892D01*
X82301420Y-97653170D01*
X82315589Y-97638999D01*
X82330379Y-97626368D01*
X82346587Y-97614594D01*
X82376299Y-97578676D01*
X82380212Y-97574376D01*
X84203787Y-95750801D01*
X84216042Y-95740986D01*
X84215859Y-95740764D01*
X84221866Y-95735792D01*
X84221877Y-95735786D01*
X84258772Y-95696497D01*
X84269227Y-95685364D01*
X84279671Y-95674918D01*
X84290120Y-95664471D01*
X84294379Y-95658978D01*
X84298152Y-95654561D01*
X84330062Y-95620582D01*
X84339715Y-95603020D01*
X84350389Y-95586770D01*
X84362673Y-95570936D01*
X84381180Y-95528167D01*
X84383749Y-95522924D01*
X84390636Y-95510397D01*
X84406197Y-95482092D01*
X84411177Y-95462691D01*
X84417478Y-95444288D01*
X84425438Y-95425896D01*
X84432730Y-95379849D01*
X84433911Y-95374152D01*
X84434903Y-95370289D01*
X84445500Y-95329019D01*
X84445500Y-95308982D01*
X84447027Y-95289582D01*
X84450160Y-95269804D01*
X84446207Y-95227990D01*
X84445775Y-95223415D01*
X84445500Y-95217577D01*
X84445500Y-52787742D01*
X84447224Y-52772122D01*
X84446939Y-52772096D01*
X84447671Y-52764340D01*
X84447673Y-52764333D01*
X84445500Y-52695185D01*
X84445500Y-52665650D01*
X84444631Y-52658772D01*
X84444172Y-52652943D01*
X84442709Y-52606372D01*
X84437122Y-52587144D01*
X84433174Y-52568084D01*
X84430664Y-52548208D01*
X84430663Y-52548206D01*
X84430663Y-52548204D01*
X84413512Y-52504887D01*
X84411619Y-52499358D01*
X84398618Y-52454609D01*
X84398616Y-52454606D01*
X84388423Y-52437371D01*
X84379861Y-52419894D01*
X84372487Y-52401270D01*
X84372486Y-52401268D01*
X84345079Y-52363545D01*
X84341888Y-52358686D01*
X84340436Y-52356231D01*
X84318170Y-52318580D01*
X84318168Y-52318578D01*
X84318165Y-52318574D01*
X84304006Y-52304415D01*
X84291368Y-52289619D01*
X84279594Y-52273413D01*
X84243688Y-52243709D01*
X84239376Y-52239786D01*
X82415803Y-50416212D01*
X82405980Y-50403950D01*
X82405759Y-50404134D01*
X82400786Y-50398123D01*
X82350364Y-50350773D01*
X82339919Y-50340328D01*
X82329475Y-50329883D01*
X82323986Y-50325625D01*
X82319561Y-50321847D01*
X82285582Y-50289938D01*
X82285580Y-50289936D01*
X82285577Y-50289935D01*
X82268029Y-50280288D01*
X82251763Y-50269604D01*
X82235933Y-50257325D01*
X82193168Y-50238818D01*
X82187922Y-50236248D01*
X82147093Y-50213803D01*
X82147092Y-50213802D01*
X82127693Y-50208822D01*
X82109281Y-50202518D01*
X82090898Y-50194562D01*
X82090892Y-50194560D01*
X82044874Y-50187272D01*
X82039152Y-50186087D01*
X81994021Y-50174500D01*
X81994019Y-50174500D01*
X81973984Y-50174500D01*
X81954586Y-50172973D01*
X81947162Y-50171797D01*
X81934805Y-50169840D01*
X81934804Y-50169840D01*
X81888416Y-50174225D01*
X81882578Y-50174500D01*
X73722781Y-50174500D01*
X73655742Y-50154815D01*
X73609987Y-50102011D01*
X73599492Y-50037243D01*
X73600500Y-50027873D01*
X73600499Y-49032128D01*
X73594091Y-48972517D01*
X73581340Y-48938332D01*
X73576357Y-48868642D01*
X73581338Y-48851672D01*
X73594091Y-48817483D01*
X73600500Y-48757873D01*
X73600499Y-48114449D01*
X73620183Y-48047412D01*
X73672987Y-48001657D01*
X73742146Y-47991713D01*
X73805702Y-48020738D01*
X73812172Y-48026763D01*
X73915536Y-48130127D01*
X73991038Y-48205629D01*
X74024523Y-48266952D01*
X74026678Y-48280348D01*
X74027947Y-48292421D01*
X74044326Y-48448256D01*
X74044327Y-48448259D01*
X74102818Y-48628277D01*
X74102821Y-48628284D01*
X74197467Y-48792216D01*
X74305982Y-48912734D01*
X74324129Y-48932888D01*
X74477265Y-49044148D01*
X74477270Y-49044151D01*
X74650192Y-49121142D01*
X74650197Y-49121144D01*
X74835354Y-49160500D01*
X74835355Y-49160500D01*
X75024644Y-49160500D01*
X75024646Y-49160500D01*
X75209803Y-49121144D01*
X75382730Y-49044151D01*
X75535871Y-48932888D01*
X75662533Y-48792216D01*
X75757179Y-48628284D01*
X75815674Y-48448256D01*
X75835460Y-48260000D01*
X75815674Y-48071744D01*
X75797292Y-48015173D01*
X75795298Y-47945335D01*
X75831378Y-47885502D01*
X75894078Y-47854673D01*
X75941005Y-47855567D01*
X76011774Y-47870609D01*
X76105354Y-47890500D01*
X76105355Y-47890500D01*
X76294644Y-47890500D01*
X76294646Y-47890500D01*
X76479803Y-47851144D01*
X76652730Y-47774151D01*
X76805871Y-47662888D01*
X76932533Y-47522216D01*
X77027179Y-47358284D01*
X77085674Y-47178256D01*
X77105460Y-46990000D01*
X77085674Y-46801744D01*
X77027179Y-46621716D01*
X76932533Y-46457784D01*
X76805871Y-46317112D01*
X76798377Y-46311667D01*
X76652734Y-46205851D01*
X76652729Y-46205848D01*
X76479807Y-46128857D01*
X76479802Y-46128855D01*
X76334000Y-46097865D01*
X76294646Y-46089500D01*
X76294645Y-46089500D01*
X76235453Y-46089500D01*
X76168414Y-46069815D01*
X76147772Y-46053181D01*
X75430803Y-45336212D01*
X75420980Y-45323950D01*
X75420759Y-45324134D01*
X75415786Y-45318123D01*
X75408352Y-45311142D01*
X75365364Y-45270773D01*
X75354919Y-45260328D01*
X75344475Y-45249883D01*
X75338986Y-45245625D01*
X75334561Y-45241847D01*
X75300582Y-45209938D01*
X75300580Y-45209936D01*
X75300577Y-45209935D01*
X75283029Y-45200288D01*
X75266763Y-45189604D01*
X75250933Y-45177325D01*
X75208168Y-45158818D01*
X75202922Y-45156248D01*
X75162093Y-45133803D01*
X75162092Y-45133802D01*
X75142693Y-45128822D01*
X75124281Y-45122518D01*
X75105898Y-45114562D01*
X75105892Y-45114560D01*
X75059874Y-45107272D01*
X75054152Y-45106087D01*
X75009021Y-45094500D01*
X75009019Y-45094500D01*
X74988984Y-45094500D01*
X74969586Y-45092973D01*
X74962162Y-45091797D01*
X74949805Y-45089840D01*
X74949804Y-45089840D01*
X74903416Y-45094225D01*
X74897578Y-45094500D01*
X73722781Y-45094500D01*
X73655742Y-45074815D01*
X73609987Y-45022011D01*
X73599492Y-44957243D01*
X73600500Y-44947873D01*
X73600499Y-43952128D01*
X73594091Y-43892517D01*
X73581340Y-43858332D01*
X73576357Y-43788642D01*
X73581338Y-43771672D01*
X73594091Y-43737483D01*
X73600500Y-43677873D01*
X73600499Y-42682128D01*
X73594091Y-42622517D01*
X73581340Y-42588332D01*
X73576357Y-42518642D01*
X73581338Y-42501672D01*
X73594091Y-42467483D01*
X73600500Y-42407873D01*
X73600499Y-41412128D01*
X73594091Y-41352517D01*
X73581340Y-41318332D01*
X73576357Y-41248642D01*
X73581341Y-41231667D01*
X73594091Y-41197483D01*
X73600500Y-41137873D01*
X73600499Y-40142128D01*
X73600498Y-40142126D01*
X73600498Y-40142114D01*
X73599492Y-40132757D01*
X73611896Y-40063997D01*
X73659506Y-40012859D01*
X73722781Y-39995500D01*
X77159548Y-39995500D01*
X77226587Y-40015185D01*
X77247229Y-40031819D01*
X77801038Y-40585629D01*
X77834523Y-40646952D01*
X77836678Y-40660348D01*
X77838744Y-40680000D01*
X77854326Y-40828256D01*
X77854327Y-40828259D01*
X77912818Y-41008277D01*
X77912821Y-41008284D01*
X78007467Y-41172216D01*
X78115982Y-41292734D01*
X78134129Y-41312888D01*
X78287265Y-41424148D01*
X78287270Y-41424151D01*
X78460192Y-41501142D01*
X78460197Y-41501144D01*
X78645354Y-41540500D01*
X78645355Y-41540500D01*
X78834644Y-41540500D01*
X78834646Y-41540500D01*
X79019803Y-41501144D01*
X79192730Y-41424151D01*
X79345871Y-41312888D01*
X79472533Y-41172216D01*
X79567179Y-41008284D01*
X79625674Y-40828256D01*
X79645460Y-40640000D01*
X79625674Y-40451744D01*
X79567179Y-40271716D01*
X79472533Y-40107784D01*
X79345871Y-39967112D01*
X79345870Y-39967111D01*
X79192734Y-39855851D01*
X79192729Y-39855848D01*
X79019807Y-39778857D01*
X79019802Y-39778855D01*
X78874000Y-39747865D01*
X78834646Y-39739500D01*
X78834645Y-39739500D01*
X78775453Y-39739500D01*
X78708414Y-39719815D01*
X78687772Y-39703181D01*
X77970803Y-38986212D01*
X77960980Y-38973950D01*
X77960759Y-38974134D01*
X77955786Y-38968123D01*
X77925724Y-38939893D01*
X77890329Y-38879652D01*
X77893121Y-38809838D01*
X77933215Y-38752617D01*
X77997880Y-38726155D01*
X78010607Y-38725500D01*
X78036252Y-38725500D01*
X78103291Y-38745185D01*
X78128400Y-38766526D01*
X78134126Y-38772885D01*
X78134130Y-38772889D01*
X78287265Y-38884148D01*
X78287270Y-38884151D01*
X78460192Y-38961142D01*
X78460197Y-38961144D01*
X78645354Y-39000500D01*
X78645355Y-39000500D01*
X78834644Y-39000500D01*
X78834646Y-39000500D01*
X79019803Y-38961144D01*
X79192730Y-38884151D01*
X79345871Y-38772888D01*
X79472533Y-38632216D01*
X79567179Y-38468284D01*
X79625674Y-38288256D01*
X79645460Y-38100000D01*
X79625674Y-37911744D01*
X79567179Y-37731716D01*
X79472533Y-37567784D01*
X79345871Y-37427112D01*
X79338377Y-37421667D01*
X79192734Y-37315851D01*
X79192729Y-37315848D01*
X79019807Y-37238857D01*
X79019802Y-37238855D01*
X78874000Y-37207865D01*
X78834646Y-37199500D01*
X78645354Y-37199500D01*
X78531148Y-37223774D01*
X78481004Y-37234433D01*
X78411337Y-37229116D01*
X78355604Y-37186978D01*
X78331499Y-37121398D01*
X78337294Y-37074822D01*
X78355674Y-37018256D01*
X78375460Y-36830000D01*
X78355674Y-36641744D01*
X78297179Y-36461716D01*
X78202533Y-36297784D01*
X78075871Y-36157112D01*
X78068377Y-36151667D01*
X77922734Y-36045851D01*
X77922729Y-36045848D01*
X77749807Y-35968857D01*
X77749802Y-35968855D01*
X77604001Y-35937865D01*
X77564646Y-35929500D01*
X77564645Y-35929500D01*
X77505453Y-35929500D01*
X77438414Y-35909815D01*
X77417772Y-35893181D01*
X76700803Y-35176212D01*
X76690980Y-35163950D01*
X76690759Y-35164134D01*
X76685786Y-35158123D01*
X76685785Y-35158122D01*
X76635364Y-35110773D01*
X76624919Y-35100328D01*
X76614475Y-35089883D01*
X76608986Y-35085625D01*
X76604561Y-35081847D01*
X76570582Y-35049938D01*
X76570580Y-35049936D01*
X76570577Y-35049935D01*
X76553029Y-35040288D01*
X76536763Y-35029604D01*
X76520933Y-35017325D01*
X76478168Y-34998818D01*
X76472922Y-34996248D01*
X76432093Y-34973803D01*
X76432092Y-34973802D01*
X76412693Y-34968822D01*
X76394281Y-34962518D01*
X76375898Y-34954562D01*
X76375892Y-34954560D01*
X76329874Y-34947272D01*
X76324152Y-34946087D01*
X76279021Y-34934500D01*
X76279019Y-34934500D01*
X76258984Y-34934500D01*
X76239586Y-34932973D01*
X76232162Y-34931797D01*
X76219805Y-34929840D01*
X76219804Y-34929840D01*
X76173416Y-34934225D01*
X76167578Y-34934500D01*
X73722277Y-34934500D01*
X73655238Y-34914815D01*
X73609483Y-34862011D01*
X73598988Y-34797240D01*
X73599999Y-34787834D01*
X73600000Y-34787827D01*
X73600000Y-34540000D01*
X71100000Y-34540000D01*
X71100000Y-34787844D01*
X71106401Y-34847372D01*
X71106403Y-34847379D01*
X71118925Y-34880952D01*
X71123909Y-34950643D01*
X71118925Y-34967617D01*
X71105909Y-35002514D01*
X71105908Y-35002516D01*
X71099501Y-35062116D01*
X71099501Y-35062123D01*
X71099500Y-35062135D01*
X71099500Y-36057870D01*
X71099501Y-36057876D01*
X71105908Y-36117483D01*
X71118658Y-36151667D01*
X71123642Y-36221359D01*
X71118659Y-36238329D01*
X71105909Y-36272516D01*
X71105908Y-36272517D01*
X71100507Y-36322757D01*
X71099501Y-36332123D01*
X71099500Y-36332135D01*
X71099500Y-37327870D01*
X71099501Y-37327876D01*
X71105908Y-37387483D01*
X71118658Y-37421667D01*
X71123642Y-37491359D01*
X71118659Y-37508329D01*
X71105909Y-37542516D01*
X71105908Y-37542517D01*
X71103192Y-37567784D01*
X71099501Y-37602123D01*
X71099500Y-37602135D01*
X71099500Y-38597870D01*
X71099501Y-38597876D01*
X71105908Y-38657481D01*
X71118659Y-38691669D01*
X71123642Y-38761361D01*
X71118659Y-38778331D01*
X71105908Y-38812518D01*
X71099815Y-38869199D01*
X71099501Y-38872123D01*
X71099500Y-38872135D01*
X71099500Y-39867870D01*
X71099501Y-39867876D01*
X71105908Y-39927481D01*
X71118659Y-39961669D01*
X71123642Y-40031361D01*
X71118659Y-40048331D01*
X71105908Y-40082518D01*
X71102242Y-40116621D01*
X71099501Y-40142123D01*
X71099500Y-40142135D01*
X71099500Y-41137870D01*
X71099501Y-41137876D01*
X71105908Y-41197483D01*
X71118658Y-41231667D01*
X71123642Y-41301359D01*
X71118659Y-41318329D01*
X71105909Y-41352516D01*
X71105908Y-41352517D01*
X71099501Y-41412116D01*
X71099501Y-41412123D01*
X71099500Y-41412135D01*
X71099500Y-42407870D01*
X71099501Y-42407879D01*
X71101602Y-42427421D01*
X71089195Y-42496180D01*
X71041583Y-42547316D01*
X71012895Y-42559753D01*
X71002121Y-42562882D01*
X70983087Y-42566823D01*
X70963217Y-42569334D01*
X70963203Y-42569337D01*
X70919883Y-42586488D01*
X70914358Y-42588380D01*
X70869613Y-42601380D01*
X70869610Y-42601381D01*
X70852366Y-42611579D01*
X70834905Y-42620133D01*
X70816274Y-42627510D01*
X70816262Y-42627517D01*
X70778570Y-42654902D01*
X70773687Y-42658109D01*
X70733580Y-42681829D01*
X70719414Y-42695995D01*
X70704624Y-42708627D01*
X70688414Y-42720404D01*
X70688411Y-42720407D01*
X70658714Y-42756304D01*
X70654782Y-42760626D01*
X70537229Y-42878180D01*
X70475906Y-42911666D01*
X70449547Y-42914500D01*
X70390354Y-42914500D01*
X70362935Y-42920328D01*
X70205197Y-42953855D01*
X70205192Y-42953857D01*
X70032270Y-43030848D01*
X70032265Y-43030851D01*
X69879129Y-43142111D01*
X69752466Y-43282785D01*
X69657821Y-43446715D01*
X69657818Y-43446722D01*
X69611636Y-43588857D01*
X69599326Y-43626744D01*
X69579540Y-43815000D01*
X69599326Y-44003256D01*
X69599327Y-44003259D01*
X69657818Y-44183277D01*
X69657821Y-44183284D01*
X69752467Y-44347216D01*
X69847948Y-44453258D01*
X69879129Y-44487888D01*
X70032265Y-44599148D01*
X70032270Y-44599151D01*
X70205192Y-44676142D01*
X70205197Y-44676144D01*
X70390354Y-44715500D01*
X70390355Y-44715500D01*
X70579644Y-44715500D01*
X70579646Y-44715500D01*
X70764803Y-44676144D01*
X70925065Y-44604789D01*
X70994314Y-44595505D01*
X71057590Y-44625133D01*
X71094804Y-44684267D01*
X71099500Y-44718068D01*
X71099500Y-44947869D01*
X71099501Y-44947876D01*
X71105908Y-45007481D01*
X71118659Y-45041669D01*
X71123642Y-45111361D01*
X71118659Y-45128331D01*
X71105908Y-45162518D01*
X71099501Y-45222116D01*
X71099500Y-45222135D01*
X71099500Y-46217870D01*
X71099501Y-46217876D01*
X71105908Y-46277483D01*
X71118658Y-46311667D01*
X71123642Y-46381359D01*
X71118659Y-46398329D01*
X71105909Y-46432516D01*
X71105908Y-46432517D01*
X71100035Y-46487147D01*
X71099501Y-46492123D01*
X71099500Y-46492135D01*
X71099500Y-47487870D01*
X71099501Y-47487876D01*
X71105908Y-47547483D01*
X71107853Y-47552696D01*
X71112835Y-47622388D01*
X71079349Y-47683710D01*
X71051412Y-47704685D01*
X71046273Y-47707509D01*
X71008576Y-47734898D01*
X71003694Y-47738105D01*
X70963579Y-47761830D01*
X70949408Y-47776000D01*
X70934623Y-47788628D01*
X70918412Y-47800407D01*
X70888709Y-47836310D01*
X70884777Y-47840631D01*
X69701208Y-49024199D01*
X69688951Y-49034020D01*
X69689134Y-49034241D01*
X69683123Y-49039213D01*
X69635772Y-49089636D01*
X69614889Y-49110519D01*
X69614877Y-49110532D01*
X69610621Y-49116017D01*
X69606837Y-49120447D01*
X69574937Y-49154418D01*
X69574936Y-49154420D01*
X69565284Y-49171976D01*
X69554610Y-49188226D01*
X69542329Y-49204061D01*
X69542324Y-49204068D01*
X69523815Y-49246838D01*
X69521245Y-49252084D01*
X69498803Y-49292906D01*
X69493822Y-49312307D01*
X69487521Y-49330710D01*
X69479562Y-49349102D01*
X69479561Y-49349105D01*
X69472271Y-49395127D01*
X69471087Y-49400846D01*
X69459501Y-49445972D01*
X69459500Y-49445982D01*
X69459500Y-49466016D01*
X69457973Y-49485415D01*
X69454840Y-49505194D01*
X69454840Y-49505195D01*
X69459225Y-49551583D01*
X69459500Y-49557421D01*
X69459500Y-50675500D01*
X69439815Y-50742539D01*
X69387011Y-50788294D01*
X69335500Y-50799500D01*
X68812129Y-50799500D01*
X68812123Y-50799501D01*
X68752518Y-50805908D01*
X68718331Y-50818659D01*
X68648639Y-50823642D01*
X68631669Y-50818659D01*
X68614140Y-50812121D01*
X68597483Y-50805909D01*
X68597482Y-50805908D01*
X68537883Y-50799501D01*
X68537881Y-50799500D01*
X68537873Y-50799500D01*
X68537864Y-50799500D01*
X67542129Y-50799500D01*
X67542123Y-50799501D01*
X67482518Y-50805908D01*
X67448331Y-50818659D01*
X67378639Y-50823642D01*
X67361669Y-50818659D01*
X67344140Y-50812121D01*
X67327483Y-50805909D01*
X67327482Y-50805908D01*
X67267883Y-50799501D01*
X67267881Y-50799500D01*
X67267873Y-50799500D01*
X67267864Y-50799500D01*
X66272129Y-50799500D01*
X66272123Y-50799501D01*
X66212518Y-50805908D01*
X66178331Y-50818659D01*
X66108639Y-50823642D01*
X66091669Y-50818659D01*
X66074140Y-50812121D01*
X66057483Y-50805909D01*
X66057482Y-50805908D01*
X65997883Y-50799501D01*
X65997881Y-50799500D01*
X65997873Y-50799500D01*
X65997864Y-50799500D01*
X65002129Y-50799500D01*
X65002123Y-50799501D01*
X64942518Y-50805908D01*
X64908331Y-50818659D01*
X64838639Y-50823642D01*
X64821669Y-50818659D01*
X64804140Y-50812121D01*
X64787483Y-50805909D01*
X64787482Y-50805908D01*
X64727883Y-50799501D01*
X64727881Y-50799500D01*
X64727873Y-50799500D01*
X64727864Y-50799500D01*
X63732129Y-50799500D01*
X63732123Y-50799501D01*
X63672518Y-50805908D01*
X63638331Y-50818659D01*
X63568639Y-50823642D01*
X63551669Y-50818659D01*
X63534140Y-50812121D01*
X63517483Y-50805909D01*
X63517482Y-50805908D01*
X63457883Y-50799501D01*
X63457881Y-50799500D01*
X63457873Y-50799500D01*
X63457864Y-50799500D01*
X62462129Y-50799500D01*
X62462123Y-50799501D01*
X62402518Y-50805908D01*
X62368331Y-50818659D01*
X62298639Y-50823642D01*
X62281669Y-50818659D01*
X62264140Y-50812121D01*
X62247483Y-50805909D01*
X62247482Y-50805908D01*
X62187883Y-50799501D01*
X62187881Y-50799500D01*
X62187873Y-50799500D01*
X62187864Y-50799500D01*
X61192129Y-50799500D01*
X61192123Y-50799501D01*
X61132518Y-50805908D01*
X61098331Y-50818659D01*
X61028639Y-50823642D01*
X61011669Y-50818659D01*
X60994140Y-50812121D01*
X60977483Y-50805909D01*
X60977482Y-50805908D01*
X60917883Y-50799501D01*
X60917881Y-50799500D01*
X60917873Y-50799500D01*
X60917864Y-50799500D01*
X59922129Y-50799500D01*
X59922123Y-50799501D01*
X59862518Y-50805908D01*
X59828331Y-50818659D01*
X59758639Y-50823642D01*
X59741669Y-50818659D01*
X59724140Y-50812121D01*
X59707483Y-50805909D01*
X59707482Y-50805908D01*
X59647883Y-50799501D01*
X59647881Y-50799500D01*
X59647873Y-50799500D01*
X59647864Y-50799500D01*
X58652129Y-50799500D01*
X58652123Y-50799501D01*
X58592520Y-50805908D01*
X58592517Y-50805908D01*
X58592517Y-50805909D01*
X58557620Y-50818925D01*
X58557617Y-50818926D01*
X58487925Y-50823909D01*
X58470952Y-50818925D01*
X58437379Y-50806403D01*
X58437372Y-50806401D01*
X58377844Y-50800000D01*
X58130000Y-50800000D01*
X58130000Y-53300000D01*
X58377828Y-53300000D01*
X58377844Y-53299999D01*
X58437369Y-53293598D01*
X58442441Y-53291707D01*
X58512132Y-53286718D01*
X58573458Y-53320198D01*
X58594445Y-53348148D01*
X58597511Y-53353726D01*
X58597514Y-53353732D01*
X58617445Y-53381165D01*
X58624898Y-53391423D01*
X58628106Y-53396307D01*
X58651827Y-53436416D01*
X58651833Y-53436424D01*
X58665990Y-53450580D01*
X58678628Y-53465376D01*
X58690405Y-53481586D01*
X58690406Y-53481587D01*
X58726309Y-53511288D01*
X58730620Y-53515210D01*
X59514957Y-54299547D01*
X60203180Y-54987770D01*
X60236665Y-55049093D01*
X60239499Y-55075451D01*
X60239500Y-56515547D01*
X60219815Y-56582586D01*
X60167012Y-56628341D01*
X60097853Y-56638285D01*
X60034297Y-56609260D01*
X60027819Y-56603228D01*
X55724591Y-52300000D01*
X56930000Y-52300000D01*
X56930000Y-52847844D01*
X56936401Y-52907372D01*
X56936403Y-52907379D01*
X56986645Y-53042086D01*
X56986649Y-53042093D01*
X57072809Y-53157187D01*
X57072812Y-53157190D01*
X57187906Y-53243350D01*
X57187913Y-53243354D01*
X57322620Y-53293596D01*
X57322627Y-53293598D01*
X57382155Y-53299999D01*
X57382172Y-53300000D01*
X57630000Y-53300000D01*
X57630000Y-52300000D01*
X56930000Y-52300000D01*
X55724591Y-52300000D01*
X55511819Y-52087228D01*
X55478334Y-52025905D01*
X55475500Y-51999547D01*
X55475500Y-51874499D01*
X55495185Y-51807460D01*
X55503794Y-51800000D01*
X56930000Y-51800000D01*
X57630000Y-51800000D01*
X57630000Y-50800000D01*
X57382155Y-50800000D01*
X57322627Y-50806401D01*
X57322620Y-50806403D01*
X57187913Y-50856645D01*
X57187906Y-50856649D01*
X57072812Y-50942809D01*
X57072809Y-50942812D01*
X56986649Y-51057906D01*
X56986645Y-51057913D01*
X56936403Y-51192620D01*
X56936401Y-51192627D01*
X56930000Y-51252155D01*
X56930000Y-51800000D01*
X55503794Y-51800000D01*
X55547989Y-51761705D01*
X55599500Y-51750499D01*
X55647871Y-51750499D01*
X55647872Y-51750499D01*
X55707483Y-51744091D01*
X55842331Y-51693796D01*
X55957546Y-51607546D01*
X56043796Y-51492331D01*
X56094091Y-51357483D01*
X56100500Y-51297873D01*
X56100499Y-50302128D01*
X56094091Y-50242517D01*
X56081340Y-50208332D01*
X56076357Y-50138642D01*
X56081338Y-50121672D01*
X56094091Y-50087483D01*
X56100500Y-50027873D01*
X56100499Y-49032128D01*
X56094091Y-48972517D01*
X56081340Y-48938332D01*
X56076357Y-48868642D01*
X56081338Y-48851672D01*
X56094091Y-48817483D01*
X56100500Y-48757873D01*
X56100499Y-47762128D01*
X56094091Y-47702517D01*
X56081340Y-47668332D01*
X56076357Y-47598642D01*
X56081338Y-47581672D01*
X56094091Y-47547483D01*
X56100500Y-47487873D01*
X56100499Y-46492128D01*
X56094091Y-46432517D01*
X56081340Y-46398332D01*
X56076357Y-46328642D01*
X56081341Y-46311667D01*
X56094091Y-46277483D01*
X56100500Y-46217873D01*
X56100499Y-45435639D01*
X56120183Y-45368601D01*
X56172987Y-45322846D01*
X56242146Y-45312902D01*
X56250281Y-45314350D01*
X56420354Y-45350500D01*
X56420355Y-45350500D01*
X56609644Y-45350500D01*
X56609646Y-45350500D01*
X56794803Y-45311144D01*
X56967730Y-45234151D01*
X57120871Y-45122888D01*
X57247533Y-44982216D01*
X57342179Y-44818284D01*
X57400674Y-44638256D01*
X57420460Y-44450000D01*
X57400674Y-44261744D01*
X57342179Y-44081716D01*
X57247533Y-43917784D01*
X57120871Y-43777112D01*
X57120870Y-43777111D01*
X56967734Y-43665851D01*
X56967729Y-43665848D01*
X56954594Y-43660000D01*
X59750000Y-43660000D01*
X59750000Y-43907844D01*
X59756401Y-43967372D01*
X59756403Y-43967379D01*
X59806645Y-44102086D01*
X59806649Y-44102093D01*
X59892809Y-44217187D01*
X59892812Y-44217190D01*
X60007906Y-44303350D01*
X60007913Y-44303354D01*
X60142620Y-44353596D01*
X60142627Y-44353598D01*
X60202155Y-44359999D01*
X60202172Y-44360000D01*
X60450000Y-44360000D01*
X60450000Y-43660000D01*
X60950000Y-43660000D01*
X60950000Y-44360000D01*
X61197828Y-44360000D01*
X61197844Y-44359999D01*
X61257372Y-44353598D01*
X61257376Y-44353597D01*
X61356666Y-44316564D01*
X61426358Y-44311580D01*
X61443334Y-44316564D01*
X61542623Y-44353597D01*
X61542627Y-44353598D01*
X61602155Y-44359999D01*
X61602172Y-44360000D01*
X61850000Y-44360000D01*
X61850000Y-43660000D01*
X62350000Y-43660000D01*
X62350000Y-44360000D01*
X62597828Y-44360000D01*
X62597844Y-44359999D01*
X62657372Y-44353598D01*
X62657376Y-44353597D01*
X62756666Y-44316564D01*
X62826358Y-44311580D01*
X62843334Y-44316564D01*
X62942623Y-44353597D01*
X62942627Y-44353598D01*
X63002155Y-44359999D01*
X63002172Y-44360000D01*
X63250000Y-44360000D01*
X63250000Y-43660000D01*
X63750000Y-43660000D01*
X63750000Y-44360000D01*
X63997828Y-44360000D01*
X63997844Y-44359999D01*
X64057372Y-44353598D01*
X64057379Y-44353596D01*
X64192086Y-44303354D01*
X64192093Y-44303350D01*
X64307187Y-44217190D01*
X64307190Y-44217187D01*
X64393350Y-44102093D01*
X64393354Y-44102086D01*
X64443596Y-43967379D01*
X64443598Y-43967372D01*
X64449999Y-43907844D01*
X64450000Y-43907827D01*
X64450000Y-43660000D01*
X63750000Y-43660000D01*
X63250000Y-43660000D01*
X62350000Y-43660000D01*
X61850000Y-43660000D01*
X60950000Y-43660000D01*
X60450000Y-43660000D01*
X59750000Y-43660000D01*
X56954594Y-43660000D01*
X56794807Y-43588857D01*
X56794802Y-43588855D01*
X56624724Y-43552705D01*
X56609646Y-43549500D01*
X56609645Y-43549500D01*
X56550453Y-43549500D01*
X56483414Y-43529815D01*
X56462772Y-43513181D01*
X56136818Y-43187227D01*
X56103333Y-43125904D01*
X56100499Y-43099546D01*
X56100499Y-42682129D01*
X56100498Y-42682123D01*
X56100466Y-42681829D01*
X56095299Y-42633757D01*
X56094091Y-42622516D01*
X56081341Y-42588332D01*
X56076357Y-42518640D01*
X56081340Y-42501667D01*
X56094091Y-42467483D01*
X56100500Y-42407873D01*
X56100500Y-42260000D01*
X59750000Y-42260000D01*
X59750000Y-42507844D01*
X59756401Y-42567372D01*
X59756403Y-42567383D01*
X59793434Y-42666668D01*
X59798418Y-42736360D01*
X59793434Y-42753332D01*
X59756403Y-42852616D01*
X59756401Y-42852627D01*
X59750000Y-42912155D01*
X59750000Y-43160000D01*
X60450000Y-43160000D01*
X60450000Y-42260000D01*
X60950000Y-42260000D01*
X60950000Y-43160000D01*
X61850000Y-43160000D01*
X61850000Y-42260000D01*
X62350000Y-42260000D01*
X62350000Y-43160000D01*
X63250000Y-43160000D01*
X63250000Y-42260000D01*
X63750000Y-42260000D01*
X63750000Y-43160000D01*
X64450000Y-43160000D01*
X64450000Y-42912172D01*
X64449999Y-42912155D01*
X64443598Y-42852627D01*
X64443597Y-42852623D01*
X64406564Y-42753333D01*
X64401580Y-42683641D01*
X64406565Y-42666665D01*
X64443595Y-42567383D01*
X64443598Y-42567372D01*
X64449999Y-42507844D01*
X64450000Y-42507827D01*
X64450000Y-42260000D01*
X63750000Y-42260000D01*
X63250000Y-42260000D01*
X62350000Y-42260000D01*
X61850000Y-42260000D01*
X60950000Y-42260000D01*
X60450000Y-42260000D01*
X59750000Y-42260000D01*
X56100500Y-42260000D01*
X56100499Y-41412128D01*
X56094091Y-41352517D01*
X56081340Y-41318332D01*
X56076357Y-41248642D01*
X56081341Y-41231667D01*
X56094091Y-41197483D01*
X56100500Y-41137873D01*
X56100500Y-40860000D01*
X59750000Y-40860000D01*
X59750000Y-41107844D01*
X59756401Y-41167372D01*
X59756403Y-41167383D01*
X59793434Y-41266668D01*
X59798418Y-41336360D01*
X59793434Y-41353332D01*
X59756403Y-41452616D01*
X59756401Y-41452627D01*
X59750000Y-41512155D01*
X59750000Y-41760000D01*
X60450000Y-41760000D01*
X60450000Y-40860000D01*
X60950000Y-40860000D01*
X60950000Y-41760000D01*
X61850000Y-41760000D01*
X61850000Y-40860000D01*
X62350000Y-40860000D01*
X62350000Y-41760000D01*
X63250000Y-41760000D01*
X63250000Y-40860000D01*
X63750000Y-40860000D01*
X63750000Y-41760000D01*
X64450000Y-41760000D01*
X64450000Y-41512172D01*
X64449999Y-41512155D01*
X64443598Y-41452627D01*
X64443597Y-41452623D01*
X64406564Y-41353333D01*
X64401580Y-41283641D01*
X64406565Y-41266665D01*
X64443595Y-41167383D01*
X64443598Y-41167372D01*
X64449999Y-41107844D01*
X64450000Y-41107827D01*
X64450000Y-40860000D01*
X63750000Y-40860000D01*
X63250000Y-40860000D01*
X62350000Y-40860000D01*
X61850000Y-40860000D01*
X60950000Y-40860000D01*
X60450000Y-40860000D01*
X59750000Y-40860000D01*
X56100500Y-40860000D01*
X56100499Y-40360000D01*
X59750000Y-40360000D01*
X60450000Y-40360000D01*
X60450000Y-39660000D01*
X60950000Y-39660000D01*
X60950000Y-40360000D01*
X61850000Y-40360000D01*
X61850000Y-39660000D01*
X62350000Y-39660000D01*
X62350000Y-40360000D01*
X63250000Y-40360000D01*
X63250000Y-39660000D01*
X63750000Y-39660000D01*
X63750000Y-40360000D01*
X64450000Y-40360000D01*
X64450000Y-40112172D01*
X64449999Y-40112155D01*
X64443598Y-40052627D01*
X64443596Y-40052620D01*
X64393354Y-39917913D01*
X64393350Y-39917906D01*
X64307190Y-39802812D01*
X64307187Y-39802809D01*
X64192093Y-39716649D01*
X64192086Y-39716645D01*
X64057379Y-39666403D01*
X64057372Y-39666401D01*
X63997844Y-39660000D01*
X63750000Y-39660000D01*
X63250000Y-39660000D01*
X63002155Y-39660000D01*
X62942627Y-39666401D01*
X62942616Y-39666404D01*
X62843331Y-39703434D01*
X62773639Y-39708418D01*
X62756666Y-39703434D01*
X62657380Y-39666403D01*
X62657372Y-39666401D01*
X62597844Y-39660000D01*
X62350000Y-39660000D01*
X61850000Y-39660000D01*
X61602155Y-39660000D01*
X61542627Y-39666401D01*
X61542616Y-39666403D01*
X61443332Y-39703434D01*
X61373640Y-39708418D01*
X61356668Y-39703434D01*
X61257383Y-39666403D01*
X61257372Y-39666401D01*
X61197844Y-39660000D01*
X60950000Y-39660000D01*
X60450000Y-39660000D01*
X60202155Y-39660000D01*
X60142627Y-39666401D01*
X60142620Y-39666403D01*
X60007913Y-39716645D01*
X60007906Y-39716649D01*
X59892812Y-39802809D01*
X59892809Y-39802812D01*
X59806649Y-39917906D01*
X59806645Y-39917913D01*
X59756403Y-40052620D01*
X59756401Y-40052627D01*
X59750000Y-40112155D01*
X59750000Y-40360000D01*
X56100499Y-40360000D01*
X56100499Y-40142128D01*
X56094091Y-40082517D01*
X56081340Y-40048332D01*
X56076357Y-39978642D01*
X56081340Y-39961669D01*
X56094091Y-39927483D01*
X56100500Y-39867873D01*
X56100499Y-38872128D01*
X56094091Y-38812517D01*
X56081340Y-38778332D01*
X56076357Y-38708642D01*
X56081340Y-38691669D01*
X56094091Y-38657483D01*
X56100500Y-38597873D01*
X56100499Y-37602128D01*
X56094091Y-37542517D01*
X56081341Y-37508332D01*
X56076357Y-37438640D01*
X56081342Y-37421664D01*
X56094091Y-37387483D01*
X56096248Y-37367419D01*
X56100500Y-37327873D01*
X56100499Y-36332128D01*
X56094091Y-36272517D01*
X56081340Y-36238332D01*
X56076357Y-36168642D01*
X56081341Y-36151667D01*
X56094091Y-36117483D01*
X56100500Y-36057873D01*
X56100499Y-35062128D01*
X56094091Y-35002517D01*
X56081073Y-34967616D01*
X56076090Y-34897926D01*
X56081075Y-34880949D01*
X56093597Y-34847375D01*
X56093598Y-34847372D01*
X56099999Y-34787844D01*
X56100000Y-34787827D01*
X56100000Y-34540000D01*
X53600000Y-34540000D01*
X53600000Y-34685500D01*
X53580315Y-34752539D01*
X53527511Y-34798294D01*
X53476000Y-34809500D01*
X49553705Y-34809500D01*
X49535735Y-34808191D01*
X49511972Y-34804710D01*
X49466890Y-34808655D01*
X49459933Y-34809264D01*
X49454532Y-34809500D01*
X49446287Y-34809500D01*
X49420222Y-34812546D01*
X49413705Y-34813308D01*
X49408403Y-34813771D01*
X49337201Y-34820001D01*
X49330134Y-34821461D01*
X49330122Y-34821404D01*
X49322753Y-34823038D01*
X49322767Y-34823095D01*
X49315739Y-34824760D01*
X49253613Y-34847372D01*
X49243568Y-34851028D01*
X49170665Y-34875186D01*
X49170663Y-34875186D01*
X49170660Y-34875188D01*
X49164123Y-34878236D01*
X49164098Y-34878184D01*
X49157310Y-34881470D01*
X49157336Y-34881521D01*
X49150885Y-34884761D01*
X49086723Y-34926961D01*
X49021346Y-34967285D01*
X49015682Y-34971765D01*
X49015646Y-34971719D01*
X49009798Y-34976484D01*
X49009835Y-34976528D01*
X49004310Y-34981164D01*
X49004304Y-34981169D01*
X49004304Y-34981170D01*
X48988748Y-34997658D01*
X48951614Y-35037017D01*
X48485348Y-35503282D01*
X48424025Y-35536767D01*
X48386861Y-35539129D01*
X48220003Y-35524532D01*
X48219998Y-35524532D01*
X47993313Y-35544364D01*
X47993302Y-35544366D01*
X47773511Y-35603258D01*
X47773502Y-35603261D01*
X47567267Y-35699431D01*
X47567265Y-35699432D01*
X47380858Y-35829954D01*
X47219954Y-35990858D01*
X47089432Y-36177265D01*
X47089431Y-36177267D01*
X46993261Y-36383502D01*
X46993258Y-36383511D01*
X46934366Y-36603302D01*
X46934364Y-36603313D01*
X46914532Y-36829998D01*
X46914532Y-36830001D01*
X46934364Y-37056686D01*
X46934366Y-37056697D01*
X46993258Y-37276488D01*
X46993261Y-37276497D01*
X47089431Y-37482732D01*
X47089432Y-37482734D01*
X47219954Y-37669141D01*
X47380859Y-37830046D01*
X47416621Y-37855086D01*
X47460247Y-37909662D01*
X47469500Y-37956662D01*
X47469500Y-39581345D01*
X47449815Y-39648384D01*
X47424004Y-39675272D01*
X47425011Y-39676471D01*
X47420863Y-39679951D01*
X47259951Y-39840862D01*
X47234912Y-39876623D01*
X47180335Y-39920248D01*
X47133337Y-39929500D01*
X44334671Y-39929500D01*
X44267632Y-39909815D01*
X44233096Y-39876623D01*
X44180045Y-39800858D01*
X44019141Y-39639954D01*
X43832734Y-39509432D01*
X43832732Y-39509431D01*
X43626497Y-39413261D01*
X43626488Y-39413258D01*
X43406697Y-39354366D01*
X43406693Y-39354365D01*
X43406692Y-39354365D01*
X43406691Y-39354364D01*
X43406686Y-39354364D01*
X43180002Y-39334532D01*
X43179998Y-39334532D01*
X42953313Y-39354364D01*
X42953302Y-39354366D01*
X42733511Y-39413258D01*
X42733502Y-39413261D01*
X42527267Y-39509431D01*
X42527265Y-39509432D01*
X42340858Y-39639954D01*
X42179954Y-39800858D01*
X42049432Y-39987265D01*
X42049431Y-39987267D01*
X41953261Y-40193502D01*
X41953258Y-40193511D01*
X41894366Y-40413302D01*
X41894364Y-40413313D01*
X41874532Y-40639998D01*
X41874532Y-40640001D01*
X41894364Y-40866686D01*
X41894366Y-40866697D01*
X41953258Y-41086488D01*
X41953261Y-41086497D01*
X42049431Y-41292732D01*
X42049432Y-41292734D01*
X42179954Y-41479141D01*
X42340858Y-41640045D01*
X42340861Y-41640047D01*
X42527266Y-41770568D01*
X42733504Y-41866739D01*
X42953308Y-41925635D01*
X43115230Y-41939801D01*
X43179998Y-41945468D01*
X43180000Y-41945468D01*
X43180002Y-41945468D01*
X43236673Y-41940509D01*
X43406692Y-41925635D01*
X43626496Y-41866739D01*
X43832734Y-41770568D01*
X44019139Y-41640047D01*
X44180047Y-41479139D01*
X44180048Y-41479138D01*
X44183526Y-41474994D01*
X44185493Y-41476644D01*
X44231680Y-41439742D01*
X44278655Y-41430500D01*
X47133337Y-41430500D01*
X47200376Y-41450185D01*
X47234912Y-41483377D01*
X47259954Y-41519141D01*
X47420858Y-41680045D01*
X47420861Y-41680047D01*
X47607266Y-41810568D01*
X47813504Y-41906739D01*
X48033308Y-41965635D01*
X48195230Y-41979801D01*
X48259998Y-41985468D01*
X48260000Y-41985468D01*
X48260002Y-41985468D01*
X48316673Y-41980509D01*
X48486692Y-41965635D01*
X48706496Y-41906739D01*
X48912734Y-41810568D01*
X49099139Y-41680047D01*
X49260047Y-41519139D01*
X49390568Y-41332734D01*
X49486739Y-41126496D01*
X49545635Y-40906692D01*
X49565468Y-40680000D01*
X49561968Y-40640000D01*
X49545635Y-40453313D01*
X49545635Y-40453308D01*
X49486739Y-40233504D01*
X49390568Y-40027266D01*
X49260047Y-39840861D01*
X49099139Y-39679953D01*
X49023376Y-39626903D01*
X48979751Y-39572326D01*
X48970500Y-39525328D01*
X48970500Y-37956662D01*
X48990185Y-37889623D01*
X49023379Y-37855086D01*
X49059140Y-37830046D01*
X49220045Y-37669141D01*
X49220045Y-37669140D01*
X49220047Y-37669139D01*
X49350568Y-37482734D01*
X49446739Y-37276496D01*
X49505635Y-37056692D01*
X49525468Y-36830000D01*
X49510869Y-36663137D01*
X49524635Y-36594639D01*
X49546713Y-36564653D01*
X49764548Y-36346819D01*
X49825871Y-36313334D01*
X49852229Y-36310500D01*
X52675546Y-36310500D01*
X52742585Y-36330185D01*
X52788340Y-36382989D01*
X52798284Y-36452147D01*
X52769259Y-36515703D01*
X52763227Y-36522181D01*
X50416208Y-38869199D01*
X50403951Y-38879020D01*
X50404134Y-38879241D01*
X50398123Y-38884213D01*
X50350772Y-38934636D01*
X50329889Y-38955519D01*
X50329877Y-38955532D01*
X50325621Y-38961017D01*
X50321837Y-38965447D01*
X50289937Y-38999418D01*
X50289936Y-38999420D01*
X50280284Y-39016976D01*
X50269610Y-39033226D01*
X50257329Y-39049061D01*
X50257324Y-39049068D01*
X50238815Y-39091838D01*
X50236245Y-39097084D01*
X50213803Y-39137906D01*
X50208822Y-39157307D01*
X50202521Y-39175710D01*
X50194562Y-39194102D01*
X50194561Y-39194105D01*
X50187271Y-39240127D01*
X50186087Y-39245846D01*
X50174501Y-39290972D01*
X50174500Y-39290982D01*
X50174500Y-39311016D01*
X50172973Y-39330415D01*
X50169840Y-39350194D01*
X50169840Y-39350195D01*
X50174225Y-39396583D01*
X50174500Y-39402421D01*
X50174500Y-42829546D01*
X50154815Y-42896585D01*
X50138181Y-42917227D01*
X48674821Y-44380586D01*
X48613498Y-44414071D01*
X48555048Y-44412680D01*
X48486697Y-44394366D01*
X48486693Y-44394365D01*
X48486692Y-44394365D01*
X48359876Y-44383270D01*
X48260001Y-44374532D01*
X48259998Y-44374532D01*
X48033313Y-44394364D01*
X48033302Y-44394366D01*
X47813511Y-44453258D01*
X47813502Y-44453261D01*
X47607267Y-44549431D01*
X47607265Y-44549432D01*
X47420858Y-44679954D01*
X47259954Y-44840858D01*
X47129432Y-45027265D01*
X47129431Y-45027267D01*
X47033261Y-45233502D01*
X47033258Y-45233511D01*
X46974366Y-45453302D01*
X46974364Y-45453313D01*
X46954532Y-45679998D01*
X46954532Y-45680000D01*
X46974365Y-45906691D01*
X46974366Y-45906697D01*
X46992680Y-45975048D01*
X46991017Y-46044897D01*
X46960586Y-46094821D01*
X45457228Y-47598181D01*
X45395905Y-47631666D01*
X45369547Y-47634500D01*
X44394188Y-47634500D01*
X44327149Y-47614815D01*
X44292613Y-47581623D01*
X44180045Y-47420858D01*
X44019141Y-47259954D01*
X43832734Y-47129432D01*
X43832732Y-47129431D01*
X43626497Y-47033261D01*
X43626488Y-47033258D01*
X43406697Y-46974366D01*
X43406693Y-46974365D01*
X43406692Y-46974365D01*
X43406691Y-46974364D01*
X43406686Y-46974364D01*
X43180002Y-46954532D01*
X43179998Y-46954532D01*
X42953313Y-46974364D01*
X42953302Y-46974366D01*
X42733511Y-47033258D01*
X42733502Y-47033261D01*
X42527267Y-47129431D01*
X42527265Y-47129432D01*
X42340858Y-47259954D01*
X42179954Y-47420858D01*
X42049432Y-47607265D01*
X42049431Y-47607267D01*
X41953261Y-47813502D01*
X41953258Y-47813511D01*
X41894366Y-48033302D01*
X41894364Y-48033313D01*
X41874532Y-48259998D01*
X41874532Y-48260000D01*
X41894365Y-48486691D01*
X41894366Y-48486697D01*
X41912680Y-48555048D01*
X41911017Y-48624897D01*
X41880586Y-48674821D01*
X41526208Y-49029199D01*
X41513951Y-49039020D01*
X41514134Y-49039241D01*
X41508123Y-49044213D01*
X41460772Y-49094636D01*
X41439889Y-49115519D01*
X41439877Y-49115532D01*
X41435621Y-49121017D01*
X41431837Y-49125447D01*
X41399937Y-49159418D01*
X41399936Y-49159420D01*
X41390284Y-49176976D01*
X41379610Y-49193226D01*
X41367329Y-49209061D01*
X41367324Y-49209068D01*
X41348815Y-49251838D01*
X41346245Y-49257084D01*
X41323803Y-49297906D01*
X41318822Y-49317307D01*
X41312521Y-49335710D01*
X41304562Y-49354102D01*
X41304561Y-49354106D01*
X41297271Y-49400127D01*
X41296087Y-49405846D01*
X41284499Y-49450983D01*
X41284499Y-49471019D01*
X41282973Y-49490407D01*
X41279840Y-49510192D01*
X41279840Y-49510195D01*
X41284225Y-49556583D01*
X41284500Y-49562421D01*
X41284500Y-68497255D01*
X41282775Y-68512872D01*
X41283061Y-68512899D01*
X41282326Y-68520665D01*
X41284500Y-68589814D01*
X41284500Y-95802255D01*
X41282775Y-95817872D01*
X41283061Y-95817899D01*
X41282326Y-95825665D01*
X41284500Y-95894814D01*
X41284500Y-95924343D01*
X41284501Y-95924360D01*
X41285368Y-95931231D01*
X41285826Y-95937050D01*
X41287290Y-95983624D01*
X41287291Y-95983627D01*
X41292880Y-96002867D01*
X41296824Y-96021911D01*
X41299336Y-96041791D01*
X41316490Y-96085119D01*
X41318382Y-96090647D01*
X41331381Y-96135388D01*
X41341580Y-96152634D01*
X41350138Y-96170103D01*
X41357514Y-96188732D01*
X41384898Y-96226423D01*
X41388106Y-96231307D01*
X41411827Y-96271416D01*
X41411833Y-96271424D01*
X41425990Y-96285580D01*
X41438628Y-96300376D01*
X41450405Y-96316586D01*
X41450406Y-96316587D01*
X41486309Y-96346288D01*
X41490620Y-96350210D01*
X43214367Y-98073957D01*
X44908181Y-99767771D01*
X44941666Y-99829094D01*
X44944500Y-99855452D01*
X44944500Y-102008479D01*
X44924815Y-102075518D01*
X44879519Y-102117533D01*
X44746496Y-102189522D01*
X44746494Y-102189523D01*
X44550257Y-102342261D01*
X44381833Y-102525217D01*
X44245826Y-102733393D01*
X44145936Y-102961118D01*
X44084892Y-103202175D01*
X44084890Y-103202187D01*
X44064357Y-103449994D01*
X44064357Y-103450005D01*
X44084890Y-103697812D01*
X44084892Y-103697824D01*
X44145936Y-103938881D01*
X44245826Y-104166606D01*
X44381833Y-104374782D01*
X44381836Y-104374785D01*
X44550256Y-104557738D01*
X44746491Y-104710474D01*
X44965190Y-104828828D01*
X45200386Y-104909571D01*
X45445665Y-104950500D01*
X45694335Y-104950500D01*
X45939614Y-104909571D01*
X46174810Y-104828828D01*
X46393509Y-104710474D01*
X46589744Y-104557738D01*
X46758164Y-104374785D01*
X46894173Y-104166607D01*
X46994063Y-103938881D01*
X47055108Y-103697821D01*
X47075643Y-103450005D01*
X50564357Y-103450005D01*
X50584890Y-103697812D01*
X50584892Y-103697824D01*
X50645936Y-103938881D01*
X50745826Y-104166606D01*
X50881833Y-104374782D01*
X50881836Y-104374785D01*
X51050256Y-104557738D01*
X51246491Y-104710474D01*
X51465190Y-104828828D01*
X51700386Y-104909571D01*
X51945665Y-104950500D01*
X52194335Y-104950500D01*
X52439614Y-104909571D01*
X52674810Y-104828828D01*
X52893509Y-104710474D01*
X53089744Y-104557738D01*
X53258164Y-104374785D01*
X53394173Y-104166607D01*
X53494063Y-103938881D01*
X53555108Y-103697821D01*
X53575643Y-103450000D01*
X53555108Y-103202179D01*
X53494063Y-102961119D01*
X53394173Y-102733393D01*
X53394172Y-102733393D01*
X53258166Y-102525217D01*
X53236557Y-102501744D01*
X53089744Y-102342262D01*
X52893509Y-102189526D01*
X52893507Y-102189525D01*
X52893506Y-102189524D01*
X52674811Y-102071172D01*
X52674802Y-102071169D01*
X52439616Y-101990429D01*
X52194335Y-101949500D01*
X51945665Y-101949500D01*
X51700383Y-101990429D01*
X51465197Y-102071169D01*
X51465188Y-102071172D01*
X51246493Y-102189524D01*
X51050257Y-102342261D01*
X50881833Y-102525217D01*
X50745826Y-102733393D01*
X50645936Y-102961118D01*
X50584892Y-103202175D01*
X50584890Y-103202187D01*
X50564357Y-103449994D01*
X50564357Y-103450005D01*
X47075643Y-103450005D01*
X47075643Y-103450000D01*
X47055108Y-103202179D01*
X46994063Y-102961119D01*
X46894173Y-102733393D01*
X46894172Y-102733393D01*
X46758166Y-102525217D01*
X46736557Y-102501744D01*
X46589744Y-102342262D01*
X46393509Y-102189526D01*
X46393508Y-102189525D01*
X46393505Y-102189523D01*
X46393498Y-102189519D01*
X46260481Y-102117533D01*
X46210891Y-102068314D01*
X46195499Y-102008479D01*
X46195499Y-100949341D01*
X46195499Y-99627733D01*
X46197225Y-99612122D01*
X46196939Y-99612095D01*
X46197673Y-99604333D01*
X46195500Y-99535172D01*
X46195500Y-99505656D01*
X46195500Y-99505650D01*
X46194631Y-99498779D01*
X46194173Y-99492952D01*
X46194136Y-99491759D01*
X46192710Y-99446373D01*
X46187119Y-99427130D01*
X46183173Y-99408078D01*
X46180664Y-99388208D01*
X46163504Y-99344867D01*
X46161624Y-99339379D01*
X46148618Y-99294610D01*
X46138422Y-99277370D01*
X46129861Y-99259894D01*
X46122487Y-99241270D01*
X46122486Y-99241268D01*
X46095079Y-99203545D01*
X46091888Y-99198686D01*
X46089234Y-99194199D01*
X46068170Y-99158580D01*
X46068168Y-99158578D01*
X46068165Y-99158574D01*
X46054006Y-99144415D01*
X46041368Y-99129619D01*
X46029594Y-99113413D01*
X45993688Y-99083709D01*
X45989376Y-99079786D01*
X42571819Y-95662228D01*
X42538334Y-95600905D01*
X42535500Y-95574547D01*
X42535500Y-95250001D01*
X43104532Y-95250001D01*
X43124364Y-95476686D01*
X43124366Y-95476697D01*
X43183258Y-95696488D01*
X43183261Y-95696497D01*
X43279431Y-95902732D01*
X43279432Y-95902734D01*
X43409954Y-96089141D01*
X43570858Y-96250045D01*
X43570861Y-96250047D01*
X43757266Y-96380568D01*
X43963504Y-96476739D01*
X44183308Y-96535635D01*
X44345230Y-96549801D01*
X44409998Y-96555468D01*
X44410000Y-96555468D01*
X44410002Y-96555468D01*
X44466673Y-96550509D01*
X44636692Y-96535635D01*
X44856496Y-96476739D01*
X45062734Y-96380568D01*
X45249139Y-96250047D01*
X45410047Y-96089139D01*
X45514471Y-95940005D01*
X48584859Y-95940005D01*
X48605385Y-96187729D01*
X48605387Y-96187738D01*
X48666412Y-96428717D01*
X48766266Y-96656364D01*
X48866564Y-96809882D01*
X49441482Y-96234964D01*
X49502805Y-96201479D01*
X49572496Y-96206463D01*
X49628430Y-96248334D01*
X49631514Y-96253249D01*
X49631549Y-96253225D01*
X49636441Y-96260156D01*
X49718624Y-96348152D01*
X49739638Y-96370652D01*
X49774698Y-96391973D01*
X49821749Y-96443623D01*
X49833407Y-96512513D01*
X49805970Y-96576770D01*
X49797950Y-96585601D01*
X49219942Y-97163609D01*
X49266768Y-97200055D01*
X49266770Y-97200056D01*
X49485385Y-97318364D01*
X49485396Y-97318369D01*
X49720506Y-97399083D01*
X49965707Y-97440000D01*
X50214293Y-97440000D01*
X50459493Y-97399083D01*
X50694603Y-97318369D01*
X50694614Y-97318364D01*
X50913228Y-97200057D01*
X50913231Y-97200055D01*
X50960056Y-97163609D01*
X50383165Y-96586718D01*
X50349680Y-96525395D01*
X50354664Y-96455703D01*
X50392588Y-96402853D01*
X50495739Y-96318934D01*
X50546052Y-96247655D01*
X50600793Y-96204239D01*
X50670318Y-96197310D01*
X50732553Y-96229068D01*
X50735037Y-96231484D01*
X51313434Y-96809882D01*
X51413731Y-96656369D01*
X51513587Y-96428717D01*
X51574612Y-96187738D01*
X51574614Y-96187729D01*
X51595141Y-95940005D01*
X55084859Y-95940005D01*
X55105385Y-96187729D01*
X55105387Y-96187738D01*
X55166412Y-96428717D01*
X55266266Y-96656364D01*
X55366564Y-96809882D01*
X55941482Y-96234964D01*
X56002805Y-96201479D01*
X56072496Y-96206463D01*
X56128430Y-96248334D01*
X56131514Y-96253249D01*
X56131549Y-96253225D01*
X56136441Y-96260156D01*
X56218624Y-96348152D01*
X56239638Y-96370652D01*
X56274698Y-96391973D01*
X56321749Y-96443623D01*
X56333407Y-96512513D01*
X56305970Y-96576770D01*
X56297950Y-96585601D01*
X55719942Y-97163609D01*
X55766768Y-97200055D01*
X55766770Y-97200056D01*
X55985385Y-97318364D01*
X55985396Y-97318369D01*
X56220506Y-97399083D01*
X56465707Y-97440000D01*
X56714293Y-97440000D01*
X56959493Y-97399083D01*
X57194603Y-97318369D01*
X57194614Y-97318364D01*
X57413228Y-97200057D01*
X57413231Y-97200055D01*
X57460056Y-97163609D01*
X56883165Y-96586718D01*
X56849680Y-96525395D01*
X56854664Y-96455703D01*
X56892588Y-96402853D01*
X56995739Y-96318934D01*
X57046052Y-96247655D01*
X57100793Y-96204239D01*
X57170318Y-96197310D01*
X57232553Y-96229068D01*
X57235037Y-96231484D01*
X57813434Y-96809882D01*
X57913731Y-96656369D01*
X58013587Y-96428717D01*
X58074612Y-96187738D01*
X58074614Y-96187729D01*
X58095141Y-95940005D01*
X58095141Y-95939994D01*
X58074614Y-95692270D01*
X58074612Y-95692261D01*
X58013587Y-95451282D01*
X57913731Y-95223630D01*
X57813434Y-95070116D01*
X57238517Y-95645034D01*
X57177194Y-95678519D01*
X57107502Y-95673535D01*
X57051569Y-95631663D01*
X57048486Y-95626750D01*
X57048451Y-95626775D01*
X57043558Y-95619843D01*
X56957944Y-95528174D01*
X56940362Y-95509348D01*
X56905331Y-95488045D01*
X56905300Y-95488026D01*
X56858248Y-95436374D01*
X56846591Y-95367484D01*
X56874029Y-95303227D01*
X56882048Y-95294397D01*
X57460056Y-94716389D01*
X57413229Y-94679943D01*
X57194614Y-94561635D01*
X57194603Y-94561630D01*
X56959493Y-94480916D01*
X56714293Y-94440000D01*
X56465707Y-94440000D01*
X56220506Y-94480916D01*
X55985396Y-94561630D01*
X55985390Y-94561632D01*
X55766761Y-94679949D01*
X55719942Y-94716388D01*
X55719942Y-94716390D01*
X56296833Y-95293280D01*
X56330318Y-95354603D01*
X56325334Y-95424294D01*
X56287408Y-95477148D01*
X56184262Y-95561064D01*
X56184258Y-95561069D01*
X56133947Y-95632343D01*
X56079204Y-95675760D01*
X56009679Y-95682689D01*
X55947444Y-95650930D01*
X55944962Y-95648515D01*
X55366564Y-95070116D01*
X55266267Y-95223632D01*
X55166412Y-95451282D01*
X55105387Y-95692261D01*
X55105385Y-95692270D01*
X55084859Y-95939994D01*
X55084859Y-95940005D01*
X51595141Y-95940005D01*
X51595141Y-95939994D01*
X51574614Y-95692270D01*
X51574612Y-95692261D01*
X51513587Y-95451282D01*
X51413731Y-95223630D01*
X51313434Y-95070116D01*
X50738517Y-95645034D01*
X50677194Y-95678519D01*
X50607502Y-95673535D01*
X50551569Y-95631663D01*
X50548486Y-95626750D01*
X50548451Y-95626775D01*
X50543558Y-95619843D01*
X50457944Y-95528174D01*
X50440362Y-95509348D01*
X50405331Y-95488045D01*
X50405300Y-95488026D01*
X50358248Y-95436374D01*
X50346591Y-95367484D01*
X50374029Y-95303227D01*
X50382048Y-95294397D01*
X50960056Y-94716389D01*
X50913229Y-94679943D01*
X50694614Y-94561635D01*
X50694603Y-94561630D01*
X50459493Y-94480916D01*
X50214293Y-94440000D01*
X49965707Y-94440000D01*
X49720506Y-94480916D01*
X49485396Y-94561630D01*
X49485390Y-94561632D01*
X49266761Y-94679949D01*
X49219942Y-94716388D01*
X49219942Y-94716390D01*
X49796833Y-95293280D01*
X49830318Y-95354603D01*
X49825334Y-95424294D01*
X49787408Y-95477148D01*
X49684262Y-95561064D01*
X49684258Y-95561069D01*
X49633947Y-95632343D01*
X49579204Y-95675760D01*
X49509679Y-95682689D01*
X49447444Y-95650930D01*
X49444962Y-95648515D01*
X48866564Y-95070116D01*
X48766267Y-95223632D01*
X48666412Y-95451282D01*
X48605387Y-95692261D01*
X48605385Y-95692270D01*
X48584859Y-95939994D01*
X48584859Y-95940005D01*
X45514471Y-95940005D01*
X45540568Y-95902734D01*
X45636739Y-95696496D01*
X45695635Y-95476692D01*
X45715468Y-95250000D01*
X45695635Y-95023308D01*
X45636739Y-94803504D01*
X45540568Y-94597266D01*
X45410047Y-94410861D01*
X45410045Y-94410858D01*
X45249141Y-94249954D01*
X45062734Y-94119432D01*
X45062732Y-94119431D01*
X44856497Y-94023261D01*
X44856488Y-94023258D01*
X44636697Y-93964366D01*
X44636693Y-93964365D01*
X44636692Y-93964365D01*
X44636691Y-93964364D01*
X44636686Y-93964364D01*
X44410002Y-93944532D01*
X44409998Y-93944532D01*
X44183313Y-93964364D01*
X44183302Y-93964366D01*
X43963511Y-94023258D01*
X43963502Y-94023261D01*
X43757267Y-94119431D01*
X43757265Y-94119432D01*
X43570858Y-94249954D01*
X43409954Y-94410858D01*
X43279432Y-94597265D01*
X43279431Y-94597267D01*
X43183261Y-94803502D01*
X43183258Y-94803511D01*
X43124366Y-95023302D01*
X43124364Y-95023313D01*
X43104532Y-95249998D01*
X43104532Y-95250001D01*
X42535500Y-95250001D01*
X42535500Y-91440001D01*
X45684532Y-91440001D01*
X45704364Y-91666686D01*
X45704366Y-91666697D01*
X45763258Y-91886488D01*
X45763261Y-91886497D01*
X45859431Y-92092732D01*
X45859432Y-92092734D01*
X45989954Y-92279141D01*
X46150858Y-92440045D01*
X46150861Y-92440047D01*
X46337266Y-92570568D01*
X46543504Y-92666739D01*
X46763308Y-92725635D01*
X46925230Y-92739801D01*
X46989998Y-92745468D01*
X46990000Y-92745468D01*
X46990002Y-92745468D01*
X47046672Y-92740509D01*
X47216692Y-92725635D01*
X47436496Y-92666739D01*
X47642734Y-92570568D01*
X47829139Y-92440047D01*
X47990047Y-92279139D01*
X48120568Y-92092734D01*
X48216739Y-91886496D01*
X48275635Y-91666692D01*
X48295468Y-91440005D01*
X48584357Y-91440005D01*
X48604890Y-91687812D01*
X48604892Y-91687824D01*
X48665936Y-91928881D01*
X48765826Y-92156606D01*
X48901833Y-92364782D01*
X48901836Y-92364785D01*
X49070256Y-92547738D01*
X49266491Y-92700474D01*
X49485190Y-92818828D01*
X49720386Y-92899571D01*
X49965665Y-92940500D01*
X50214335Y-92940500D01*
X50459614Y-92899571D01*
X50694810Y-92818828D01*
X50913509Y-92700474D01*
X51109744Y-92547738D01*
X51278164Y-92364785D01*
X51414173Y-92156607D01*
X51514063Y-91928881D01*
X51575108Y-91687821D01*
X51575109Y-91687812D01*
X51595643Y-91440005D01*
X55084357Y-91440005D01*
X55104890Y-91687812D01*
X55104892Y-91687824D01*
X55165936Y-91928881D01*
X55265826Y-92156606D01*
X55401833Y-92364782D01*
X55401836Y-92364785D01*
X55570256Y-92547738D01*
X55766491Y-92700474D01*
X55985190Y-92818828D01*
X56220386Y-92899571D01*
X56465665Y-92940500D01*
X56714335Y-92940500D01*
X56959614Y-92899571D01*
X57194810Y-92818828D01*
X57413509Y-92700474D01*
X57609744Y-92547738D01*
X57778164Y-92364785D01*
X57914173Y-92156607D01*
X58014063Y-91928881D01*
X58075108Y-91687821D01*
X58075109Y-91687812D01*
X58095643Y-91440005D01*
X58095643Y-91439994D01*
X58075109Y-91192187D01*
X58075107Y-91192175D01*
X58014063Y-90951118D01*
X57914173Y-90723393D01*
X57778166Y-90515217D01*
X57736540Y-90470000D01*
X60100000Y-90470000D01*
X60100000Y-91645000D01*
X61725000Y-91645000D01*
X61725000Y-90470000D01*
X62225000Y-90470000D01*
X62225000Y-91645000D01*
X64775000Y-91645000D01*
X65274999Y-91645000D01*
X66899999Y-91645000D01*
X66899999Y-90470000D01*
X65275000Y-90470000D01*
X65274999Y-91645000D01*
X64775000Y-91645000D01*
X64775000Y-90470000D01*
X62225000Y-90470000D01*
X61725000Y-90470000D01*
X60100000Y-90470000D01*
X57736540Y-90470000D01*
X57708880Y-90439953D01*
X57609744Y-90332262D01*
X57413509Y-90179526D01*
X57413507Y-90179525D01*
X57413506Y-90179524D01*
X57194811Y-90061172D01*
X57194802Y-90061169D01*
X56959616Y-89980429D01*
X56714335Y-89939500D01*
X56465665Y-89939500D01*
X56220383Y-89980429D01*
X55985197Y-90061169D01*
X55985188Y-90061172D01*
X55766493Y-90179524D01*
X55570257Y-90332261D01*
X55401833Y-90515217D01*
X55265826Y-90723393D01*
X55165936Y-90951118D01*
X55104892Y-91192175D01*
X55104890Y-91192187D01*
X55084357Y-91439994D01*
X55084357Y-91440005D01*
X51595643Y-91440005D01*
X51595643Y-91439994D01*
X51575109Y-91192187D01*
X51575107Y-91192175D01*
X51514063Y-90951118D01*
X51414173Y-90723393D01*
X51278166Y-90515217D01*
X51208880Y-90439953D01*
X51109744Y-90332262D01*
X50913509Y-90179526D01*
X50913507Y-90179525D01*
X50913506Y-90179524D01*
X50694811Y-90061172D01*
X50694802Y-90061169D01*
X50459616Y-89980429D01*
X50214335Y-89939500D01*
X49965665Y-89939500D01*
X49720383Y-89980429D01*
X49485197Y-90061169D01*
X49485188Y-90061172D01*
X49266493Y-90179524D01*
X49070257Y-90332261D01*
X48901833Y-90515217D01*
X48765826Y-90723393D01*
X48665936Y-90951118D01*
X48604892Y-91192175D01*
X48604890Y-91192187D01*
X48584357Y-91439994D01*
X48584357Y-91440005D01*
X48295468Y-91440005D01*
X48295468Y-91440000D01*
X48295467Y-91439994D01*
X48275635Y-91213313D01*
X48275635Y-91213308D01*
X48216739Y-90993504D01*
X48120568Y-90787266D01*
X47990047Y-90600861D01*
X47990045Y-90600858D01*
X47829141Y-90439954D01*
X47642734Y-90309432D01*
X47642732Y-90309431D01*
X47436497Y-90213261D01*
X47436488Y-90213258D01*
X47216697Y-90154366D01*
X47216693Y-90154365D01*
X47216692Y-90154365D01*
X47216691Y-90154364D01*
X47216686Y-90154364D01*
X46990002Y-90134532D01*
X46989998Y-90134532D01*
X46763313Y-90154364D01*
X46763302Y-90154366D01*
X46543511Y-90213258D01*
X46543502Y-90213261D01*
X46337267Y-90309431D01*
X46337265Y-90309432D01*
X46150858Y-90439954D01*
X45989954Y-90600858D01*
X45859432Y-90787265D01*
X45859431Y-90787267D01*
X45763261Y-90993502D01*
X45763258Y-90993511D01*
X45704366Y-91213302D01*
X45704364Y-91213313D01*
X45684532Y-91439998D01*
X45684532Y-91440001D01*
X42535500Y-91440001D01*
X42535500Y-88795000D01*
X60100000Y-88795000D01*
X60100000Y-89970000D01*
X61725000Y-89970000D01*
X61725000Y-88795000D01*
X62225000Y-88795000D01*
X62225000Y-89970000D01*
X64775000Y-89970000D01*
X65274999Y-89970000D01*
X66899999Y-89970000D01*
X66899999Y-89873023D01*
X66900000Y-89873002D01*
X66900000Y-88795000D01*
X65275000Y-88795000D01*
X65274999Y-89970000D01*
X64775000Y-89970000D01*
X64775000Y-88795000D01*
X62225000Y-88795000D01*
X61725000Y-88795000D01*
X60100000Y-88795000D01*
X42535500Y-88795000D01*
X42535500Y-86360001D01*
X43104532Y-86360001D01*
X43124364Y-86586686D01*
X43124366Y-86586697D01*
X43183258Y-86806488D01*
X43183261Y-86806497D01*
X43279431Y-87012732D01*
X43279432Y-87012734D01*
X43409954Y-87199141D01*
X43570858Y-87360045D01*
X43570861Y-87360047D01*
X43757266Y-87490568D01*
X43963504Y-87586739D01*
X44183308Y-87645635D01*
X44345230Y-87659801D01*
X44409998Y-87665468D01*
X44410000Y-87665468D01*
X44410002Y-87665468D01*
X44466673Y-87660509D01*
X44636692Y-87645635D01*
X44856496Y-87586739D01*
X45062734Y-87490568D01*
X45249139Y-87360047D01*
X45410047Y-87199139D01*
X45514471Y-87050005D01*
X48584859Y-87050005D01*
X48605385Y-87297729D01*
X48605387Y-87297738D01*
X48666412Y-87538717D01*
X48766266Y-87766364D01*
X48866564Y-87919882D01*
X49441482Y-87344964D01*
X49502805Y-87311479D01*
X49572496Y-87316463D01*
X49628430Y-87358334D01*
X49631514Y-87363249D01*
X49631549Y-87363225D01*
X49636441Y-87370156D01*
X49739637Y-87480651D01*
X49739638Y-87480652D01*
X49774698Y-87501973D01*
X49821749Y-87553623D01*
X49833407Y-87622513D01*
X49805970Y-87686770D01*
X49797950Y-87695601D01*
X49219942Y-88273609D01*
X49266768Y-88310055D01*
X49266770Y-88310056D01*
X49485385Y-88428364D01*
X49485396Y-88428369D01*
X49720506Y-88509083D01*
X49965707Y-88550000D01*
X50214293Y-88550000D01*
X50459493Y-88509083D01*
X50694603Y-88428369D01*
X50694614Y-88428364D01*
X50913228Y-88310057D01*
X50913231Y-88310055D01*
X50960056Y-88273609D01*
X50383165Y-87696718D01*
X50349680Y-87635395D01*
X50354664Y-87565703D01*
X50392588Y-87512853D01*
X50495739Y-87428934D01*
X50546052Y-87357655D01*
X50600793Y-87314239D01*
X50670318Y-87307310D01*
X50732553Y-87339068D01*
X50735037Y-87341484D01*
X51313434Y-87919882D01*
X51413731Y-87766369D01*
X51513587Y-87538717D01*
X51574612Y-87297738D01*
X51574614Y-87297729D01*
X51595141Y-87050005D01*
X55084859Y-87050005D01*
X55105385Y-87297729D01*
X55105387Y-87297738D01*
X55166412Y-87538717D01*
X55266266Y-87766364D01*
X55366564Y-87919882D01*
X55941482Y-87344964D01*
X56002805Y-87311479D01*
X56072496Y-87316463D01*
X56128430Y-87358334D01*
X56131514Y-87363249D01*
X56131549Y-87363225D01*
X56136441Y-87370156D01*
X56239637Y-87480651D01*
X56239638Y-87480652D01*
X56274698Y-87501973D01*
X56321749Y-87553623D01*
X56333407Y-87622513D01*
X56305970Y-87686770D01*
X56297950Y-87695601D01*
X55719942Y-88273609D01*
X55766768Y-88310055D01*
X55766770Y-88310056D01*
X55985385Y-88428364D01*
X55985396Y-88428369D01*
X56220506Y-88509083D01*
X56465707Y-88550000D01*
X56714293Y-88550000D01*
X56959493Y-88509083D01*
X57194603Y-88428369D01*
X57194614Y-88428364D01*
X57413228Y-88310057D01*
X57413231Y-88310055D01*
X57460056Y-88273609D01*
X56883165Y-87696718D01*
X56849680Y-87635395D01*
X56854664Y-87565703D01*
X56892588Y-87512853D01*
X56995739Y-87428934D01*
X57046052Y-87357655D01*
X57100793Y-87314239D01*
X57170318Y-87307310D01*
X57232553Y-87339068D01*
X57235037Y-87341484D01*
X57813434Y-87919882D01*
X57913731Y-87766369D01*
X58013587Y-87538717D01*
X58074612Y-87297738D01*
X58074614Y-87297729D01*
X58095141Y-87050005D01*
X58095141Y-87049994D01*
X58074614Y-86802270D01*
X58074612Y-86802261D01*
X58013587Y-86561282D01*
X57913731Y-86333630D01*
X57813434Y-86180116D01*
X57238517Y-86755034D01*
X57177194Y-86788519D01*
X57107502Y-86783535D01*
X57051569Y-86741663D01*
X57048486Y-86736750D01*
X57048451Y-86736775D01*
X57043558Y-86729843D01*
X56973836Y-86655190D01*
X56940362Y-86619348D01*
X56905300Y-86598026D01*
X56858248Y-86546374D01*
X56846591Y-86477484D01*
X56874029Y-86413227D01*
X56882048Y-86404397D01*
X57460056Y-85826389D01*
X57413229Y-85789943D01*
X57194614Y-85671635D01*
X57194603Y-85671630D01*
X56959493Y-85590916D01*
X56714293Y-85550000D01*
X56465707Y-85550000D01*
X56220506Y-85590916D01*
X55985396Y-85671630D01*
X55985390Y-85671632D01*
X55766761Y-85789949D01*
X55719942Y-85826388D01*
X55719942Y-85826390D01*
X56296833Y-86403280D01*
X56330318Y-86464603D01*
X56325334Y-86534294D01*
X56287408Y-86587148D01*
X56184262Y-86671064D01*
X56184258Y-86671069D01*
X56133947Y-86742343D01*
X56079204Y-86785760D01*
X56009679Y-86792689D01*
X55947444Y-86760930D01*
X55944962Y-86758515D01*
X55366564Y-86180116D01*
X55266267Y-86333632D01*
X55166412Y-86561282D01*
X55105387Y-86802261D01*
X55105385Y-86802270D01*
X55084859Y-87049994D01*
X55084859Y-87050005D01*
X51595141Y-87050005D01*
X51595141Y-87049994D01*
X51574614Y-86802270D01*
X51574612Y-86802261D01*
X51513587Y-86561282D01*
X51413731Y-86333630D01*
X51313434Y-86180116D01*
X50738517Y-86755034D01*
X50677194Y-86788519D01*
X50607502Y-86783535D01*
X50551569Y-86741663D01*
X50548486Y-86736750D01*
X50548451Y-86736775D01*
X50543558Y-86729843D01*
X50473836Y-86655190D01*
X50440362Y-86619348D01*
X50405300Y-86598026D01*
X50358248Y-86546374D01*
X50346591Y-86477484D01*
X50374029Y-86413227D01*
X50382048Y-86404397D01*
X50960056Y-85826389D01*
X50913229Y-85789943D01*
X50694614Y-85671635D01*
X50694603Y-85671630D01*
X50459493Y-85590916D01*
X50214293Y-85550000D01*
X49965707Y-85550000D01*
X49720506Y-85590916D01*
X49485396Y-85671630D01*
X49485390Y-85671632D01*
X49266761Y-85789949D01*
X49219942Y-85826388D01*
X49219942Y-85826390D01*
X49796833Y-86403280D01*
X49830318Y-86464603D01*
X49825334Y-86534294D01*
X49787408Y-86587148D01*
X49684262Y-86671064D01*
X49684258Y-86671069D01*
X49633947Y-86742343D01*
X49579204Y-86785760D01*
X49509679Y-86792689D01*
X49447444Y-86760930D01*
X49444962Y-86758515D01*
X48866564Y-86180116D01*
X48766267Y-86333632D01*
X48666412Y-86561282D01*
X48605387Y-86802261D01*
X48605385Y-86802270D01*
X48584859Y-87049994D01*
X48584859Y-87050005D01*
X45514471Y-87050005D01*
X45540568Y-87012734D01*
X45636739Y-86806496D01*
X45695635Y-86586692D01*
X45715468Y-86360000D01*
X45695635Y-86133308D01*
X45647766Y-85954658D01*
X45636741Y-85913511D01*
X45636738Y-85913502D01*
X45607683Y-85851194D01*
X45540568Y-85707266D01*
X45410047Y-85520861D01*
X45410045Y-85520858D01*
X45249141Y-85359954D01*
X45062734Y-85229432D01*
X45062732Y-85229431D01*
X44856497Y-85133261D01*
X44856488Y-85133258D01*
X44695048Y-85090001D01*
X59654532Y-85090001D01*
X59674364Y-85316686D01*
X59674366Y-85316697D01*
X59733258Y-85536488D01*
X59733261Y-85536497D01*
X59829431Y-85742732D01*
X59829432Y-85742734D01*
X59959954Y-85929141D01*
X60120858Y-86090045D01*
X60137312Y-86101566D01*
X60307266Y-86220568D01*
X60513504Y-86316739D01*
X60513509Y-86316740D01*
X60513511Y-86316741D01*
X60571717Y-86332337D01*
X60631377Y-86368701D01*
X60661907Y-86431548D01*
X60653613Y-86500924D01*
X60609128Y-86554802D01*
X60578629Y-86569818D01*
X60530877Y-86585641D01*
X60530874Y-86585642D01*
X60381653Y-86677683D01*
X60257683Y-86801653D01*
X60165642Y-86950874D01*
X60165640Y-86950879D01*
X60110494Y-87117301D01*
X60100000Y-87220011D01*
X60100000Y-88295000D01*
X61725000Y-88295000D01*
X61725000Y-86520000D01*
X61529928Y-86520000D01*
X61462889Y-86500315D01*
X61417134Y-86447511D01*
X61407190Y-86378353D01*
X61436215Y-86314797D01*
X61477521Y-86283618D01*
X61612734Y-86220568D01*
X61799139Y-86090047D01*
X61960047Y-85929139D01*
X62090568Y-85742734D01*
X62117618Y-85684724D01*
X62163790Y-85632285D01*
X62230983Y-85613133D01*
X62297865Y-85633348D01*
X62342382Y-85684725D01*
X62369429Y-85742728D01*
X62369432Y-85742734D01*
X62499954Y-85929141D01*
X62660858Y-86090045D01*
X62677312Y-86101566D01*
X62847266Y-86220568D01*
X62982477Y-86283618D01*
X63034916Y-86329790D01*
X63054068Y-86396984D01*
X63033852Y-86463865D01*
X62980687Y-86509200D01*
X62930072Y-86520000D01*
X62225000Y-86520000D01*
X62225000Y-88295000D01*
X64775000Y-88295000D01*
X64775000Y-86520000D01*
X65275000Y-86520000D01*
X65275000Y-88295000D01*
X66899999Y-88295000D01*
X66899999Y-87220028D01*
X66899998Y-87220013D01*
X66889827Y-87120448D01*
X66889741Y-87118761D01*
X66889505Y-87117300D01*
X66834359Y-86950879D01*
X66834357Y-86950874D01*
X66742316Y-86801653D01*
X66618346Y-86677683D01*
X66469125Y-86585642D01*
X66469120Y-86585640D01*
X66302698Y-86530494D01*
X66199988Y-86520000D01*
X65275000Y-86520000D01*
X64775000Y-86520000D01*
X64069928Y-86520000D01*
X64002889Y-86500315D01*
X63957134Y-86447511D01*
X63947190Y-86378353D01*
X63976215Y-86314797D01*
X64017521Y-86283618D01*
X64152734Y-86220568D01*
X64339139Y-86090047D01*
X64500047Y-85929139D01*
X64630568Y-85742734D01*
X64726739Y-85536496D01*
X64785635Y-85316692D01*
X64805468Y-85090001D01*
X66004532Y-85090001D01*
X66024364Y-85316686D01*
X66024366Y-85316697D01*
X66083258Y-85536488D01*
X66083261Y-85536497D01*
X66179431Y-85742732D01*
X66179432Y-85742734D01*
X66309954Y-85929141D01*
X66470858Y-86090045D01*
X66487312Y-86101566D01*
X66657266Y-86220568D01*
X66863504Y-86316739D01*
X67083308Y-86375635D01*
X67245230Y-86389801D01*
X67309998Y-86395468D01*
X67310000Y-86395468D01*
X67310002Y-86395468D01*
X67366672Y-86390509D01*
X67536692Y-86375635D01*
X67756496Y-86316739D01*
X67962734Y-86220568D01*
X68149139Y-86090047D01*
X68310047Y-85929139D01*
X68440568Y-85742734D01*
X68536739Y-85536496D01*
X68595635Y-85316692D01*
X68615468Y-85090000D01*
X68595635Y-84863308D01*
X68550916Y-84696415D01*
X68536741Y-84643511D01*
X68536738Y-84643502D01*
X68515695Y-84598376D01*
X68440568Y-84437266D01*
X68310047Y-84250861D01*
X68310045Y-84250858D01*
X68149141Y-84089954D01*
X67962734Y-83959432D01*
X67962728Y-83959429D01*
X67904725Y-83932382D01*
X67852285Y-83886210D01*
X67833133Y-83819017D01*
X67853348Y-83752135D01*
X67904725Y-83707618D01*
X67962734Y-83680568D01*
X68149139Y-83550047D01*
X68310047Y-83389139D01*
X68440568Y-83202734D01*
X68536739Y-82996496D01*
X68595635Y-82776692D01*
X68615468Y-82550000D01*
X68615467Y-82549994D01*
X68595635Y-82323313D01*
X68595635Y-82323308D01*
X68550916Y-82156415D01*
X68536741Y-82103511D01*
X68536738Y-82103502D01*
X68516974Y-82061118D01*
X68440568Y-81897266D01*
X68310047Y-81710861D01*
X68310045Y-81710858D01*
X68149141Y-81549954D01*
X67962734Y-81419432D01*
X67962732Y-81419431D01*
X67756497Y-81323261D01*
X67756488Y-81323258D01*
X67536697Y-81264366D01*
X67536693Y-81264365D01*
X67536692Y-81264365D01*
X67536691Y-81264364D01*
X67536686Y-81264364D01*
X67310002Y-81244532D01*
X67309998Y-81244532D01*
X67083313Y-81264364D01*
X67083302Y-81264366D01*
X66863511Y-81323258D01*
X66863502Y-81323261D01*
X66657267Y-81419431D01*
X66657265Y-81419432D01*
X66470858Y-81549954D01*
X66309954Y-81710858D01*
X66179432Y-81897265D01*
X66179431Y-81897267D01*
X66083261Y-82103502D01*
X66083258Y-82103511D01*
X66024366Y-82323302D01*
X66024364Y-82323313D01*
X66004532Y-82549998D01*
X66004532Y-82550001D01*
X66024364Y-82776686D01*
X66024366Y-82776697D01*
X66083258Y-82996488D01*
X66083261Y-82996497D01*
X66179431Y-83202732D01*
X66179432Y-83202734D01*
X66309954Y-83389141D01*
X66470858Y-83550045D01*
X66517693Y-83582839D01*
X66657266Y-83680568D01*
X66715275Y-83707618D01*
X66767714Y-83753791D01*
X66786866Y-83820984D01*
X66766650Y-83887865D01*
X66715275Y-83932382D01*
X66657267Y-83959431D01*
X66657265Y-83959432D01*
X66470858Y-84089954D01*
X66309954Y-84250858D01*
X66179432Y-84437265D01*
X66179431Y-84437267D01*
X66083261Y-84643502D01*
X66083258Y-84643511D01*
X66024366Y-84863302D01*
X66024364Y-84863313D01*
X66004532Y-85089998D01*
X66004532Y-85090001D01*
X64805468Y-85090001D01*
X64805468Y-85090000D01*
X64785635Y-84863308D01*
X64740916Y-84696415D01*
X64726741Y-84643511D01*
X64726738Y-84643502D01*
X64705695Y-84598376D01*
X64630568Y-84437266D01*
X64500047Y-84250861D01*
X64500045Y-84250858D01*
X64339141Y-84089954D01*
X64152734Y-83959432D01*
X64152732Y-83959431D01*
X63946497Y-83863261D01*
X63946488Y-83863258D01*
X63726697Y-83804366D01*
X63726693Y-83804365D01*
X63726692Y-83804365D01*
X63726691Y-83804364D01*
X63726686Y-83804364D01*
X63500002Y-83784532D01*
X63499998Y-83784532D01*
X63273313Y-83804364D01*
X63273302Y-83804366D01*
X63053511Y-83863258D01*
X63053502Y-83863261D01*
X62847267Y-83959431D01*
X62847265Y-83959432D01*
X62660858Y-84089954D01*
X62499954Y-84250858D01*
X62369432Y-84437265D01*
X62369431Y-84437267D01*
X62342382Y-84495275D01*
X62296209Y-84547714D01*
X62229016Y-84566866D01*
X62162135Y-84546650D01*
X62117618Y-84495275D01*
X62090568Y-84437266D01*
X61960047Y-84250861D01*
X61960045Y-84250858D01*
X61799141Y-84089954D01*
X61612734Y-83959432D01*
X61612732Y-83959431D01*
X61406497Y-83863261D01*
X61406488Y-83863258D01*
X61186697Y-83804366D01*
X61186693Y-83804365D01*
X61186692Y-83804365D01*
X61186691Y-83804364D01*
X61186686Y-83804364D01*
X60960002Y-83784532D01*
X60959998Y-83784532D01*
X60733313Y-83804364D01*
X60733302Y-83804366D01*
X60513511Y-83863258D01*
X60513502Y-83863261D01*
X60307267Y-83959431D01*
X60307265Y-83959432D01*
X60120858Y-84089954D01*
X59959954Y-84250858D01*
X59829432Y-84437265D01*
X59829431Y-84437267D01*
X59733261Y-84643502D01*
X59733258Y-84643511D01*
X59674366Y-84863302D01*
X59674364Y-84863313D01*
X59654532Y-85089998D01*
X59654532Y-85090001D01*
X44695048Y-85090001D01*
X44636697Y-85074366D01*
X44636693Y-85074365D01*
X44636692Y-85074365D01*
X44636691Y-85074364D01*
X44636686Y-85074364D01*
X44410002Y-85054532D01*
X44409998Y-85054532D01*
X44183313Y-85074364D01*
X44183302Y-85074366D01*
X43963511Y-85133258D01*
X43963502Y-85133261D01*
X43757267Y-85229431D01*
X43757265Y-85229432D01*
X43570858Y-85359954D01*
X43409954Y-85520858D01*
X43279432Y-85707265D01*
X43279431Y-85707267D01*
X43183261Y-85913502D01*
X43183258Y-85913511D01*
X43124366Y-86133302D01*
X43124364Y-86133313D01*
X43104532Y-86359998D01*
X43104532Y-86360001D01*
X42535500Y-86360001D01*
X42535500Y-82550001D01*
X45684532Y-82550001D01*
X45704364Y-82776686D01*
X45704366Y-82776697D01*
X45763258Y-82996488D01*
X45763261Y-82996497D01*
X45859431Y-83202732D01*
X45859432Y-83202734D01*
X45989954Y-83389141D01*
X46150858Y-83550045D01*
X46197693Y-83582839D01*
X46337266Y-83680568D01*
X46543504Y-83776739D01*
X46763308Y-83835635D01*
X46925230Y-83849801D01*
X46989998Y-83855468D01*
X46990000Y-83855468D01*
X46990002Y-83855468D01*
X47046672Y-83850509D01*
X47216692Y-83835635D01*
X47436496Y-83776739D01*
X47642734Y-83680568D01*
X47829139Y-83550047D01*
X47990047Y-83389139D01*
X48120568Y-83202734D01*
X48216739Y-82996496D01*
X48275635Y-82776692D01*
X48295468Y-82550005D01*
X48584357Y-82550005D01*
X48604890Y-82797812D01*
X48604892Y-82797824D01*
X48665936Y-83038881D01*
X48765826Y-83266606D01*
X48901833Y-83474782D01*
X48901836Y-83474785D01*
X49070256Y-83657738D01*
X49266491Y-83810474D01*
X49485190Y-83928828D01*
X49720386Y-84009571D01*
X49965665Y-84050500D01*
X50214335Y-84050500D01*
X50459614Y-84009571D01*
X50694810Y-83928828D01*
X50913509Y-83810474D01*
X51109744Y-83657738D01*
X51278164Y-83474785D01*
X51414173Y-83266607D01*
X51514063Y-83038881D01*
X51575108Y-82797821D01*
X51575109Y-82797812D01*
X51595643Y-82550005D01*
X55084357Y-82550005D01*
X55104890Y-82797812D01*
X55104892Y-82797824D01*
X55165936Y-83038881D01*
X55265826Y-83266606D01*
X55401833Y-83474782D01*
X55401836Y-83474785D01*
X55570256Y-83657738D01*
X55766491Y-83810474D01*
X55985190Y-83928828D01*
X56220386Y-84009571D01*
X56465665Y-84050500D01*
X56714335Y-84050500D01*
X56959614Y-84009571D01*
X57194810Y-83928828D01*
X57413509Y-83810474D01*
X57609744Y-83657738D01*
X57778164Y-83474785D01*
X57914173Y-83266607D01*
X58014063Y-83038881D01*
X58075108Y-82797821D01*
X58075109Y-82797812D01*
X58095643Y-82550005D01*
X58095643Y-82549994D01*
X58075109Y-82302187D01*
X58075107Y-82302175D01*
X58014063Y-82061118D01*
X57914173Y-81833393D01*
X57778166Y-81625217D01*
X57708880Y-81549953D01*
X57609744Y-81442262D01*
X57413509Y-81289526D01*
X57413507Y-81289525D01*
X57413506Y-81289524D01*
X57194811Y-81171172D01*
X57194802Y-81171169D01*
X56959616Y-81090429D01*
X56714335Y-81049500D01*
X56465665Y-81049500D01*
X56220383Y-81090429D01*
X55985197Y-81171169D01*
X55985188Y-81171172D01*
X55766493Y-81289524D01*
X55570257Y-81442261D01*
X55401833Y-81625217D01*
X55265826Y-81833393D01*
X55165936Y-82061118D01*
X55104892Y-82302175D01*
X55104890Y-82302187D01*
X55084357Y-82549994D01*
X55084357Y-82550005D01*
X51595643Y-82550005D01*
X51595643Y-82549994D01*
X51575109Y-82302187D01*
X51575107Y-82302175D01*
X51514063Y-82061118D01*
X51414173Y-81833393D01*
X51278166Y-81625217D01*
X51208880Y-81549953D01*
X51109744Y-81442262D01*
X50913509Y-81289526D01*
X50913507Y-81289525D01*
X50913506Y-81289524D01*
X50694811Y-81171172D01*
X50694802Y-81171169D01*
X50459616Y-81090429D01*
X50214335Y-81049500D01*
X49965665Y-81049500D01*
X49720383Y-81090429D01*
X49485197Y-81171169D01*
X49485188Y-81171172D01*
X49266493Y-81289524D01*
X49070257Y-81442261D01*
X48901833Y-81625217D01*
X48765826Y-81833393D01*
X48665936Y-82061118D01*
X48604892Y-82302175D01*
X48604890Y-82302187D01*
X48584357Y-82549994D01*
X48584357Y-82550005D01*
X48295468Y-82550005D01*
X48295468Y-82550000D01*
X48295467Y-82549994D01*
X48275635Y-82323313D01*
X48275635Y-82323308D01*
X48230916Y-82156415D01*
X48216741Y-82103511D01*
X48216738Y-82103502D01*
X48196974Y-82061118D01*
X48120568Y-81897266D01*
X47990047Y-81710861D01*
X47990045Y-81710858D01*
X47829141Y-81549954D01*
X47642734Y-81419432D01*
X47642732Y-81419431D01*
X47436497Y-81323261D01*
X47436488Y-81323258D01*
X47216697Y-81264366D01*
X47216693Y-81264365D01*
X47216692Y-81264365D01*
X47216691Y-81264364D01*
X47216686Y-81264364D01*
X46990002Y-81244532D01*
X46989998Y-81244532D01*
X46763313Y-81264364D01*
X46763302Y-81264366D01*
X46543511Y-81323258D01*
X46543502Y-81323261D01*
X46337267Y-81419431D01*
X46337265Y-81419432D01*
X46150858Y-81549954D01*
X45989954Y-81710858D01*
X45859432Y-81897265D01*
X45859431Y-81897267D01*
X45763261Y-82103502D01*
X45763258Y-82103511D01*
X45704366Y-82323302D01*
X45704364Y-82323313D01*
X45684532Y-82549998D01*
X45684532Y-82550001D01*
X42535500Y-82550001D01*
X42535500Y-80957844D01*
X59560000Y-80957844D01*
X59566401Y-81017372D01*
X59566403Y-81017379D01*
X59616645Y-81152086D01*
X59616649Y-81152093D01*
X59702809Y-81267187D01*
X59702812Y-81267190D01*
X59817906Y-81353350D01*
X59817913Y-81353354D01*
X59952620Y-81403596D01*
X59952627Y-81403598D01*
X60012155Y-81409999D01*
X60012172Y-81410000D01*
X60710000Y-81410000D01*
X60710000Y-80571821D01*
X60729685Y-80504782D01*
X60782489Y-80459027D01*
X60851647Y-80449083D01*
X60870547Y-80453329D01*
X60892173Y-80460000D01*
X60993723Y-80460000D01*
X60993724Y-80460000D01*
X61067519Y-80448877D01*
X61136742Y-80458350D01*
X61189857Y-80503744D01*
X61209997Y-80570648D01*
X61210000Y-80571492D01*
X61210000Y-81410000D01*
X61907828Y-81410000D01*
X61907844Y-81409999D01*
X61967372Y-81403598D01*
X61967379Y-81403596D01*
X62102086Y-81353354D01*
X62102093Y-81353350D01*
X62217187Y-81267190D01*
X62217190Y-81267187D01*
X62303350Y-81152093D01*
X62303355Y-81152084D01*
X62332075Y-81075081D01*
X62373945Y-81019147D01*
X62439409Y-80994729D01*
X62507682Y-81009580D01*
X62539484Y-81034428D01*
X62548216Y-81043913D01*
X62548219Y-81043915D01*
X62548222Y-81043918D01*
X62731365Y-81186464D01*
X62731371Y-81186468D01*
X62731374Y-81186470D01*
X62838663Y-81244532D01*
X62921804Y-81289526D01*
X62935497Y-81296936D01*
X63012179Y-81323261D01*
X63155015Y-81372297D01*
X63155017Y-81372297D01*
X63155019Y-81372298D01*
X63383951Y-81410500D01*
X63383952Y-81410500D01*
X63616048Y-81410500D01*
X63616049Y-81410500D01*
X63844981Y-81372298D01*
X64064503Y-81296936D01*
X64268626Y-81186470D01*
X64451784Y-81043913D01*
X64608979Y-80873153D01*
X64735924Y-80678849D01*
X64829157Y-80466300D01*
X64886134Y-80241305D01*
X64888189Y-80216505D01*
X64905300Y-80010006D01*
X64905300Y-80009993D01*
X64886135Y-79778702D01*
X64886133Y-79778691D01*
X64829157Y-79553699D01*
X64735924Y-79341151D01*
X64608983Y-79146852D01*
X64608980Y-79146849D01*
X64608979Y-79146847D01*
X64451784Y-78976087D01*
X64451779Y-78976083D01*
X64451777Y-78976081D01*
X64268634Y-78833535D01*
X64268628Y-78833531D01*
X64064504Y-78723064D01*
X64064495Y-78723061D01*
X63844984Y-78647702D01*
X63644268Y-78614209D01*
X63616049Y-78609500D01*
X63383951Y-78609500D01*
X63355732Y-78614209D01*
X63155015Y-78647702D01*
X62935504Y-78723061D01*
X62935495Y-78723064D01*
X62731371Y-78833531D01*
X62731365Y-78833535D01*
X62548222Y-78976081D01*
X62548215Y-78976087D01*
X62539484Y-78985572D01*
X62479595Y-79021561D01*
X62409757Y-79019458D01*
X62352143Y-78979932D01*
X62332075Y-78944918D01*
X62303355Y-78867915D01*
X62303350Y-78867906D01*
X62217190Y-78752812D01*
X62217187Y-78752809D01*
X62102093Y-78666649D01*
X62102086Y-78666645D01*
X61967379Y-78616403D01*
X61967372Y-78616401D01*
X61907844Y-78610000D01*
X61210000Y-78610000D01*
X61210000Y-79448178D01*
X61190315Y-79515217D01*
X61137511Y-79560972D01*
X61068353Y-79570916D01*
X61049454Y-79566670D01*
X61027829Y-79560000D01*
X61027827Y-79560000D01*
X60926276Y-79560000D01*
X60926268Y-79560000D01*
X60852481Y-79571122D01*
X60783256Y-79561649D01*
X60730143Y-79516254D01*
X60710003Y-79449350D01*
X60710000Y-79448507D01*
X60710000Y-78610000D01*
X60012155Y-78610000D01*
X59952627Y-78616401D01*
X59952620Y-78616403D01*
X59817913Y-78666645D01*
X59817906Y-78666649D01*
X59702812Y-78752809D01*
X59702809Y-78752812D01*
X59616649Y-78867906D01*
X59616645Y-78867913D01*
X59566403Y-79002620D01*
X59566401Y-79002627D01*
X59560000Y-79062155D01*
X59560000Y-79760000D01*
X60399997Y-79760000D01*
X60467036Y-79779685D01*
X60512791Y-79832489D01*
X60522735Y-79901647D01*
X60520888Y-79911592D01*
X60506189Y-79975992D01*
X60506189Y-79975993D01*
X60517021Y-80120532D01*
X60514920Y-80120689D01*
X60511405Y-80178139D01*
X60470110Y-80234499D01*
X60404899Y-80259587D01*
X60394784Y-80260000D01*
X59560000Y-80260000D01*
X59560000Y-80957844D01*
X42535500Y-80957844D01*
X42535500Y-77470001D01*
X43104532Y-77470001D01*
X43124364Y-77696686D01*
X43124366Y-77696697D01*
X43183258Y-77916488D01*
X43183261Y-77916497D01*
X43279431Y-78122732D01*
X43279432Y-78122734D01*
X43409954Y-78309141D01*
X43570858Y-78470045D01*
X43590691Y-78483932D01*
X43757266Y-78600568D01*
X43963504Y-78696739D01*
X44183308Y-78755635D01*
X44345230Y-78769801D01*
X44409998Y-78775468D01*
X44410000Y-78775468D01*
X44410002Y-78775468D01*
X44466673Y-78770509D01*
X44636692Y-78755635D01*
X44856496Y-78696739D01*
X45062734Y-78600568D01*
X45249139Y-78470047D01*
X45410047Y-78309139D01*
X45540568Y-78122734D01*
X45548835Y-78105005D01*
X48584859Y-78105005D01*
X48605385Y-78352729D01*
X48605387Y-78352738D01*
X48666412Y-78593717D01*
X48766266Y-78821364D01*
X48866564Y-78974882D01*
X49441482Y-78399964D01*
X49502805Y-78366479D01*
X49572496Y-78371463D01*
X49628430Y-78413334D01*
X49631514Y-78418249D01*
X49631549Y-78418225D01*
X49636441Y-78425156D01*
X49739637Y-78535651D01*
X49739638Y-78535652D01*
X49774698Y-78556973D01*
X49821749Y-78608623D01*
X49833407Y-78677513D01*
X49805970Y-78741770D01*
X49797950Y-78750601D01*
X49219942Y-79328609D01*
X49266768Y-79365055D01*
X49266770Y-79365056D01*
X49485385Y-79483364D01*
X49485396Y-79483369D01*
X49720506Y-79564083D01*
X49965707Y-79605000D01*
X50214293Y-79605000D01*
X50459493Y-79564083D01*
X50694603Y-79483369D01*
X50694614Y-79483364D01*
X50913228Y-79365057D01*
X50913231Y-79365055D01*
X50960056Y-79328609D01*
X50383165Y-78751718D01*
X50349680Y-78690395D01*
X50354664Y-78620703D01*
X50392588Y-78567853D01*
X50495739Y-78483934D01*
X50546052Y-78412655D01*
X50600793Y-78369239D01*
X50670318Y-78362310D01*
X50732553Y-78394068D01*
X50735037Y-78396484D01*
X51313434Y-78974882D01*
X51413731Y-78821369D01*
X51513587Y-78593717D01*
X51574612Y-78352738D01*
X51574614Y-78352729D01*
X51595141Y-78105005D01*
X55084859Y-78105005D01*
X55105385Y-78352729D01*
X55105387Y-78352738D01*
X55166412Y-78593717D01*
X55266266Y-78821364D01*
X55366564Y-78974882D01*
X55941482Y-78399964D01*
X56002805Y-78366479D01*
X56072496Y-78371463D01*
X56128430Y-78413334D01*
X56131514Y-78418249D01*
X56131549Y-78418225D01*
X56136441Y-78425156D01*
X56239637Y-78535651D01*
X56239638Y-78535652D01*
X56274698Y-78556973D01*
X56321749Y-78608623D01*
X56333407Y-78677513D01*
X56305970Y-78741770D01*
X56297950Y-78750601D01*
X55719942Y-79328609D01*
X55766768Y-79365055D01*
X55766770Y-79365056D01*
X55985385Y-79483364D01*
X55985396Y-79483369D01*
X56220506Y-79564083D01*
X56465707Y-79605000D01*
X56714293Y-79605000D01*
X56959493Y-79564083D01*
X57194603Y-79483369D01*
X57194614Y-79483364D01*
X57413228Y-79365057D01*
X57413231Y-79365055D01*
X57460056Y-79328609D01*
X56883165Y-78751718D01*
X56849680Y-78690395D01*
X56854664Y-78620703D01*
X56892588Y-78567853D01*
X56995739Y-78483934D01*
X57046052Y-78412655D01*
X57100793Y-78369239D01*
X57170318Y-78362310D01*
X57232553Y-78394068D01*
X57235037Y-78396484D01*
X57813434Y-78974882D01*
X57913731Y-78821369D01*
X58013587Y-78593717D01*
X58074612Y-78352738D01*
X58074614Y-78352729D01*
X58095141Y-78105005D01*
X58095141Y-78104994D01*
X58074614Y-77857270D01*
X58074612Y-77857261D01*
X58013587Y-77616282D01*
X57913731Y-77388630D01*
X57813434Y-77235116D01*
X57238517Y-77810034D01*
X57177194Y-77843519D01*
X57107502Y-77838535D01*
X57051569Y-77796663D01*
X57048486Y-77791750D01*
X57048451Y-77791775D01*
X57043558Y-77784843D01*
X56961234Y-77696697D01*
X56940362Y-77674348D01*
X56905300Y-77653026D01*
X56858248Y-77601374D01*
X56846591Y-77532484D01*
X56874029Y-77468227D01*
X56882048Y-77459397D01*
X57460056Y-76881389D01*
X57413229Y-76844943D01*
X57194614Y-76726635D01*
X57194603Y-76726630D01*
X56959493Y-76645916D01*
X56714293Y-76605000D01*
X56465707Y-76605000D01*
X56220506Y-76645916D01*
X55985396Y-76726630D01*
X55985390Y-76726632D01*
X55766761Y-76844949D01*
X55719942Y-76881388D01*
X55719942Y-76881390D01*
X56296833Y-77458280D01*
X56330318Y-77519603D01*
X56325334Y-77589294D01*
X56287408Y-77642148D01*
X56184262Y-77726064D01*
X56184258Y-77726069D01*
X56133947Y-77797343D01*
X56079204Y-77840760D01*
X56009679Y-77847689D01*
X55947444Y-77815930D01*
X55944962Y-77813515D01*
X55366564Y-77235116D01*
X55266267Y-77388632D01*
X55166412Y-77616282D01*
X55105387Y-77857261D01*
X55105385Y-77857270D01*
X55084859Y-78104994D01*
X55084859Y-78105005D01*
X51595141Y-78105005D01*
X51595141Y-78104994D01*
X51574614Y-77857270D01*
X51574612Y-77857261D01*
X51513587Y-77616282D01*
X51413731Y-77388630D01*
X51313434Y-77235116D01*
X50738517Y-77810034D01*
X50677194Y-77843519D01*
X50607502Y-77838535D01*
X50551569Y-77796663D01*
X50548486Y-77791750D01*
X50548451Y-77791775D01*
X50543558Y-77784843D01*
X50461234Y-77696697D01*
X50440362Y-77674348D01*
X50405300Y-77653026D01*
X50358248Y-77601374D01*
X50346591Y-77532484D01*
X50374029Y-77468227D01*
X50382048Y-77459397D01*
X50960056Y-76881389D01*
X50913229Y-76844943D01*
X50694614Y-76726635D01*
X50694603Y-76726630D01*
X50459493Y-76645916D01*
X50214293Y-76605000D01*
X49965707Y-76605000D01*
X49720506Y-76645916D01*
X49485396Y-76726630D01*
X49485390Y-76726632D01*
X49266761Y-76844949D01*
X49219942Y-76881388D01*
X49219942Y-76881390D01*
X49796833Y-77458280D01*
X49830318Y-77519603D01*
X49825334Y-77589294D01*
X49787408Y-77642148D01*
X49684262Y-77726064D01*
X49684258Y-77726069D01*
X49633947Y-77797343D01*
X49579204Y-77840760D01*
X49509679Y-77847689D01*
X49447444Y-77815930D01*
X49444962Y-77813515D01*
X48866564Y-77235116D01*
X48766267Y-77388632D01*
X48666412Y-77616282D01*
X48605387Y-77857261D01*
X48605385Y-77857270D01*
X48584859Y-78104994D01*
X48584859Y-78105005D01*
X45548835Y-78105005D01*
X45636739Y-77916496D01*
X45695635Y-77696692D01*
X45715468Y-77470000D01*
X45715362Y-77468793D01*
X45697880Y-77268967D01*
X45695635Y-77243308D01*
X45636739Y-77023504D01*
X45540568Y-76817266D01*
X45410047Y-76630861D01*
X45410045Y-76630858D01*
X45249141Y-76469954D01*
X45062734Y-76339432D01*
X45062732Y-76339431D01*
X44856497Y-76243261D01*
X44856488Y-76243258D01*
X44636697Y-76184366D01*
X44636693Y-76184365D01*
X44636692Y-76184365D01*
X44636691Y-76184364D01*
X44636686Y-76184364D01*
X44410002Y-76164532D01*
X44409998Y-76164532D01*
X44183313Y-76184364D01*
X44183302Y-76184366D01*
X43963511Y-76243258D01*
X43963502Y-76243261D01*
X43757267Y-76339431D01*
X43757265Y-76339432D01*
X43570858Y-76469954D01*
X43409954Y-76630858D01*
X43279432Y-76817265D01*
X43279431Y-76817267D01*
X43183261Y-77023502D01*
X43183258Y-77023511D01*
X43124366Y-77243302D01*
X43124364Y-77243313D01*
X43104532Y-77469998D01*
X43104532Y-77470001D01*
X42535500Y-77470001D01*
X42535500Y-73660001D01*
X45684532Y-73660001D01*
X45704364Y-73886686D01*
X45704366Y-73886697D01*
X45763258Y-74106488D01*
X45763261Y-74106497D01*
X45859431Y-74312732D01*
X45859432Y-74312734D01*
X45989954Y-74499141D01*
X46150858Y-74660045D01*
X46150861Y-74660047D01*
X46337266Y-74790568D01*
X46543504Y-74886739D01*
X46763308Y-74945635D01*
X46925230Y-74959801D01*
X46989998Y-74965468D01*
X46990000Y-74965468D01*
X46990002Y-74965468D01*
X47046672Y-74960509D01*
X47216692Y-74945635D01*
X47436496Y-74886739D01*
X47642734Y-74790568D01*
X47829139Y-74660047D01*
X47990047Y-74499139D01*
X48102612Y-74338377D01*
X48157189Y-74294752D01*
X48204188Y-74285500D01*
X48675131Y-74285500D01*
X48742170Y-74305185D01*
X48778940Y-74341679D01*
X48901833Y-74529782D01*
X48901836Y-74529785D01*
X49070256Y-74712738D01*
X49266491Y-74865474D01*
X49375840Y-74924650D01*
X49454933Y-74967454D01*
X49485190Y-74983828D01*
X49720386Y-75064571D01*
X49965665Y-75105500D01*
X50214335Y-75105500D01*
X50459614Y-75064571D01*
X50694810Y-74983828D01*
X50913509Y-74865474D01*
X51109744Y-74712738D01*
X51278164Y-74529785D01*
X51414173Y-74321607D01*
X51514063Y-74093881D01*
X51575108Y-73852821D01*
X51575109Y-73852812D01*
X51595643Y-73605005D01*
X55084357Y-73605005D01*
X55104890Y-73852812D01*
X55104892Y-73852824D01*
X55165936Y-74093881D01*
X55265826Y-74321606D01*
X55401833Y-74529782D01*
X55401836Y-74529785D01*
X55570256Y-74712738D01*
X55766491Y-74865474D01*
X55875840Y-74924650D01*
X55954933Y-74967454D01*
X55985190Y-74983828D01*
X56220386Y-75064571D01*
X56465665Y-75105500D01*
X56714335Y-75105500D01*
X56959614Y-75064571D01*
X57194810Y-74983828D01*
X57413509Y-74865474D01*
X57609744Y-74712738D01*
X57778164Y-74529785D01*
X57914173Y-74321607D01*
X58014063Y-74093881D01*
X58075108Y-73852821D01*
X58075109Y-73852812D01*
X58095643Y-73605005D01*
X58095643Y-73604994D01*
X58075109Y-73357187D01*
X58075107Y-73357175D01*
X58014063Y-73116118D01*
X57914173Y-72888393D01*
X57778166Y-72680217D01*
X57756557Y-72656744D01*
X57609744Y-72497262D01*
X57413509Y-72344526D01*
X57413507Y-72344525D01*
X57413506Y-72344524D01*
X57194811Y-72226172D01*
X57194802Y-72226169D01*
X56959616Y-72145429D01*
X56714335Y-72104500D01*
X56465665Y-72104500D01*
X56220383Y-72145429D01*
X55985197Y-72226169D01*
X55985188Y-72226172D01*
X55766493Y-72344524D01*
X55570257Y-72497261D01*
X55401833Y-72680217D01*
X55265826Y-72888393D01*
X55165936Y-73116118D01*
X55104892Y-73357175D01*
X55104890Y-73357187D01*
X55084357Y-73604994D01*
X55084357Y-73605005D01*
X51595643Y-73605005D01*
X51595643Y-73604994D01*
X51575109Y-73357187D01*
X51575107Y-73357175D01*
X51514063Y-73116118D01*
X51414173Y-72888393D01*
X51278166Y-72680217D01*
X51256557Y-72656744D01*
X51109744Y-72497262D01*
X50913509Y-72344526D01*
X50913507Y-72344525D01*
X50913506Y-72344524D01*
X50694811Y-72226172D01*
X50694802Y-72226169D01*
X50459616Y-72145429D01*
X50214335Y-72104500D01*
X49965665Y-72104500D01*
X49720383Y-72145429D01*
X49485197Y-72226169D01*
X49485188Y-72226172D01*
X49266493Y-72344524D01*
X49070257Y-72497261D01*
X48901833Y-72680217D01*
X48765826Y-72888393D01*
X48734281Y-72960310D01*
X48689325Y-73013796D01*
X48622589Y-73034486D01*
X48620725Y-73034500D01*
X48204188Y-73034500D01*
X48137149Y-73014815D01*
X48102613Y-72981623D01*
X47990045Y-72820858D01*
X47829141Y-72659954D01*
X47642734Y-72529432D01*
X47642732Y-72529431D01*
X47436497Y-72433261D01*
X47436488Y-72433258D01*
X47216697Y-72374366D01*
X47216693Y-72374365D01*
X47216692Y-72374365D01*
X47216691Y-72374364D01*
X47216686Y-72374364D01*
X46990002Y-72354532D01*
X46989998Y-72354532D01*
X46763313Y-72374364D01*
X46763302Y-72374366D01*
X46543511Y-72433258D01*
X46543502Y-72433261D01*
X46337267Y-72529431D01*
X46337265Y-72529432D01*
X46150858Y-72659954D01*
X45989954Y-72820858D01*
X45859432Y-73007265D01*
X45859431Y-73007267D01*
X45763261Y-73213502D01*
X45763258Y-73213511D01*
X45704366Y-73433302D01*
X45704364Y-73433313D01*
X45684532Y-73659998D01*
X45684532Y-73660001D01*
X42535500Y-73660001D01*
X42535500Y-70389452D01*
X42555185Y-70322413D01*
X42607989Y-70276658D01*
X42677147Y-70266714D01*
X42740703Y-70295739D01*
X42747181Y-70301771D01*
X43949197Y-71503788D01*
X43959022Y-71516051D01*
X43959243Y-71515869D01*
X43964214Y-71521878D01*
X43990217Y-71546295D01*
X44014635Y-71569226D01*
X44035529Y-71590120D01*
X44041011Y-71594373D01*
X44045443Y-71598157D01*
X44079418Y-71630062D01*
X44096976Y-71639714D01*
X44113235Y-71650395D01*
X44129064Y-71662673D01*
X44171838Y-71681182D01*
X44177056Y-71683738D01*
X44217908Y-71706197D01*
X44237316Y-71711180D01*
X44255717Y-71717480D01*
X44274104Y-71725437D01*
X44317488Y-71732308D01*
X44320119Y-71732725D01*
X44325839Y-71733909D01*
X44370981Y-71745500D01*
X44391016Y-71745500D01*
X44410414Y-71747026D01*
X44430194Y-71750159D01*
X44430195Y-71750160D01*
X44430195Y-71750159D01*
X44430196Y-71750160D01*
X44476583Y-71745775D01*
X44482422Y-71745500D01*
X58109548Y-71745500D01*
X58176587Y-71765185D01*
X58197229Y-71781819D01*
X64269197Y-77853788D01*
X64279022Y-77866051D01*
X64279243Y-77865869D01*
X64284214Y-77871878D01*
X64310217Y-77896295D01*
X64334635Y-77919226D01*
X64355529Y-77940120D01*
X64361011Y-77944373D01*
X64365443Y-77948157D01*
X64399418Y-77980062D01*
X64416976Y-77989714D01*
X64433235Y-78000395D01*
X64449064Y-78012673D01*
X64491838Y-78031182D01*
X64497056Y-78033738D01*
X64537908Y-78056197D01*
X64557316Y-78061180D01*
X64575717Y-78067480D01*
X64594104Y-78075437D01*
X64637488Y-78082308D01*
X64640119Y-78082725D01*
X64645839Y-78083909D01*
X64690981Y-78095500D01*
X64711016Y-78095500D01*
X64730414Y-78097026D01*
X64750194Y-78100159D01*
X64750195Y-78100160D01*
X64750195Y-78100159D01*
X64750196Y-78100160D01*
X64796583Y-78095775D01*
X64802422Y-78095500D01*
X66059808Y-78095500D01*
X66126847Y-78115185D01*
X66172602Y-78167989D01*
X66182546Y-78237147D01*
X66169166Y-78277953D01*
X66132978Y-78345654D01*
X66074337Y-78538968D01*
X66054538Y-78739999D01*
X66074337Y-78941031D01*
X66132978Y-79134345D01*
X66228198Y-79312488D01*
X66228203Y-79312495D01*
X66356352Y-79468647D01*
X66459991Y-79553700D01*
X66512506Y-79596798D01*
X66512509Y-79596799D01*
X66512511Y-79596801D01*
X66690654Y-79692021D01*
X66690656Y-79692021D01*
X66690659Y-79692023D01*
X66883967Y-79750662D01*
X67034620Y-79765500D01*
X67034623Y-79765500D01*
X67585377Y-79765500D01*
X67585380Y-79765500D01*
X67736033Y-79750662D01*
X67929341Y-79692023D01*
X68107494Y-79596798D01*
X68263647Y-79468647D01*
X68391798Y-79312494D01*
X68480336Y-79146852D01*
X68487021Y-79134345D01*
X68487021Y-79134344D01*
X68487023Y-79134341D01*
X68545662Y-78941033D01*
X68565462Y-78740000D01*
X68545662Y-78538967D01*
X68487023Y-78345659D01*
X68391798Y-78167506D01*
X68391794Y-78167502D01*
X68389631Y-78163454D01*
X68375389Y-78095051D01*
X68389631Y-78046546D01*
X68391794Y-78042498D01*
X68391798Y-78042494D01*
X68487023Y-77864341D01*
X68545662Y-77671033D01*
X68565462Y-77470000D01*
X68545662Y-77268967D01*
X68487023Y-77075659D01*
X68487021Y-77075656D01*
X68486694Y-77074576D01*
X68486070Y-77004709D01*
X68500469Y-76975623D01*
X68499544Y-76975118D01*
X68503792Y-76967335D01*
X68503796Y-76967331D01*
X68526609Y-76906165D01*
X68568479Y-76850233D01*
X68633943Y-76825816D01*
X68642790Y-76825500D01*
X71175812Y-76825500D01*
X71242851Y-76845185D01*
X71277387Y-76878377D01*
X71389954Y-77039141D01*
X71550858Y-77200045D01*
X71550861Y-77200047D01*
X71737266Y-77330568D01*
X71943504Y-77426739D01*
X72163308Y-77485635D01*
X72325230Y-77499801D01*
X72389998Y-77505468D01*
X72390000Y-77505468D01*
X72390002Y-77505468D01*
X72446672Y-77500509D01*
X72616692Y-77485635D01*
X72836496Y-77426739D01*
X73042734Y-77330568D01*
X73229139Y-77200047D01*
X73390047Y-77039139D01*
X73483154Y-76906167D01*
X73502613Y-76878377D01*
X73557189Y-76834752D01*
X73604188Y-76825500D01*
X74985812Y-76825500D01*
X75052851Y-76845185D01*
X75087387Y-76878377D01*
X75199954Y-77039141D01*
X75360858Y-77200045D01*
X75360861Y-77200047D01*
X75547266Y-77330568D01*
X75753504Y-77426739D01*
X75973308Y-77485635D01*
X76135230Y-77499801D01*
X76199998Y-77505468D01*
X76200000Y-77505468D01*
X76200002Y-77505468D01*
X76256672Y-77500509D01*
X76426692Y-77485635D01*
X76646496Y-77426739D01*
X76852734Y-77330568D01*
X77039139Y-77200047D01*
X77200047Y-77039139D01*
X77293154Y-76906167D01*
X77312613Y-76878377D01*
X77367189Y-76834752D01*
X77414188Y-76825500D01*
X79215501Y-76825500D01*
X79282540Y-76845185D01*
X79328295Y-76897989D01*
X79339501Y-76949500D01*
X79339501Y-77072876D01*
X79345908Y-77132483D01*
X79396202Y-77267328D01*
X79396206Y-77267335D01*
X79482452Y-77382544D01*
X79482455Y-77382547D01*
X79597664Y-77468793D01*
X79597671Y-77468797D01*
X79729081Y-77517810D01*
X79785015Y-77559681D01*
X79809432Y-77625145D01*
X79794580Y-77693418D01*
X79773430Y-77721673D01*
X79651503Y-77843600D01*
X79515965Y-78037169D01*
X79515964Y-78037171D01*
X79416098Y-78251335D01*
X79416094Y-78251344D01*
X79354938Y-78479586D01*
X79354936Y-78479596D01*
X79334341Y-78714999D01*
X79334341Y-78715000D01*
X79354936Y-78950403D01*
X79354938Y-78950413D01*
X79416094Y-79178655D01*
X79416096Y-79178659D01*
X79416097Y-79178663D01*
X79478501Y-79312488D01*
X79515965Y-79392830D01*
X79515967Y-79392834D01*
X79579361Y-79483369D01*
X79643616Y-79575135D01*
X79651501Y-79586395D01*
X79651506Y-79586402D01*
X79818597Y-79753493D01*
X79818603Y-79753498D01*
X80004158Y-79883425D01*
X80047783Y-79938002D01*
X80054977Y-80007500D01*
X80023454Y-80069855D01*
X80004158Y-80086575D01*
X79818597Y-80216505D01*
X79651505Y-80383597D01*
X79515965Y-80577169D01*
X79515964Y-80577171D01*
X79416098Y-80791335D01*
X79416094Y-80791344D01*
X79354938Y-81019586D01*
X79354936Y-81019596D01*
X79334341Y-81254999D01*
X79334341Y-81255000D01*
X79354936Y-81490403D01*
X79354938Y-81490413D01*
X79416094Y-81718655D01*
X79416096Y-81718659D01*
X79416097Y-81718663D01*
X79469597Y-81833393D01*
X79515965Y-81932830D01*
X79515967Y-81932834D01*
X79651501Y-82126395D01*
X79651506Y-82126402D01*
X79818597Y-82293493D01*
X79818603Y-82293498D01*
X80004158Y-82423425D01*
X80047783Y-82478002D01*
X80054977Y-82547500D01*
X80023454Y-82609855D01*
X80004158Y-82626575D01*
X79818597Y-82756505D01*
X79651506Y-82923596D01*
X79603874Y-82991623D01*
X79549297Y-83035248D01*
X79502299Y-83044500D01*
X72478705Y-83044500D01*
X72460735Y-83043191D01*
X72436972Y-83039710D01*
X72391533Y-83043686D01*
X72384931Y-83044264D01*
X72379530Y-83044500D01*
X72371289Y-83044500D01*
X72349579Y-83047037D01*
X72338724Y-83048306D01*
X72323419Y-83049645D01*
X72262199Y-83055001D01*
X72255132Y-83056460D01*
X72255120Y-83056404D01*
X72247763Y-83058035D01*
X72247777Y-83058092D01*
X72240743Y-83059759D01*
X72168575Y-83086025D01*
X72095675Y-83110181D01*
X72089126Y-83113236D01*
X72089101Y-83113183D01*
X72082308Y-83116471D01*
X72082334Y-83116523D01*
X72075880Y-83119764D01*
X72011708Y-83161971D01*
X71946347Y-83202285D01*
X71940683Y-83206765D01*
X71940647Y-83206719D01*
X71934798Y-83211484D01*
X71934835Y-83211528D01*
X71929310Y-83216164D01*
X71876597Y-83272035D01*
X69364358Y-85784272D01*
X69350729Y-85796051D01*
X69331468Y-85810390D01*
X69297898Y-85850397D01*
X69294253Y-85854376D01*
X69288409Y-85860222D01*
X69268059Y-85885959D01*
X69218695Y-85944789D01*
X69214729Y-85950819D01*
X69214682Y-85950788D01*
X69210630Y-85957147D01*
X69210679Y-85957177D01*
X69206889Y-85963321D01*
X69174424Y-86032941D01*
X69139960Y-86101566D01*
X69137488Y-86108357D01*
X69137432Y-86108336D01*
X69134960Y-86115450D01*
X69135015Y-86115469D01*
X69132742Y-86122327D01*
X69130474Y-86133313D01*
X69117207Y-86197565D01*
X69108370Y-86234852D01*
X69099498Y-86272286D01*
X69098661Y-86279454D01*
X69098601Y-86279447D01*
X69097835Y-86286945D01*
X69097895Y-86286951D01*
X69097265Y-86294140D01*
X69099500Y-86370916D01*
X69099500Y-91712770D01*
X69079815Y-91779809D01*
X69063181Y-91800451D01*
X67035451Y-93828181D01*
X66974128Y-93861666D01*
X66947770Y-93864500D01*
X66815525Y-93864500D01*
X66748486Y-93844815D01*
X66702731Y-93792011D01*
X66692787Y-93722853D01*
X66721812Y-93659297D01*
X66727844Y-93652819D01*
X66742316Y-93638346D01*
X66834357Y-93489125D01*
X66834359Y-93489120D01*
X66889505Y-93322698D01*
X66899999Y-93219988D01*
X66900000Y-93219975D01*
X66900000Y-92145000D01*
X60100000Y-92145000D01*
X60100000Y-93219985D01*
X60100004Y-93220018D01*
X60110494Y-93322699D01*
X60165640Y-93489120D01*
X60165642Y-93489125D01*
X60257683Y-93638346D01*
X60381653Y-93762316D01*
X60530874Y-93854357D01*
X60530879Y-93854359D01*
X60697302Y-93909506D01*
X60697300Y-93909506D01*
X60756134Y-93915516D01*
X60767124Y-93920000D01*
X60796858Y-93920000D01*
X60803163Y-93920321D01*
X60813462Y-93921373D01*
X60821419Y-93920000D01*
X60851375Y-93920000D01*
X60851384Y-93919999D01*
X61564271Y-93919999D01*
X61631310Y-93939684D01*
X61677065Y-93992488D01*
X61687009Y-94061646D01*
X61657984Y-94125202D01*
X61651952Y-94131680D01*
X60900230Y-94883400D01*
X60838907Y-94916885D01*
X60823112Y-94918991D01*
X60823132Y-94919180D01*
X60717202Y-94930001D01*
X60717200Y-94930001D01*
X60550668Y-94985185D01*
X60550663Y-94985187D01*
X60401342Y-95077289D01*
X60277289Y-95201342D01*
X60185187Y-95350663D01*
X60185185Y-95350668D01*
X60164047Y-95414458D01*
X60130001Y-95517203D01*
X60130001Y-95517204D01*
X60130000Y-95517204D01*
X60119500Y-95619983D01*
X60119500Y-97420001D01*
X60119501Y-97420018D01*
X60130000Y-97522796D01*
X60130001Y-97522799D01*
X60185185Y-97689331D01*
X60185187Y-97689336D01*
X60185245Y-97689430D01*
X60277288Y-97838656D01*
X60401344Y-97962712D01*
X60410591Y-97968416D01*
X60457318Y-98020360D01*
X60469500Y-98073957D01*
X60469500Y-99286294D01*
X60468191Y-99304263D01*
X60464710Y-99328025D01*
X60469264Y-99380064D01*
X60469500Y-99385470D01*
X60469500Y-99393709D01*
X60473306Y-99426274D01*
X60480000Y-99502791D01*
X60481461Y-99509867D01*
X60481403Y-99509878D01*
X60483034Y-99517237D01*
X60483092Y-99517224D01*
X60484757Y-99524250D01*
X60511025Y-99596424D01*
X60535185Y-99669331D01*
X60538236Y-99675874D01*
X60538182Y-99675898D01*
X60541470Y-99682688D01*
X60541521Y-99682663D01*
X60544761Y-99689113D01*
X60544762Y-99689114D01*
X60544763Y-99689117D01*
X60566116Y-99721583D01*
X60586965Y-99753283D01*
X60627287Y-99818655D01*
X60631766Y-99824319D01*
X60631719Y-99824356D01*
X60636482Y-99830202D01*
X60636528Y-99830164D01*
X60641173Y-99835700D01*
X60697019Y-99888387D01*
X61413180Y-100604548D01*
X61446665Y-100665871D01*
X61449499Y-100692229D01*
X61449499Y-100743125D01*
X61429814Y-100810164D01*
X61413183Y-100830804D01*
X61402031Y-100841956D01*
X61402030Y-100841956D01*
X61313001Y-100986294D01*
X61312996Y-100986305D01*
X61259651Y-101147290D01*
X61249500Y-101246647D01*
X61249500Y-105393337D01*
X61249501Y-105393355D01*
X61259650Y-105492707D01*
X61259651Y-105492710D01*
X61312996Y-105653694D01*
X61313001Y-105653705D01*
X61402029Y-105798040D01*
X61402032Y-105798044D01*
X61521955Y-105917967D01*
X61521959Y-105917970D01*
X61666294Y-106006998D01*
X61666297Y-106006999D01*
X61666303Y-106007003D01*
X61827292Y-106060349D01*
X61926655Y-106070500D01*
X62473344Y-106070499D01*
X62473352Y-106070498D01*
X62473355Y-106070498D01*
X62527760Y-106064940D01*
X62572708Y-106060349D01*
X62733697Y-106007003D01*
X62878044Y-105917968D01*
X62997968Y-105798044D01*
X63087003Y-105653697D01*
X63140349Y-105492708D01*
X63150500Y-105393345D01*
X63150499Y-103570000D01*
X63850001Y-103570000D01*
X63850001Y-105393322D01*
X63860144Y-105492607D01*
X63913452Y-105653481D01*
X63913457Y-105653492D01*
X64002424Y-105797728D01*
X64002427Y-105797732D01*
X64122267Y-105917572D01*
X64122271Y-105917575D01*
X64266507Y-106006542D01*
X64266518Y-106006547D01*
X64427393Y-106059855D01*
X64526683Y-106069999D01*
X64550000Y-106069998D01*
X64550000Y-103570000D01*
X65050000Y-103570000D01*
X65050000Y-106069999D01*
X65073308Y-106069999D01*
X65073322Y-106069998D01*
X65172607Y-106059855D01*
X65333481Y-106006547D01*
X65333492Y-106006542D01*
X65477728Y-105917575D01*
X65477732Y-105917572D01*
X65597572Y-105797732D01*
X65597575Y-105797728D01*
X65686542Y-105653492D01*
X65686547Y-105653481D01*
X65739855Y-105492606D01*
X65749999Y-105393322D01*
X65750000Y-105393309D01*
X65750000Y-103570000D01*
X65050000Y-103570000D01*
X64550000Y-103570000D01*
X63850001Y-103570000D01*
X63150499Y-103570000D01*
X63150499Y-103070000D01*
X63850000Y-103070000D01*
X64550000Y-103070000D01*
X64550000Y-100570000D01*
X65050000Y-100570000D01*
X65050000Y-103070000D01*
X65749999Y-103070000D01*
X65749999Y-101246692D01*
X65749998Y-101246677D01*
X65739855Y-101147392D01*
X65686547Y-100986518D01*
X65686542Y-100986507D01*
X65597575Y-100842271D01*
X65597572Y-100842267D01*
X65477732Y-100722427D01*
X65477728Y-100722424D01*
X65333492Y-100633457D01*
X65333481Y-100633452D01*
X65172606Y-100580144D01*
X65073322Y-100570000D01*
X65050000Y-100570000D01*
X64550000Y-100570000D01*
X64550000Y-100569999D01*
X64526693Y-100570000D01*
X64526674Y-100570001D01*
X64427392Y-100580144D01*
X64266518Y-100633452D01*
X64266507Y-100633457D01*
X64122271Y-100722424D01*
X64122267Y-100722427D01*
X64002427Y-100842267D01*
X64002424Y-100842271D01*
X63913457Y-100986507D01*
X63913452Y-100986518D01*
X63860144Y-101147393D01*
X63850000Y-101246677D01*
X63850000Y-103070000D01*
X63150499Y-103070000D01*
X63150499Y-101246656D01*
X63144454Y-101187483D01*
X63140349Y-101147292D01*
X63140348Y-101147289D01*
X63087074Y-100986518D01*
X63087003Y-100986303D01*
X63086999Y-100986297D01*
X63086998Y-100986294D01*
X62997969Y-100841956D01*
X62986818Y-100830805D01*
X62953333Y-100769482D01*
X62950499Y-100743132D01*
X62950499Y-100393703D01*
X62951809Y-100375729D01*
X62955289Y-100351975D01*
X62950736Y-100299939D01*
X62950500Y-100294532D01*
X62950500Y-100286296D01*
X62950500Y-100286291D01*
X62946691Y-100253705D01*
X62939998Y-100177203D01*
X62939995Y-100177194D01*
X62938538Y-100170135D01*
X62938598Y-100170122D01*
X62936965Y-100162757D01*
X62936906Y-100162772D01*
X62935241Y-100155749D01*
X62935241Y-100155745D01*
X62908971Y-100083568D01*
X62884814Y-100010665D01*
X62884812Y-100010662D01*
X62881761Y-100004118D01*
X62881815Y-100004092D01*
X62878533Y-99997312D01*
X62878480Y-99997340D01*
X62875238Y-99990886D01*
X62875237Y-99990883D01*
X62833038Y-99926723D01*
X62792712Y-99861344D01*
X62792711Y-99861343D01*
X62792710Y-99861341D01*
X62788234Y-99855681D01*
X62788280Y-99855643D01*
X62783519Y-99849799D01*
X62783474Y-99849838D01*
X62778834Y-99844308D01*
X62778664Y-99844148D01*
X62763843Y-99830164D01*
X62722982Y-99791613D01*
X62006818Y-99075450D01*
X61973333Y-99014127D01*
X61970499Y-98987769D01*
X61970499Y-98527784D01*
X61970499Y-98073953D01*
X61990184Y-98006918D01*
X62029407Y-97968416D01*
X62038656Y-97962712D01*
X62162712Y-97838656D01*
X62254755Y-97689428D01*
X62306701Y-97642705D01*
X62375664Y-97631482D01*
X62439746Y-97659325D01*
X62465832Y-97689429D01*
X62557684Y-97838345D01*
X62681654Y-97962315D01*
X62830875Y-98054356D01*
X62830880Y-98054358D01*
X62997302Y-98109505D01*
X62997309Y-98109506D01*
X63100019Y-98119999D01*
X63249999Y-98119999D01*
X63250000Y-98119998D01*
X63250000Y-96394000D01*
X63269685Y-96326961D01*
X63322489Y-96281206D01*
X63374000Y-96270000D01*
X63626000Y-96270000D01*
X63693039Y-96289685D01*
X63738794Y-96342489D01*
X63750000Y-96394000D01*
X63750000Y-98119999D01*
X63899972Y-98119999D01*
X63899986Y-98119998D01*
X64002697Y-98109505D01*
X64169119Y-98054358D01*
X64169124Y-98054356D01*
X64318345Y-97962315D01*
X64442317Y-97838343D01*
X64534167Y-97689430D01*
X64586115Y-97642705D01*
X64655077Y-97631482D01*
X64719159Y-97659325D01*
X64745243Y-97689427D01*
X64821177Y-97812537D01*
X64839617Y-97879926D01*
X64818695Y-97946590D01*
X64803319Y-97965312D01*
X64617229Y-98151402D01*
X64555906Y-98184887D01*
X64555330Y-98185011D01*
X64490196Y-98198856D01*
X64490192Y-98198857D01*
X64317270Y-98275848D01*
X64317265Y-98275851D01*
X64164129Y-98387111D01*
X64037466Y-98527785D01*
X63942821Y-98691715D01*
X63942818Y-98691722D01*
X63890947Y-98851367D01*
X63884326Y-98871744D01*
X63864540Y-99060000D01*
X63884326Y-99248256D01*
X63884327Y-99248259D01*
X63942818Y-99428277D01*
X63942821Y-99428284D01*
X64037467Y-99592216D01*
X64164128Y-99732887D01*
X64164129Y-99732888D01*
X64317265Y-99844148D01*
X64317270Y-99844151D01*
X64490192Y-99921142D01*
X64490197Y-99921144D01*
X64675354Y-99960500D01*
X64675355Y-99960500D01*
X64864644Y-99960500D01*
X64864646Y-99960500D01*
X65049803Y-99921144D01*
X65222730Y-99844151D01*
X65375871Y-99732888D01*
X65502533Y-99592216D01*
X65597179Y-99428284D01*
X65652522Y-99257955D01*
X65682769Y-99208597D01*
X65952318Y-98939047D01*
X66013641Y-98905563D01*
X66083333Y-98910547D01*
X66127680Y-98939048D01*
X67793181Y-100604549D01*
X67826666Y-100665872D01*
X67829500Y-100692230D01*
X67829500Y-107886294D01*
X67828191Y-107904263D01*
X67824710Y-107928025D01*
X67829264Y-107980064D01*
X67829500Y-107985470D01*
X67829500Y-107993709D01*
X67833306Y-108026275D01*
X67835392Y-108050126D01*
X67821624Y-108118626D01*
X67773008Y-108168808D01*
X67704979Y-108184740D01*
X67639136Y-108161363D01*
X67635963Y-108158987D01*
X67581696Y-108116981D01*
X67399093Y-108027411D01*
X67300000Y-108001753D01*
X67300000Y-108565021D01*
X67280315Y-108632060D01*
X67227511Y-108677815D01*
X67158353Y-108687759D01*
X67142066Y-108684287D01*
X67078162Y-108666105D01*
X67078162Y-108666104D01*
X66966475Y-108676454D01*
X66957931Y-108678885D01*
X66888064Y-108678297D01*
X66829606Y-108640028D01*
X66801118Y-108576230D01*
X66800000Y-108559618D01*
X66800000Y-107996633D01*
X66798053Y-107996931D01*
X66798047Y-107996933D01*
X66607342Y-108067562D01*
X66607335Y-108067565D01*
X66434732Y-108175149D01*
X66287331Y-108315264D01*
X66287330Y-108315266D01*
X66171143Y-108482195D01*
X66090940Y-108669092D01*
X66050000Y-108868309D01*
X66050000Y-108970000D01*
X66626000Y-108970000D01*
X66693039Y-108989685D01*
X66738794Y-109042489D01*
X66750000Y-109094000D01*
X66750000Y-109346000D01*
X66730315Y-109413039D01*
X66677511Y-109458794D01*
X66626000Y-109470000D01*
X66050000Y-109470000D01*
X66050000Y-109520713D01*
X66065418Y-109672338D01*
X66126299Y-109866381D01*
X66126304Y-109866391D01*
X66225005Y-110044215D01*
X66225005Y-110044216D01*
X66357478Y-110198530D01*
X66357479Y-110198531D01*
X66447154Y-110267944D01*
X66488118Y-110324545D01*
X66491979Y-110394308D01*
X66457509Y-110455083D01*
X66395654Y-110487575D01*
X66371253Y-110490000D01*
X60637172Y-110490000D01*
X60570133Y-110470315D01*
X60524378Y-110417511D01*
X60514434Y-110348353D01*
X60543459Y-110284797D01*
X60561274Y-110267942D01*
X60565262Y-110264855D01*
X60712668Y-110124735D01*
X60712669Y-110124733D01*
X60828856Y-109957804D01*
X60909059Y-109770907D01*
X60950000Y-109571690D01*
X60950000Y-109470000D01*
X60374000Y-109470000D01*
X60306961Y-109450315D01*
X60261206Y-109397511D01*
X60250000Y-109346000D01*
X60250000Y-109094000D01*
X60269685Y-109026961D01*
X60322489Y-108981206D01*
X60374000Y-108970000D01*
X60950000Y-108970000D01*
X60950000Y-108919286D01*
X60934581Y-108767661D01*
X60873700Y-108573618D01*
X60873695Y-108573608D01*
X60774994Y-108395784D01*
X60774994Y-108395783D01*
X60642521Y-108241469D01*
X60642520Y-108241468D01*
X60481695Y-108116981D01*
X60299093Y-108027411D01*
X60199999Y-108001753D01*
X60199999Y-108565021D01*
X60180314Y-108632061D01*
X60127510Y-108677815D01*
X60058352Y-108687759D01*
X60042065Y-108684287D01*
X59978162Y-108666104D01*
X59866475Y-108676454D01*
X59857931Y-108678885D01*
X59788064Y-108678297D01*
X59729606Y-108640028D01*
X59701118Y-108576230D01*
X59700000Y-108559618D01*
X59699999Y-107996633D01*
X59698053Y-107996931D01*
X59698047Y-107996933D01*
X59507342Y-108067562D01*
X59507335Y-108067565D01*
X59334732Y-108175149D01*
X59187331Y-108315264D01*
X59187330Y-108315266D01*
X59071143Y-108482195D01*
X58990940Y-108669092D01*
X58950000Y-108868309D01*
X58950000Y-108970000D01*
X59526000Y-108970000D01*
X59593039Y-108989685D01*
X59638794Y-109042489D01*
X59650000Y-109094000D01*
X59650000Y-109346000D01*
X59630315Y-109413039D01*
X59577511Y-109458794D01*
X59526000Y-109470000D01*
X58950000Y-109470000D01*
X58950000Y-109520713D01*
X58965418Y-109672338D01*
X59026299Y-109866381D01*
X59026304Y-109866391D01*
X59125005Y-110044215D01*
X59125005Y-110044216D01*
X59257478Y-110198530D01*
X59257479Y-110198531D01*
X59347154Y-110267944D01*
X59388118Y-110324545D01*
X59391979Y-110394308D01*
X59357509Y-110455083D01*
X59295654Y-110487575D01*
X59271253Y-110490000D01*
X39496105Y-110490000D01*
X39429066Y-110470315D01*
X39383311Y-110417511D01*
X39373367Y-110348353D01*
X39402392Y-110284797D01*
X39423220Y-110265682D01*
X39515646Y-110198530D01*
X39561078Y-110165522D01*
X39716632Y-110002825D01*
X39840635Y-109814968D01*
X39929103Y-109607988D01*
X39979191Y-109388537D01*
X39989290Y-109163670D01*
X39959075Y-108940613D01*
X39889517Y-108726536D01*
X39782852Y-108528319D01*
X39726387Y-108457514D01*
X39642510Y-108352336D01*
X39636025Y-108346670D01*
X39472996Y-108204235D01*
X39279764Y-108088785D01*
X39161775Y-108044503D01*
X39069023Y-108009692D01*
X38847550Y-107969500D01*
X38847547Y-107969500D01*
X38678845Y-107969500D01*
X38640399Y-107972960D01*
X38510813Y-107984622D01*
X38510807Y-107984623D01*
X38293832Y-108044505D01*
X38277801Y-108052226D01*
X38208859Y-108063577D01*
X38144725Y-108035854D01*
X38105760Y-107977859D01*
X38101465Y-107950005D01*
X44064859Y-107950005D01*
X44085385Y-108197729D01*
X44085387Y-108197738D01*
X44146412Y-108438717D01*
X44246266Y-108666364D01*
X44346564Y-108819882D01*
X44921482Y-108244964D01*
X44982805Y-108211479D01*
X45052496Y-108216463D01*
X45108430Y-108258334D01*
X45111514Y-108263249D01*
X45111549Y-108263225D01*
X45116441Y-108270156D01*
X45205220Y-108365214D01*
X45219638Y-108380652D01*
X45254698Y-108401973D01*
X45301749Y-108453623D01*
X45313407Y-108522513D01*
X45285970Y-108586770D01*
X45277950Y-108595601D01*
X44699942Y-109173609D01*
X44746768Y-109210055D01*
X44746770Y-109210056D01*
X44965385Y-109328364D01*
X44965396Y-109328369D01*
X45200506Y-109409083D01*
X45445707Y-109450000D01*
X45694293Y-109450000D01*
X45939493Y-109409083D01*
X46174603Y-109328369D01*
X46174614Y-109328364D01*
X46393228Y-109210057D01*
X46393231Y-109210055D01*
X46440056Y-109173609D01*
X45863165Y-108596718D01*
X45829680Y-108535395D01*
X45834664Y-108465703D01*
X45872588Y-108412853D01*
X45975739Y-108328934D01*
X46026052Y-108257655D01*
X46080793Y-108214239D01*
X46150318Y-108207310D01*
X46212553Y-108239068D01*
X46215037Y-108241484D01*
X46793434Y-108819882D01*
X46893731Y-108666369D01*
X46993587Y-108438717D01*
X47054612Y-108197738D01*
X47054614Y-108197729D01*
X47075141Y-107950005D01*
X50564859Y-107950005D01*
X50585385Y-108197729D01*
X50585387Y-108197738D01*
X50646412Y-108438717D01*
X50746266Y-108666364D01*
X50846564Y-108819882D01*
X51421482Y-108244964D01*
X51482805Y-108211479D01*
X51552496Y-108216463D01*
X51608430Y-108258334D01*
X51611514Y-108263249D01*
X51611549Y-108263225D01*
X51616441Y-108270156D01*
X51705220Y-108365214D01*
X51719638Y-108380652D01*
X51754698Y-108401973D01*
X51801749Y-108453623D01*
X51813407Y-108522513D01*
X51785970Y-108586770D01*
X51777950Y-108595601D01*
X51199942Y-109173609D01*
X51246768Y-109210055D01*
X51246770Y-109210056D01*
X51465385Y-109328364D01*
X51465396Y-109328369D01*
X51700506Y-109409083D01*
X51945707Y-109450000D01*
X52194293Y-109450000D01*
X52439493Y-109409083D01*
X52674603Y-109328369D01*
X52674614Y-109328364D01*
X52893228Y-109210057D01*
X52893231Y-109210055D01*
X52940056Y-109173609D01*
X52363165Y-108596718D01*
X52329680Y-108535395D01*
X52334664Y-108465703D01*
X52372588Y-108412853D01*
X52475739Y-108328934D01*
X52526052Y-108257655D01*
X52580793Y-108214239D01*
X52650318Y-108207310D01*
X52712553Y-108239068D01*
X52715037Y-108241484D01*
X53293434Y-108819882D01*
X53393731Y-108666369D01*
X53493587Y-108438717D01*
X53554612Y-108197738D01*
X53554614Y-108197729D01*
X53575141Y-107950005D01*
X53575141Y-107949994D01*
X53554614Y-107702270D01*
X53554612Y-107702261D01*
X53493587Y-107461282D01*
X53393731Y-107233630D01*
X53293434Y-107080116D01*
X52718517Y-107655034D01*
X52657194Y-107688519D01*
X52587502Y-107683535D01*
X52531569Y-107641663D01*
X52528486Y-107636750D01*
X52528451Y-107636775D01*
X52523558Y-107629843D01*
X52468661Y-107571064D01*
X52420362Y-107519348D01*
X52385300Y-107498026D01*
X52338248Y-107446374D01*
X52326591Y-107377484D01*
X52354029Y-107313227D01*
X52362048Y-107304397D01*
X52940056Y-106726389D01*
X52893229Y-106689943D01*
X52674614Y-106571635D01*
X52674603Y-106571630D01*
X52439493Y-106490916D01*
X52194293Y-106450000D01*
X51945707Y-106450000D01*
X51700506Y-106490916D01*
X51465396Y-106571630D01*
X51465390Y-106571632D01*
X51246761Y-106689949D01*
X51199942Y-106726388D01*
X51199942Y-106726390D01*
X51776833Y-107303280D01*
X51810318Y-107364603D01*
X51805334Y-107434294D01*
X51767408Y-107487148D01*
X51664262Y-107571064D01*
X51664258Y-107571069D01*
X51613947Y-107642343D01*
X51559204Y-107685760D01*
X51489679Y-107692689D01*
X51427444Y-107660930D01*
X51424962Y-107658515D01*
X50846564Y-107080116D01*
X50746267Y-107233632D01*
X50646412Y-107461282D01*
X50585387Y-107702261D01*
X50585385Y-107702270D01*
X50564859Y-107949994D01*
X50564859Y-107950005D01*
X47075141Y-107950005D01*
X47075141Y-107949994D01*
X47054614Y-107702270D01*
X47054612Y-107702261D01*
X46993587Y-107461282D01*
X46893731Y-107233630D01*
X46793434Y-107080116D01*
X46218517Y-107655034D01*
X46157194Y-107688519D01*
X46087502Y-107683535D01*
X46031569Y-107641663D01*
X46028486Y-107636750D01*
X46028451Y-107636775D01*
X46023558Y-107629843D01*
X45968661Y-107571064D01*
X45920362Y-107519348D01*
X45885300Y-107498026D01*
X45838248Y-107446374D01*
X45826591Y-107377484D01*
X45854029Y-107313227D01*
X45862048Y-107304397D01*
X46440056Y-106726389D01*
X46393229Y-106689943D01*
X46174614Y-106571635D01*
X46174603Y-106571630D01*
X45939493Y-106490916D01*
X45694293Y-106450000D01*
X45445707Y-106450000D01*
X45200506Y-106490916D01*
X44965396Y-106571630D01*
X44965390Y-106571632D01*
X44746761Y-106689949D01*
X44699942Y-106726388D01*
X44699942Y-106726390D01*
X45276833Y-107303280D01*
X45310318Y-107364603D01*
X45305334Y-107434294D01*
X45267408Y-107487148D01*
X45164262Y-107571064D01*
X45164258Y-107571069D01*
X45113947Y-107642343D01*
X45059204Y-107685760D01*
X44989679Y-107692689D01*
X44927444Y-107660930D01*
X44924962Y-107658515D01*
X44346564Y-107080116D01*
X44246267Y-107233632D01*
X44146412Y-107461282D01*
X44085387Y-107702261D01*
X44085385Y-107702270D01*
X44064859Y-107949994D01*
X44064859Y-107950005D01*
X38101465Y-107950005D01*
X38100000Y-107940505D01*
X38100000Y-96644000D01*
X38119685Y-96576961D01*
X38172489Y-96531206D01*
X38224000Y-96520000D01*
X38735000Y-96520000D01*
X38753634Y-96501365D01*
X38754685Y-96497787D01*
X38807489Y-96452032D01*
X38876647Y-96442088D01*
X38911399Y-96452441D01*
X38963504Y-96476739D01*
X39183308Y-96535635D01*
X39345230Y-96549801D01*
X39409998Y-96555468D01*
X39410000Y-96555468D01*
X39410002Y-96555468D01*
X39466672Y-96550509D01*
X39636692Y-96535635D01*
X39856496Y-96476739D01*
X40062734Y-96380568D01*
X40249139Y-96250047D01*
X40410047Y-96089139D01*
X40540568Y-95902734D01*
X40636739Y-95696496D01*
X40695635Y-95476692D01*
X40715468Y-95250000D01*
X40695635Y-95023308D01*
X40636739Y-94803504D01*
X40540568Y-94597266D01*
X40410047Y-94410861D01*
X40410045Y-94410858D01*
X40249141Y-94249954D01*
X40062734Y-94119432D01*
X40062732Y-94119431D01*
X39856497Y-94023261D01*
X39856488Y-94023258D01*
X39636697Y-93964366D01*
X39636693Y-93964365D01*
X39636692Y-93964365D01*
X39636691Y-93964364D01*
X39636686Y-93964364D01*
X39410002Y-93944532D01*
X39409998Y-93944532D01*
X39183313Y-93964364D01*
X39183302Y-93964366D01*
X38963511Y-94023258D01*
X38963497Y-94023263D01*
X38911404Y-94047555D01*
X38842327Y-94058047D01*
X38778543Y-94029527D01*
X38740304Y-93971050D01*
X38735000Y-93935173D01*
X38735000Y-92773478D01*
X38754685Y-92706439D01*
X38807489Y-92660684D01*
X38876647Y-92650740D01*
X38911401Y-92661095D01*
X38923504Y-92666739D01*
X39143308Y-92725635D01*
X39305230Y-92739801D01*
X39369998Y-92745468D01*
X39370000Y-92745468D01*
X39370002Y-92745468D01*
X39426672Y-92740509D01*
X39596692Y-92725635D01*
X39816496Y-92666739D01*
X40022734Y-92570568D01*
X40209139Y-92440047D01*
X40370047Y-92279139D01*
X40500568Y-92092734D01*
X40596739Y-91886496D01*
X40655635Y-91666692D01*
X40675468Y-91440000D01*
X40675467Y-91439994D01*
X40655635Y-91213313D01*
X40655635Y-91213308D01*
X40596739Y-90993504D01*
X40500568Y-90787266D01*
X40370047Y-90600861D01*
X40370045Y-90600858D01*
X40209141Y-90439954D01*
X40022734Y-90309432D01*
X40022732Y-90309431D01*
X39816497Y-90213261D01*
X39816488Y-90213258D01*
X39596697Y-90154366D01*
X39596693Y-90154365D01*
X39596692Y-90154365D01*
X39596691Y-90154364D01*
X39596686Y-90154364D01*
X39370002Y-90134532D01*
X39369998Y-90134532D01*
X39143313Y-90154364D01*
X39143302Y-90154366D01*
X38923511Y-90213258D01*
X38923502Y-90213262D01*
X38911405Y-90218903D01*
X38842327Y-90229395D01*
X38778543Y-90200875D01*
X38740304Y-90142398D01*
X38735000Y-90106521D01*
X38735000Y-87674826D01*
X38754685Y-87607787D01*
X38807489Y-87562032D01*
X38876647Y-87552088D01*
X38911399Y-87562441D01*
X38963504Y-87586739D01*
X39183308Y-87645635D01*
X39345230Y-87659801D01*
X39409998Y-87665468D01*
X39410000Y-87665468D01*
X39410002Y-87665468D01*
X39466673Y-87660509D01*
X39636692Y-87645635D01*
X39856496Y-87586739D01*
X40062734Y-87490568D01*
X40249139Y-87360047D01*
X40410047Y-87199139D01*
X40540568Y-87012734D01*
X40636739Y-86806496D01*
X40695635Y-86586692D01*
X40715468Y-86360000D01*
X40695635Y-86133308D01*
X40647766Y-85954658D01*
X40636741Y-85913511D01*
X40636738Y-85913502D01*
X40607683Y-85851194D01*
X40540568Y-85707266D01*
X40410047Y-85520861D01*
X40410045Y-85520858D01*
X40249141Y-85359954D01*
X40062734Y-85229432D01*
X40062732Y-85229431D01*
X39856497Y-85133261D01*
X39856488Y-85133258D01*
X39636697Y-85074366D01*
X39636693Y-85074365D01*
X39636692Y-85074365D01*
X39636691Y-85074364D01*
X39636686Y-85074364D01*
X39410002Y-85054532D01*
X39409998Y-85054532D01*
X39183313Y-85074364D01*
X39183302Y-85074366D01*
X38963511Y-85133258D01*
X38963497Y-85133263D01*
X38911404Y-85157555D01*
X38842327Y-85168047D01*
X38778543Y-85139527D01*
X38740304Y-85081050D01*
X38735000Y-85045173D01*
X38735000Y-83883478D01*
X38754685Y-83816439D01*
X38807489Y-83770684D01*
X38876647Y-83760740D01*
X38911401Y-83771095D01*
X38923504Y-83776739D01*
X39143308Y-83835635D01*
X39305230Y-83849801D01*
X39369998Y-83855468D01*
X39370000Y-83855468D01*
X39370002Y-83855468D01*
X39426672Y-83850509D01*
X39596692Y-83835635D01*
X39816496Y-83776739D01*
X40022734Y-83680568D01*
X40209139Y-83550047D01*
X40370047Y-83389139D01*
X40500568Y-83202734D01*
X40596739Y-82996496D01*
X40655635Y-82776692D01*
X40675468Y-82550000D01*
X40675467Y-82549994D01*
X40655635Y-82323313D01*
X40655635Y-82323308D01*
X40610916Y-82156415D01*
X40596741Y-82103511D01*
X40596738Y-82103502D01*
X40576974Y-82061118D01*
X40500568Y-81897266D01*
X40370047Y-81710861D01*
X40370045Y-81710858D01*
X40209141Y-81549954D01*
X40022734Y-81419432D01*
X40022732Y-81419431D01*
X39816497Y-81323261D01*
X39816488Y-81323258D01*
X39596697Y-81264366D01*
X39596693Y-81264365D01*
X39596692Y-81264365D01*
X39596691Y-81264364D01*
X39596686Y-81264364D01*
X39370002Y-81244532D01*
X39369998Y-81244532D01*
X39143313Y-81264364D01*
X39143302Y-81264366D01*
X38923511Y-81323258D01*
X38923502Y-81323262D01*
X38911405Y-81328903D01*
X38842327Y-81339395D01*
X38778543Y-81310875D01*
X38740304Y-81252398D01*
X38735000Y-81216521D01*
X38735000Y-78784826D01*
X38754685Y-78717787D01*
X38807489Y-78672032D01*
X38876647Y-78662088D01*
X38911399Y-78672441D01*
X38963504Y-78696739D01*
X39183308Y-78755635D01*
X39345230Y-78769801D01*
X39409998Y-78775468D01*
X39410000Y-78775468D01*
X39410002Y-78775468D01*
X39466673Y-78770509D01*
X39636692Y-78755635D01*
X39856496Y-78696739D01*
X40062734Y-78600568D01*
X40249139Y-78470047D01*
X40410047Y-78309139D01*
X40540568Y-78122734D01*
X40636739Y-77916496D01*
X40695635Y-77696692D01*
X40715468Y-77470000D01*
X40715362Y-77468793D01*
X40697880Y-77268967D01*
X40695635Y-77243308D01*
X40636739Y-77023504D01*
X40540568Y-76817266D01*
X40410047Y-76630861D01*
X40410045Y-76630858D01*
X40249141Y-76469954D01*
X40062734Y-76339432D01*
X40062732Y-76339431D01*
X39856497Y-76243261D01*
X39856488Y-76243258D01*
X39636697Y-76184366D01*
X39636693Y-76184365D01*
X39636692Y-76184365D01*
X39636691Y-76184364D01*
X39636686Y-76184364D01*
X39410002Y-76164532D01*
X39409998Y-76164532D01*
X39183313Y-76184364D01*
X39183302Y-76184366D01*
X38963511Y-76243258D01*
X38963497Y-76243263D01*
X38911404Y-76267555D01*
X38842327Y-76278047D01*
X38778543Y-76249527D01*
X38740304Y-76191050D01*
X38735000Y-76155173D01*
X38735000Y-74993478D01*
X38754685Y-74926439D01*
X38807489Y-74880684D01*
X38876647Y-74870740D01*
X38911401Y-74881095D01*
X38923504Y-74886739D01*
X39143308Y-74945635D01*
X39305230Y-74959801D01*
X39369998Y-74965468D01*
X39370000Y-74965468D01*
X39370002Y-74965468D01*
X39426673Y-74960509D01*
X39596692Y-74945635D01*
X39816496Y-74886739D01*
X40022734Y-74790568D01*
X40209139Y-74660047D01*
X40370047Y-74499139D01*
X40500568Y-74312734D01*
X40596739Y-74106496D01*
X40655635Y-73886692D01*
X40675468Y-73660000D01*
X40655635Y-73433308D01*
X40596739Y-73213504D01*
X40500568Y-73007266D01*
X40370047Y-72820861D01*
X40370045Y-72820858D01*
X40209141Y-72659954D01*
X40022734Y-72529432D01*
X40022732Y-72529431D01*
X39816497Y-72433261D01*
X39816488Y-72433258D01*
X39596697Y-72374366D01*
X39596693Y-72374365D01*
X39596692Y-72374365D01*
X39596691Y-72374364D01*
X39596686Y-72374364D01*
X39370002Y-72354532D01*
X39369998Y-72354532D01*
X39143313Y-72374364D01*
X39143302Y-72374366D01*
X38923511Y-72433258D01*
X38923502Y-72433262D01*
X38911405Y-72438903D01*
X38842327Y-72449395D01*
X38778543Y-72420875D01*
X38740304Y-72362398D01*
X38735000Y-72326521D01*
X38735000Y-44450000D01*
X38136319Y-43851319D01*
X38102834Y-43789996D01*
X38100000Y-43763638D01*
X38100000Y-36830002D01*
X41915034Y-36830002D01*
X41934858Y-37056599D01*
X41934860Y-37056610D01*
X41993730Y-37276317D01*
X41993734Y-37276326D01*
X42089865Y-37482481D01*
X42089866Y-37482483D01*
X42140973Y-37555471D01*
X42140973Y-37555472D01*
X42682580Y-37013865D01*
X42743903Y-36980380D01*
X42813594Y-36985364D01*
X42869528Y-37027235D01*
X42880742Y-37045246D01*
X42886527Y-37056599D01*
X42892358Y-37068044D01*
X42892363Y-37068050D01*
X42981949Y-37157636D01*
X42981951Y-37157637D01*
X42981955Y-37157641D01*
X43004747Y-37169254D01*
X43055542Y-37217228D01*
X43072337Y-37285049D01*
X43049799Y-37351184D01*
X43036132Y-37367419D01*
X42494526Y-37909025D01*
X42494526Y-37909026D01*
X42567512Y-37960131D01*
X42567516Y-37960133D01*
X42773673Y-38056265D01*
X42773682Y-38056269D01*
X42993389Y-38115139D01*
X42993400Y-38115141D01*
X43219998Y-38134966D01*
X43220002Y-38134966D01*
X43446599Y-38115141D01*
X43446610Y-38115139D01*
X43666317Y-38056269D01*
X43666331Y-38056264D01*
X43872478Y-37960136D01*
X43945472Y-37909025D01*
X43403866Y-37367419D01*
X43370381Y-37306096D01*
X43375365Y-37236404D01*
X43417237Y-37180471D01*
X43435245Y-37169258D01*
X43458045Y-37157641D01*
X43547641Y-37068045D01*
X43559254Y-37045252D01*
X43607225Y-36994458D01*
X43675046Y-36977661D01*
X43741181Y-37000197D01*
X43757419Y-37013866D01*
X44299025Y-37555472D01*
X44350136Y-37482478D01*
X44446264Y-37276331D01*
X44446269Y-37276317D01*
X44505139Y-37056610D01*
X44505141Y-37056599D01*
X44524966Y-36830002D01*
X44524966Y-36829997D01*
X44505141Y-36603400D01*
X44505139Y-36603389D01*
X44446269Y-36383682D01*
X44446265Y-36383673D01*
X44350133Y-36177516D01*
X44350131Y-36177512D01*
X44299026Y-36104526D01*
X44299025Y-36104526D01*
X43757419Y-36646132D01*
X43696096Y-36679617D01*
X43626404Y-36674633D01*
X43570471Y-36632761D01*
X43559256Y-36614751D01*
X43547641Y-36591955D01*
X43547637Y-36591951D01*
X43547636Y-36591949D01*
X43458050Y-36502363D01*
X43458044Y-36502358D01*
X43448109Y-36497296D01*
X43435250Y-36490744D01*
X43384456Y-36442773D01*
X43367660Y-36374952D01*
X43390197Y-36308817D01*
X43403865Y-36292580D01*
X43945472Y-35750973D01*
X43872483Y-35699866D01*
X43872481Y-35699865D01*
X43666326Y-35603734D01*
X43666317Y-35603730D01*
X43446610Y-35544860D01*
X43446599Y-35544858D01*
X43220002Y-35525034D01*
X43219998Y-35525034D01*
X42993400Y-35544858D01*
X42993389Y-35544860D01*
X42773682Y-35603730D01*
X42773673Y-35603734D01*
X42567513Y-35699868D01*
X42494526Y-35750973D01*
X43036133Y-36292580D01*
X43069618Y-36353903D01*
X43064634Y-36423595D01*
X43022762Y-36479528D01*
X43004748Y-36490745D01*
X42981956Y-36502358D01*
X42981949Y-36502363D01*
X42892363Y-36591949D01*
X42892358Y-36591956D01*
X42880745Y-36614748D01*
X42832770Y-36665544D01*
X42764949Y-36682338D01*
X42698814Y-36659800D01*
X42682580Y-36646133D01*
X42140973Y-36104526D01*
X42089868Y-36177513D01*
X41993734Y-36383673D01*
X41993730Y-36383682D01*
X41934860Y-36603389D01*
X41934858Y-36603400D01*
X41915034Y-36829997D01*
X41915034Y-36830002D01*
X38100000Y-36830002D01*
X38100000Y-34040000D01*
X53600000Y-34040000D01*
X54600000Y-34040000D01*
X54600000Y-34039999D01*
X55099999Y-34039999D01*
X55100000Y-34040000D01*
X56100000Y-34040000D01*
X71100000Y-34040000D01*
X72100000Y-34040000D01*
X72100000Y-33340000D01*
X72600000Y-33340000D01*
X72600000Y-34040000D01*
X73600000Y-34040000D01*
X73600000Y-33792172D01*
X73599999Y-33792155D01*
X73593598Y-33732627D01*
X73593596Y-33732620D01*
X73543354Y-33597913D01*
X73543350Y-33597906D01*
X73457190Y-33482812D01*
X73457187Y-33482809D01*
X73342093Y-33396649D01*
X73342086Y-33396645D01*
X73207379Y-33346403D01*
X73207372Y-33346401D01*
X73147844Y-33340000D01*
X72600000Y-33340000D01*
X72100000Y-33340000D01*
X71552155Y-33340000D01*
X71492627Y-33346401D01*
X71492620Y-33346403D01*
X71357913Y-33396645D01*
X71357906Y-33396649D01*
X71242812Y-33482809D01*
X71242809Y-33482812D01*
X71156649Y-33597906D01*
X71156645Y-33597913D01*
X71106403Y-33732620D01*
X71106401Y-33732627D01*
X71100000Y-33792155D01*
X71100000Y-34040000D01*
X56100000Y-34040000D01*
X56100000Y-33792172D01*
X56099999Y-33792155D01*
X56093598Y-33732627D01*
X56093596Y-33732620D01*
X56043354Y-33597913D01*
X56043350Y-33597906D01*
X55957190Y-33482812D01*
X55957187Y-33482809D01*
X55842093Y-33396649D01*
X55842086Y-33396645D01*
X55707379Y-33346403D01*
X55707372Y-33346401D01*
X55647844Y-33340000D01*
X55100000Y-33340000D01*
X55099999Y-34039999D01*
X54600000Y-34039999D01*
X54600000Y-33340000D01*
X54052155Y-33340000D01*
X53992627Y-33346401D01*
X53992620Y-33346403D01*
X53857913Y-33396645D01*
X53857906Y-33396649D01*
X53742812Y-33482809D01*
X53742809Y-33482812D01*
X53656649Y-33597906D01*
X53656645Y-33597913D01*
X53606403Y-33732620D01*
X53606401Y-33732627D01*
X53600000Y-33792155D01*
X53600000Y-34040000D01*
X38100000Y-34040000D01*
X38100000Y-33144000D01*
X38119685Y-33076961D01*
X38172489Y-33031206D01*
X38224000Y-33020000D01*
X88776000Y-33020000D01*
X88843039Y-33039685D01*
G37*
%TD.AperFunction*%
%TA.AperFunction,Conductor*%
G36*
X68230332Y-108664310D02*
G01*
X68246708Y-108678076D01*
X69288447Y-109719815D01*
X69846952Y-110278319D01*
X69880437Y-110339642D01*
X69875453Y-110409334D01*
X69833581Y-110465267D01*
X69768117Y-110489684D01*
X69759271Y-110490000D01*
X67737172Y-110490000D01*
X67670133Y-110470315D01*
X67624378Y-110417511D01*
X67614434Y-110348353D01*
X67643459Y-110284797D01*
X67661274Y-110267942D01*
X67665262Y-110264855D01*
X67812668Y-110124735D01*
X67812669Y-110124733D01*
X67928856Y-109957804D01*
X68009059Y-109770907D01*
X68050000Y-109571690D01*
X68050000Y-109470000D01*
X67474000Y-109470000D01*
X67406961Y-109450315D01*
X67361206Y-109397511D01*
X67350000Y-109346000D01*
X67350000Y-109094000D01*
X67369685Y-109026961D01*
X67422489Y-108981206D01*
X67474000Y-108970000D01*
X68050000Y-108970000D01*
X68050000Y-108919286D01*
X68035663Y-108778302D01*
X68048464Y-108709615D01*
X68096368Y-108658753D01*
X68164166Y-108641864D01*
X68230332Y-108664310D01*
G37*
%TD.AperFunction*%
%TA.AperFunction,Conductor*%
G36*
X47964947Y-46947317D02*
G01*
X48033308Y-46965635D01*
X48190780Y-46979412D01*
X48259998Y-46985468D01*
X48260000Y-46985468D01*
X48260001Y-46985468D01*
X48271370Y-46984473D01*
X48347938Y-46977774D01*
X48416436Y-46991540D01*
X48466619Y-47040155D01*
X48482553Y-47108184D01*
X48459178Y-47174027D01*
X48446425Y-47188983D01*
X47876208Y-47759199D01*
X47863951Y-47769020D01*
X47864134Y-47769241D01*
X47858123Y-47774213D01*
X47810772Y-47824636D01*
X47789889Y-47845519D01*
X47789877Y-47845532D01*
X47785621Y-47851017D01*
X47781837Y-47855447D01*
X47749937Y-47889418D01*
X47749936Y-47889420D01*
X47740284Y-47906976D01*
X47729610Y-47923226D01*
X47717329Y-47939061D01*
X47717324Y-47939068D01*
X47698815Y-47981838D01*
X47696245Y-47987084D01*
X47673803Y-48027906D01*
X47668822Y-48047307D01*
X47662521Y-48065710D01*
X47654562Y-48084102D01*
X47654561Y-48084105D01*
X47647271Y-48130127D01*
X47646087Y-48135846D01*
X47634501Y-48180972D01*
X47634500Y-48180982D01*
X47634500Y-48201016D01*
X47632973Y-48220415D01*
X47629840Y-48240194D01*
X47629840Y-48240195D01*
X47634225Y-48286583D01*
X47634500Y-48292421D01*
X47634500Y-66611312D01*
X47614815Y-66678351D01*
X47602650Y-66694284D01*
X47527466Y-66777784D01*
X47432821Y-66941715D01*
X47432818Y-66941722D01*
X47378578Y-67108657D01*
X47374326Y-67121744D01*
X47354540Y-67310000D01*
X47374326Y-67498256D01*
X47374327Y-67498259D01*
X47432818Y-67678277D01*
X47432821Y-67678284D01*
X47527467Y-67842216D01*
X47654128Y-67982888D01*
X47654129Y-67982888D01*
X47807265Y-68094148D01*
X47807270Y-68094151D01*
X47980192Y-68171142D01*
X47980197Y-68171144D01*
X48165354Y-68210500D01*
X48165355Y-68210500D01*
X48354644Y-68210500D01*
X48354646Y-68210500D01*
X48539803Y-68171144D01*
X48712730Y-68094151D01*
X48865871Y-67982888D01*
X48992533Y-67842216D01*
X49087179Y-67678284D01*
X49145674Y-67498256D01*
X49165460Y-67310000D01*
X49145674Y-67121744D01*
X49087179Y-66941716D01*
X48992533Y-66777784D01*
X48992532Y-66777784D01*
X48917350Y-66694284D01*
X48887120Y-66631292D01*
X48885500Y-66611312D01*
X48885500Y-55152132D01*
X48905185Y-55085093D01*
X48957989Y-55039338D01*
X49027147Y-55029394D01*
X49088541Y-55056589D01*
X49106310Y-55071289D01*
X49110632Y-55075222D01*
X52678180Y-58642770D01*
X52711665Y-58704093D01*
X52714499Y-58730451D01*
X52714499Y-64687255D01*
X52712776Y-64702872D01*
X52713061Y-64702899D01*
X52712326Y-64710665D01*
X52714500Y-64779814D01*
X52714500Y-64809343D01*
X52714501Y-64809360D01*
X52715368Y-64816231D01*
X52715826Y-64822050D01*
X52717290Y-64868624D01*
X52717291Y-64868627D01*
X52722880Y-64887867D01*
X52726824Y-64906911D01*
X52729336Y-64926791D01*
X52746490Y-64970119D01*
X52748382Y-64975647D01*
X52761381Y-65020388D01*
X52771580Y-65037634D01*
X52780138Y-65055103D01*
X52787514Y-65073732D01*
X52814898Y-65111423D01*
X52818106Y-65116307D01*
X52841827Y-65156416D01*
X52841833Y-65156424D01*
X52855990Y-65170580D01*
X52868628Y-65185376D01*
X52880405Y-65201586D01*
X52880406Y-65201587D01*
X52916309Y-65231288D01*
X52920620Y-65235210D01*
X53083193Y-65397783D01*
X53223181Y-65537771D01*
X53256666Y-65599094D01*
X53259500Y-65625452D01*
X53259500Y-66690001D01*
X53259501Y-66690018D01*
X53270000Y-66792796D01*
X53270001Y-66792799D01*
X53309303Y-66911402D01*
X53325186Y-66959334D01*
X53417288Y-67108656D01*
X53541344Y-67232712D01*
X53690666Y-67324814D01*
X53857203Y-67379999D01*
X53959991Y-67390500D01*
X55260008Y-67390499D01*
X55362797Y-67379999D01*
X55529334Y-67324814D01*
X55678656Y-67232712D01*
X55802712Y-67108656D01*
X55894814Y-66959334D01*
X55897662Y-66950738D01*
X55937429Y-66893294D01*
X56001944Y-66866468D01*
X56070720Y-66878779D01*
X56107483Y-66907766D01*
X56107677Y-66907573D01*
X56109313Y-66909209D01*
X56110354Y-66910030D01*
X56111501Y-66911397D01*
X56111505Y-66911401D01*
X56278599Y-67078495D01*
X56321675Y-67108657D01*
X56472165Y-67214032D01*
X56472167Y-67214033D01*
X56472170Y-67214035D01*
X56686337Y-67313903D01*
X56914592Y-67375063D01*
X57091034Y-67390500D01*
X57149999Y-67395659D01*
X57150000Y-67395659D01*
X57150001Y-67395659D01*
X57208966Y-67390500D01*
X57385408Y-67375063D01*
X57613663Y-67313903D01*
X57827830Y-67214035D01*
X58021401Y-67078495D01*
X58188495Y-66911401D01*
X58318424Y-66725842D01*
X58373002Y-66682217D01*
X58442500Y-66675023D01*
X58504855Y-66706546D01*
X58521575Y-66725842D01*
X58651500Y-66911395D01*
X58651505Y-66911401D01*
X58818599Y-67078495D01*
X58861675Y-67108657D01*
X59012165Y-67214032D01*
X59012167Y-67214033D01*
X59012170Y-67214035D01*
X59226337Y-67313903D01*
X59454592Y-67375063D01*
X59631034Y-67390500D01*
X59689999Y-67395659D01*
X59690000Y-67395659D01*
X59690001Y-67395659D01*
X59748966Y-67390500D01*
X59925408Y-67375063D01*
X60153663Y-67313903D01*
X60367830Y-67214035D01*
X60561401Y-67078495D01*
X60728495Y-66911401D01*
X60858424Y-66725842D01*
X60913002Y-66682217D01*
X60982500Y-66675023D01*
X61044855Y-66706546D01*
X61061575Y-66725842D01*
X61191500Y-66911395D01*
X61191505Y-66911401D01*
X61358599Y-67078495D01*
X61401675Y-67108657D01*
X61552165Y-67214032D01*
X61552167Y-67214033D01*
X61552170Y-67214035D01*
X61766337Y-67313903D01*
X61994592Y-67375063D01*
X62171034Y-67390500D01*
X62229999Y-67395659D01*
X62230000Y-67395659D01*
X62230001Y-67395659D01*
X62288966Y-67390500D01*
X62465408Y-67375063D01*
X62693663Y-67313903D01*
X62907830Y-67214035D01*
X63101401Y-67078495D01*
X63268495Y-66911401D01*
X63398424Y-66725842D01*
X63453002Y-66682217D01*
X63522500Y-66675023D01*
X63584855Y-66706546D01*
X63601575Y-66725842D01*
X63731500Y-66911395D01*
X63731505Y-66911401D01*
X63898599Y-67078495D01*
X63941675Y-67108657D01*
X64092165Y-67214032D01*
X64092167Y-67214033D01*
X64092170Y-67214035D01*
X64306337Y-67313903D01*
X64534592Y-67375063D01*
X64711034Y-67390500D01*
X64769999Y-67395659D01*
X64770000Y-67395659D01*
X64770001Y-67395659D01*
X64828966Y-67390500D01*
X65005408Y-67375063D01*
X65233663Y-67313903D01*
X65447830Y-67214035D01*
X65641401Y-67078495D01*
X65808495Y-66911401D01*
X65938424Y-66725842D01*
X65993002Y-66682217D01*
X66062500Y-66675023D01*
X66124855Y-66706546D01*
X66141575Y-66725842D01*
X66271500Y-66911395D01*
X66271505Y-66911401D01*
X66438599Y-67078495D01*
X66481675Y-67108657D01*
X66632165Y-67214032D01*
X66632167Y-67214033D01*
X66632170Y-67214035D01*
X66846337Y-67313903D01*
X67074592Y-67375063D01*
X67251034Y-67390500D01*
X67309999Y-67395659D01*
X67310000Y-67395659D01*
X67310001Y-67395659D01*
X67368966Y-67390500D01*
X67545408Y-67375063D01*
X67773663Y-67313903D01*
X67987830Y-67214035D01*
X68181401Y-67078495D01*
X68348495Y-66911401D01*
X68478424Y-66725842D01*
X68533002Y-66682217D01*
X68602500Y-66675023D01*
X68664855Y-66706546D01*
X68681575Y-66725842D01*
X68811500Y-66911395D01*
X68811505Y-66911401D01*
X68978599Y-67078495D01*
X69021675Y-67108657D01*
X69172165Y-67214032D01*
X69172167Y-67214033D01*
X69172170Y-67214035D01*
X69386337Y-67313903D01*
X69614592Y-67375063D01*
X69791034Y-67390500D01*
X69849999Y-67395659D01*
X69850000Y-67395659D01*
X69850001Y-67395659D01*
X69908966Y-67390500D01*
X70085408Y-67375063D01*
X70313663Y-67313903D01*
X70527830Y-67214035D01*
X70721401Y-67078495D01*
X70888495Y-66911401D01*
X71018424Y-66725842D01*
X71073002Y-66682217D01*
X71142500Y-66675023D01*
X71204855Y-66706546D01*
X71221575Y-66725842D01*
X71351500Y-66911395D01*
X71351505Y-66911401D01*
X71518599Y-67078495D01*
X71561675Y-67108657D01*
X71712165Y-67214032D01*
X71712167Y-67214033D01*
X71712170Y-67214035D01*
X71926337Y-67313903D01*
X72154592Y-67375063D01*
X72331034Y-67390500D01*
X72389999Y-67395659D01*
X72390000Y-67395659D01*
X72390001Y-67395659D01*
X72448966Y-67390500D01*
X72625408Y-67375063D01*
X72853663Y-67313903D01*
X73067830Y-67214035D01*
X73261401Y-67078495D01*
X73428495Y-66911401D01*
X73564035Y-66717830D01*
X73663903Y-66503663D01*
X73725063Y-66275408D01*
X73745659Y-66040000D01*
X73725063Y-65804592D01*
X73663903Y-65576337D01*
X73564035Y-65362171D01*
X73558425Y-65354158D01*
X73428494Y-65168597D01*
X73261402Y-65001506D01*
X73261401Y-65001505D01*
X73075405Y-64871269D01*
X73031781Y-64816692D01*
X73024588Y-64747193D01*
X73056110Y-64684839D01*
X73075405Y-64668119D01*
X73151373Y-64614925D01*
X72649116Y-64112669D01*
X72615631Y-64051346D01*
X72620615Y-63981655D01*
X72657640Y-63932193D01*
X72656398Y-63930759D01*
X72663100Y-63924952D01*
X72771761Y-63830798D01*
X72806954Y-63776037D01*
X72859755Y-63730283D01*
X72928914Y-63720339D01*
X72992470Y-63749363D01*
X72998949Y-63755396D01*
X73504925Y-64261373D01*
X73504926Y-64261373D01*
X73563598Y-64177582D01*
X73563600Y-64177578D01*
X73663429Y-63963492D01*
X73663433Y-63963483D01*
X73724567Y-63735326D01*
X73724569Y-63735315D01*
X73745157Y-63500001D01*
X73745157Y-63499998D01*
X73724569Y-63264684D01*
X73724567Y-63264673D01*
X73663433Y-63036516D01*
X73663429Y-63036507D01*
X73563600Y-62822423D01*
X73563599Y-62822421D01*
X73504925Y-62738626D01*
X73504925Y-62738625D01*
X72998949Y-63244602D01*
X72937626Y-63278087D01*
X72867934Y-63273103D01*
X72812001Y-63231231D01*
X72806953Y-63223961D01*
X72771761Y-63169202D01*
X72656398Y-63069241D01*
X72658708Y-63066574D01*
X72624005Y-63026528D01*
X72614058Y-62957370D01*
X72643080Y-62893813D01*
X72649116Y-62887330D01*
X73151373Y-62385073D01*
X73151373Y-62385072D01*
X73067583Y-62326402D01*
X73067579Y-62326400D01*
X72853492Y-62226570D01*
X72853483Y-62226566D01*
X72625326Y-62165432D01*
X72625315Y-62165430D01*
X72390002Y-62144843D01*
X72389998Y-62144843D01*
X72154684Y-62165430D01*
X72154673Y-62165432D01*
X71926516Y-62226566D01*
X71926507Y-62226570D01*
X71712419Y-62326401D01*
X71628625Y-62385072D01*
X72130883Y-62887330D01*
X72164368Y-62948653D01*
X72159384Y-63018345D01*
X72122357Y-63067805D01*
X72123602Y-63069241D01*
X72008238Y-63169202D01*
X71973046Y-63223962D01*
X71920242Y-63269717D01*
X71851083Y-63279660D01*
X71787528Y-63250634D01*
X71781050Y-63244603D01*
X71275073Y-62738626D01*
X71221881Y-62814594D01*
X71167304Y-62858219D01*
X71097806Y-62865413D01*
X71035451Y-62833891D01*
X71018730Y-62814594D01*
X70888494Y-62628597D01*
X70721402Y-62461506D01*
X70721401Y-62461505D01*
X70588093Y-62368161D01*
X70528376Y-62326347D01*
X70484751Y-62271770D01*
X70475500Y-62224772D01*
X70475500Y-61270452D01*
X70495185Y-61203413D01*
X70511819Y-61182771D01*
X70966682Y-60727908D01*
X71503788Y-60190801D01*
X71516042Y-60180986D01*
X71515859Y-60180764D01*
X71521866Y-60175792D01*
X71521877Y-60175786D01*
X71552775Y-60142882D01*
X71569227Y-60125364D01*
X71579671Y-60114918D01*
X71590120Y-60104471D01*
X71594379Y-60098978D01*
X71598152Y-60094561D01*
X71630062Y-60060582D01*
X71639713Y-60043024D01*
X71650396Y-60026761D01*
X71662673Y-60010936D01*
X71681185Y-59968153D01*
X71683738Y-59962941D01*
X71706197Y-59922092D01*
X71711180Y-59902680D01*
X71717481Y-59884280D01*
X71725437Y-59865896D01*
X71732729Y-59819852D01*
X71733906Y-59814171D01*
X71745500Y-59769019D01*
X71745500Y-59748982D01*
X71747027Y-59729582D01*
X71750160Y-59709804D01*
X71745775Y-59663415D01*
X71745500Y-59657577D01*
X71745500Y-51874499D01*
X71765185Y-51807460D01*
X71817989Y-51761705D01*
X71869500Y-51750499D01*
X73147871Y-51750499D01*
X73147872Y-51750499D01*
X73207483Y-51744091D01*
X73342331Y-51693796D01*
X73457546Y-51607546D01*
X73543796Y-51492331D01*
X73543798Y-51492323D01*
X73545027Y-51490076D01*
X73546849Y-51488253D01*
X73549112Y-51485231D01*
X73549546Y-51485556D01*
X73594431Y-51440669D01*
X73653861Y-51425500D01*
X81604548Y-51425500D01*
X81671587Y-51445185D01*
X81692229Y-51461819D01*
X83158182Y-52927772D01*
X83191666Y-52989093D01*
X83194500Y-53015451D01*
X83194500Y-87652867D01*
X83174815Y-87719906D01*
X83122011Y-87765661D01*
X83052853Y-87775605D01*
X82991460Y-87748411D01*
X82973693Y-87733713D01*
X82969381Y-87729790D01*
X82030237Y-86790646D01*
X81996752Y-86729323D01*
X81998142Y-86670876D01*
X82025063Y-86570408D01*
X82045659Y-86335000D01*
X82025063Y-86099592D01*
X81975203Y-85913511D01*
X81963905Y-85871344D01*
X81963904Y-85871343D01*
X81963903Y-85871337D01*
X81864035Y-85657171D01*
X81833200Y-85613133D01*
X81728494Y-85463597D01*
X81561402Y-85296506D01*
X81561396Y-85296501D01*
X81375842Y-85166575D01*
X81332217Y-85111998D01*
X81325023Y-85042500D01*
X81356546Y-84980145D01*
X81375842Y-84963425D01*
X81398026Y-84947891D01*
X81561401Y-84833495D01*
X81728495Y-84666401D01*
X81864035Y-84472830D01*
X81963903Y-84258663D01*
X82025063Y-84030408D01*
X82045659Y-83795000D01*
X82025063Y-83559592D01*
X81963903Y-83331337D01*
X81864035Y-83117171D01*
X81863582Y-83116523D01*
X81728494Y-82923597D01*
X81561402Y-82756506D01*
X81561396Y-82756501D01*
X81375842Y-82626575D01*
X81332217Y-82571998D01*
X81325023Y-82502500D01*
X81356546Y-82440145D01*
X81375842Y-82423425D01*
X81398026Y-82407891D01*
X81561401Y-82293495D01*
X81728495Y-82126401D01*
X81864035Y-81932830D01*
X81963903Y-81718663D01*
X82025063Y-81490408D01*
X82045659Y-81255000D01*
X82025063Y-81019592D01*
X81963903Y-80791337D01*
X81864035Y-80577171D01*
X81781992Y-80460000D01*
X81728494Y-80383597D01*
X81561402Y-80216506D01*
X81561396Y-80216501D01*
X81375842Y-80086575D01*
X81332217Y-80031998D01*
X81325023Y-79962500D01*
X81356546Y-79900145D01*
X81375842Y-79883425D01*
X81520036Y-79782459D01*
X81561401Y-79753495D01*
X81728495Y-79586401D01*
X81864035Y-79392830D01*
X81963903Y-79178663D01*
X82025063Y-78950408D01*
X82045659Y-78715000D01*
X82025063Y-78479592D01*
X81963903Y-78251337D01*
X81864035Y-78037171D01*
X81846881Y-78012673D01*
X81728496Y-77843600D01*
X81669739Y-77784843D01*
X81606567Y-77721671D01*
X81573084Y-77660351D01*
X81578068Y-77590659D01*
X81619939Y-77534725D01*
X81650915Y-77517810D01*
X81782331Y-77468796D01*
X81897546Y-77382546D01*
X81983796Y-77267331D01*
X82034091Y-77132483D01*
X82040500Y-77072873D01*
X82040499Y-75277128D01*
X82034091Y-75217517D01*
X82027540Y-75199954D01*
X81983797Y-75082671D01*
X81983793Y-75082664D01*
X81897547Y-74967455D01*
X81897544Y-74967452D01*
X81782335Y-74881206D01*
X81782328Y-74881202D01*
X81647482Y-74830908D01*
X81647483Y-74830908D01*
X81587883Y-74824501D01*
X81587881Y-74824500D01*
X81587873Y-74824500D01*
X81587864Y-74824500D01*
X79792129Y-74824500D01*
X79792123Y-74824501D01*
X79732516Y-74830908D01*
X79597671Y-74881202D01*
X79597664Y-74881206D01*
X79482455Y-74967452D01*
X79482452Y-74967455D01*
X79396206Y-75082664D01*
X79396202Y-75082671D01*
X79345908Y-75217517D01*
X79339501Y-75277116D01*
X79339501Y-75277123D01*
X79339500Y-75277135D01*
X79339500Y-75450500D01*
X79319815Y-75517539D01*
X79267011Y-75563294D01*
X79215500Y-75574500D01*
X77414188Y-75574500D01*
X77347149Y-75554815D01*
X77312613Y-75521623D01*
X77200045Y-75360858D01*
X77039141Y-75199954D01*
X76852734Y-75069432D01*
X76852732Y-75069431D01*
X76646497Y-74973261D01*
X76646488Y-74973258D01*
X76426697Y-74914366D01*
X76426693Y-74914365D01*
X76426692Y-74914365D01*
X76426691Y-74914364D01*
X76426686Y-74914364D01*
X76200002Y-74894532D01*
X76199998Y-74894532D01*
X75973313Y-74914364D01*
X75973302Y-74914366D01*
X75753511Y-74973258D01*
X75753502Y-74973261D01*
X75547267Y-75069431D01*
X75547265Y-75069432D01*
X75360858Y-75199954D01*
X75199954Y-75360858D01*
X75087387Y-75521623D01*
X75032811Y-75565248D01*
X74985812Y-75574500D01*
X73604188Y-75574500D01*
X73537149Y-75554815D01*
X73502613Y-75521623D01*
X73390045Y-75360858D01*
X73229141Y-75199954D01*
X73042734Y-75069432D01*
X73042732Y-75069431D01*
X72836497Y-74973261D01*
X72836488Y-74973258D01*
X72616697Y-74914366D01*
X72616693Y-74914365D01*
X72616692Y-74914365D01*
X72616691Y-74914364D01*
X72616686Y-74914364D01*
X72390002Y-74894532D01*
X72389998Y-74894532D01*
X72163313Y-74914364D01*
X72163302Y-74914366D01*
X71943511Y-74973258D01*
X71943502Y-74973261D01*
X71737267Y-75069431D01*
X71737265Y-75069432D01*
X71550858Y-75199954D01*
X71389954Y-75360858D01*
X71277387Y-75521623D01*
X71222811Y-75565248D01*
X71175812Y-75574500D01*
X68642791Y-75574500D01*
X68575752Y-75554815D01*
X68529997Y-75502011D01*
X68526609Y-75493833D01*
X68503797Y-75432671D01*
X68503793Y-75432664D01*
X68417547Y-75317455D01*
X68417544Y-75317452D01*
X68302335Y-75231206D01*
X68302328Y-75231202D01*
X68167482Y-75180908D01*
X68167483Y-75180908D01*
X68107883Y-75174501D01*
X68107881Y-75174500D01*
X68107873Y-75174500D01*
X68107864Y-75174500D01*
X66512129Y-75174500D01*
X66512123Y-75174501D01*
X66452516Y-75180908D01*
X66317671Y-75231202D01*
X66317664Y-75231206D01*
X66202455Y-75317452D01*
X66202452Y-75317455D01*
X66116206Y-75432664D01*
X66116202Y-75432671D01*
X66065908Y-75567517D01*
X66059501Y-75627116D01*
X66059500Y-75627127D01*
X66059500Y-76191050D01*
X66059501Y-76720500D01*
X66039816Y-76787539D01*
X65987013Y-76833294D01*
X65935501Y-76844500D01*
X65080453Y-76844500D01*
X65013414Y-76824815D01*
X64992772Y-76808181D01*
X58920803Y-70736212D01*
X58910980Y-70723950D01*
X58910759Y-70724134D01*
X58905786Y-70718123D01*
X58855364Y-70670773D01*
X58844919Y-70660328D01*
X58834475Y-70649883D01*
X58828986Y-70645625D01*
X58824561Y-70641847D01*
X58790582Y-70609938D01*
X58790580Y-70609936D01*
X58790577Y-70609935D01*
X58773029Y-70600288D01*
X58756763Y-70589604D01*
X58740933Y-70577325D01*
X58698168Y-70558818D01*
X58692922Y-70556248D01*
X58652093Y-70533803D01*
X58652092Y-70533802D01*
X58632693Y-70528822D01*
X58614281Y-70522518D01*
X58595898Y-70514562D01*
X58595892Y-70514560D01*
X58549874Y-70507272D01*
X58544152Y-70506087D01*
X58499021Y-70494500D01*
X58499019Y-70494500D01*
X58478984Y-70494500D01*
X58459586Y-70492973D01*
X58452162Y-70491797D01*
X58439805Y-70489840D01*
X58439804Y-70489840D01*
X58393416Y-70494225D01*
X58387578Y-70494500D01*
X44760453Y-70494500D01*
X44693414Y-70474815D01*
X44672772Y-70458181D01*
X42571819Y-68357228D01*
X42538334Y-68295905D01*
X42535500Y-68269547D01*
X42535500Y-49840452D01*
X42555185Y-49773413D01*
X42571819Y-49752771D01*
X42655172Y-49669418D01*
X42765179Y-49559410D01*
X42826500Y-49525927D01*
X42884947Y-49527317D01*
X42953308Y-49545635D01*
X43110780Y-49559412D01*
X43179998Y-49565468D01*
X43180000Y-49565468D01*
X43180002Y-49565468D01*
X43249220Y-49559412D01*
X43406692Y-49545635D01*
X43626496Y-49486739D01*
X43832734Y-49390568D01*
X44019139Y-49260047D01*
X44180047Y-49099139D01*
X44292612Y-48938377D01*
X44347189Y-48894752D01*
X44394188Y-48885500D01*
X45597257Y-48885500D01*
X45612877Y-48887224D01*
X45612904Y-48886939D01*
X45620660Y-48887671D01*
X45620667Y-48887673D01*
X45689814Y-48885500D01*
X45719350Y-48885500D01*
X45726228Y-48884630D01*
X45732041Y-48884172D01*
X45778627Y-48882709D01*
X45797869Y-48877117D01*
X45816912Y-48873174D01*
X45836792Y-48870664D01*
X45880122Y-48853507D01*
X45885646Y-48851617D01*
X45889396Y-48850527D01*
X45930390Y-48838618D01*
X45947629Y-48828422D01*
X45965103Y-48819862D01*
X45983727Y-48812488D01*
X45983727Y-48812487D01*
X45983732Y-48812486D01*
X46021449Y-48785082D01*
X46026305Y-48781892D01*
X46066420Y-48758170D01*
X46080589Y-48743999D01*
X46095379Y-48731368D01*
X46111587Y-48719594D01*
X46141299Y-48683676D01*
X46145212Y-48679376D01*
X47845179Y-46979410D01*
X47906500Y-46945927D01*
X47964947Y-46947317D01*
G37*
%TD.AperFunction*%
%TA.AperFunction,Conductor*%
G36*
X71912064Y-63726894D02*
G01*
X71967998Y-63768765D01*
X71973039Y-63776025D01*
X71973048Y-63776039D01*
X72008239Y-63830798D01*
X72123602Y-63930759D01*
X72121293Y-63933422D01*
X72156006Y-63973499D01*
X72165935Y-64042660D01*
X72136898Y-64106210D01*
X72130882Y-64112669D01*
X71628625Y-64614925D01*
X71704594Y-64668119D01*
X71748219Y-64722696D01*
X71755413Y-64792194D01*
X71723890Y-64854549D01*
X71704595Y-64871269D01*
X71518594Y-65001508D01*
X71351505Y-65168597D01*
X71221575Y-65354158D01*
X71166998Y-65397783D01*
X71097500Y-65404977D01*
X71035145Y-65373454D01*
X71018425Y-65354158D01*
X70888494Y-65168597D01*
X70721402Y-65001506D01*
X70721396Y-65001501D01*
X70535842Y-64871575D01*
X70492217Y-64816998D01*
X70485023Y-64747500D01*
X70516546Y-64685145D01*
X70535842Y-64668425D01*
X70612248Y-64614925D01*
X70721401Y-64538495D01*
X70888495Y-64371401D01*
X71018732Y-64185403D01*
X71073307Y-64141780D01*
X71142805Y-64134586D01*
X71205160Y-64166109D01*
X71221880Y-64185405D01*
X71275073Y-64261373D01*
X71781050Y-63755395D01*
X71842373Y-63721910D01*
X71912064Y-63726894D01*
G37*
%TD.AperFunction*%
%TA.AperFunction,Conductor*%
G36*
X64908332Y-53281341D02*
G01*
X64942517Y-53294091D01*
X64942516Y-53294091D01*
X64949444Y-53294835D01*
X65002127Y-53300500D01*
X65997872Y-53300499D01*
X66057483Y-53294091D01*
X66091667Y-53281340D01*
X66161358Y-53276357D01*
X66178327Y-53281338D01*
X66212517Y-53294091D01*
X66272127Y-53300500D01*
X67267872Y-53300499D01*
X67267875Y-53300498D01*
X67267885Y-53300498D01*
X67277243Y-53299492D01*
X67346003Y-53311896D01*
X67397141Y-53359506D01*
X67414500Y-53422781D01*
X67414500Y-57629170D01*
X67394815Y-57696209D01*
X67363387Y-57729487D01*
X67339128Y-57747112D01*
X67339123Y-57747116D01*
X67212466Y-57887785D01*
X67117821Y-58051715D01*
X67117818Y-58051722D01*
X67067318Y-58207146D01*
X67059326Y-58231744D01*
X67039540Y-58420000D01*
X67059326Y-58608256D01*
X67059327Y-58608259D01*
X67117818Y-58788277D01*
X67117821Y-58788284D01*
X67212467Y-58952216D01*
X67339129Y-59092888D01*
X67492265Y-59204148D01*
X67492270Y-59204151D01*
X67665192Y-59281142D01*
X67665197Y-59281144D01*
X67850354Y-59320500D01*
X67850355Y-59320500D01*
X67869223Y-59320500D01*
X67936262Y-59340185D01*
X67982017Y-59392989D01*
X67991961Y-59462147D01*
X67989328Y-59475335D01*
X67988823Y-59477302D01*
X67982521Y-59495710D01*
X67974562Y-59514102D01*
X67974561Y-59514105D01*
X67967271Y-59560127D01*
X67966087Y-59565846D01*
X67954501Y-59610972D01*
X67954500Y-59610982D01*
X67954500Y-59631016D01*
X67952973Y-59650415D01*
X67949840Y-59670194D01*
X67949840Y-59670195D01*
X67954225Y-59716583D01*
X67954500Y-59722421D01*
X67954500Y-62115781D01*
X67934815Y-62182820D01*
X67882011Y-62228575D01*
X67812853Y-62238519D01*
X67778104Y-62228167D01*
X67773671Y-62226100D01*
X67773655Y-62226094D01*
X67545413Y-62164938D01*
X67545403Y-62164936D01*
X67310001Y-62144341D01*
X67309999Y-62144341D01*
X67074596Y-62164936D01*
X67074586Y-62164938D01*
X66846344Y-62226094D01*
X66846335Y-62226098D01*
X66632171Y-62325964D01*
X66632169Y-62325965D01*
X66438597Y-62461505D01*
X66271508Y-62628594D01*
X66141574Y-62814159D01*
X66086997Y-62857784D01*
X66017498Y-62864976D01*
X65955144Y-62833454D01*
X65938424Y-62814158D01*
X65808494Y-62628597D01*
X65641402Y-62461506D01*
X65641395Y-62461501D01*
X65447834Y-62325967D01*
X65447830Y-62325965D01*
X65395500Y-62301563D01*
X65233663Y-62226097D01*
X65233659Y-62226096D01*
X65233655Y-62226094D01*
X65005413Y-62164938D01*
X65005403Y-62164936D01*
X64770001Y-62144341D01*
X64769999Y-62144341D01*
X64534596Y-62164936D01*
X64534586Y-62164938D01*
X64306344Y-62226094D01*
X64306335Y-62226098D01*
X64092171Y-62325964D01*
X64092169Y-62325965D01*
X63898597Y-62461505D01*
X63731505Y-62628597D01*
X63601575Y-62814158D01*
X63546998Y-62857783D01*
X63477500Y-62864977D01*
X63415145Y-62833454D01*
X63398425Y-62814158D01*
X63268494Y-62628597D01*
X63101402Y-62461506D01*
X63101395Y-62461501D01*
X62907834Y-62325967D01*
X62907830Y-62325965D01*
X62855500Y-62301563D01*
X62693663Y-62226097D01*
X62693659Y-62226096D01*
X62693655Y-62226094D01*
X62465413Y-62164938D01*
X62465403Y-62164936D01*
X62230001Y-62144341D01*
X62229999Y-62144341D01*
X61994596Y-62164936D01*
X61994586Y-62164938D01*
X61766344Y-62226094D01*
X61766335Y-62226098D01*
X61666905Y-62272463D01*
X61597827Y-62282955D01*
X61534043Y-62254435D01*
X61495804Y-62195959D01*
X61490500Y-62160081D01*
X61490500Y-54847737D01*
X61492224Y-54832123D01*
X61491938Y-54832096D01*
X61492672Y-54824333D01*
X61490500Y-54755203D01*
X61490500Y-54725651D01*
X61490500Y-54725650D01*
X61489629Y-54718759D01*
X61489172Y-54712945D01*
X61489036Y-54708627D01*
X61487709Y-54666373D01*
X61485604Y-54659130D01*
X61482122Y-54647144D01*
X61478174Y-54628084D01*
X61475664Y-54608208D01*
X61458507Y-54564875D01*
X61456619Y-54559359D01*
X61443619Y-54514612D01*
X61433418Y-54497363D01*
X61424860Y-54479894D01*
X61417486Y-54461268D01*
X61417483Y-54461264D01*
X61417483Y-54461263D01*
X61390098Y-54423571D01*
X61386890Y-54418687D01*
X61363172Y-54378582D01*
X61363163Y-54378571D01*
X61349005Y-54364413D01*
X61336370Y-54349620D01*
X61324593Y-54333412D01*
X61288693Y-54303713D01*
X61284381Y-54299790D01*
X60496770Y-53512179D01*
X60463286Y-53450857D01*
X60468270Y-53381165D01*
X60510142Y-53325232D01*
X60575606Y-53300815D01*
X60584452Y-53300499D01*
X60917871Y-53300499D01*
X60917872Y-53300499D01*
X60977483Y-53294091D01*
X61011667Y-53281340D01*
X61081358Y-53276357D01*
X61098327Y-53281338D01*
X61132517Y-53294091D01*
X61192127Y-53300500D01*
X62187872Y-53300499D01*
X62247483Y-53294091D01*
X62281667Y-53281340D01*
X62351358Y-53276357D01*
X62368327Y-53281338D01*
X62402517Y-53294091D01*
X62462127Y-53300500D01*
X63457872Y-53300499D01*
X63517483Y-53294091D01*
X63551667Y-53281340D01*
X63621358Y-53276357D01*
X63638327Y-53281338D01*
X63672517Y-53294091D01*
X63732127Y-53300500D01*
X64727872Y-53300499D01*
X64787483Y-53294091D01*
X64821664Y-53281341D01*
X64891356Y-53276356D01*
X64908332Y-53281341D01*
G37*
%TD.AperFunction*%
%TD*%
M02*
