%TF.GenerationSoftware,KiCad,Pcbnew,7.0.7*%
%TF.CreationDate,2024-10-11T15:58:01+09:00*%
%TF.ProjectId,ESP32-hub75,45535033-322d-4687-9562-37352e6b6963,rev?*%
%TF.SameCoordinates,Original*%
%TF.FileFunction,Soldermask,Bot*%
%TF.FilePolarity,Negative*%
%FSLAX46Y46*%
G04 Gerber Fmt 4.6, Leading zero omitted, Abs format (unit mm)*
G04 Created by KiCad (PCBNEW 7.0.7) date 2024-10-11 15:58:01*
%MOMM*%
%LPD*%
G01*
G04 APERTURE LIST*
G04 Aperture macros list*
%AMRoundRect*
0 Rectangle with rounded corners*
0 $1 Rounding radius*
0 $2 $3 $4 $5 $6 $7 $8 $9 X,Y pos of 4 corners*
0 Add a 4 corners polygon primitive as box body*
4,1,4,$2,$3,$4,$5,$6,$7,$8,$9,$2,$3,0*
0 Add four circle primitives for the rounded corners*
1,1,$1+$1,$2,$3*
1,1,$1+$1,$4,$5*
1,1,$1+$1,$6,$7*
1,1,$1+$1,$8,$9*
0 Add four rect primitives between the rounded corners*
20,1,$1+$1,$2,$3,$4,$5,0*
20,1,$1+$1,$4,$5,$6,$7,0*
20,1,$1+$1,$6,$7,$8,$9,0*
20,1,$1+$1,$8,$9,$2,$3,0*%
G04 Aperture macros list end*
%ADD10C,1.600000*%
%ADD11O,1.600000X1.600000*%
%ADD12C,2.000000*%
%ADD13R,2.000000X2.000000*%
%ADD14O,1.000000X1.500000*%
%ADD15R,1.800000X1.800000*%
%ADD16C,1.800000*%
%ADD17RoundRect,0.250000X0.600000X-0.600000X0.600000X0.600000X-0.600000X0.600000X-0.600000X-0.600000X0*%
%ADD18C,1.700000*%
%ADD19R,1.700000X1.700000*%
%ADD20O,1.700000X1.700000*%
%ADD21R,1.500000X1.050000*%
%ADD22O,1.500000X1.050000*%
%ADD23R,1.050000X1.500000*%
%ADD24O,1.050000X1.500000*%
G04 APERTURE END LIST*
D10*
%TO.C,R2*%
X67310000Y-82550000D03*
D11*
X67310000Y-85090000D03*
%TD*%
D12*
%TO.C,REF\u002A\u002A*%
X38735000Y-109220000D03*
%TD*%
%TO.C,SW1*%
X52070000Y-107950000D03*
X45570000Y-107950000D03*
X52070000Y-103450000D03*
X45570000Y-103450000D03*
%TD*%
D13*
%TO.C,SW2*%
X72390000Y-106680000D03*
D12*
X74930000Y-106680000D03*
X77470000Y-106680000D03*
%TD*%
D10*
%TO.C,C4*%
X39410000Y-86360000D03*
X44410000Y-86360000D03*
%TD*%
%TO.C,C2*%
X43220000Y-36830000D03*
X48220000Y-36830000D03*
%TD*%
D14*
%TO.C,J1*%
X59950000Y-109220000D03*
X67050000Y-109220000D03*
%TD*%
D10*
%TO.C,R6*%
X83820000Y-106680000D03*
D11*
X81280000Y-106680000D03*
%TD*%
D10*
%TO.C,C3*%
X39410000Y-77470000D03*
X44410000Y-77470000D03*
%TD*%
%TO.C,C5*%
X39410000Y-95250000D03*
X44410000Y-95250000D03*
%TD*%
D12*
%TO.C,REF\u002A\u002A*%
X88265000Y-109220000D03*
%TD*%
D15*
%TO.C,D1*%
X60960000Y-80010000D03*
D16*
X63500000Y-80010000D03*
%TD*%
D12*
%TO.C,SW5*%
X56590000Y-95940000D03*
X50090000Y-95940000D03*
X56590000Y-91440000D03*
X50090000Y-91440000D03*
%TD*%
D17*
%TO.C,J3*%
X54610000Y-66040000D03*
D18*
X54610000Y-63500000D03*
X57150000Y-66040000D03*
X57150000Y-63500000D03*
X59690000Y-66040000D03*
X59690000Y-63500000D03*
X62230000Y-66040000D03*
X62230000Y-63500000D03*
X64770000Y-66040000D03*
X64770000Y-63500000D03*
X67310000Y-66040000D03*
X67310000Y-63500000D03*
X69850000Y-66040000D03*
X69850000Y-63500000D03*
X72390000Y-66040000D03*
X72390000Y-63500000D03*
%TD*%
D10*
%TO.C,R7*%
X39370000Y-73660000D03*
D11*
X46990000Y-73660000D03*
%TD*%
D10*
%TO.C,R5*%
X76200000Y-76200000D03*
D11*
X76200000Y-86360000D03*
%TD*%
D19*
%TO.C,J2*%
X80690000Y-76175000D03*
D20*
X80690000Y-78715000D03*
X80690000Y-81255000D03*
X80690000Y-83795000D03*
X80690000Y-86335000D03*
X80690000Y-88875000D03*
%TD*%
D12*
%TO.C,SW3*%
X56590000Y-78105000D03*
X50090000Y-78105000D03*
X56590000Y-73605000D03*
X50090000Y-73605000D03*
%TD*%
D10*
%TO.C,R1*%
X43180000Y-40640000D03*
D11*
X43180000Y-48260000D03*
%TD*%
D10*
%TO.C,C1*%
X48260000Y-40680000D03*
X48260000Y-45680000D03*
%TD*%
%TO.C,R4*%
X72390000Y-95250000D03*
D11*
X80010000Y-95250000D03*
%TD*%
D12*
%TO.C,REF\u002A\u002A*%
X38735000Y-27940000D03*
%TD*%
D10*
%TO.C,R8*%
X39370000Y-82550000D03*
D11*
X46990000Y-82550000D03*
%TD*%
D10*
%TO.C,R10*%
X60960000Y-85090000D03*
D11*
X63500000Y-85090000D03*
%TD*%
D12*
%TO.C,REF\u002A\u002A*%
X88265000Y-27940000D03*
%TD*%
D10*
%TO.C,R9*%
X39370000Y-91440000D03*
D11*
X46990000Y-91440000D03*
%TD*%
D21*
%TO.C,Q1*%
X67310000Y-76200000D03*
D22*
X67310000Y-77470000D03*
X67310000Y-78740000D03*
%TD*%
D12*
%TO.C,SW4*%
X56590000Y-87050000D03*
X50090000Y-87050000D03*
X56590000Y-82550000D03*
X50090000Y-82550000D03*
%TD*%
D23*
%TO.C,Q2*%
X80010000Y-100330000D03*
D24*
X81280000Y-100330000D03*
X82550000Y-100330000D03*
%TD*%
D10*
%TO.C,R3*%
X72390000Y-91440000D03*
D11*
X72390000Y-76200000D03*
%TD*%
M02*
